<svg width="76" height="35" viewBox="0 0 76 35" fill="none" xmlns="http://www.w3.org/2000/svg">
<g clip-path="url(#clip0)">
<mask id="mask0" style="mask-type:alpha" maskUnits="userSpaceOnUse" x="0" y="14" width="9" height="11">
<path d="M0.189697 14.396H8.96673V24.7517H0.189697V14.396Z" fill="white"/>
</mask>
<g mask="url(#mask0)">
<path fill-rule="evenodd" clip-rule="evenodd" d="M3.87615 15.9176C3.49628 15.9176 3.33509 16.2387 3.33509 16.6708C3.33509 17.0616 3.4159 17.355 3.76114 17.941C4.18677 17.55 4.38259 17.1313 4.38259 16.7546C4.38259 16.2524 4.23294 15.9176 3.87615 15.9176V15.9176ZM3.03833 20.4299C2.67776 20.6839 2.21393 20.9903 2.15936 21.6783C2.0985 22.4469 2.59381 22.964 3.37497 22.9837C3.61633 22.99 4.09023 22.866 4.49739 22.5463C3.93912 21.8483 3.50782 21.2021 3.03833 20.4302V20.4299ZM7.62686 24.7095C6.85619 24.7095 6.30401 24.5425 5.64814 23.9282C4.94611 24.4864 4.19832 24.7517 3.38148 24.7517C1.56185 24.7517 0.303846 23.7011 0.194711 21.7457C0.139093 20.7466 0.528624 19.9176 2.10417 18.9039C1.65524 18.0804 1.49427 17.5225 1.49427 16.8385C1.49427 15.3169 2.41478 14.396 3.9452 14.396C5.33731 14.396 6.10819 15.3589 6.10819 16.7269C6.10819 17.7175 5.60197 18.4294 4.64682 19.0991C5.09596 19.769 5.48696 20.3277 5.83199 20.7882C6.1657 20.1323 6.61126 19.3995 6.96743 18.4909L8.51505 19.225C8.07494 20.6096 7.48876 21.5652 6.99429 22.3512C7.29336 22.6441 7.5003 22.7214 7.7998 22.7281C8.38703 22.7415 8.54339 22.6897 8.96671 22.5111V24.5032C8.45398 24.6739 7.94944 24.7097 7.62686 24.7097" fill="#828D93"/>
</g>
<path fill-rule="evenodd" clip-rule="evenodd" d="M3.7005 13.5385V0.168945H11.7915V3.34438H7.04152V5.44986H10.1538V8.34678H7.04152V10.4565H11.7917V13.5387L3.7005 13.5385ZM22.2473 13.5385V6.96517C22.2473 6.29692 22.0345 5.96217 21.5102 5.96217C21.2646 5.96217 21.0353 6.03667 20.7895 6.18506V13.5385H17.4483V6.96517C17.4483 6.29692 17.2352 5.96217 16.711 5.96217C16.4654 5.96217 16.2358 6.03667 15.9905 6.18506V13.5385H12.649V3.34438H15.0238L15.9905 5.33128H16.0561C17.0717 3.90139 17.7593 3.28876 18.8074 3.28876C19.8723 3.28876 20.5601 3.9759 20.7404 5.33128H20.855C21.8706 3.90139 22.5585 3.28876 23.6069 3.28876C24.8514 3.28876 25.5887 4.19878 25.5887 6.09271V13.5387H22.2473V13.5385ZM50.5647 12.8593L49.4905 10.6277C48.7108 11.0343 47.9513 11.2899 47.2469 11.2899C46.3506 11.2899 45.3811 10.9016 45.2661 9.61318H50.359V8.20911C50.359 5.0895 48.9178 3.28876 46.4444 3.28876C44.0692 3.28876 42.5302 5.0895 42.5302 8.20932V8.74765C42.5302 11.8675 44.0239 13.5314 46.6903 13.6684C47.9756 13.7347 49.1721 13.5649 50.5647 12.8593V12.8593ZM47.4266 7.79985H45.2737C45.2737 6.38675 45.5331 5.35269 46.3545 5.35269C46.9443 5.35269 47.4104 5.86961 47.4266 7.79985ZM67.8132 25.546V24.9518C67.8132 21.8322 66.2855 20.0308 63.641 20.0308C60.9962 20.0308 59.4687 21.8322 59.4687 24.9518V25.5457C59.4687 28.6654 60.9962 30.4667 63.641 30.4667C66.2855 30.4667 67.8134 28.6654 67.8134 25.546H67.8132ZM64.6325 25.5642C64.6325 27.6626 64.3607 28.2385 63.641 28.2385C62.922 28.2385 62.6496 27.6626 62.6496 25.5642V24.9329C62.6496 22.8346 62.922 22.2591 63.641 22.2591C64.3607 22.2591 64.6325 22.8346 64.6325 24.9329V25.5642V25.5642ZM50.8965 30.4667C48.383 30.4667 46.8392 28.6651 46.8392 25.5457V24.9518C46.8392 21.8322 48.3996 20.0306 50.9949 20.0306C53.2125 20.0306 54.494 21.2191 54.7895 23.7074L51.7673 24.3203C51.7016 22.9645 51.5372 22.4446 50.9624 22.4446C50.3873 22.4446 50.0045 23.0205 50.0045 25.1189V25.3785C50.0045 27.4768 50.4201 28.0527 50.9951 28.0527C51.4548 28.0527 51.7016 27.6995 51.8493 26.3628L54.8061 26.9756C54.4119 29.427 53.0649 30.4667 50.8965 30.4667" fill="#828D93"/>
<mask id="mask1" style="mask-type:alpha" maskUnits="userSpaceOnUse" x="0" y="0" width="76" height="35">
<path d="M0.189697 34.1277H75.718V0.130859H0.189697V34.1277Z" fill="white"/>
</mask>
<g mask="url(#mask1)">
<path fill-rule="evenodd" clip-rule="evenodd" d="M55.3757 30.2806H58.727V20.0294H55.3757V30.2806ZM66.9499 10.7323V6.74046C66.9499 4.30799 65.9505 3.34256 63.5267 3.34256C62.1182 3.34256 60.8602 3.85046 59.4679 4.6673L60.47 6.72682C61.6821 6.02142 62.3637 5.84932 62.9533 5.84932C63.5592 5.84932 63.8868 6.22038 63.8868 6.7965V7.55772C60.5621 7.79908 59.1205 8.89463 59.1205 10.9369C59.1205 12.6642 60.1852 13.6112 61.4627 13.6112C62.4292 13.6112 63.1004 13.3889 63.8868 12.4978L64.3819 13.5155H67.7928C67.7928 13.5155 66.9499 12.3137 66.9499 10.7323ZM63.8868 11.2528C63.5921 11.4199 63.3627 11.4757 63.0353 11.4757C62.4456 11.4757 62.1182 11.1042 62.1182 10.4546C62.1182 9.61891 62.4947 9.07995 63.8868 8.83859V11.2526V11.2528ZM72.5805 7.22989C72.1121 7.06766 71.5299 6.93984 71.1469 6.6074C70.8285 6.33078 70.8858 5.9742 71.0681 5.78363C71.431 5.40417 72.0789 5.58089 72.6727 5.77356C73.3014 5.97756 73.8335 6.37024 74.3055 6.81811C74.6449 6.08417 75.0226 5.39515 75.3561 4.65848C74.6814 3.99401 73.81 3.49808 72.8737 3.34969C71.8012 3.18011 70.5844 3.24392 69.6439 3.83745C68.0178 4.86458 67.5926 7.72142 69.2244 8.94542C69.7646 9.35069 70.0251 9.55259 71.052 9.77233C71.5603 9.88105 72.7067 9.97591 72.6196 10.6895C72.5631 11.146 71.8275 11.2834 71.0663 11.2415C70.3892 11.2041 69.7279 10.9155 69.128 10.5279C68.765 11.3181 68.3544 12.0776 67.9899 12.8674C68.8447 13.3637 69.8922 13.6114 70.8633 13.7268C71.8886 13.8486 72.9871 13.7764 73.925 13.3088C74.669 12.9383 75.2499 12.3106 75.5196 11.5172C75.7916 10.7187 75.8206 9.7312 75.3702 8.99264C74.783 8.0291 73.5904 7.57996 72.5805 7.22968V7.22989ZM72.5805 24.0234C72.1121 23.8607 71.5299 23.7333 71.1469 23.4007C70.8285 23.124 70.8858 22.7677 71.0681 22.5767C71.431 22.1974 72.0789 22.3744 72.6727 22.5668C73.3014 22.771 73.8335 23.1635 74.3055 23.6116C74.6449 22.8777 75.0226 22.1882 75.3561 21.4518C74.6814 20.7871 73.81 20.2913 72.8737 20.143C71.8012 19.9734 70.5844 20.0372 69.6439 20.6309C68.0178 21.6579 67.5926 24.5149 69.2244 25.7387C69.7646 26.1442 70.0251 26.3461 71.052 26.5656C71.5603 26.6743 72.7067 26.7694 72.6196 27.4826C72.5631 27.9392 71.8275 28.0765 71.0663 28.0345C70.3892 27.9976 69.7279 27.709 69.128 27.3209C68.765 28.1116 68.3544 28.8709 67.9899 29.6607C68.8447 30.157 69.8922 30.4047 70.8633 30.5201C71.8886 30.6418 72.9871 30.5696 73.925 30.102C74.669 29.7318 75.2499 29.1041 75.5196 28.3107C75.7916 27.5121 75.8206 26.5245 75.3702 25.7859C74.783 24.8222 73.5904 24.3734 72.5805 24.0234ZM55.6477 7.22989C55.1792 7.06766 54.5968 6.93984 54.214 6.6074C53.8956 6.33078 53.9529 5.9742 54.1353 5.78363C54.498 5.40417 55.1461 5.58089 55.7398 5.77356C56.3686 5.97756 56.9004 6.37024 57.3727 6.81811C57.7118 6.08417 58.0896 5.39515 58.4231 4.65848C57.7485 3.99401 56.8771 3.49808 55.9407 3.34969C54.8684 3.18011 53.6515 3.24392 52.7111 3.83745C51.0848 4.86458 50.6598 7.72142 52.2913 8.94542C52.8316 9.35069 53.0922 9.55259 54.1192 9.77233C54.6275 9.88105 55.7738 9.97591 55.6865 10.6895C55.6303 11.146 54.8946 11.2834 54.1332 11.2415C53.4564 11.2041 52.7948 10.9155 52.1952 10.5279C51.8319 11.3181 51.4214 12.0776 51.0568 12.8674C51.9117 13.3637 52.9592 13.6114 53.9305 13.7268C54.9557 13.8486 56.054 13.7764 56.9919 13.3088C57.736 12.9383 58.3169 12.3106 58.5868 11.5172C58.8588 10.7187 58.8875 9.7312 58.4371 8.99264C57.8499 8.0291 56.6576 7.57996 55.6477 7.22968V7.22989ZM16.4016 30.2806L13.2312 23.4288H13.1655V30.2806H9.82428V16.9107H13.248L16.0897 23.0947H16.1552V16.9107H19.4967V30.2804L16.4016 30.2806ZM28.2731 29.6243L27.1995 27.3931C26.4194 27.7995 25.6601 28.0549 24.956 28.0549C24.0589 28.0549 23.0895 27.667 22.9751 26.3784H28.068V24.9745C28.068 21.8547 26.6262 20.054 24.1534 20.054C21.7782 20.054 20.2386 21.8547 20.2386 24.9745V25.5129C20.2386 28.6325 21.7325 30.2968 24.3987 30.4338C25.6847 30.4997 26.8812 30.3304 28.2731 29.6243ZM25.1358 24.5651H22.9825C22.9825 23.152 23.2421 22.1179 24.0634 22.1179C24.6533 22.1179 25.1192 22.6348 25.1358 24.5651ZM30.7011 11.0341C30.0883 11.0341 29.7821 10.763 29.7821 10.763V6.03087C29.7821 6.03087 30.0881 5.76012 30.7011 5.76012C31.4642 5.76012 31.9713 6.83784 31.9736 8.3968C31.9715 9.95619 31.4642 11.0339 30.7011 11.0339V11.0341ZM32.2878 3.28862C31.209 3.28862 30.4791 3.59063 29.7821 4.79763L28.7789 3.34403H26.4912V16.158H29.7821V12.137C30.4128 13.3438 31.1429 13.4645 32.288 13.4645C33.881 13.4645 35.0095 11.7372 35.0095 8.58066V8.15314C35.0095 4.99659 33.9641 3.28862 32.288 3.28862H32.2878ZM50.5645 12.8592L49.4903 10.6276C48.7106 11.0341 47.9511 11.2897 47.2467 11.2897C46.3504 11.2897 45.3809 10.9015 45.2659 9.61304H50.3588V8.20896C50.3588 5.08936 48.9176 3.28862 46.4442 3.28862C44.069 3.28862 42.53 5.08936 42.53 8.20917V8.74751C42.53 11.8673 44.0237 13.5312 46.6901 13.6683C47.9754 13.7346 49.1719 13.5648 50.5645 12.8592V12.8592ZM47.4264 7.79971H45.2735C45.2735 6.38661 45.5329 5.35254 46.3543 5.35254C46.9441 5.35254 47.4102 5.86947 47.4264 7.79971Z" fill="#828D93"/>
<path fill-rule="evenodd" clip-rule="evenodd" d="M50.5648 12.8592L49.4906 10.6275C48.7109 11.0341 47.9514 11.2897 47.2471 11.2897C46.3507 11.2897 45.3813 10.9014 45.2662 9.61299H50.3591V8.20892C50.3591 5.08931 48.9179 3.28857 46.4445 3.28857C44.0693 3.28857 42.5303 5.08932 42.5303 8.20913V8.74746C42.5303 11.8673 44.024 13.5312 46.6905 13.6682C47.9757 13.7345 49.1723 13.5648 50.5648 12.8592V12.8592ZM47.4267 7.79966H45.2738C45.2738 6.38656 45.5332 5.3525 46.3547 5.3525C46.9444 5.3525 47.4105 5.86943 47.4267 7.79966ZM39.1324 7.80302V6.03103C39.1324 6.03103 39.5601 5.75987 40.3587 5.75987C40.8771 5.75987 41.4427 6.05475 41.8673 6.55572C42.0898 5.45114 42.5143 4.54699 43.1133 3.87623C42.7057 3.4909 42.2109 3.28857 41.641 3.28857C40.5623 3.28857 39.8321 3.86573 39.1351 5.07252L38.1321 3.34377H35.8445V13.5385H39.1324V7.80302ZM43.0054 25.5638C43.0054 27.6624 42.7334 28.2383 42.0138 28.2383C41.295 28.2383 41.0225 27.6624 41.0225 25.564V24.9327C41.0225 22.8344 41.295 22.2589 42.0138 22.2589C42.7334 22.2589 43.0054 22.8344 43.0054 24.9327V25.564V25.5638ZM42.0138 20.0306C39.3693 20.0306 37.8414 21.832 37.8414 24.9516V25.5456C37.8414 28.6652 39.3693 30.4665 42.0138 30.4665C44.6586 30.4665 46.1861 28.6652 46.1861 25.5458V24.9516C46.1861 21.832 44.6586 20.0306 42.0138 20.0306V20.0306ZM33.0292 27.7744C32.2661 27.7744 31.759 26.6965 31.7567 25.1374C31.7588 23.5784 32.2661 22.5005 33.0292 22.5005C33.6422 22.5005 33.9484 22.7714 33.9484 22.7714V27.5033C33.9484 27.5033 33.6422 27.7744 33.0292 27.7744ZM34.9512 20.0294L33.9482 21.8133C33.2514 20.6065 32.5211 20.0294 31.4423 20.0294C29.7662 20.0294 28.7208 21.7371 28.7208 24.8937V25.3212C28.7208 28.4777 29.8493 30.205 31.4423 30.205C32.5874 30.205 33.3175 30.0846 33.9482 28.878V29.3145C33.939 30.3922 33.5505 31.1688 32.6436 31.352C31.9384 31.4947 30.9189 31.2979 30.1054 30.8634L28.9095 33.2392C30.0428 33.9562 31.5269 34.1278 32.1219 34.1278C35.0652 34.1278 37.2389 32.6094 37.2389 28.7002V20.0294H34.9512ZM55.376 19.2312H58.7172V16.9106H55.376V19.2312ZM42.1208 19.1492C42.5339 19.1485 42.9458 19.1931 43.3492 19.282L44.3239 16.9108H41.2108L40.9873 19.2591C41.3605 19.1851 41.7401 19.1483 42.1206 19.1492" fill="#828D93"/>
<path fill-rule="evenodd" clip-rule="evenodd" d="M20.3518 18.0973C20.3518 17.2521 20.9247 16.8701 21.5978 16.8701C22.0614 16.8701 22.3527 17.0643 22.5276 17.2832L22.0362 17.7218C21.9487 17.6278 21.8201 17.5025 21.5762 17.5025C21.2817 17.5025 21.0532 17.7153 21.0532 18.0693C21.0532 18.4326 21.2284 18.6738 21.5791 18.6738C21.883 18.6738 21.9987 18.5453 22.027 18.4482H21.5447V17.9344H22.6531V19.2027L22.265 19.2623L22.1366 18.8583C22.0457 19.0493 21.8108 19.2654 21.3726 19.2654C20.8339 19.2654 20.3518 18.8238 20.3518 18.0973V18.0973ZM23.6819 18.0536H24.0483C24.2362 18.0536 24.3862 17.994 24.3862 17.7812C24.3862 17.5589 24.2425 17.4995 24.0483 17.4995H23.6819V18.0536ZM25.0629 19.231H24.3365L24.0297 18.6047H23.6819V19.231H23.0055V16.9108H24.2299C24.8154 16.9108 25.0847 17.2991 25.0847 17.7562C25.0847 18.0381 24.9752 18.3355 24.6872 18.492L25.0629 19.231V19.231ZM27.947 19.231V16.9104H28.686L29.544 18.0563V16.9104H30.208V19.2308H29.5694L28.6111 17.9533V19.2308L27.947 19.231ZM31.3118 18.6266H31.5151C31.9349 18.6266 32.1385 18.4734 32.1385 18.0696C32.1385 17.6687 31.9412 17.5369 31.4841 17.5369H31.3118V18.6266V18.6266ZM30.6196 19.231V16.9104H31.5059C32.1823 16.9104 32.8399 17.1266 32.8399 18.0693C32.8399 18.9957 32.1416 19.2308 31.462 19.2308H30.6196V19.231ZM33.1263 19.231V16.9104H34.8641V17.5369H33.8185V17.7904H34.8641V18.335H33.8185V18.6297H34.8641V19.2308L33.1263 19.231ZM35.1076 18.9244L35.4392 18.4515C35.6711 18.611 35.9933 18.6956 36.2499 18.6956C36.579 18.6956 36.6575 18.6205 36.6575 18.5267C36.6575 18.4293 36.5633 18.3949 36.222 18.3667C35.7242 18.326 35.239 18.1978 35.239 17.6311C35.239 17.0705 35.699 16.8731 36.2252 16.8731C36.7761 16.8731 37.0771 17.0141 37.2397 17.1457L36.8955 17.6435C36.7637 17.5558 36.4661 17.4773 36.2344 17.4773C36.0061 17.4773 35.9309 17.5151 35.9309 17.6059C35.9309 17.7184 36.0277 17.7466 36.3723 17.7749C36.892 17.819 37.3461 17.9191 37.3461 18.4952C37.3461 18.9649 36.9453 19.2686 36.2722 19.2686C35.6585 19.2686 35.3517 19.1181 35.1074 18.9244H35.1076ZM26.1668 18.3886L26.43 17.7123L26.693 18.3886H26.1668ZM26.1072 16.9108L25.1806 19.231H25.8411L25.9477 18.9586H26.9153L27.0217 19.231H27.7264L26.7931 16.9108H26.1072V16.9108Z" fill="#828D93"/>
<path fill-rule="evenodd" clip-rule="evenodd" d="M23.6816 18.0539H24.048C24.2359 18.0539 24.3859 17.9943 24.3859 17.7815C24.3859 17.5592 24.2422 17.4998 24.048 17.4998H23.6816V18.0539ZM25.0626 19.2313H24.3362L24.0294 18.605H23.6816V19.2313H23.0052V16.9111H24.2296C24.8151 16.9111 25.0844 17.2994 25.0844 17.7565C25.0844 18.0384 24.9749 18.3358 24.6869 18.4923L25.0626 19.2313V19.2313ZM13.3254 1.37774H13.7074C13.8953 1.37774 14.0642 1.28959 14.0642 1.07069C14.0642 0.838773 13.9011 0.757761 13.7074 0.757761H13.3254V1.37753V1.37774ZM12.649 2.48924V0.168847H13.8764C14.4304 0.168847 14.7625 0.531933 14.7625 1.03312C14.7625 1.53095 14.4372 1.93181 13.8357 1.93181H13.3257V2.48924H12.6492H12.649ZM15.0492 2.48903V0.168847H16.7869V0.795119H15.7413V1.04886H16.7874V1.59349H15.7413V1.88774H16.7874V2.48882L15.0492 2.48903ZM19.8751 1.5683V0.168847H20.5702V1.47134C20.5702 1.78741 20.711 1.92551 21.021 1.92551C21.3247 1.92551 21.4689 1.80337 21.4689 1.47134V0.168847H22.1422V1.5683C22.1422 2.00359 21.8853 2.53583 21.0118 2.53583C20.1349 2.53583 19.8751 2.00359 19.8751 1.5683V1.5683ZM22.5319 2.48903V0.168847H24.2697V0.795119H23.2239V1.04886H24.2697V1.59349H23.2239V1.88774H24.2697V2.48882L22.5319 2.48903ZM24.7257 2.48903V0.168847H25.4647L26.3227 1.31477V0.168847H26.9865V2.48903H26.3479L25.3896 1.21151V2.48903H24.7257ZM28.726 1.6468L28.4628 0.970575L28.1996 1.6468H28.726V1.6468ZM27.9807 2.21682L27.8739 2.48924H27.2134L28.1465 0.153106H28.8198L29.7592 2.48903H29.0546L28.948 2.21682H27.9805H27.9807ZM29.7672 2.18219L30.0988 1.70934C30.3307 1.86927 30.6535 1.95343 30.9102 1.95343C31.2388 1.95343 31.3173 1.8785 31.3173 1.78448C31.3173 1.68751 31.2233 1.65309 30.8816 1.62476C30.3842 1.58404 29.8986 1.45581 29.8986 0.889143C29.8986 0.328353 30.3588 0.131069 30.885 0.131069C31.4363 0.131069 31.7367 0.272106 31.8995 0.403489L31.5551 0.901526C31.4235 0.814007 31.1263 0.735514 30.8944 0.735514C30.6661 0.735514 30.5907 0.773082 30.5907 0.863958C30.5907 0.976662 30.6879 1.00458 31.0321 1.03291C31.552 1.07698 32.0059 1.17709 32.0059 1.753C32.0059 2.22291 31.6053 2.5266 30.932 2.5266C30.3183 2.5266 30.0115 2.37633 29.7672 2.18219V2.18219ZM17.8095 1.33219C17.8095 0.980859 18.0191 0.70781 18.3656 0.70781C18.7094 0.70781 18.9189 0.980859 18.9189 1.33219C18.9189 1.48079 18.8803 1.61301 18.8118 1.71879L18.7058 1.51101L18.1639 1.69528L18.2903 1.95175C17.9902 1.91439 17.8095 1.6596 17.8095 1.33219V1.33219ZM19.248 2.41998C19.1724 2.41159 19.1577 2.3906 19.122 2.32449C19.1206 2.32194 19.1192 2.31935 19.1178 2.31672C19.4129 2.1207 19.6201 1.7935 19.6201 1.33345C19.6201 -0.270005 17.1078 -0.270005 17.1078 1.33345C17.1078 2.22333 17.8819 2.61853 18.5707 2.5203L18.586 2.55179C18.619 2.61559 18.663 2.68674 18.663 2.68674C18.7314 2.79314 18.8372 2.87353 18.9995 2.89241C19.0572 2.89913 19.3332 2.93019 19.5976 2.75725L19.4094 2.37171C19.3256 2.42334 19.2729 2.42271 19.2477 2.41998" fill="#828D93"/>
</g>
</g>
<defs>
<clipPath id="clip0">
<rect width="75.5555" height="34" fill="white" transform="translate(0.189697 0.130859)"/>
</clipPath>
</defs>
</svg>
