<svg width="103" height="35" viewBox="0 0 103 35" fill="none" xmlns="http://www.w3.org/2000/svg">
<g clip-path="url(#clip0)">
<path fill-rule="evenodd" clip-rule="evenodd" d="M100.265 12.8219C99.3427 13.7439 98.2202 14.225 96.9374 14.225C95.3739 14.225 94.2514 13.5435 93.9307 12.6615V17.6326H91.6857V4.5635H93.9307V5.92653C94.2514 5.00448 95.414 4.36306 96.9374 4.36306C98.2603 4.36306 99.3828 4.84413 100.265 5.76618C101.187 6.68823 101.628 7.8909 101.628 9.25393C101.628 10.6971 101.147 11.8597 100.265 12.8219ZM98.6211 7.20938C98.1 6.68823 97.4586 6.36751 96.6568 6.36751C95.855 6.36751 95.1735 6.64814 94.6122 7.20938C94.0911 7.73054 93.7703 8.41206 93.7703 9.25393C93.7703 10.0958 94.051 10.7773 94.6122 11.2985C95.1735 11.8196 95.855 12.1403 96.6568 12.1403C97.4586 12.1403 98.1401 11.8597 98.6211 11.2985C99.1423 10.7773 99.4229 10.0958 99.4229 9.25393C99.3828 8.45215 99.1423 7.77063 98.6211 7.20938ZM84.9507 14.2651C83.5075 14.2651 82.3049 13.784 81.3026 12.8219C80.3004 11.8597 79.8193 10.6571 79.8193 9.25393C79.8193 7.85081 80.3405 6.68823 81.3026 5.686C82.3049 4.72386 83.5075 4.24279 84.9507 4.24279C86.3939 4.24279 87.5966 4.72386 88.5989 5.686C89.6011 6.64814 90.0821 7.85081 90.0821 9.25393C90.0821 10.6571 89.561 11.8196 88.5989 12.8219C87.5966 13.8241 86.3939 14.2651 84.9507 14.2651ZM87.0354 7.20938C86.4741 6.60805 85.7926 6.36751 84.9507 6.36751C84.1089 6.36751 83.4274 6.64814 82.826 7.20938C82.3049 7.77063 81.9841 8.45215 81.9841 9.33411C81.9841 10.176 82.2648 10.8976 82.826 11.4588C83.3873 12.0201 84.0688 12.3007 84.9507 12.3007C85.7926 12.3007 86.4741 12.0201 87.0354 11.4588C87.5966 10.8575 87.8772 10.176 87.8772 9.33411C87.8772 8.45215 87.5966 7.77063 87.0354 7.20938ZM75.8505 11.6192V8.49224C75.8505 7.1693 75.169 6.36751 73.9663 6.36751C72.7636 6.36751 71.8817 7.28956 71.8817 8.57242V14.0245H69.6768V0.955479H71.8817V5.88644C72.3227 4.96439 73.365 4.40314 74.6478 4.40314C76.8126 4.40314 78.0955 5.84635 78.0955 8.17152V11.1381C78.0955 11.8597 78.2158 12.1403 78.7369 12.1403C78.8572 12.1403 78.9775 12.1003 79.0576 12.1003V13.9845C78.8171 14.0245 78.4964 14.0646 78.0955 14.0646C76.5721 14.1047 75.8505 13.2628 75.8505 11.6192V11.6192ZM69.7169 25.9711C70.0376 25.4499 70.5187 25.1292 71.2002 25.1292H71.6411V26.2918H71.12C70.3182 26.2918 69.7169 26.9332 69.7169 27.8954V31.4633H68.4741V25.1693H69.7169V25.9711V25.9711ZM64.5454 8.05126C64.826 8.13144 65.3471 8.33188 65.7079 8.45215C67.4318 9.05349 68.2336 9.93545 68.2336 11.2584C68.2336 13.0223 66.9106 14.225 64.385 14.225C62.5008 14.225 61.0977 13.5034 60.4964 12.3007L61.9396 11.098C62.3806 11.7795 63.2625 12.2606 64.4251 12.2606C65.5877 12.2606 66.1088 11.8196 66.1088 11.2183C66.1088 10.8976 65.8683 10.617 65.5877 10.4566C65.3872 10.3363 64.9863 10.176 64.7057 10.0958C64.4251 9.97554 63.8639 9.81518 63.5431 9.69491C62.0198 9.17375 61.218 8.37197 61.218 7.00894C61.218 6.12698 61.5387 5.44546 62.1801 4.96439C62.8616 4.44323 63.6233 4.2027 64.5454 4.2027C65.8683 4.2027 66.8705 4.68377 67.5921 5.60582L66.3494 6.92876C65.9485 6.4076 65.3071 6.16707 64.5053 6.16707C63.8238 6.16707 63.3828 6.48778 63.3828 7.00894C63.3828 7.32965 63.5431 7.49001 63.8238 7.69045C63.9039 7.81072 64.3048 7.97108 64.5454 8.05126V8.05126ZM56.5676 9.05349V14.0245H54.3226V4.60359H56.5275V6.00671C56.9685 5.00448 58.0108 4.44323 59.3338 4.44323C59.6144 4.44323 59.8148 4.48332 60.0153 4.48332V6.64814C59.7347 6.60805 59.414 6.56796 59.0532 6.56796C57.5298 6.52787 56.5676 7.49001 56.5676 9.05349V9.05349ZM55.405 26.0112C55.9663 25.4499 56.7681 25.0891 57.65 25.0891C59.4941 25.0891 60.9373 26.5724 60.9373 28.3765C60.9373 30.1805 59.4941 31.6638 57.65 31.6638C56.7681 31.6638 55.9663 31.303 55.405 30.7417V31.5435H54.1623V22.9243H55.405V26.0112V26.0112ZM57.5298 30.5413C58.6924 30.5413 59.6946 29.5791 59.6946 28.3765C59.6946 27.1738 58.7324 26.2116 57.5298 26.2116C56.3271 26.2116 55.365 27.1738 55.365 28.3765C55.365 29.539 56.3271 30.5413 57.5298 30.5413ZM51.9173 30.6615C51.356 31.2629 50.5543 31.6237 49.6322 31.6237C47.7881 31.6237 46.385 30.3007 46.385 28.2562V22.8842H47.6678V28.2161C47.6678 29.6192 48.5899 30.5012 49.7926 30.5012C50.9952 30.5012 51.9173 29.5791 51.9173 28.2161V22.8842H53.2001V31.5034H51.9173V30.6615V30.6615ZM45.503 9.85527C45.5832 11.3386 46.6656 12.3408 48.3494 12.3408C49.3115 12.3408 50.1534 11.98 50.875 11.2584L52.1979 12.5813C51.1155 13.7038 49.8327 14.2651 48.2692 14.2651C46.7859 14.2651 45.5832 13.8241 44.6612 12.9421C43.7391 12.0602 43.258 10.8976 43.258 9.41429V9.33411C43.258 7.85081 43.7391 6.64814 44.6612 5.72609C45.5832 4.80404 46.7859 4.36306 48.189 4.36306C49.552 4.36306 50.6745 4.80404 51.5164 5.72609C52.3984 6.64814 52.8393 7.77063 52.8393 9.13366C52.8393 9.41429 52.7992 9.65482 52.7992 9.89536L45.503 9.85527V9.85527ZM49.8327 6.84858C49.3516 6.44769 48.8304 6.24725 48.1489 6.24725C47.4674 6.24725 46.826 6.44769 46.3449 6.84858C45.8237 7.24947 45.5832 7.73054 45.503 8.33188H50.5142C50.5543 7.73054 50.3137 7.20938 49.8327 6.84858ZM40.8527 32.6259C40.6522 33.107 40.4117 33.4277 40.1311 33.6281C39.8505 33.8286 39.4897 33.9488 39.0487 33.9488H38.2068V32.9065H38.768C39.0086 32.9065 39.209 32.8664 39.3293 32.7462C39.4897 32.666 39.6099 32.4655 39.6901 32.225L40.0509 31.3831L37.4451 25.2495H38.768L40.6923 29.8998L42.5364 25.2495H43.8193L40.8527 32.6259V32.6259ZM39.2491 11.6192V8.49224C39.2491 7.1693 38.5275 6.36751 37.2847 6.36751C36.042 6.36751 35.16 7.28956 35.16 8.57242V14.0245H32.9551V4.60359H35.16V5.92653C35.601 5.00448 36.6433 4.36306 38.0064 4.36306C40.2113 4.36306 41.5342 5.80626 41.5342 8.13143V11.098C41.5342 11.8196 41.6545 12.1003 42.1756 12.1003C42.2959 12.1003 42.4162 12.0602 42.4963 12.0602V13.9444C42.1756 14.0245 41.8549 14.0646 41.454 14.0646C39.9707 14.1047 39.2491 13.2628 39.2491 11.6192V11.6192ZM34.4785 25.0491C34.9195 25.0491 35.3605 25.1292 35.7614 25.2896C36.1623 25.4499 36.5231 25.6905 36.8037 26.0112C37.0843 26.2918 37.3248 26.6526 37.5253 27.0535C37.6856 27.4544 37.7658 27.8954 37.7658 28.3364C37.7658 28.7773 37.6856 29.2183 37.5253 29.6192C37.3649 30.0201 37.1244 30.3408 36.8037 30.6615C36.5231 30.9422 36.1623 31.1827 35.7614 31.343C35.3605 31.5034 34.9195 31.5836 34.4785 31.5836C34.0375 31.5836 33.6366 31.5034 33.2357 31.343C32.8749 31.1827 32.5141 30.9422 32.2335 30.6615V31.4633H30.9908V22.8442H32.2335V25.9711C32.5141 25.6905 32.8349 25.4499 33.2357 25.2896C33.5965 25.1693 34.0375 25.0491 34.4785 25.0491V25.0491ZM32.3939 27.4945C32.2736 27.7751 32.2335 28.0557 32.2335 28.3364C32.2335 28.6571 32.2736 28.9377 32.3939 29.1782C32.5141 29.4589 32.6745 29.6593 32.8749 29.8598C33.0754 30.0602 33.3159 30.2206 33.5565 30.3408C33.8371 30.4611 34.1177 30.5012 34.3983 30.5012C34.679 30.5012 34.9596 30.4611 35.2402 30.3408C35.5208 30.2206 35.7213 30.0602 35.9217 29.8598C36.1222 29.6593 36.2825 29.4188 36.4028 29.1782C36.5231 28.8976 36.5631 28.617 36.5631 28.3364C36.5631 28.0156 36.5231 27.735 36.4028 27.4945C36.2825 27.2139 36.1222 26.9733 35.9217 26.7729C35.7213 26.5724 35.5208 26.4121 35.2402 26.3319C34.9596 26.2116 34.719 26.1716 34.3983 26.1716C34.1177 26.1716 33.8371 26.2116 33.5565 26.3319C33.2758 26.4522 33.0754 26.5724 32.8749 26.7729C32.6745 27.0134 32.5141 27.2139 32.3939 27.4945ZM27.8638 9.05349V14.0245H25.6589V4.60359H27.8638V6.00671C28.3048 5.00448 29.3471 4.44323 30.67 4.44323C30.9507 4.44323 31.1511 4.48332 31.3516 4.48332V6.64814C31.0709 6.60805 30.7502 6.56796 30.3894 6.56796C28.8259 6.52787 27.8638 7.49001 27.8638 9.05349ZM18.9239 14.2651C17.4807 14.2651 16.278 13.784 15.2758 12.8219C14.2736 11.8597 13.7925 10.6571 13.7925 9.25393C13.7925 7.85081 14.3137 6.68823 15.2758 5.686C16.278 4.72386 17.4807 4.24279 18.9239 4.24279C20.3671 4.24279 21.5698 4.72386 22.572 5.686C23.5743 6.64814 24.0553 7.85081 24.0553 9.25393C24.0553 10.6571 23.5342 11.8196 22.572 12.8219C21.5698 13.8241 20.3671 14.2651 18.9239 14.2651ZM20.9685 7.20938C20.4072 6.60805 19.7257 6.36751 18.8838 6.36751C18.042 6.36751 17.3604 6.64814 16.7591 7.20938C16.238 7.77063 15.9172 8.45215 15.9172 9.33411C15.9172 10.176 16.1979 10.8976 16.7591 11.4588C17.3204 12.0201 18.0019 12.3007 18.8838 12.3007C19.7257 12.3007 20.4072 12.0201 20.9685 11.4588C21.5297 10.8575 21.8103 10.176 21.8103 9.33411C21.8103 8.45215 21.5698 7.77063 20.9685 7.20938ZM7.89941 12.1003C9.38271 12.1003 10.5854 11.5791 11.5074 10.4566L13.0709 11.8196C11.7881 13.3029 9.94396 14.1849 7.89941 14.1849C5.97513 14.1849 4.33148 13.5435 2.96845 12.2606C1.6455 10.9377 0.963989 9.3742 0.963989 7.40983C0.963989 5.48555 1.6455 3.88199 2.96845 2.55904C4.29139 1.2361 5.93504 0.634766 7.89941 0.634766C9.98405 0.634766 11.6678 1.39646 13.0709 2.95994L11.4673 4.36306C10.5453 3.28065 9.34262 2.79958 7.89941 2.79958C6.57647 2.79958 5.49406 3.24056 4.6121 4.12252C3.73014 5.00448 3.28916 6.08689 3.28916 7.40983C3.28916 8.73277 3.73014 9.81518 4.6121 10.6971C5.53415 11.6994 6.61656 12.1003 7.89941 12.1003ZM64.6656 25.0891C66.4696 25.0891 67.7926 26.4923 67.7926 28.3364V28.7373H62.7013C62.8616 29.7395 63.7035 30.5413 64.7859 30.5413C65.5075 30.5413 66.1088 30.2606 66.5899 29.6192L67.4719 30.3007C66.8304 31.1426 65.9084 31.6237 64.7458 31.6237C62.8616 31.6237 61.4184 30.2206 61.4184 28.3364C61.4184 26.5724 62.8215 25.0891 64.6656 25.0891V25.0891ZM66.5097 27.7751C66.3093 26.813 65.5075 26.1716 64.5855 26.1716C63.6634 26.1716 62.9017 26.813 62.6612 27.7751H66.5097V27.7751Z" fill="#828D93"/>
</g>
<defs>
<clipPath id="clip0">
<rect width="101.506" height="33.9956" fill="white" transform="translate(0.603394 0.394531)"/>
</clipPath>
</defs>
</svg>
