<svg width="88" height="25" viewBox="0 0 88 25" fill="none" xmlns="http://www.w3.org/2000/svg">
<g clip-path="url(#clip0)">
<path d="M59.7726 12.6458L59.9219 12.7204V17.9673C59.9219 18.5942 59.8025 19.1689 59.586 19.6914C59.377 20.1989 59.0636 20.6467 58.6382 21.0049L58.6307 21.0124C58.2053 21.3632 57.7201 21.6319 57.1753 21.8035C56.6081 21.9827 56.011 22.0722 55.3467 22.0722C54.675 22.0722 54.0705 21.9827 53.5182 21.8035C52.9733 21.6468 52.4957 21.3781 52.0553 21.0049C51.6598 20.6616 51.3463 20.2362 51.1 19.6988C50.8836 19.2137 50.7716 18.6315 50.7716 17.9747V13.3548H50.8015C50.8462 13.0637 50.9582 12.8473 51.1597 12.698C51.3985 12.5114 51.7269 12.4219 52.1225 12.4219C52.3613 12.4219 52.5852 12.4592 52.7718 12.5189C52.9808 12.5711 53.1002 12.6085 53.1749 12.6532L53.3241 12.7279V17.5344C53.3241 18.2584 53.4883 18.8107 53.8167 19.1838C54.1451 19.5421 54.6452 19.7212 55.3467 19.7212C56.0409 19.7212 56.526 19.5496 56.8544 19.1838C57.1828 18.8256 57.3544 18.2733 57.3544 17.5344V13.6384C57.3544 13.2205 57.4888 12.9145 57.7425 12.7055C57.9814 12.5189 58.3023 12.4293 58.6904 12.4293C58.9292 12.4293 59.1531 12.4592 59.3696 12.5189H59.377C59.5786 12.5786 59.698 12.6085 59.7726 12.6458V12.6458Z" fill="#828D93"/>
<path d="M87.5818 13.712C87.5818 13.9658 87.5146 14.2195 87.3803 14.421C87.2459 14.6524 87.134 14.7793 87.0519 14.8465L86.9101 14.9733L86.7459 14.8987C86.5518 14.8091 86.3204 14.727 86.0443 14.645C85.7383 14.5703 85.4323 14.5255 85.1188 14.5255C83.9023 14.5255 83.335 15.1375 83.335 16.4362V21.8323H80.775V15.869C80.775 14.7121 81.1407 13.8016 81.8647 13.1448C82.5737 12.5104 83.5739 12.1895 84.8128 12.1895C85.6039 12.1895 86.2309 12.2939 86.7309 12.5178C87.2982 12.7567 87.5818 13.1672 87.5818 13.712V13.712Z" fill="#828D93"/>
<path d="M69.975 18.8845C69.975 19.8548 69.5794 20.6384 68.8032 21.2131C68.0569 21.7729 66.9896 22.0565 65.6238 22.0565C64.9968 22.0565 64.3997 22.0117 63.8624 21.9147C63.325 21.8102 62.8623 21.6982 62.4816 21.5788C62.1308 21.4594 61.8099 21.34 61.5263 21.2057H61.5188H61.5114C61.2352 21.0638 61.0859 20.9743 60.9889 20.8922L60.8247 20.7504L60.9367 20.5563L61.6905 19.2204L61.8397 18.9442L62.086 19.1308C62.1607 19.183 62.3771 19.2875 62.4741 19.3323L62.4965 19.3398C62.6906 19.4144 62.9369 19.5114 63.228 19.601C63.5414 19.698 63.8922 19.7876 64.2505 19.8473C64.6311 19.9145 65.0491 19.9518 65.5193 19.9518C66.0865 19.9518 66.5567 19.8771 66.9075 19.7204C67.1836 19.601 67.3105 19.4293 67.3105 19.1681C67.3105 18.9293 67.2359 18.7576 67.0717 18.6457H67.0642H67.0568C66.915 18.5412 66.594 18.4068 65.8626 18.3247L64.4893 18.168C63.9594 18.1158 63.5265 18.0262 63.1459 17.8993C62.713 17.7575 62.3473 17.5859 62.0562 17.3694H62.0487C61.7353 17.1306 61.5039 16.8395 61.3248 16.4813C61.1456 16.1155 61.0561 15.705 61.0561 15.2348C61.0561 14.8169 61.1382 14.4288 61.2949 14.0556C61.4516 13.6974 61.7129 13.354 62.0711 13.063C62.4219 12.7793 62.8623 12.5629 63.4071 12.4136C63.9445 12.2644 64.5938 12.1748 65.3401 12.1748C66.5866 12.1748 67.5792 12.3166 68.2882 12.6002C69.0719 12.9137 69.4675 13.354 69.4675 13.9138C69.4675 14.0929 69.4302 14.2571 69.363 14.3989C69.3108 14.5183 69.2436 14.6079 69.1913 14.69L69.1689 14.7273L69.154 14.7423L69.1391 14.7572C69.057 14.8467 68.9898 14.9139 68.9077 14.9886L68.8928 15.0035L68.8704 15.0184C68.848 15.0333 68.8331 15.0408 68.8182 15.0557C68.7659 15.093 68.7137 15.1229 68.6689 15.1378L68.4972 15.205L68.3629 15.0706C68.348 15.0557 68.2882 14.996 68.1166 14.8915C67.93 14.7721 67.7359 14.6825 67.527 14.6079C67.2583 14.5109 66.9373 14.4288 66.6015 14.3691C66.1985 14.287 65.7954 14.2497 65.3551 14.2497C64.7281 14.2497 64.2505 14.3318 63.9519 14.4885C63.7056 14.6228 63.5862 14.802 63.5862 15.0483C63.5862 15.2498 63.6683 15.3916 63.84 15.511C64.0788 15.6453 64.4147 15.7424 64.8401 15.7946L66.6463 16.0334C67.6538 16.1678 68.4674 16.4514 69.0495 16.8843C69.669 17.3321 69.975 18.0113 69.975 18.8845V18.8845Z" fill="#828D93"/>
<path d="M79.5656 14.1224C79.3939 13.7567 79.1327 13.4134 78.767 13.1074L78.7595 13.0999L78.752 13.0925C78.3714 12.8014 77.946 12.57 77.4832 12.4133C76.9757 12.2491 76.401 12.167 75.7816 12.167C75.0352 12.167 74.3784 12.2864 73.759 12.5327C73.1544 12.7715 72.617 13.1223 72.1618 13.5552C71.714 13.9956 71.3557 14.5329 71.0945 15.1449C70.8482 15.7719 70.7213 16.4585 70.7213 17.175C70.7213 17.9363 70.8557 18.6379 71.1094 19.2424C71.3632 19.847 71.7214 20.3545 72.1767 20.7799C72.6245 21.2053 73.1693 21.5337 73.7739 21.7427C74.371 21.9517 75.0203 22.0562 75.7069 22.0562C76.1771 22.0562 76.6249 22.0188 77.0504 21.9517H77.0578H77.0653C77.4683 21.877 77.8116 21.7875 78.1176 21.6979H78.1251H78.1326C78.4759 21.586 78.7371 21.4815 78.9312 21.3695C79.1252 21.265 79.2745 21.1829 79.3864 21.1083L79.6029 20.9665L79.4835 20.7426L78.7371 19.317L78.6102 19.0857L78.3714 19.1976C78.3341 19.2126 78.3042 19.2349 78.2595 19.2499C78.1997 19.2872 78.1251 19.317 78.043 19.3544L78.0355 19.3618L78.0281 19.3693C77.9087 19.429 77.7669 19.4962 77.543 19.5783C77.3414 19.638 77.1175 19.7051 76.9011 19.735C76.6548 19.7798 76.3787 19.8022 76.1025 19.8022C75.2591 19.8022 74.6173 19.6305 74.1918 19.2947C73.8485 19.0334 73.6172 18.7274 73.4977 18.3617C73.6022 18.3692 73.7067 18.3692 73.8037 18.3692C74.0053 18.3841 74.2292 18.3841 74.4605 18.3841C75.498 18.3841 76.3264 18.3169 77.0205 18.1677C77.7146 18.0259 78.2595 17.8318 78.6699 17.578C79.1028 17.3019 79.4014 16.9735 79.5805 16.5854C79.7372 16.2122 79.8193 15.8017 79.8193 15.3539C79.8343 14.9136 79.7447 14.4956 79.5656 14.1224V14.1224ZM77.2444 15.742L77.2295 15.7569C77.1922 15.854 77.0877 15.9585 76.916 16.063C76.6847 16.1824 76.401 16.2794 76.0652 16.3466C75.6398 16.4212 75.1322 16.466 74.5501 16.466H73.8187C73.6694 16.466 73.5052 16.4585 73.341 16.4511C73.3709 16.2271 73.4156 16.0182 73.4903 15.7943C73.5948 15.5032 73.7515 15.242 73.9455 15.0106C74.1844 14.7643 74.4307 14.5852 74.6919 14.4807H74.6994H74.7068C74.9979 14.3389 75.3263 14.2717 75.7293 14.2717C76.2219 14.2717 76.6026 14.3687 76.9086 14.5702H76.916H76.9235C77.1996 14.7344 77.334 14.9807 77.334 15.3315C77.3265 15.4957 77.3041 15.6226 77.2444 15.742V15.742Z" fill="#828D93"/>
<path d="M49.6372 17.1382C49.6372 17.8547 49.5178 18.504 49.2715 19.1086C49.0327 19.6907 48.7043 20.1983 48.2789 20.6162C48.2565 20.6461 48.2341 20.661 48.2117 20.6834C47.7863 21.1014 47.2564 21.4447 46.6369 21.7059C46.301 21.8402 45.9502 21.9373 45.5845 21.997C45.5547 22.0044 45.5397 22.0044 45.5099 22.0119C45.2263 22.0567 44.9277 22.0716 44.6143 22.0716H44.5695C44.256 22.0716 43.9575 22.0492 43.6739 22.0119C43.6515 22.0119 43.6291 22.0044 43.5992 21.997C43.2335 21.9373 42.8827 21.8402 42.5469 21.7059C41.9274 21.4447 41.39 21.0939 40.9646 20.6834C40.9422 20.661 40.9198 20.6386 40.9049 20.6237C40.5168 20.2132 40.2033 19.7057 39.957 19.0563C39.7107 18.3921 39.5913 17.6308 39.5913 16.7277V9.50304C39.5913 9.08508 39.7257 8.77907 39.9794 8.59249C40.2182 8.39843 40.5317 8.29395 40.9347 8.29395C41.1587 8.29395 41.3826 8.3238 41.5915 8.37604H41.6065L41.6139 8.38351C41.6736 8.4059 41.7408 8.42829 41.7856 8.43575C41.8826 8.47307 41.9498 8.488 42.0095 8.51785L42.1513 8.59249C42.1513 8.59249 42.1588 10.5927 42.1588 12.6825C42.1588 14.2722 42.1588 15.9217 42.1513 16.7874C42.1438 17.2576 42.1961 17.5487 42.2483 17.7801V17.7875C42.2782 17.907 42.3006 18.0189 42.3454 18.1159C42.3528 18.1458 42.3603 18.1682 42.3677 18.198C42.4051 18.3249 42.5021 18.4966 42.6066 18.6384C42.6066 18.6384 42.6066 18.6459 42.614 18.6459C42.6812 18.7503 42.7558 18.8474 42.8454 18.9369C42.8529 18.9444 42.8603 18.9519 42.8603 18.9593C42.9051 19.0041 42.9424 19.0414 42.9947 19.0862C43.1738 19.2579 43.3604 19.4071 43.5992 19.4967H43.6067H43.6142C43.9127 19.631 44.2411 19.6982 44.5993 19.6982H44.5919C44.9501 19.6982 45.2711 19.631 45.5696 19.4967C45.8457 19.3698 46.1144 19.1832 46.3383 18.9593C46.5622 18.7205 46.719 18.4593 46.8309 18.1533V18.1458C46.9504 17.8323 47.0026 17.5039 47.0026 17.1009C47.0026 16.7203 46.9429 16.3695 46.8309 16.056V16.0485C46.719 15.7276 46.5697 15.4739 46.3383 15.2425L46.3309 15.235C46.1219 15.0111 45.8681 14.832 45.5696 14.6976C45.2711 14.5633 44.9501 14.5036 44.5919 14.4961H44.5695C44.2038 14.4961 43.8604 14.5633 43.5694 14.6976C43.3305 14.8021 43.129 14.9365 42.9424 15.1231V12.6228L42.9499 12.6153C43.4425 12.3765 43.9873 12.2272 44.5919 12.1974C44.6814 12.1899 44.7635 12.1899 44.8531 12.1899C45.5547 12.1899 46.1667 12.3093 46.7563 12.5556C46.8533 12.6004 46.9504 12.6452 47.0474 12.6974C47.5101 12.9363 47.9206 13.2273 48.2639 13.593C48.6968 14.0334 49.0401 14.5633 49.2715 15.1529C49.4282 15.541 49.5327 15.959 49.5924 16.3919C49.6223 16.6382 49.6372 16.8845 49.6372 17.1382V17.1382Z" fill="#828D93"/>
<path d="M28.5055 7.68509C29.7449 9.39639 30.5578 11.4739 30.7444 13.7113L36.728 4.48888C37.5076 3.2903 37.1611 1.69886 35.975 0.906467C34.7956 0.13405 33.1898 0.480306 32.4102 1.66557L28.5055 7.68509ZM11.421 11.5671L8.9156 7.70506L8.90893 7.6984L5.00428 1.67888C4.21801 0.500281 2.61884 0.154026 1.42612 0.913124C0.246725 1.69886 -0.0997631 3.30362 0.673173 4.49554L6.67009 13.7246L10.7213 19.9572C13.5932 24.3719 19.4835 25.6171 23.9012 22.7472C28.3056 19.8773 29.565 13.9776 26.6931 9.5562C23.8213 5.14144 17.931 3.89625 13.5132 6.76618C12.9868 7.10577 12.5204 7.49198 12.0873 7.91148L12.5737 8.65061L15.0191 12.4128C15.3456 11.8868 15.7921 11.4406 16.3251 11.0877C18.3641 9.76928 21.0693 10.3486 22.3887 12.3662C23.708 14.4038 23.1216 17.1139 21.1027 18.4323C19.0837 19.7508 16.3718 19.1648 15.0591 17.1339L12.9602 13.9177L11.421 11.5671Z" fill="#828D93"/>
</g>
<defs>
<clipPath id="clip0">
<rect width="87.3215" height="23.7969" fill="white" transform="translate(0.260254 0.494141)"/>
</clipPath>
</defs>
</svg>
