<svg width="52" height="37" viewBox="0 0 52 37" fill="none" xmlns="http://www.w3.org/2000/svg">
<g clip-path="url(#clip0)">
<path d="M8.63524 13.1588C9.21245 12.9751 9.82814 12.877 10.4669 12.877C13.2632 12.877 15.5977 14.7728 16.1313 17.293L20.0948 16.5215C19.1867 12.2378 15.2232 9.01465 10.4695 9.01465C9.3792 9.01465 8.33508 9.18364 7.3551 9.49715L8.63524 13.1588Z" fill="#828D93"/>
<path d="M3.95845 25.4199L6.63929 22.5273C5.44381 21.5158 4.68959 20.0389 4.68959 18.3931C4.68959 16.7496 5.44381 15.2727 6.63929 14.2636L3.95845 11.3711C1.92665 13.0881 0.643951 15.5985 0.643951 18.3931C0.643951 21.1901 1.92665 23.7006 3.95845 25.4199Z" fill="#828D93"/>
<path d="M16.1311 19.5C15.5949 22.0202 13.263 23.911 10.4693 23.911C9.82793 23.911 9.20968 23.813 8.63502 23.6269L7.35233 27.2909C8.33231 27.6021 9.37899 27.771 10.4693 27.771C15.2178 27.771 19.1814 24.5527 20.0947 20.2764L16.1311 19.5Z" fill="#828D93"/>
<path d="M23.5606 22.6491C23.4298 22.4483 23.2553 22.1274 23.1475 21.8898C22.5191 20.4987 22.4908 19.0585 23.0193 17.6772C23.6017 16.1611 24.7151 15.0027 26.1543 14.41C27.9629 13.6679 29.9613 13.8123 31.6955 14.7945C32.7961 15.3969 33.576 16.3276 34.1686 17.6453C34.243 17.8144 34.3096 17.9932 34.3764 18.1475L23.5606 22.6491ZM27.1728 16.6436C25.8875 17.1701 25.2256 18.3214 25.3615 19.6685L30.8002 17.4322C29.8664 16.3865 28.6504 16.0387 27.1728 16.6436ZM31.4801 21.5078C31.4774 21.5078 31.4774 21.5102 31.4774 21.5102L31.3645 21.4368C31.0388 21.9388 30.5334 22.3479 29.8945 22.6124C28.6786 23.117 27.5524 22.9871 26.7417 22.3087L26.6673 22.4165C26.6673 22.4165 26.6673 22.414 26.6647 22.414L25.2845 24.3857C25.6284 24.6134 25.9952 24.8044 26.38 24.9587C27.9039 25.5637 29.4636 25.5343 31.0003 24.8976C32.1111 24.437 32.9833 23.7366 33.5785 22.8475L31.4801 21.5078Z" fill="#828D93"/>
<path d="M38.1553 11.5107V22.4686L39.9408 23.1592L38.9274 25.4175L36.9573 24.6337C36.516 24.45 36.2133 24.1708 35.9875 23.8548C35.7694 23.534 35.6078 23.0907 35.6078 22.498V11.5107H38.1553Z" fill="#828D93"/>
<path d="M42.7782 19.6762C42.7782 18.7431 43.2117 17.9055 43.894 17.3372L42.0624 15.3877C40.8208 16.4359 40.0382 17.9667 40.0382 19.6714C40.0357 21.3784 40.8181 22.9117 42.0573 23.96L43.8864 22.0104C43.2065 21.4397 42.7782 20.6069 42.7782 19.6762Z" fill="#828D93"/>
<path d="M46.0311 22.7838C45.672 22.7838 45.323 22.725 44.9998 22.6221L44.125 25.1057C44.7227 25.2968 45.3615 25.4021 46.0285 25.4021C48.9275 25.4046 51.3466 23.4403 51.9084 20.8318L49.2199 20.3076C48.9146 21.7233 47.6036 22.7863 46.0311 22.7838Z" fill="#828D93"/>
<path d="M46.0386 13.9521C45.3743 13.9521 44.7354 14.0551 44.1377 14.2436L45.0048 16.7272C45.3306 16.6243 45.677 16.568 46.0361 16.568C47.6112 16.5704 48.9247 17.6382 49.2223 19.0588L51.9108 18.5397C51.3592 15.9263 48.9401 13.9546 46.0386 13.9521Z" fill="#828D93"/>
</g>
<defs>
<clipPath id="clip0">
<rect width="51.2669" height="36.262" fill="white" transform="translate(0.643921 0.261719)"/>
</clipPath>
</defs>
</svg>
