<svg width="89" height="34" viewBox="0 0 89 34" fill="none" xmlns="http://www.w3.org/2000/svg">
<g clip-path="url(#clip0)">
<path d="M87.4199 11.4599C87.4199 11.5173 87.3616 11.9622 87.3034 12.2062C87.2452 12.4502 86.6775 13.8278 86.6338 14.0574C86.5901 14.2871 86.6193 14.3301 86.6048 14.732C86.43 14.8037 86.037 15.0907 85.8332 15.0907C85.6294 15.0907 85.1199 14.6171 84.9016 14.5597C84.9016 13.9714 85.0472 13.9283 85.0034 13.6269C84.9453 13.2681 84.7561 12.895 84.6396 12.6223C84.5231 12.3353 84.6104 12.2349 84.5959 12.1488C84.5959 12.1488 84.465 12.321 84.5086 12.5793C84.5668 12.895 84.8288 13.3829 84.8579 13.5982C84.9016 13.8135 84.8871 14.0574 84.7997 14.1148C84.101 14.0431 83.577 13.8278 83.1258 13.5838C82.6744 13.3399 82.296 13.1389 81.9029 12.9811C81.9758 12.7084 82.558 11.8617 82.8345 11.5317C83.1111 11.2016 83.4751 10.8572 83.9263 10.5989C84.3776 10.3406 85.1782 10.1971 85.7459 10.2401C86.3281 10.2975 86.8812 10.4554 86.8812 10.4554C86.8812 10.4554 87.2452 10.154 87.5217 10.2545C87.4344 10.4554 87.3471 10.6706 87.3471 10.6706L87.711 10.8715C87.6965 10.8859 87.4199 11.4025 87.4199 11.4599ZM71.1458 16.7841C71.1458 17.2433 71.3204 17.6594 71.5971 17.9895C71.5971 17.9895 71.5971 17.9895 71.6116 18.0039C71.5097 17.7025 71.3932 17.1859 71.3932 17.1286V16.5401C71.3932 16.2532 71.6698 15.5786 71.7717 15.349L71.7572 15.3634C71.6116 15.5068 71.4806 15.6791 71.3787 15.8656C71.3641 15.88 71.3641 15.8944 71.3641 15.9087C71.2622 16.124 71.1894 16.3536 71.1748 16.6119C71.1748 16.655 71.1748 16.7123 71.1748 16.7554C71.1458 16.7698 71.1458 16.7698 71.1458 16.7841ZM81.0441 13.67C81.0587 13.6556 81.0878 13.6413 81.1169 13.5982C81.1897 13.4977 81.2625 13.3542 81.2625 13.3542C81.2625 13.1964 80.9277 13.2108 80.8695 13.1677C80.7967 13.1103 80.7676 13.0385 80.6511 12.9811V12.9955C80.6511 13.0241 80.6511 13.0672 80.6511 13.0959C80.6657 13.1964 80.6802 13.2968 80.6802 13.3973C80.6802 13.5265 80.6511 13.7417 80.6366 13.7847C80.6366 13.7847 80.7967 13.8422 80.8112 13.8565C80.884 13.7847 80.9568 13.713 81.0441 13.67ZM81.0151 12.4789L79.734 11.0581L78.9043 11.7469L78.9334 11.8474C78.9625 11.9192 78.9917 11.9909 79.0354 12.0484C79.079 12.1201 79.1227 12.1918 79.1809 12.2493C79.2392 12.321 79.2974 12.3927 79.3701 12.4645C79.3847 12.4789 79.3846 12.4789 79.3993 12.4931C79.5885 12.6798 79.8069 12.7946 80.0252 12.8807C80.1707 12.938 80.3164 12.9524 80.4474 12.9668L81.0151 12.4789ZM80.3891 10.1253V9.75217C80.3891 9.69477 80.3745 9.65172 80.3455 9.63737C80.3017 9.60867 80.2581 9.57996 80.2144 9.55126C80.1999 9.53691 80.1854 9.52256 80.1707 9.52256C80.0834 9.53691 79.9815 9.53691 79.9087 9.49386C79.8651 9.47951 79.8069 9.4508 79.7777 9.42211C79.7195 9.37905 79.7195 9.336 79.7049 9.26425C79.6613 9.26425 79.6176 9.26425 79.5739 9.2499V9.49386C79.5739 9.50821 79.5739 9.50821 79.5739 9.52256C79.5885 9.56562 79.5885 9.62301 79.5885 9.66608C79.5885 9.78088 79.5448 9.89568 79.4866 9.99614C79.3846 10.1396 79.21 10.2401 79.0063 10.2401C78.9917 10.2975 79.0063 10.398 79.0063 10.4554C79.0208 10.5271 79.079 10.6993 79.1082 10.7854C79.1518 10.9576 79.21 11.1299 79.21 11.3164L79.3993 11.1586C79.3556 11.0151 79.3119 10.8572 79.2683 10.6993C79.2391 10.5989 79.21 10.4841 79.1809 10.3836C79.4138 10.3262 79.603 10.1971 79.6904 10.0248C79.8069 10.0535 79.9815 10.111 80.0252 10.111L80.3891 10.1253ZM80.8695 9.65172C80.9277 9.59432 80.9131 9.47951 80.8112 9.26425C80.7821 9.2212 80.7239 9.16379 80.6947 9.13509C80.622 9.17814 80.5929 9.17814 80.5637 9.19249C80.5346 9.23554 80.5201 9.26425 80.491 9.29295C80.4765 9.3073 80.4327 9.3073 80.4182 9.32165C80.3745 9.42211 80.3164 9.4508 80.2872 9.47951C80.3017 9.52256 80.4765 9.60867 80.5346 9.63737C80.5929 9.65172 80.8112 9.69477 80.8695 9.65172ZM81.1169 8.79067C81.3498 8.64716 81.5536 8.47495 81.6846 8.28839C81.6409 8.27404 81.6118 8.25969 81.5682 8.23099C81.4954 8.18794 81.4226 8.13053 81.3498 8.05877C81.2916 8.00137 81.2333 7.92961 81.1897 7.87222C81.0732 8.15923 80.8695 8.44625 80.5637 8.69021C80.5783 8.71891 80.5928 8.74762 80.5928 8.77632C80.5928 8.79067 80.5928 8.79067 80.5928 8.80502C80.6075 8.87678 80.6075 8.94853 80.5928 9.02028C80.7821 8.96288 80.9568 8.87678 81.1169 8.79067ZM81.7574 8.15923C81.7719 8.15923 81.7719 8.14487 81.7719 8.13053C81.7719 8.07312 81.6992 7.94397 81.5682 7.82916C81.5099 7.77176 81.4517 7.7287 81.3935 7.68565C81.3207 7.6426 81.2771 7.62824 81.2333 7.6426C81.2333 7.6426 81.2333 7.6426 81.2188 7.6426V7.65695C81.2188 7.6713 81.2188 7.68565 81.2188 7.70001C81.2333 7.7574 81.3062 7.87222 81.4081 7.95832C81.5536 8.11618 81.6992 8.20228 81.7574 8.15923ZM80.4036 8.71891L80.0834 8.74762C80.0834 8.74762 79.9233 8.86242 79.9087 8.94853C79.8941 8.99158 79.9087 9.10638 79.9087 9.14944L80.4182 9.16379C80.5201 8.93417 80.4619 8.77632 80.4036 8.71891ZM80.0543 9.39341C80.3164 9.40775 80.3017 9.26425 80.3017 9.26425H79.836C79.836 9.2499 79.7778 9.37905 80.0543 9.39341ZM79.3846 8.86242C79.341 8.81937 79.2974 8.79067 79.2391 8.76196C79.1809 8.81937 79.1082 8.89112 79.0354 8.93417C79.0063 8.96288 78.9772 8.97723 78.948 8.99158C78.8898 8.93417 78.8607 8.86242 78.8462 8.80502C78.8462 8.79067 78.8315 8.77632 78.8315 8.76196C78.8315 8.69021 78.8607 8.66151 78.9043 8.64716C78.948 8.63281 79.0063 8.61846 79.0644 8.57541C79.0644 8.5467 79.0935 8.50365 79.1227 8.47495C79.0935 8.4032 79.0354 8.31708 79.0354 8.31708C79.0354 8.31708 78.9625 8.27403 78.9043 8.23099C78.8462 8.20228 78.7733 8.15923 78.7442 8.14487C78.7442 8.23099 78.7588 8.28839 78.7442 8.34579C78.7442 8.34579 78.7442 8.36015 78.7442 8.37449C78.7442 8.4032 78.7442 8.44625 78.7442 8.4893C78.7442 8.56106 78.7442 8.61846 78.7442 8.69021H78.6278C78.6278 8.66151 78.6278 8.64716 78.6278 8.61846C78.6278 8.57541 78.6278 8.5467 78.6278 8.50365C78.6278 8.4606 78.6278 8.4319 78.6278 8.38885C78.6132 8.24533 78.6132 8.08748 78.5987 7.95832C78.5841 7.95832 78.5696 7.94397 78.5549 7.94397C78.5259 7.94397 78.4968 7.92961 78.4677 7.92961H78.4531C78.4239 7.92961 78.4094 7.92961 78.3803 7.92961C78.3803 7.94397 78.4239 8.24533 78.4385 8.30274C78.4385 8.33144 78.4968 8.64716 78.4968 8.66151H78.3803C78.3512 8.518 78.3367 8.38884 78.2929 8.25969C78.2638 8.14487 78.2347 8.03007 78.1911 7.91527C78.0892 7.92961 77.9727 7.95832 77.8854 8.00137C77.8854 8.00137 77.8854 8.00137 77.8708 8.00137C77.7981 8.03007 77.7398 8.07312 77.6816 8.11618C77.6671 8.11618 77.6671 8.13053 77.6525 8.14487C77.6088 8.18794 77.5797 8.23099 77.5361 8.27404C77.4778 8.34579 77.4341 8.41754 77.405 8.4606C77.3905 8.4893 77.3905 8.518 77.3613 8.56106C77.3468 8.57541 77.3468 8.60411 77.3468 8.63281C77.3468 8.66151 77.3322 8.67586 77.3322 8.70457C77.3468 8.70457 77.3468 8.70457 77.3468 8.70457C77.3905 8.71891 77.4196 8.71891 77.4632 8.73327C77.5506 8.74762 77.6525 8.76196 77.7543 8.76196C77.769 8.76196 77.769 8.76196 77.7835 8.76196C77.8272 8.76196 77.8708 8.76196 77.9145 8.76196C77.9436 8.89112 78.0164 9.02028 78.1328 9.13509C78.2202 9.2212 78.3221 9.29295 78.4239 9.336C78.4531 9.35035 78.4822 9.35035 78.4968 9.3647C78.5113 9.3647 78.5259 9.37905 78.5404 9.37905C78.5404 9.40775 78.5404 9.42211 78.5404 9.4508C78.5404 9.49386 78.5404 9.52256 78.5404 9.55126L78.6278 9.56562C78.6278 9.53691 78.6278 9.50821 78.6278 9.47951C78.6278 9.46516 78.6278 9.4508 78.6278 9.43646C78.6278 9.42211 78.6278 9.40775 78.6278 9.39341C78.6278 9.37905 78.6278 9.37905 78.6278 9.3647C78.6278 9.32165 78.6278 9.29295 78.6278 9.2499C78.6278 9.2212 78.6278 9.20684 78.6278 9.19249C78.6278 9.14944 78.6278 9.12074 78.6278 9.07769V9.06333C78.6278 9.04899 78.6278 9.03463 78.6278 9.02028V8.97723H78.7442C78.7442 8.99158 78.7442 9.00593 78.7442 9.03463C78.7442 9.04899 78.7442 9.06333 78.7442 9.07769C78.7588 9.09204 78.7588 9.09204 78.7733 9.10638C78.817 9.14944 78.8607 9.20684 78.9043 9.2499C78.9189 9.26425 78.9334 9.27859 78.948 9.29295C78.948 9.29295 78.948 9.29295 78.9625 9.3073L78.9772 9.32165C79.0063 9.3647 79.0353 9.39341 79.0644 9.43646C79.1081 9.40775 79.1373 9.39341 79.1664 9.3647C79.1955 9.336 79.2245 9.3073 79.2391 9.27859C79.2537 9.26425 79.2536 9.2499 79.2683 9.23554C79.2828 9.20684 79.2974 9.19249 79.2974 9.17814C79.2974 9.16379 79.3119 9.14944 79.3119 9.13509C79.3119 9.13509 79.3119 9.12074 79.3265 9.12074C79.341 9.09204 79.3556 9.06333 79.3701 9.03463C79.3847 9.00593 79.3846 8.99158 79.4138 8.97723C79.4284 8.96288 79.4429 8.94853 79.472 8.93417C79.4138 8.90548 79.3993 8.87678 79.3846 8.86242ZM77.7981 12.8663C77.769 12.8376 77.7543 12.8232 77.7253 12.7946C77.7107 12.7802 77.6962 12.7659 77.6816 12.7515C77.6816 12.7515 77.6816 12.7371 77.6671 12.7371L77.2449 13.0816L78.5549 14.5167L78.5987 14.4736L79.3701 13.8278C79.1227 13.7561 78.8898 13.6556 78.6423 13.5265C78.3803 13.3829 78.1183 13.182 77.8854 12.9668L77.8708 12.9524C77.8563 12.938 77.8417 12.9237 77.8126 12.9094C77.8272 12.895 77.8126 12.8807 77.7981 12.8663ZM76.8665 13.3829L77.2449 13.6986L78.1911 14.4592L78.2638 14.3732L77.3031 13.3112L77.274 13.2825C77.274 13.2825 77.274 13.2825 77.274 13.2681L77.1721 13.1533L76.8665 13.3829ZM76.8374 13.8995L77.6962 14.2296L77.769 14.2583L76.9975 13.6413L76.9684 13.6126L76.8374 13.8995ZM70.942 19.5251C70.9128 19.3816 70.8692 19.2381 70.8401 19.1233L70.5781 18.2192L70.2141 16.9563C70.1705 16.7985 70.1414 16.6262 70.1414 16.4397C70.1414 15.4064 70.9857 14.5741 72.0192 14.5741C72.1065 14.5741 72.2084 14.5741 72.2957 14.5884C72.3539 14.5741 72.4122 14.5741 72.4704 14.5597C72.4849 14.5597 72.5286 14.5453 72.5578 14.5311C72.5869 14.5311 72.6014 14.5167 72.616 14.5023C72.6596 14.488 72.6888 14.4736 72.7324 14.4449C72.8051 14.4162 72.878 14.3875 72.9508 14.3588C73.271 14.2152 73.6349 14.1148 74.0133 14.0574C74.2172 14.0287 74.4209 14.0143 74.6393 14.0143C74.9013 14.0143 75.1488 14.0431 75.3817 14.0718C75.6583 14.1148 75.9203 14.1866 76.1678 14.2871C76.3133 14.3301 76.4298 14.3588 76.4589 14.3588C76.619 14.3588 76.6335 14.1866 76.8374 14.1866C76.8956 14.1866 77.0266 14.2583 77.1139 14.2871L77.0847 14.3301C76.7355 14.8898 76.4443 15.5356 76.2696 16.2532C76.2696 16.2674 76.255 16.2818 76.255 16.2962C76.2405 16.3249 76.2405 16.368 76.226 16.3966C76.226 16.3966 78.9189 17.4586 78.9189 17.4729C78.9334 17.4299 79.3993 16.3105 79.3993 16.3105C79.3993 16.3105 79.8941 16.655 80.1562 16.7985C80.1416 16.9419 80.1416 17.1572 80.1562 17.4012C80.1999 18.1905 80.3455 19.3673 80.3891 19.726C80.4327 19.7691 80.4619 19.8122 80.5201 19.8122C80.5784 19.8122 81.2771 19.7404 81.4663 19.4821L81.3498 17.7456L81.2625 16.4684L80.3455 14.3014L80.1999 13.9714L79.9233 14.6171L78.817 17.2433L76.4152 16.3536V16.3392C76.4152 16.3249 76.4152 16.3249 76.4152 16.3105C76.6044 15.5499 76.9101 14.8754 77.2886 14.3014C77.3031 14.2727 77.3031 14.2583 77.3031 14.2583C77.3031 14.201 77.3031 14.2152 77.2886 14.201L76.6626 13.9714L76.8227 13.5552L76.6626 13.426L76.7064 13.3829L76.8665 13.2537L77.1139 13.0529L77.405 12.809L77.5361 12.7084L77.5797 12.6654L77.5215 12.5793C77.5215 12.5793 77.4196 12.4502 77.376 12.3927C77.274 12.2493 77.1867 12.0914 77.1139 11.9335C77.0702 11.8331 77.0266 11.7326 76.9975 11.6321C76.9829 11.5747 76.9684 11.546 76.9684 11.5173C76.9246 11.3882 76.9101 11.259 76.8956 11.1299C76.881 11.0581 76.881 10.9864 76.881 10.9146V10.9002C76.881 10.7567 76.9246 10.6132 76.9975 10.4984C77.012 10.4554 77.0411 10.4267 77.0847 10.3836L77.0994 10.3693C77.1285 10.3406 77.1576 10.3119 77.1867 10.2975C77.2449 10.2545 77.3031 10.2114 77.376 10.1827C77.4341 10.154 77.4778 10.1396 77.507 10.1253C77.507 10.0966 77.507 10.0535 77.507 10.0105C77.5361 10.0105 77.5652 10.0248 77.5797 10.0248C77.6525 10.0392 77.7252 10.0535 77.7835 10.0822H77.7981C77.7835 9.95309 77.6088 9.92439 77.5651 9.83829C77.5506 9.82393 77.5506 9.80958 77.5506 9.78088C77.5506 9.75217 77.5651 9.73783 77.5651 9.73783C77.5797 9.70913 77.6088 9.69477 77.6088 9.65172C77.6088 9.63737 77.6088 9.62301 77.5942 9.60867C77.5942 9.59432 77.5797 9.57996 77.5651 9.57996C77.5506 9.57996 77.5361 9.56562 77.5361 9.56562C77.5215 9.55126 77.507 9.55126 77.507 9.53691C77.4923 9.52256 77.4778 9.50821 77.4632 9.49386C77.3322 9.35035 77.2303 9.17814 77.1867 8.99158C77.1867 8.97723 77.1867 8.96288 77.1721 8.94853C77.1721 8.93417 77.1721 8.90548 77.1721 8.89112C77.1721 8.83372 77.1721 8.76196 77.1721 8.70457C77.1721 8.69021 77.1721 8.66151 77.1867 8.64716C77.2303 8.4319 77.3468 8.25969 77.507 8.11618C77.5506 8.07312 77.5942 8.04443 77.6525 8.01573C77.6525 8.01573 77.6525 8.01573 77.6671 8.00137C77.7253 7.97266 77.7981 7.92961 77.8563 7.91527C77.8708 7.91527 77.8854 7.90091 77.8854 7.90091C77.8999 7.90091 77.9 7.90091 77.9145 7.90091C77.9727 7.88656 78.0309 7.87221 78.1037 7.85786C78.1619 7.85786 78.2202 7.84351 78.2638 7.84351C78.3076 7.84351 78.3367 7.84351 78.3658 7.84351C78.3803 7.84351 78.3948 7.84351 78.4094 7.84351C78.4239 7.84351 78.4386 7.84351 78.4531 7.84351C78.4822 7.84351 78.5113 7.84351 78.5404 7.84351C78.5695 7.84351 78.6132 7.84351 78.6423 7.84351C78.6569 7.85786 78.6569 7.87222 78.6714 7.88656C78.6714 7.88656 78.6714 7.90091 78.686 7.90091C78.7151 7.95832 78.7442 8.00137 78.7588 8.03007C78.7588 8.03007 78.7588 8.04442 78.7733 8.04442C78.7733 8.05877 78.7879 8.07312 78.8024 8.08748C78.9043 8.17358 79.0499 8.20228 79.0935 8.27404C79.1373 8.34579 79.2683 8.61846 79.2683 8.61846C79.2683 8.61846 79.5594 8.93417 79.5594 8.94853C79.5594 9.00593 79.5594 9.03463 79.603 9.07769C79.6759 9.04899 79.7631 9.03463 79.7777 9.02028C79.7777 8.99158 79.7778 8.90548 79.7923 8.89112C79.7923 8.87678 79.9961 8.61846 80.098 8.63281C80.1271 8.63281 80.4765 8.60411 80.4765 8.60411C80.8258 8.31708 81.0151 7.98702 81.0878 7.62824V7.59955V7.58519C81.0878 7.57085 81.1023 7.55649 81.1169 7.54214C81.1461 7.51344 81.2042 7.49909 81.2625 7.51344C81.3062 7.52779 81.3643 7.54214 81.4226 7.57085C81.4954 7.6139 81.5827 7.6713 81.6556 7.74306C81.6846 7.77176 81.6992 7.78611 81.7137 7.81481C81.7574 7.87222 81.8011 7.91527 81.8302 7.97266C81.8884 8.08748 81.9175 8.17358 81.8884 8.23099C81.8884 8.23099 81.8884 8.23099 81.8738 8.24533C81.6846 8.58975 81.3062 8.89112 80.8112 9.06333C80.8112 9.06333 80.7676 9.07769 80.7821 9.07769C80.884 9.17814 80.9422 9.27859 80.9713 9.37905H81.4372V10.6993C81.4372 10.7137 81.4372 10.7424 81.4372 10.7567C81.4372 10.7711 81.4372 10.7998 81.4226 10.8141C81.4226 10.8285 81.4226 10.8428 81.4081 10.8572C81.3935 10.9146 81.3643 10.972 81.3353 11.0294C81.3353 11.0438 81.3207 11.0438 81.3062 11.0581C81.2042 11.1873 81.0587 11.2877 80.884 11.3164C80.8548 11.3164 80.8258 11.3164 80.7821 11.3308H80.1416L81.1897 12.4931C81.1897 12.4931 80.8695 12.7515 80.7676 12.852C80.7676 12.8663 80.884 13.0099 80.9277 13.0385C81.0005 13.0816 81.4517 13.1247 81.4081 13.3256C81.4081 13.3399 81.4081 13.3686 81.3935 13.3973C81.3643 13.4834 81.2479 13.6269 81.2042 13.6843C81.1315 13.7705 80.986 13.7847 80.9277 13.9426C81.0005 13.9857 81.0732 14.0862 81.0878 14.1579C81.248 13.9714 81.6118 13.5265 81.7574 13.2108C82.296 13.3399 83.6061 14.0574 83.9409 14.1723C84.232 14.2583 84.6832 14.3158 84.6832 14.3158C84.6541 14.4019 84.6105 14.5023 84.6105 14.5597C84.6105 14.5884 84.7123 14.6171 84.8288 14.6889C84.8724 14.7176 84.9453 14.775 85.0034 14.8324C84.9598 15.1625 85.0617 15.4638 85.1344 15.6935C85.1782 15.7795 85.2073 15.88 85.2364 15.9804C85.2509 16.0092 85.2509 16.0379 85.2655 16.0809C85.2801 16.1527 85.2946 16.2244 85.3092 16.3105C85.3237 16.411 85.3383 16.5114 85.3383 16.6119C85.3383 16.6406 85.3383 16.6693 85.3383 16.6837C85.3383 16.6981 85.3383 16.7267 85.3383 16.741C85.3383 16.7554 85.3383 16.7698 85.3383 16.7985C85.3383 16.8271 85.3383 16.8415 85.3383 16.8702C85.3383 16.9994 85.3237 17.1142 85.2947 17.2433C85.2947 17.272 85.2801 17.3007 85.2801 17.3295C85.2801 17.3725 85.2655 17.4012 85.2509 17.4443C85.2218 17.5877 85.1782 17.7169 85.1199 17.8461C85.1199 17.8604 85.1054 17.8748 85.1054 17.8891C85.1054 17.9034 85.1054 17.9034 85.0908 17.9178V17.9322C85.0763 17.9322 85.0617 17.9178 85.0472 17.9178C84.9598 17.8891 84.8871 17.8604 84.8142 17.8174C84.7706 17.7886 84.7123 17.76 84.6687 17.7169C84.625 17.6738 84.5813 17.6452 84.5377 17.6021C84.6105 17.76 84.7269 17.9178 84.8724 18.0183C84.9016 18.0326 84.9162 18.0613 84.9453 18.0757C84.9598 18.0901 84.9889 18.0901 85.0034 18.1043C85.0034 18.1043 85.3674 18.2192 85.4257 18.2335C85.6294 18.2766 86.168 18.3483 86.561 18.4919C86.6192 18.5062 86.7357 18.3771 87.0705 18.4058C87.4053 18.4344 87.6673 18.7645 87.6527 18.9798C87.6527 19.195 87.5508 19.2525 87.5217 19.3816C87.4781 19.5395 87.2161 20.9458 87.187 21.1898C87.1724 21.3476 87.1579 21.5629 87.1579 21.5773C87.1579 21.606 87.2161 21.8644 87.2306 21.9504C87.2306 21.9648 87.2306 21.9792 87.2306 21.9934C87.2306 22.0365 87.2306 22.0796 87.2161 22.1082C87.187 22.2949 87.0996 22.4527 86.9686 22.5244C86.9686 22.5388 86.9686 22.5388 86.954 22.5531C86.9395 22.625 86.9104 22.6823 86.8812 22.754C86.7357 23.1272 86.5319 23.4429 86.299 23.6725V23.6582L85.7895 22.6823V22.6679C85.8914 22.4814 86.037 22.2949 86.2116 22.1226C86.2263 22.0939 86.2554 22.0796 86.2844 22.0509C86.3426 22.0078 86.3864 21.9648 86.4445 21.9073C86.4445 21.893 86.4445 21.8786 86.4445 21.8644C86.4445 21.6777 86.5319 21.4912 86.6629 21.362C86.6775 21.3476 86.7066 21.319 86.7211 21.3046C86.7211 21.2616 86.7939 19.7978 86.7357 19.2525C86.6193 19.2381 86.3135 19.152 86.1534 19.0372C86.1098 18.9941 84.4648 19.152 84.4067 19.152C84.363 19.152 84.2175 19.0946 84.1301 19.0946C84.0427 19.0946 83.8826 19.1233 83.8244 19.1233C83.708 19.1233 83.6061 19.0802 83.5187 19.0228C83.4314 18.9511 83.3586 18.8649 83.3295 18.7501C83.315 18.7215 83.3149 18.6928 83.3149 18.6784C83.3149 18.664 83.3149 18.6497 83.3149 18.6353V18.621C83.3149 18.6067 83.3149 18.5923 83.3149 18.5636C83.3149 18.5492 83.315 18.5349 83.3295 18.5062C83.344 18.4631 83.3586 18.42 83.3877 18.3771C83.3004 18.3483 83.213 18.3196 83.1258 18.2766C83.0529 18.2335 82.9656 18.1905 82.8928 18.1331C82.7181 18.0039 82.558 17.8461 82.4415 17.6738C82.3979 17.6165 82.3688 17.5447 82.3397 17.4873C82.4415 17.9034 82.7035 18.2479 83.0675 18.4775C83.0675 18.5062 83.0529 18.5492 83.0529 18.578C83.0529 18.6497 83.0529 18.7071 83.0675 18.7645C83.0966 18.8937 83.1694 19.0228 83.2567 19.1233C83.3586 19.2381 83.5041 19.3242 83.6642 19.3673C83.5332 19.8408 83.2421 20.6589 83.2421 20.7162C83.2421 20.8885 82.7909 21.7782 82.7909 21.7782C82.7909 22.1513 82.6744 22.5244 82.6308 22.8402C82.6163 22.9263 82.6163 22.998 82.6163 23.0697C82.6163 23.1272 82.5871 23.5003 82.558 24.1174C82.558 24.1748 82.5434 24.1748 82.5434 24.2322C82.5434 24.2752 82.558 24.3327 82.5871 24.3757C82.5871 24.3757 82.5871 24.3757 82.5871 24.39C82.6017 24.4188 82.6308 24.4475 82.6454 24.4761C82.6744 24.5192 82.7035 24.548 82.7327 24.5909C82.7909 24.677 82.8491 24.7776 82.9074 24.878C82.9365 24.9354 82.951 24.9785 82.9801 25.0215C82.9946 25.0502 83.0093 25.0789 83.0093 25.0933C83.0966 25.3228 83.1694 25.5524 83.1839 25.7677H81.9758C81.9903 25.696 82.0048 25.6243 82.0048 25.5524C82.0194 25.2942 81.9612 25.0215 81.8157 24.7632C81.7428 24.6197 81.7283 24.5336 81.6264 24.4188C81.6409 24.3183 81.6556 24.1174 81.7283 23.9022C81.7866 23.6869 82.0048 23.3425 82.0048 23.3281C82.0048 23.3281 82.0777 21.893 82.0777 21.8213C82.0777 21.7639 81.9758 21.2472 81.932 20.9746C81.932 20.9602 81.8738 20.501 81.6992 20.1709C81.6701 20.1135 81.8302 19.97 81.8738 19.8839L81.8447 19.8552H81.8302C81.7719 19.9126 80.5928 20.2571 80.5928 20.2571C80.5928 20.2571 80.3309 19.927 80.229 19.8695C79.7486 19.8408 79.2245 19.7691 78.7005 19.683C77.8999 19.5395 77.1721 19.3386 76.5607 19.1233C76.4443 19.0802 76.3279 19.0372 76.2114 18.9941L76.1969 19.0085C76.1969 19.0228 76.1969 19.0516 76.1969 19.0658C76.1969 19.152 76.1969 19.2237 76.1823 19.2955C76.1531 19.6113 76.0659 19.9126 75.9348 20.1565C75.8766 20.2857 75.8038 20.3861 75.731 20.4866C75.731 20.501 75.7165 20.501 75.7165 20.5153C75.7601 20.6158 75.8038 20.7306 75.8329 20.8454C75.8475 20.9171 75.862 20.9889 75.862 21.075C75.862 21.1755 75.862 21.2616 75.862 21.3476C76.6917 22.3235 77.1285 23.0841 77.2303 23.2276C77.2303 23.2276 77.2303 23.2276 77.2449 23.242C77.405 23.3281 77.5361 23.529 77.5361 23.773C77.5361 23.8447 77.5215 23.9022 77.507 23.9739C77.4778 24.0456 77.4487 24.1174 77.405 24.1748C77.4196 24.2465 77.4341 24.304 77.4487 24.3757C77.4778 24.5192 77.4778 24.677 77.4778 24.8349V24.8493C77.4632 25.0933 77.4196 25.3086 77.3468 25.5095C77.3322 25.5524 77.3031 25.5955 77.2886 25.6386L76.3715 24.8924L76.3424 24.878C76.3861 24.7776 76.4298 24.6628 76.488 24.5623C76.5316 24.4619 76.6335 24.3327 76.6772 24.2465C76.5899 24.1461 76.488 24.0312 76.488 23.8447C76.488 23.8161 76.488 23.7874 76.488 23.7586C76.488 23.7299 76.488 23.7155 76.488 23.6869C76.5025 23.5003 76.5607 23.3425 76.6335 23.242C76.5171 23.0411 76.255 22.6679 76.1678 22.5531C76.0221 22.3666 75.7602 22.1082 75.6292 21.9934C75.5564 21.9361 75.2653 21.8644 75.2215 21.85C75.2507 21.85 75.207 21.85 75.2215 21.85C75.1488 21.8356 74.9304 21.8069 74.9304 21.8069L74.6102 21.7495H74.5957L74.6829 21.5055V21.4912C74.6976 21.3907 74.6976 21.3046 74.6829 21.2042C74.6684 21.1324 74.6538 21.075 74.6393 21.0176C74.6247 21.0033 74.6247 20.9746 74.6102 20.9602C74.5957 20.9315 74.5811 20.9171 74.5666 20.8885L74.552 20.8741C74.4355 20.7306 74.1735 20.3861 74.1298 20.3431C74.1443 20.3288 74.1443 20.3144 74.159 20.3144L74.1735 20.3001C74.3482 20.0992 74.4937 19.8552 74.6102 19.6112C74.6684 19.4965 74.7267 19.3673 74.7703 19.2381C74.8286 19.0802 74.8722 18.9224 74.9013 18.7501C74.9159 18.6784 74.9304 18.5923 74.9449 18.5206C74.9449 18.5206 74.9449 18.5062 74.9449 18.4919C75.0032 18.4488 75.0469 18.42 75.1052 18.3771C75.2507 18.2622 75.3817 18.1331 75.4835 17.9895C75.5564 17.9034 75.6145 17.803 75.6583 17.7025C75.6728 17.6738 75.6728 17.6594 75.6874 17.6452C75.6728 17.6594 75.6583 17.6882 75.6437 17.7025C75.469 17.9465 75.2362 18.1474 74.9741 18.3053C74.9596 18.3053 74.9596 18.3196 74.9449 18.3196C74.9304 18.334 74.9013 18.3483 74.8722 18.3627C74.8139 18.3914 74.7703 18.4202 74.7121 18.4344C74.6976 18.5062 74.6829 18.578 74.6684 18.6497C74.6393 18.7501 74.6247 18.8507 74.5811 18.9654C74.5519 19.0516 74.5228 19.1377 74.4937 19.2237C74.4356 19.3673 74.3773 19.4965 74.3045 19.6255C74.2172 19.7834 74.1298 19.927 74.028 20.0561C73.9988 20.0848 73.9842 20.1279 73.9551 20.1565C73.7514 20.4005 73.5039 20.6301 73.2419 20.8023C73.0964 20.9029 72.9362 20.9746 72.7761 21.0463C72.7324 21.0607 72.6888 21.0894 72.645 21.1037C72.616 21.2472 72.4122 21.4625 72.2667 21.5773C72.2084 21.6347 72.0919 21.7064 72.0337 21.7925C71.9027 21.9792 71.8299 22.1943 71.7863 22.3666C71.6843 22.6967 71.5679 23.3137 71.5679 23.3856C71.5679 23.4429 71.5388 23.6869 71.5388 23.7443C71.5388 23.8017 71.7134 24.39 71.7134 24.4475V24.4619C71.9609 24.634 72.1793 24.8924 72.3248 25.2224C72.4122 25.409 72.4559 25.5955 72.4849 25.7677H71.4514C71.4223 25.6099 71.3932 25.452 71.3204 25.2942C71.2186 25.0071 71.073 24.7632 70.8983 24.5766C70.8546 24.5336 70.811 24.4905 70.7673 24.4475C70.7527 24.4188 70.7382 24.39 70.7382 24.3471V24.3327C70.7382 24.1748 70.8401 23.8878 70.8983 23.7299C70.9275 23.6582 70.9566 23.6007 70.9566 23.5434C70.9566 23.486 71.0584 22.2805 71.0584 22.2374C71.0438 22.2087 70.8546 21.606 70.6655 21.362C70.7382 21.2759 70.811 21.2042 70.8546 21.1467C71.0002 21.0033 71.1021 20.9315 71.1894 20.6732C71.2039 20.6158 71.2477 20.6158 71.2477 20.5584C71.2477 20.5297 71.2477 20.5153 71.2331 20.501C71.0147 20.6589 70.7236 20.7593 70.4325 20.7593C70.7818 20.4866 70.9566 20.0274 70.8692 19.5682C70.942 19.5538 70.942 19.5395 70.942 19.5251Z" fill="#828D93"/>
<path d="M0.910889 25.6383V11.0435H8.48022V13.5118H3.67661V16.8699H7.34483V19.3382H3.67661V23.1843H8.66947V25.6527H0.910889V25.6383Z" fill="#828D93"/>
<path d="M15.8164 15.1048C15.5835 14.416 15.3215 13.9136 15.0013 13.6123C14.6811 13.2966 14.288 13.153 13.8076 13.153C13.3127 13.153 12.9343 13.2966 12.6723 13.5836C12.4102 13.8707 12.2792 14.2581 12.2792 14.7603C12.2792 15.1191 12.4393 15.4492 12.745 15.7218C13.0507 15.9945 13.4291 16.2672 13.8804 16.5255C14.3317 16.7839 14.8266 17.0565 15.3652 17.3435C15.9038 17.6306 16.3986 17.975 16.8499 18.3624C17.3012 18.7499 17.6796 19.2235 17.9853 19.7545C18.2911 20.2998 18.4512 20.9456 18.4512 21.6918C18.4512 22.3232 18.3492 22.8973 18.1454 23.4139C17.9417 23.9305 17.636 24.3611 17.243 24.7342C16.8499 25.093 16.3695 25.38 15.7873 25.5665C15.2196 25.7674 14.5646 25.8535 13.8513 25.8535C12.7159 25.8535 11.7406 25.5236 10.9255 24.8778C10.1103 24.232 9.51348 23.1843 9.13501 21.7493L11.8571 21.1608C11.9298 21.6057 12.0609 21.9788 12.2064 22.2803C12.3665 22.5816 12.5413 22.8256 12.7304 23.0121C12.9343 23.1987 13.138 23.3422 13.3564 23.4139C13.5747 23.5 13.7931 23.5287 13.9823 23.5287C14.4627 23.5287 14.8702 23.3708 15.1905 23.0695C15.5108 22.7681 15.6854 22.3376 15.6854 21.7923C15.6854 21.333 15.5253 20.9456 15.2196 20.6155C14.9139 20.2854 14.5354 19.9841 14.0842 19.6971C13.633 19.41 13.138 19.1374 12.5994 18.8647C12.0609 18.5921 11.5659 18.2764 11.1147 17.9175C10.6634 17.5587 10.285 17.1426 9.97928 16.6691C9.6736 16.1954 9.51348 15.6214 9.51348 14.9326C9.51348 13.6698 9.87739 12.6652 10.6052 11.9476C11.333 11.2157 12.4102 10.8569 13.8513 10.8569C14.4627 10.8569 15.0158 10.943 15.5108 11.1152C16.0056 11.2875 16.4424 11.5314 16.8062 11.8471C17.1847 12.1628 17.4905 12.536 17.7378 12.9665C17.9853 13.397 18.1746 13.8707 18.2911 14.3873L15.8164 15.1048Z" fill="#828D93"/>
<path d="M28.0439 11.0435V13.5118H24.8269V25.6383H22.0612V13.5118H18.8442V11.0435H28.0439Z" fill="#828D93"/>
<path d="M26.239 25.6383L29.8199 11.0435H33.3571L36.8361 25.6383H34.2015L33.5027 22.5673H29.6744L28.8883 25.6383H26.239ZM30.1839 20.0988H32.9204L31.5813 14.2006H31.5376L30.1839 20.0988Z" fill="#828D93"/>
<path d="M37.4329 11.0435H41.2757C42.0618 11.0435 42.7605 11.1296 43.3719 11.3161C43.9832 11.5027 44.5072 11.7897 44.9293 12.1916C45.3516 12.5934 45.6863 13.1243 45.9192 13.7558C46.1522 14.4015 46.2832 15.1765 46.3123 16.0949V20.5868C46.2832 21.5052 46.1522 22.2802 45.9192 22.926C45.6863 23.5717 45.3516 24.0884 44.9293 24.4903C44.5072 24.892 43.9832 25.1934 43.3719 25.3657C42.7605 25.5522 42.0618 25.6383 41.2757 25.6383H37.4329V11.0435ZM40.1985 23.1699H41.1592C41.9162 23.1699 42.513 22.9547 42.9352 22.5385C43.3573 22.108 43.5611 21.3618 43.5611 20.2711V16.425C43.5611 15.3918 43.3719 14.6455 43.0079 14.1863C42.644 13.7414 42.0181 13.5118 41.1592 13.5118H40.1985V23.1699Z" fill="#828D93"/>
<path d="M46.2834 25.6385L49.8643 11.0437H53.4016L56.8806 25.6385H54.2458L53.5471 22.5675H49.7187L48.9327 25.6385H46.2834ZM55.2356 7.51337C55.1629 7.84344 55.0755 8.14482 54.9736 8.43183C54.8718 8.71884 54.7261 8.97716 54.566 9.20678C54.4059 9.43639 54.1875 9.62295 53.94 9.7521C53.6927 9.88126 53.3869 9.95302 53.0231 9.95302C52.7611 9.95302 52.499 9.90997 52.237 9.83821C51.975 9.76646 51.7275 9.68035 51.48 9.59425C51.2471 9.50814 50.9997 9.42204 50.7668 9.35029C50.5339 9.27853 50.301 9.23547 50.0827 9.23547C49.8352 9.23547 49.6314 9.32158 49.4858 9.49379C49.3402 9.66601 49.2383 9.86692 49.1801 10.0965H47.9138C47.972 9.76646 48.0448 9.46509 48.1613 9.16372C48.2776 8.86236 48.4232 8.60404 48.6125 8.37442C48.8017 8.14482 49.02 7.95825 49.2821 7.8291C49.5441 7.69994 49.8497 7.62818 50.2137 7.62818C50.4757 7.62818 50.7377 7.67123 50.9997 7.74299C51.2618 7.8291 51.5091 7.9152 51.7566 8.00131C52.0041 8.08741 52.2225 8.17352 52.4408 8.25962C52.6591 8.34573 52.8338 8.37442 52.994 8.37442C53.2268 8.37442 53.4307 8.28832 53.6053 8.11611C53.7654 7.9439 53.8819 7.74299 53.94 7.49902H55.2356V7.51337ZM50.2137 20.099H52.9502L51.6256 14.2009H51.582L50.2137 20.099Z" fill="#828D93"/>
<path d="M56.9241 15.7362C56.9241 14.8322 57.0406 14.0716 57.2589 13.4544C57.4918 12.8373 57.7974 12.3351 58.205 11.9476C58.598 11.5601 59.0785 11.2875 59.6461 11.1152C60.1993 10.943 60.8252 10.8569 61.4803 10.8569C62.1499 10.8569 62.7612 10.943 63.3143 11.1152C63.8674 11.2875 64.3478 11.5745 64.7554 11.9476C65.1485 12.3351 65.4688 12.8373 65.7016 13.4544C65.9345 14.0716 66.0364 14.8322 66.0364 15.7362V20.9456C66.0364 21.8497 65.92 22.6103 65.7016 23.2274C65.4688 23.8444 65.163 24.3467 64.7554 24.7342C64.3624 25.1217 63.8821 25.3944 63.3143 25.5665C62.7612 25.7388 62.1353 25.8249 61.4803 25.8249C60.8107 25.8249 60.1993 25.7388 59.6461 25.5665C59.093 25.3944 58.6126 25.1073 58.205 24.7342C57.812 24.3467 57.4918 23.8444 57.2589 23.2274C57.0259 22.6103 56.9241 21.8497 56.9241 20.9456V15.7362ZM59.6898 21.3188C59.6898 22.1223 59.85 22.6677 60.1702 22.9547C60.4904 23.2418 60.9271 23.3852 61.4948 23.3852C62.0479 23.3852 62.4992 23.2418 62.8195 22.9547C63.1397 22.6677 63.2998 22.1223 63.2998 21.3188V15.3775C63.2998 14.5738 63.1397 14.0285 62.8195 13.7415C62.4992 13.4544 62.0625 13.311 61.4948 13.311C60.9417 13.311 60.4904 13.4544 60.1702 13.7415C59.85 14.0285 59.6898 14.5738 59.6898 15.3775V21.3188Z" fill="#828D93"/>
</g>
<defs>
<clipPath id="clip0">
<rect width="87.2554" height="32.8624" fill="white" transform="translate(0.910889 0.699707)"/>
</clipPath>
</defs>
</svg>
