<svg width="82" height="34" viewBox="0 0 82 34" fill="none" xmlns="http://www.w3.org/2000/svg">
<g clip-path="url(#clip0)">
<path d="M13.1015 0.961914C11.6054 1.63496 9.99557 2.19262 8.29106 2.65414C5.73428 3.30795 2.98812 3.69255 0.166199 3.69255V17.5188C0.166199 20.1148 0.866943 22.7494 2.32525 25.0954C2.76084 25.7877 3.25326 26.4414 3.78356 27.0376C4.50324 27.8452 5.29868 28.5567 6.15094 29.1529C6.79486 29.5952 7.45773 29.9989 8.15848 30.3258L11.2455 31.8066L13.1015 32.7104L18.0447 30.3451C20.3553 29.2298 22.4007 27.4798 23.859 25.1145C25.3362 22.7494 26.018 20.1341 26.018 17.5381V3.69255C21.3211 3.69255 16.8325 2.63491 13.1015 0.961914ZM24.3703 17.5188C24.3703 19.8841 23.7075 22.1916 22.4764 24.1916C21.2265 26.1914 19.465 27.7683 17.3439 28.7874L13.1206 30.8258L8.89711 28.7874C6.79486 27.7875 5.01459 26.1914 3.78356 24.1916C2.53358 22.1916 1.87072 19.8841 1.87072 17.5188V5.34632C5.75322 5.15401 9.61678 4.26945 13.1206 2.80798C16.6243 4.28868 20.5068 5.15401 24.3703 5.34632V17.5188Z" fill="#828D93"/>
<path d="M13.1016 22.9991C9.42743 22.9991 6.43507 19.9608 6.43507 16.2302C6.43507 12.4997 9.42743 9.46134 13.1016 9.46134C16.7758 9.46134 19.7681 12.4997 19.7681 16.2302C19.7681 19.9801 16.7758 22.9991 13.1016 22.9991ZM13.1016 8.61523C8.95396 8.61523 5.60175 12.0189 5.60175 16.2302C5.60175 20.4416 8.95396 23.8452 13.1016 23.8452C17.2493 23.8452 20.6015 20.4416 20.6015 16.2302C20.6015 12.0381 17.2304 8.61523 13.1016 8.61523Z" fill="#828D93"/>
<path d="M9.33286 16.2308C9.33286 15.9423 9.35179 15.673 9.37073 15.3846C9.37073 15.3461 9.37073 15.3077 9.33286 15.2884C9.31391 15.2693 9.27604 15.25 9.23816 15.25H7.53364C7.47682 15.25 7.42001 15.2884 7.40107 15.3654C7.36319 15.6539 7.34425 15.9423 7.32532 16.2308C7.32532 16.5192 7.34425 16.8076 7.40107 17.0961C7.40107 17.1538 7.45789 17.2114 7.53364 17.2114H9.23816C9.27604 17.2114 9.31391 17.1922 9.33286 17.173C9.3518 17.1345 9.37073 17.1153 9.37073 17.0768C9.35179 16.7884 9.33286 16.5192 9.33286 16.2308Z" fill="#828D93"/>
<path d="M12.7609 17.0961V15.3846C12.7609 15.3077 12.7041 15.25 12.6283 15.25H10.1852C10.1094 15.25 10.0526 15.3077 10.0526 15.3654C10.0336 15.6539 10.0147 15.9423 10.0147 16.2308C10.0147 16.5192 10.0336 16.8076 10.0526 17.0961C10.0526 17.173 10.1094 17.2114 10.1852 17.2114H12.6283C12.6851 17.2114 12.7609 17.1538 12.7609 17.0961Z" fill="#828D93"/>
<path d="M12.7607 10.5391C12.4577 10.616 12.1547 10.8083 11.9085 11.0198C11.7948 11.116 11.6433 11.289 11.5487 11.4044C11.5108 11.4621 11.3025 11.7505 11.3403 11.8275C11.3593 11.8467 11.435 11.8467 11.454 11.8467H12.6282C12.704 11.8467 12.7607 11.789 12.7607 11.7121V10.5391Z" fill="#828D93"/>
<path d="M10.8669 12.5573C10.8101 12.5573 10.7722 12.5766 10.7533 12.6343C10.4881 13.1919 10.3177 13.8073 10.1851 14.4034C10.1851 14.4418 10.1851 14.4804 10.2041 14.5188C10.223 14.5572 10.2609 14.5572 10.2987 14.5572H12.6094C12.6851 14.5572 12.7419 14.4995 12.7419 14.4226V12.6727C12.7419 12.5958 12.6851 12.5381 12.6094 12.5381H10.8669V12.5573Z" fill="#828D93"/>
<path d="M11.2648 10.7109C10.6587 10.9225 10.1095 11.2301 9.59813 11.6147C9.56024 11.6532 9.42767 11.7686 9.42767 11.8263H9.44661C9.52236 11.8455 9.59813 11.8455 9.67388 11.8455H10.2989C10.3557 11.8455 10.3936 11.8263 10.4125 11.7878C10.6398 11.4032 10.9239 11.0186 11.2648 10.7109Z" fill="#828D93"/>
<path d="M8.70777 12.5576C8.6699 12.5576 8.63202 12.5769 8.61308 12.6153C8.19642 13.1538 7.85551 13.7498 7.64719 14.4037C7.62825 14.4421 7.64719 14.4806 7.66612 14.5191C7.68507 14.5576 7.72294 14.5767 7.77976 14.5767H9.37064C9.42746 14.5767 9.48427 14.5383 9.50321 14.4614C9.59791 13.8845 9.76835 13.3076 9.97669 12.7499C9.99562 12.7115 9.99562 12.673 9.95775 12.6346C9.93881 12.596 9.90094 12.5769 9.84412 12.5769H8.70777V12.5576Z" fill="#828D93"/>
<path d="M16.8517 16.2308C16.8517 16.5192 16.8328 16.7884 16.8138 17.0768C16.8138 17.1153 16.8138 17.1538 16.8517 17.173C16.8706 17.1922 16.9086 17.2114 16.9464 17.2114H18.651C18.7077 17.2114 18.7645 17.173 18.7835 17.0961C18.8214 16.8076 18.8403 16.5192 18.8592 16.2308C18.8592 15.9423 18.8403 15.6539 18.7835 15.3654C18.7645 15.3077 18.7267 15.25 18.651 15.25H16.9464C16.9086 15.25 16.8706 15.2693 16.8517 15.2884C16.8328 15.3269 16.8328 15.3654 16.8328 15.4039C16.8517 15.673 16.8517 15.9615 16.8517 16.2308Z" fill="#828D93"/>
<path d="M13.4425 15.3846V17.0768C13.4425 17.1538 13.4994 17.2114 13.5751 17.2114H16.0182C16.094 17.2114 16.1508 17.1538 16.1508 17.0961C16.1697 16.8076 16.1887 16.5192 16.1887 16.2308C16.1887 15.9423 16.1697 15.6539 16.1508 15.3654C16.1508 15.2884 16.094 15.25 16.0182 15.25H13.5751C13.4994 15.25 13.4425 15.3077 13.4425 15.3846Z" fill="#828D93"/>
<path d="M13.4425 10.5391V11.7121C13.4425 11.789 13.4994 11.8467 13.5751 11.8467H14.7493C14.7682 11.8467 14.863 11.8467 14.863 11.8275C14.9008 11.7505 14.6925 11.4621 14.6547 11.4044C14.5599 11.2698 14.4274 11.116 14.2948 11.0198C14.0485 10.8083 13.7455 10.616 13.4425 10.5391Z" fill="#828D93"/>
<path d="M15.3175 12.5576H13.5751C13.4994 12.5576 13.4425 12.6153 13.4425 12.6922V14.423C13.4425 14.4998 13.4994 14.5576 13.5751 14.5576H15.8857C15.9235 14.5576 15.9615 14.5383 15.9804 14.5191C15.9993 14.4806 16.0182 14.4614 15.9993 14.4037C15.8857 13.7884 15.6963 13.1922 15.4311 12.6346C15.4122 12.5769 15.3744 12.5576 15.3175 12.5576Z" fill="#828D93"/>
<path d="M14.9389 10.7109C15.2798 11.0186 15.5639 11.4032 15.7911 11.7878C15.8101 11.8263 15.8479 11.8455 15.9047 11.8455H16.5298C16.6055 11.8455 16.6813 11.8455 16.757 11.8263H16.7759C16.757 11.7686 16.6433 11.634 16.6055 11.6147C16.0942 11.2301 15.526 10.9225 14.9389 10.7109Z" fill="#828D93"/>
<path d="M17.4955 12.5576H16.3592C16.3213 12.5576 16.2834 12.5769 16.2455 12.6153C16.2266 12.6538 16.2077 12.6922 16.2266 12.7307C16.4539 13.2884 16.6054 13.8652 16.7 14.4421C16.719 14.4998 16.7569 14.5576 16.8326 14.5576H18.4235C18.4613 14.5576 18.4993 14.5383 18.5372 14.4998C18.5561 14.4614 18.575 14.423 18.5561 14.3844C18.3478 13.7307 18.0068 13.1345 17.5902 12.596C17.5712 12.5576 17.5334 12.5576 17.4955 12.5576Z" fill="#828D93"/>
<path d="M12.7607 21.9218V20.7489C12.7607 20.6719 12.704 20.6143 12.6282 20.6143H11.454C11.435 20.6143 11.3403 20.6143 11.3403 20.6334C11.3025 20.7104 11.5108 20.9989 11.5487 21.0565C11.6433 21.1912 11.7759 21.3449 11.9085 21.4411C12.1358 21.6526 12.4388 21.8449 12.7607 21.9218Z" fill="#828D93"/>
<path d="M10.8669 19.9224H12.6094C12.6851 19.9224 12.742 19.8648 12.742 19.7878V18.0379C12.742 17.961 12.6851 17.9033 12.6094 17.9033H10.3177C10.2798 17.9033 10.2419 17.9226 10.223 17.9417C10.2041 17.9803 10.1851 17.9994 10.2041 18.0572C10.3177 18.6725 10.5071 19.2686 10.7722 19.8263C10.7722 19.9032 10.8291 19.9224 10.8669 19.9224Z" fill="#828D93"/>
<path d="M11.2648 21.7693C10.9239 21.4615 10.6398 21.077 10.4125 20.6924C10.3936 20.6539 10.3557 20.6348 10.2989 20.6348H9.67388C9.59813 20.6348 9.50343 20.6348 9.44661 20.6539H9.42767C9.44661 20.7116 9.56024 20.827 9.59813 20.8655C10.0905 21.2501 10.6587 21.5577 11.2648 21.7693Z" fill="#828D93"/>
<path d="M8.70777 19.9227H9.84412C9.88199 19.9227 9.91987 19.9035 9.95775 19.865C9.97669 19.8266 9.99562 19.7881 9.97669 19.7497C9.76836 19.192 9.59791 18.6151 9.50321 18.0382C9.48427 17.9805 9.44639 17.9229 9.37064 17.9229H7.77976C7.74189 17.9229 7.704 17.9421 7.66612 17.9805C7.64719 18.0189 7.62825 18.0575 7.64719 18.0959C7.85551 18.7497 8.19642 19.3458 8.61308 19.8843C8.63202 19.9035 8.6699 19.9227 8.70777 19.9227Z" fill="#828D93"/>
<path d="M13.4425 21.9218C13.7455 21.8449 14.0485 21.6526 14.2948 21.4411C14.4084 21.3258 14.5599 21.1719 14.6547 21.0565C14.6925 20.9989 14.9008 20.7104 14.863 20.6334C14.844 20.6143 14.7682 20.6143 14.7493 20.6143H13.5751C13.4994 20.6143 13.4425 20.6719 13.4425 20.7489V21.9218Z" fill="#828D93"/>
<path d="M15.3175 19.9227C15.3744 19.9227 15.4122 19.9035 15.4311 19.8459C15.6963 19.2881 15.8667 18.6728 15.9993 18.0766C15.9993 18.0382 15.9993 17.9998 15.9804 17.9613C15.9615 17.9229 15.9235 17.9229 15.8857 17.9229H13.5751C13.4994 17.9229 13.4425 17.9805 13.4425 18.0575V19.8073C13.4425 19.8843 13.4994 19.942 13.5751 19.942H15.3175V19.9227Z" fill="#828D93"/>
<path d="M14.9389 21.7693C15.5449 21.5577 16.0942 21.2501 16.6055 20.8655C16.6433 20.827 16.7759 20.7116 16.7759 20.6539H16.757C16.6813 20.6348 16.6055 20.6348 16.5298 20.6348H15.8858C15.829 20.6348 15.7911 20.6539 15.7721 20.6924C15.5449 21.077 15.2608 21.4424 14.9389 21.7693Z" fill="#828D93"/>
<path d="M17.4954 19.9224C17.5333 19.9224 17.5712 19.9032 17.5902 19.8648C18.0068 19.3264 18.3477 18.7302 18.556 18.0764C18.5749 18.0379 18.556 17.9994 18.537 17.961C18.5181 17.9226 18.4803 17.9033 18.4234 17.9033H16.8325C16.7757 17.9033 16.719 17.9417 16.6999 18.0187C16.6053 18.5956 16.4349 19.1918 16.2265 19.7301C16.2076 19.7687 16.2076 19.8071 16.2454 19.8455C16.2643 19.884 16.3023 19.9032 16.3591 19.9032H17.4954V19.9224Z" fill="#828D93"/>
<path d="M13.1206 22.9991C13.1017 22.9991 13.1017 22.9991 13.0828 22.9991C9.40863 22.9991 6.41627 19.9608 6.41627 16.2302C6.41627 12.4997 9.40863 9.46134 13.0828 9.46134C13.0828 9.46134 13.1017 9.46134 13.1206 9.46134V8.61523C13.1017 8.61523 13.1017 8.61523 13.0828 8.61523C8.93516 8.61523 5.58295 12.0189 5.58295 16.2302C5.58295 20.4416 8.9541 23.8452 13.1017 23.8452C13.1017 23.8452 13.1206 23.8452 13.1397 23.8452V22.9991H13.1206Z" fill="#828D93"/>
<path d="M31.4156 9.69251H30.9421V9.32715H32.3626V9.69251H31.927L31.889 13.1731H32.3626V13.5385H30.9421V13.1731H31.3967L31.4156 9.69251Z" fill="#828D93"/>
<path d="M33.5558 9.69221H33.0066V9.30762H33.9914L36.2641 12.4037C36.302 12.4613 36.3399 12.4997 36.3588 12.5574C36.3966 12.6151 36.4156 12.6728 36.4535 12.7113H36.4724L36.4914 9.69221H35.961V9.30762H37.3626V9.69221H36.908L36.8891 13.5382H36.4724L34.1239 10.3653C34.0671 10.2883 34.0104 10.1922 33.9724 10.096H33.9535L33.9346 13.1536H34.4649V13.5382H33.0823V13.1536H33.5368L33.5558 9.69221Z" fill="#828D93"/>
<path d="M39.5215 9.69251H38.3851L38.3473 10.3463H37.9117L37.9495 9.32715H41.6047L41.6427 10.3463H41.2071L41.1691 9.69251H40.0328L40.0139 13.1731H40.5253V13.5385H39.048V13.1731H39.5026L39.5215 9.69251Z" fill="#828D93"/>
<path d="M42.7035 9.69251H42.23V9.32715H45.033V10.2886H44.5974V9.69251H43.2148L43.1959 11.1924H44.5026V11.5578H43.1959V13.1731H44.6352L44.6732 12.5H45.1088L45.0708 13.5385H42.23V13.1731H42.6656L42.7035 9.69251Z" fill="#828D93"/>
<path d="M46.7374 11.2886H47.2298C47.3624 11.2886 47.476 11.2694 47.6086 11.2501C47.7223 11.2117 47.8169 11.1732 47.9116 11.0963C48.0064 11.0194 48.0631 10.9424 48.12 10.8271C48.1579 10.7309 48.1957 10.5963 48.1957 10.4425C48.1957 10.2886 48.1768 10.1733 48.12 10.0579C48.0631 9.96173 48.0064 9.88481 47.9116 9.82712C47.8169 9.76943 47.7223 9.73097 47.5897 9.71174C47.476 9.69251 47.3434 9.67328 47.2109 9.67328H46.7563L46.7374 11.2886ZM45.7715 9.32715H47.1541C47.3434 9.32715 47.5328 9.34638 47.7033 9.36561C47.8927 9.38484 48.0442 9.44252 48.1957 9.51944C48.3472 9.59636 48.4609 9.71174 48.5556 9.84635C48.6502 9.98096 48.6882 10.1925 48.6882 10.4232C48.6882 10.5963 48.6692 10.7501 48.6124 10.8848C48.5556 11.0194 48.4798 11.1348 48.3851 11.2309C48.2904 11.327 48.1957 11.404 48.0821 11.4617C47.9684 11.5193 47.8359 11.5578 47.7223 11.5578V11.577C47.798 11.577 47.8738 11.6155 47.9684 11.6924C48.0631 11.7693 48.1579 11.8847 48.2525 12.0578L48.6124 12.6732C48.6692 12.7885 48.726 12.8655 48.7639 12.9423C48.8017 13.0193 48.8397 13.0578 48.8776 13.0962C48.9154 13.1346 48.9532 13.1539 48.9912 13.1731C49.0291 13.1923 49.0858 13.1923 49.1427 13.1923H49.3321V13.5769H49.0858C48.9722 13.5769 48.8965 13.5769 48.8207 13.5577C48.745 13.5577 48.6881 13.5385 48.6313 13.5001C48.5745 13.4808 48.5177 13.4231 48.4798 13.3846C48.423 13.3269 48.3851 13.2501 48.3283 13.1731L47.9305 12.4809C47.8359 12.327 47.7601 12.1924 47.7033 12.0962C47.6465 12.0001 47.5708 11.9232 47.5139 11.8655C47.4571 11.8078 47.4003 11.7693 47.3245 11.7501C47.2677 11.7309 47.1919 11.7116 47.0972 11.7116H46.7753L46.7563 13.1923H47.2298V13.5769H45.7904V13.1923H46.2449L46.264 9.73097H45.7904V9.32715H45.7715Z" fill="#828D93"/>
<path d="M50.3359 9.69221H49.7866V9.30762H50.7715L53.0442 12.4037C53.082 12.4613 53.1199 12.4997 53.1389 12.5574C53.1768 12.6151 53.1957 12.6728 53.2335 12.7113H53.2525L53.2714 9.69221H52.7601V9.30762H54.1616V9.69221H53.707L53.6881 13.5382H53.2714L50.923 10.3653C50.8662 10.2883 50.8093 10.1922 50.7715 10.096H50.7336L50.7147 13.1536H51.2449V13.5382H49.8624V13.1536H50.317L50.3359 9.69221Z" fill="#828D93"/>
<path d="M57.1727 11.5001L56.6803 10.0963C56.6614 10.0194 56.6425 9.98096 56.6235 9.92327C56.6046 9.88481 56.6045 9.84635 56.5856 9.80789H56.5667C56.5667 9.84635 56.5477 9.88481 56.5288 9.92327C56.5099 9.96173 56.491 10.0194 56.472 10.0963L55.9228 11.5001H57.1727ZM54.4456 13.1731H54.8243L56.3773 9.32715H56.9266L58.328 13.1731H58.7257V13.5577H57.3242V13.1731H57.7599L57.3053 11.8847H55.8091L55.3167 13.1731H55.8091V13.5577H54.4456V13.1731Z" fill="#828D93"/>
<path d="M60.2409 9.69251H59.1045L59.0667 10.3463H58.6311L58.669 9.32715H62.3242L62.362 10.3463H61.9264L61.8886 9.69251H60.7522L60.7333 13.1731H61.2447V13.5385H59.7674V13.1731H60.222L60.2409 9.69251Z" fill="#828D93"/>
<path d="M63.4226 9.69251H62.9492V9.32715H64.3885V9.69251H63.934L63.9151 13.1731H64.3885V13.5385H62.9492V13.1731H63.4037L63.4226 9.69251Z" fill="#828D93"/>
<path d="M65.506 11.423C65.506 11.6537 65.5249 11.8653 65.5818 12.096C65.6386 12.3075 65.7143 12.4998 65.8279 12.6729C65.9416 12.8267 66.0931 12.9613 66.2635 13.0576C66.453 13.1536 66.6613 13.2113 66.9075 13.2113C67.1536 13.2113 67.3809 13.1536 67.5514 13.0576C67.7407 12.9613 67.8733 12.8267 67.987 12.6729C68.1006 12.5191 68.1763 12.3268 68.2332 12.096C68.29 11.8845 68.3089 11.6537 68.3089 11.423C68.3089 11.1922 68.29 10.9807 68.2332 10.7499C68.1763 10.5384 68.1006 10.3461 67.987 10.1923C67.8733 10.0384 67.7218 9.90381 67.5514 9.80767C67.362 9.71152 67.1536 9.65383 66.9075 9.65383C66.6613 9.65383 66.4339 9.71152 66.2635 9.80767C66.0742 9.90381 65.9416 10.0384 65.8279 10.1923C65.7143 10.3461 65.6386 10.5384 65.5818 10.7499C65.5438 10.9807 65.506 11.2114 65.506 11.423ZM64.9756 11.4999C64.9756 11.173 65.0136 10.8653 65.1082 10.5961C65.203 10.3269 65.3166 10.0769 65.4871 9.8846C65.6575 9.69229 65.8659 9.51922 66.0931 9.42307C66.3393 9.30769 66.6234 9.25 66.9264 9.25C67.2484 9.25 67.5325 9.30769 67.7787 9.42307C68.0248 9.53845 68.2332 9.69229 68.3847 9.8846C68.5552 10.0769 68.6688 10.3076 68.7445 10.5576C68.8203 10.8076 68.8582 11.0768 68.8582 11.3845C68.8582 11.7114 68.8203 12.0191 68.7256 12.2883C68.631 12.5576 68.5173 12.8076 68.3469 12.9999C68.1763 13.1922 67.9681 13.3652 67.7407 13.4613C67.4946 13.5767 67.2105 13.6345 66.9075 13.6345C66.5855 13.6345 66.3015 13.5767 66.0552 13.4613C65.809 13.3459 65.6007 13.1922 65.4492 12.9999C65.2787 12.8076 65.1651 12.5767 65.0893 12.3268C65.0136 12.0576 64.9756 11.7883 64.9756 11.4999Z" fill="#828D93"/>
<path d="M69.9379 9.69221H69.3886V9.30762H70.3735L72.6462 12.4037C72.684 12.4613 72.7219 12.4997 72.7408 12.5574C72.7788 12.6151 72.7977 12.6728 72.8355 12.7113H72.8545L72.8734 9.69221H72.3621V9.30762H73.7636V9.69221H73.309L73.2901 13.5382H72.8734L70.525 10.3653C70.4682 10.2883 70.4113 10.1922 70.3735 10.096H70.3545L70.3356 13.1536H70.8658V13.5382H69.4833V13.1536H69.9379V9.69221Z" fill="#828D93"/>
<path d="M76.7746 11.5001L76.2822 10.0963C76.2633 10.0194 76.2444 9.98096 76.2255 9.92327C76.2064 9.88481 76.2064 9.84635 76.1875 9.80789H76.1686C76.1686 9.84635 76.1497 9.88481 76.1307 9.92327C76.1118 9.96173 76.0929 10.0194 76.074 10.0963L75.5247 11.5001H76.7746ZM74.0475 13.1731H74.4262L75.9792 9.32715H76.5285L77.9299 13.1731H78.3276V13.5577H76.9261V13.1731H77.3617L76.9072 11.8847H75.411L74.9187 13.1731H75.411V13.5577H74.0475V13.1731Z" fill="#828D93"/>
<path d="M79.3503 9.69251H78.8768V9.32715H80.2782V9.69251H79.8616L79.8426 13.1731H81.2631L81.3009 12.5H81.7365L81.6987 13.5385H78.8768V13.1731H79.3314L79.3503 9.69251Z" fill="#828D93"/>
<path d="M30.9045 22.4226H31.9272V23.6148C32.022 23.6725 32.1355 23.7301 32.287 23.7687C32.4196 23.8071 32.5711 23.8456 32.7226 23.8648C32.8741 23.884 33.0447 23.9033 33.1962 23.9224C33.3477 23.9417 33.4992 23.9417 33.6318 23.9417C34.2567 23.9417 34.7491 23.8071 35.1279 23.5187C35.5068 23.2302 35.6961 22.8264 35.6961 22.3072C35.6961 22.0187 35.6203 21.7687 35.4878 21.5764C35.3552 21.3841 35.1658 21.2303 34.9386 21.0957C34.7113 20.9611 34.465 20.865 34.181 20.7881C33.8969 20.7111 33.6129 20.6149 33.3098 20.5381C33.0067 20.4419 32.7226 20.3458 32.4385 20.2496C32.1546 20.1535 31.8894 19.9996 31.681 19.8265C31.4538 19.6535 31.2833 19.4227 31.1317 19.1727C30.9993 18.9035 30.9235 18.5766 30.9235 18.1728C30.9235 17.9035 30.9613 17.6151 31.056 17.3266C31.1508 17.0382 31.3212 16.769 31.5484 16.519C31.7947 16.269 32.1166 16.0575 32.5333 15.9037C32.9499 15.7498 33.4803 15.6729 34.1242 15.6729C34.2757 15.6729 34.465 15.6921 34.6734 15.7114C34.8817 15.7305 35.109 15.7691 35.3173 15.7883C35.5446 15.8267 35.7529 15.8652 35.9423 15.9228C36.1317 15.9805 36.3211 16.0383 36.4536 16.096V17.8843H35.4878V16.7882C35.412 16.7497 35.2984 16.7306 35.1847 16.692C35.0712 16.6536 34.9386 16.6344 34.806 16.6151C34.6734 16.5959 34.5408 16.5767 34.3893 16.5574C34.2567 16.5383 34.1431 16.5383 34.0294 16.5383C33.8022 16.5383 33.556 16.5574 33.3288 16.6151C33.1014 16.6729 32.8741 16.7497 32.6848 16.8652C32.4954 16.9805 32.3439 17.1343 32.2113 17.3459C32.0977 17.5382 32.022 17.7882 32.022 18.0766C32.022 18.4612 32.1355 18.7497 32.3818 18.942C32.6091 19.1343 32.9121 19.2881 33.2719 19.4227C33.6318 19.5573 34.0105 19.6535 34.4272 19.7496C34.8438 19.8458 35.2227 19.9803 35.5824 20.1726C35.9423 20.3458 36.2264 20.5958 36.4726 20.9034C36.6999 21.2111 36.8325 21.6341 36.8325 22.1726C36.8325 22.6533 36.7377 23.0764 36.5484 23.4033C36.359 23.7494 36.1128 24.0187 35.8098 24.2302C35.5068 24.4417 35.1469 24.5956 34.7491 24.6917C34.3515 24.7879 33.9348 24.8263 33.5181 24.8263C33.1582 24.8263 32.8552 24.807 32.5711 24.7686C32.3061 24.7302 32.0598 24.6917 31.8514 24.634C31.6432 24.5956 31.4727 24.5379 31.3212 24.4802C31.1697 24.4224 31.0371 24.384 30.9045 24.3647V22.4226Z" fill="#828D93"/>
<path d="M45.5252 18.1336H44.5593V16.7491C44.4078 16.7106 44.1995 16.6529 43.8965 16.6145C43.6124 16.5568 43.2904 16.5376 42.9116 16.5376C42.3813 16.5376 41.9078 16.6145 41.4722 16.7683C41.0366 16.9222 40.6767 17.1529 40.3548 17.4605C40.0518 17.7683 39.8055 18.1529 39.6351 18.5952C39.4647 19.0566 39.389 19.5759 39.389 20.172C39.389 21.3835 39.692 22.3258 40.298 22.9795C40.9041 23.6333 41.7942 23.9603 42.9873 23.9603C43.2525 23.9603 43.4987 23.941 43.745 23.9026C43.9911 23.8642 44.2184 23.8256 44.4267 23.768L44.4836 22.3065H45.4494L45.3926 24.4602C45.26 24.5179 45.1085 24.5756 44.9002 24.6141C44.7108 24.6525 44.4836 24.6911 44.2563 24.7295C44.029 24.7679 43.7828 24.7872 43.5555 24.8064C43.3283 24.8256 43.101 24.8256 42.8927 24.8256C42.173 24.8256 41.529 24.7295 40.9608 24.5564C40.3928 24.3641 39.9003 24.0949 39.4836 23.7296C39.086 23.3641 38.7639 22.8834 38.5556 22.3258C38.3472 21.7489 38.2337 21.095 38.2337 20.3451C38.2337 19.7297 38.3283 19.1336 38.5178 18.5759C38.7072 18.0183 38.9912 17.5183 39.389 17.0952C39.7866 16.6722 40.2791 16.3453 40.8662 16.076C41.4722 15.826 42.173 15.6914 42.9873 15.6914C43.2146 15.6914 43.4609 15.7107 43.6881 15.7299C43.9154 15.7491 44.1616 15.7876 44.3699 15.826C44.5972 15.8646 44.8055 15.9222 44.9949 15.9607C45.1843 16.0183 45.3548 16.0569 45.5063 16.1145V18.1336H45.5252Z" fill="#828D93"/>
<path d="M47.9305 16.6145H46.9456V15.8262H49.9569V16.6145H49.0101L48.9911 19.8644H53.5175L53.5365 16.6145H52.5516V15.8262H55.544V16.6145H54.597L54.5592 23.8642H55.544V24.6718H52.5516V23.8642H53.4986L53.5175 20.6529H48.9911L48.9722 23.8642H49.9569V24.6718H46.9456V23.8642H47.8926L47.9305 16.6145Z" fill="#828D93"/>
<path d="M57.8923 20.2496C57.8923 20.7304 57.9491 21.1918 58.0628 21.6534C58.1764 22.0956 58.3469 22.4995 58.5931 22.8456C58.8203 23.1918 59.1422 23.461 59.5211 23.6725C59.8999 23.884 60.3544 23.9801 60.8657 23.9801C61.396 23.9801 61.8316 23.884 62.2105 23.6725C62.5892 23.461 62.8922 23.1918 63.1384 22.8456C63.3657 22.4995 63.5551 22.1149 63.6688 21.6534C63.7823 21.2111 63.8392 20.7304 63.8392 20.2496C63.8392 19.7689 63.7823 19.3073 63.6688 18.8458C63.5551 18.4035 63.3847 17.9997 63.1384 17.6535C62.9111 17.3075 62.5892 17.0382 62.2105 16.8267C61.8316 16.6151 61.3771 16.519 60.8657 16.519C60.3355 16.519 59.8999 16.6151 59.5211 16.8267C59.1422 17.0382 58.8392 17.3075 58.5931 17.6535C58.3658 17.9997 58.1764 18.3843 58.0628 18.8458C57.9302 19.2881 57.8923 19.7689 57.8923 20.2496ZM56.7371 20.3842C56.7371 19.7112 56.8317 19.0766 57.0022 18.4997C57.1727 17.9228 57.4378 17.4228 57.7976 16.9997C58.1385 16.5767 58.5741 16.2498 59.0855 16.019C59.5969 15.7883 60.184 15.6729 60.8468 15.6729C61.5286 15.6729 62.1157 15.7883 62.6461 16.019C63.1574 16.2498 63.593 16.5767 63.9338 16.9805C64.2748 17.3843 64.54 17.8458 64.7104 18.3843C64.8808 18.9227 64.9566 19.4804 64.9566 20.0958C64.9566 20.7688 64.8619 21.4034 64.6915 21.9803C64.521 22.5572 64.2559 23.0571 63.896 23.4802C63.5551 23.9033 63.1195 24.2301 62.6081 24.4609C62.0968 24.6917 61.5097 24.807 60.8468 24.807C60.1649 24.807 59.5589 24.6917 59.0476 24.4609C58.5362 24.2301 58.1195 23.9033 57.7598 23.4994C57.4188 23.0956 57.1537 22.6341 56.9832 22.0956C56.8317 21.5764 56.7371 20.9995 56.7371 20.3842Z" fill="#828D93"/>
<path d="M67.5515 20.2496C67.5515 20.7304 67.6082 21.1918 67.7219 21.6534C67.8356 22.0956 68.006 22.4995 68.2522 22.8456C68.4794 23.1918 68.8015 23.461 69.1802 23.6725C69.559 23.884 70.0135 23.9801 70.5248 23.9801C71.0552 23.9801 71.4908 23.884 71.8696 23.6725C72.2483 23.461 72.5513 23.1918 72.7976 22.8456C73.0249 22.4995 73.2142 22.1149 73.3279 21.6534C73.4415 21.2111 73.4983 20.7304 73.4983 20.2496C73.4983 19.7689 73.4415 19.3073 73.3279 18.8458C73.2142 18.4035 73.0438 17.9997 72.7976 17.6535C72.5703 17.3075 72.2483 17.0382 71.8696 16.8267C71.4908 16.6151 71.0362 16.519 70.5248 16.519C69.9946 16.519 69.559 16.6151 69.1802 16.8267C68.8015 17.0382 68.4984 17.3075 68.2522 17.6535C68.0249 17.9997 67.8356 18.3843 67.7219 18.8458C67.6082 19.2881 67.5515 19.7689 67.5515 20.2496ZM66.4151 20.3842C66.4151 19.7112 66.5098 19.0766 66.6803 18.4997C66.8507 17.9228 67.1159 17.4228 67.4757 16.9997C67.8166 16.5767 68.2522 16.2498 68.7635 16.019C69.2749 15.7883 69.862 15.6729 70.5248 15.6729C71.2067 15.6729 71.7938 15.7883 72.3241 16.019C72.8354 16.2498 73.271 16.5767 73.612 16.9805C73.9528 17.3843 74.218 17.8458 74.3884 18.3843C74.5589 18.9227 74.6347 19.4804 74.6347 20.0958C74.6347 20.7688 74.5399 21.4034 74.3695 21.9803C74.1991 22.5572 73.9339 23.0571 73.5741 23.4802C73.2331 23.9033 72.7975 24.2301 72.2863 24.4609C71.7748 24.6917 71.1877 24.807 70.5248 24.807C69.8431 24.807 69.2371 24.6917 68.7257 24.4609C68.2143 24.2301 67.7977 23.9033 67.4378 23.4994C67.0969 23.0956 66.8318 22.6341 66.6613 22.0956C66.4909 21.5764 66.4151 20.9995 66.4151 20.3842Z" fill="#828D93"/>
<path d="M76.7747 16.6145H75.7711V15.8262H78.7255V16.6145H77.8354L77.7785 23.8642H80.7709L80.8467 22.4989H81.7558L81.6799 24.6718H75.7711V23.8642H76.7179L76.7747 16.6145Z" fill="#828D93"/>
</g>
<defs>
<clipPath id="clip0">
<rect width="81.5894" height="32.8624" fill="white" transform="translate(0.166199 0.961914)"/>
</clipPath>
</defs>
</svg>
