<svg width="89" height="33" viewBox="0 0 89 33" fill="none" xmlns="http://www.w3.org/2000/svg">
<g clip-path="url(#clip0)">
<path fill-rule="evenodd" clip-rule="evenodd" d="M12.4168 16.8613V27.8811L23.3472 16.8613H12.4168Z" fill="#828D93"/>
<path fill-rule="evenodd" clip-rule="evenodd" d="M0.543762 15.9251L11.9515 4.90527L23.3593 15.9251H0.543762Z" fill="#828D93"/>
<path fill-rule="evenodd" clip-rule="evenodd" d="M0.543762 15.9251L11.9515 4.90527V11.919L0.543762 15.9251Z" fill="#828D93"/>
<path fill-rule="evenodd" clip-rule="evenodd" d="M11.9515 11.919V4.90527L23.3592 15.9251L11.9515 11.919Z" fill="#828D93"/>
<path fill-rule="evenodd" clip-rule="evenodd" d="M12.4168 16.8613V27.8811L15.9909 20.4484L12.4168 16.8613Z" fill="#828D93"/>
<path fill-rule="evenodd" clip-rule="evenodd" d="M12.4168 16.8613L15.9909 20.4484L23.3472 16.8613H12.4168Z" fill="#828D93"/>
<path fill-rule="evenodd" clip-rule="evenodd" d="M20.9604 17.8598H13.604L12.4168 16.8613L13.5674 18.02H20.9726L23.3595 16.8613L20.9604 17.8598Z" fill="#828D93"/>
<path fill-rule="evenodd" clip-rule="evenodd" d="M11.4996 16.8613V27.8811L0.569214 16.8613H11.4996Z" fill="#828D93"/>
<path fill-rule="evenodd" clip-rule="evenodd" d="M11.4987 16.8613V27.8811L7.92468 20.4484L11.4987 16.8613Z" fill="#828D93"/>
<path fill-rule="evenodd" clip-rule="evenodd" d="M11.4996 16.8613L7.92551 20.4484L0.569214 16.8613H11.4996Z" fill="#828D93"/>
<path fill-rule="evenodd" clip-rule="evenodd" d="M11.9515 7.12402L4.28918 14.6184H19.6138L11.9515 7.12402Z" fill="#828D93"/>
<path fill-rule="evenodd" clip-rule="evenodd" d="M13.5674 18.0205V25.4903L20.9727 18.0205H13.5674Z" fill="#828D93"/>
<path fill-rule="evenodd" clip-rule="evenodd" d="M10.3482 25.4903V18.0205H2.94293L10.3482 25.4903Z" fill="#828D93"/>
<path d="M4.28938 14.6184L1.7312 15.5182L4.22817 14.4829L11.9517 7.12402L4.28938 14.6184Z" fill="#828D93"/>
<path fill-rule="evenodd" clip-rule="evenodd" d="M2.95604 17.8598H10.3123L11.4996 16.8613L10.349 18.02H2.94379L0.569214 16.8613L2.95604 17.8598Z" fill="#828D93"/>
<path fill-rule="evenodd" clip-rule="evenodd" d="M32.931 12.6954H36.3459L36.7744 10.6738H27.5942L27.1659 12.6954H30.5808L28.6102 22.1373H30.9603L32.931 12.6954Z" fill="#828D93"/>
<path fill-rule="evenodd" clip-rule="evenodd" d="M45.5384 10.6738H37.2397L34.8406 22.1373H43.4087L43.8371 20.1035H37.5824L38.1944 17.1329H43.7024L44.1186 15.1113H38.6228L39.1246 12.6954H45.1101L45.5384 10.6738Z" fill="#828D93"/>
<path fill-rule="evenodd" clip-rule="evenodd" d="M55.5629 14.4216C55.7955 12.7329 54.9142 10.3662 51.5359 10.3662C48.635 10.3662 45.93 12.4124 45.0854 16.4185C44.2531 20.3752 45.979 22.4337 48.9778 22.4337C51.8052 22.4337 53.7759 20.6957 54.7673 18.2057H52.405C51.8297 19.611 50.7648 20.3629 49.4552 20.3629C47.4601 20.3629 47.0439 18.5139 47.4722 16.4555C48.1454 13.2136 49.9814 12.4494 51.1076 12.4494C53.0537 12.4494 53.1516 13.7436 53.1884 14.4339H55.5629V14.4216Z" fill="#828D93"/>
<path fill-rule="evenodd" clip-rule="evenodd" d="M62.4295 18.649H62.3928L59.5899 10.6738H57.1051L54.706 22.1373H56.9092L58.6229 13.9526H58.6473L61.536 22.1373H63.8984L66.2974 10.6738H64.0942L62.4295 18.649Z" fill="#828D93"/>
<path fill-rule="evenodd" clip-rule="evenodd" d="M69.7982 10.6738H67.4481L65.0491 22.1373H67.3991L69.7982 10.6738Z" fill="#828D93"/>
<path fill-rule="evenodd" clip-rule="evenodd" d="M68.8312 18.6003C68.5375 20.0178 68.7333 22.4337 72.8582 22.4337C73.8497 22.4337 77.3626 22.1256 78.0848 18.6742C78.5131 16.6157 77.2401 15.9747 75.7714 15.5926L73.1643 14.9023C72.7114 14.7913 72.0382 14.5942 72.2218 13.7066C72.442 12.6713 73.5805 12.3384 74.4739 12.3384C76.5303 12.3384 76.4691 13.5465 76.4201 14.0641H78.6845C78.966 12.6589 78.5131 10.3662 75.0614 10.3662C71.4016 10.3662 70.2511 12.6219 69.9818 13.8915C69.4555 16.4185 71.1324 16.8252 72.8582 17.2567L74.0088 17.5402C75.1471 17.8237 75.9427 18.0702 75.7592 18.9577C75.5021 20.1657 74.2046 20.4368 73.0908 20.4368C71.0345 20.4368 70.9733 19.2288 71.0835 18.5879H68.8312V18.6003Z" fill="#828D93"/>
<path fill-rule="evenodd" clip-rule="evenodd" d="M81.1203 19.7707H85.2818L85.5144 22.1373H88.0726L86.4937 10.6738H83.7763L77.3625 22.1373H79.8473L81.1203 19.7707ZM84.5475 13.2501H84.5842L85.0371 17.7862H82.1607L84.5475 13.2501Z" fill="#828D93"/>
</g>
<defs>
<clipPath id="clip0">
<rect width="87.5289" height="31.7292" fill="white" transform="translate(0.543701 0.52832)"/>
</clipPath>
</defs>
</svg>
