<svg width="93" height="34" viewBox="0 0 93 34" fill="none" xmlns="http://www.w3.org/2000/svg">
<g clip-path="url(#clip0)">
<path d="M7.97662 22.9853L3.60334 18.2062V23.3794H0.755615V14.6588C0.755615 14.3632 0.85732 14.1661 1.00988 13.969C1.16243 13.8212 1.41669 13.7227 1.72181 13.7227H2.28118C2.53544 13.7227 2.73885 13.7719 2.94226 13.8212C3.14566 13.9198 3.29823 14.0183 3.45077 14.1661L7.82406 18.9452V13.8212H10.6718V22.5419C10.6718 22.8374 10.5701 23.0345 10.4175 23.2316C10.265 23.3794 10.0107 23.4779 9.70559 23.4779H9.14622C8.89196 23.4779 8.68854 23.4287 8.48514 23.3794C8.28173 23.2316 8.12917 23.1331 7.97662 22.9853Z" fill="#828D93"/>
<path d="M17.2826 21.2113C18.0453 21.2113 18.6556 20.965 19.1132 20.4231C19.5709 19.9304 19.8252 19.2899 19.8252 18.5508C19.8252 17.8611 19.5709 17.2699 19.1132 16.7279C18.6556 16.2352 18.0453 15.9395 17.2826 15.9395C16.5707 15.9395 15.9605 16.1859 15.5028 16.7279C15.0451 17.2206 14.7908 17.8611 14.7908 18.6001C14.7908 19.3391 15.0451 19.9304 15.5028 20.4723C16.0112 20.965 16.5707 21.2113 17.2826 21.2113ZM16.6723 23.6256C16.0112 23.6256 15.401 23.4777 14.7908 23.2314C14.2315 22.985 13.7229 22.6402 13.3161 22.1475C12.9093 21.7041 12.6042 21.162 12.3499 20.5709C12.0956 19.9797 11.994 19.2899 11.994 18.6001C11.994 17.9104 12.0956 17.2699 12.3499 16.6293C12.6042 15.9888 12.9093 15.4961 13.3161 15.0035C13.7229 14.5601 14.2315 14.2152 14.7908 13.9195C15.3503 13.6732 16.0112 13.5254 16.6723 13.5254C17.2826 13.5254 17.7911 13.624 18.2996 13.8703C18.8082 14.0674 19.215 14.4122 19.6218 14.8556V13.821H22.317V23.3792H19.7234V22.1968C19.3675 22.6895 18.9098 23.0343 18.3505 23.2807C17.8928 23.527 17.2826 23.6256 16.6723 23.6256Z" fill="#828D93"/>
<path d="M27.8598 23.3789C26.6902 23.3789 25.8257 23.0832 25.1646 22.492C24.5036 21.9008 24.1984 21.0632 24.1984 20.0286V11.1602H27.097V13.8207H29.6904V16.1856H27.097V19.7329C27.097 20.1271 27.1986 20.3734 27.4529 20.6198C27.6563 20.8168 28.0124 20.9647 28.4192 20.9647H29.6396V23.3296H27.8598V23.3789Z" fill="#828D93"/>
<path d="M36.047 23.6257C34.5215 23.6257 33.301 23.2316 32.4874 22.3941C31.6229 21.5564 31.2161 20.4725 31.2161 19.093V13.8213H34.2163V19.2409C34.2163 19.8321 34.3688 20.3248 34.674 20.6696C34.979 21.0638 35.4367 21.2116 36.0978 21.2116C36.7589 21.2116 37.2166 21.0145 37.5217 20.6696C37.8268 20.2755 37.9794 19.8321 37.9794 19.2409V13.8213H40.9796V19.093C40.9796 20.4725 40.5728 21.6057 39.7084 22.4434C38.8439 23.2809 37.5726 23.6257 36.047 23.6257Z" fill="#828D93"/>
<path d="M46.2173 13.8213H47.9971V16.1861H46.7766C46.3698 16.1861 46.0139 16.2847 45.8105 16.5311C45.6071 16.7281 45.4544 17.0237 45.4544 17.4179V23.3794H42.556V17.2208C42.556 16.1861 42.861 15.3486 43.5221 14.7573C44.1832 14.1168 45.0985 13.8213 46.2173 13.8213Z" fill="#828D93"/>
<path d="M53.947 21.2113C54.7098 21.2113 55.32 20.965 55.7777 20.4231C56.2354 19.9304 56.4896 19.2899 56.4896 18.5508C56.4896 17.8611 56.2354 17.2699 55.7777 16.7279C55.32 16.2352 54.7098 15.9395 53.947 15.9395C53.235 15.9395 52.6248 16.1859 52.1672 16.7279C51.7095 17.2206 51.4552 17.8611 51.4552 18.6001C51.4552 19.3391 51.7095 19.9304 52.1672 20.4723C52.6248 20.965 53.235 21.2113 53.947 21.2113ZM53.2859 23.6256C52.6248 23.6256 52.0146 23.4777 51.4044 23.2314C50.845 22.985 50.3364 22.6402 49.9296 22.1475C49.5228 21.7041 49.2178 21.162 48.9635 20.5709C48.7092 19.9797 48.6075 19.2899 48.6075 18.6001C48.6075 17.9104 48.7092 17.2699 48.9635 16.6293C49.2178 15.9888 49.5228 15.4961 49.9296 15.0035C50.3364 14.5601 50.845 14.2152 51.4044 13.9195C51.9638 13.6732 52.6248 13.5254 53.2859 13.5254C53.8961 13.5254 54.4047 13.624 54.9132 13.8703C55.4217 14.0674 55.8285 14.4122 56.2354 14.8556V13.821H58.9305V23.3792H56.337V22.1968C55.9811 22.6895 55.5234 23.0343 54.964 23.2807C54.5063 23.527 53.947 23.6256 53.2859 23.6256Z" fill="#828D93"/>
<path d="M66.4565 17.0238L66.6091 17.1716C66.8633 17.0238 67.0667 16.8759 67.2194 16.6789C67.3719 16.4818 67.4737 16.2847 67.4737 16.0877C67.4737 15.9399 67.4228 15.792 67.2702 15.6443C67.1685 15.4965 66.9651 15.4472 66.7617 15.4472C66.5583 15.4472 66.4057 15.4965 66.2531 15.6443C66.1006 15.792 66.0497 15.9399 66.0497 16.1861C66.0497 16.334 66.1006 16.4818 66.1515 16.6297C66.1515 16.6789 66.2531 16.8267 66.4565 17.0238ZM64.8801 20.7682C64.8801 20.9652 64.9819 21.1131 65.1344 21.3102C65.3378 21.458 65.5921 21.5565 65.8972 21.5565C66.1514 21.5565 66.4057 21.5073 66.7108 21.458C66.9651 21.3595 67.2702 21.2609 67.5244 21.1131L65.9989 19.5857L65.5921 19.7829C65.3378 19.9306 65.1344 20.0784 65.0327 20.2755C64.931 20.4234 64.8801 20.6204 64.8801 20.7682ZM65.7955 23.5766C65.2361 23.5766 64.7276 23.5273 64.3208 23.3795C63.914 23.2316 63.5072 23.0346 63.2529 22.7882C62.9477 22.5419 62.7443 22.2956 62.5918 21.9507C62.4392 21.655 62.3884 21.3102 62.3884 20.9652C62.3884 20.5218 62.4901 20.0784 62.7443 19.635C62.9986 19.1916 63.4563 18.7975 64.1683 18.4525L64.6767 18.2063C64.3208 17.812 64.0665 17.4179 63.8631 17.0238C63.7106 16.6297 63.6088 16.2847 63.6088 15.9399C63.6088 15.2008 63.914 14.5604 64.5242 14.0677C65.1344 13.5749 65.8972 13.2793 66.7617 13.2793C67.2194 13.2793 67.6771 13.3286 68.033 13.4764C68.3889 13.6242 68.6941 13.8213 68.9483 14.0677C69.2026 14.314 69.406 14.5604 69.5077 14.9052C69.6603 15.2008 69.7111 15.4965 69.7111 15.8413C69.7111 16.3833 69.5585 16.8759 69.2026 17.3193C68.8975 17.7629 68.4398 18.157 67.8805 18.5018L69.05 19.7336C69.2026 19.5365 69.3551 19.3395 69.5077 19.1423C69.6603 18.9452 69.7619 18.6989 69.8637 18.5018H72.2537C72.0503 19.0438 71.7452 19.5365 71.44 19.9799C71.135 20.4234 70.8298 20.8668 70.4739 21.2116L72.4571 23.2809H69.7619L68.9991 22.4927C68.4907 22.8375 67.9821 23.0839 67.4228 23.2316C66.8634 23.478 66.3549 23.5766 65.7955 23.5766Z" fill="#828D93"/>
<path d="M78.6102 23.6256C77.7965 23.6256 76.9829 23.4777 76.3218 23.2314C75.6099 22.985 75.0505 22.5909 74.542 22.1475C74.0335 21.7041 73.6775 21.162 73.4232 20.5216C73.1689 19.8811 73.0164 19.2406 73.0164 18.5508C73.0164 17.8611 73.1689 17.2206 73.4232 16.5801C73.6775 15.9888 74.0843 15.4469 74.542 15.0035C75.0505 14.5601 75.6099 14.2152 76.3218 13.9195C77.0338 13.6732 77.7965 13.5254 78.661 13.5254C79.0679 13.5254 79.4747 13.5747 79.8306 13.624C80.2374 13.7225 80.5426 13.821 80.7968 13.9195V16.4322C80.5934 16.3338 80.39 16.2845 80.034 16.1859C79.729 16.0874 79.3221 16.0381 78.8645 16.0381C77.9491 16.0381 77.1863 16.2845 76.6777 16.7772C76.1693 17.2699 75.8641 17.8611 75.8641 18.5508C75.8641 19.2899 76.1184 19.8811 76.6777 20.3738C77.1863 20.8665 77.9491 21.1129 78.8645 21.1129C79.3221 21.1129 79.6781 21.0636 80.034 20.965C80.3392 20.8665 80.5934 20.7679 80.7968 20.7186V23.1822C80.5426 23.2807 80.2374 23.3792 79.8306 23.4777C79.4238 23.5763 79.017 23.6256 78.6102 23.6256Z" fill="#828D93"/>
<path d="M87.1534 21.2113C87.9162 21.2113 88.4755 20.965 88.9841 20.4723C89.4418 19.9797 89.696 19.3391 89.696 18.6001C89.696 17.8611 89.4418 17.2699 88.9841 16.7772C88.5264 16.2845 87.9162 16.0381 87.1534 16.0381C86.4414 16.0381 85.8312 16.2845 85.3735 16.7772C84.9158 17.2699 84.6617 17.9104 84.6617 18.6001C84.6617 19.3391 84.9158 19.9797 85.3735 20.4723C85.8821 20.965 86.4414 21.2113 87.1534 21.2113ZM87.1534 23.6256C86.3906 23.6256 85.6787 23.4777 85.0176 23.2314C84.3565 22.985 83.7972 22.5909 83.3395 22.1475C82.8818 21.7041 82.4749 21.162 82.2208 20.5709C81.9665 19.9797 81.8138 19.2899 81.8138 18.5508C81.8138 17.8611 81.9665 17.2206 82.2208 16.5801C82.4749 15.9888 82.8818 15.4469 83.3395 15.0035C83.7972 14.5601 84.3565 14.2152 85.0176 13.9195C85.6787 13.6732 86.3906 13.5254 87.1534 13.5254C87.9162 13.5254 88.6281 13.6732 89.2891 13.9195C89.9502 14.1659 90.5096 14.5601 90.9673 15.0035C91.425 15.4469 91.8318 15.9888 92.0861 16.5801C92.3402 17.1713 92.4929 17.8611 92.4929 18.5508C92.4929 19.2899 92.3402 19.9304 92.0861 20.5709C91.8318 21.2113 91.425 21.7041 90.9673 22.1475C90.5096 22.5909 89.9502 22.9358 89.2891 23.2314C88.6789 23.527 87.9671 23.6256 87.1534 23.6256Z" fill="#828D93"/>
</g>
<defs>
<clipPath id="clip0">
<rect width="91.7881" height="32.8624" fill="white" transform="translate(0.755615 0.961914)"/>
</clipPath>
</defs>
</svg>
