<svg width="130" height="36" viewBox="0 0 130 36" fill="none" xmlns="http://www.w3.org/2000/svg">
<g clip-path="url(#clip0)">
<path d="M89.4782 24.3125H87.0591C87.0102 24.3127 86.9631 24.2943 86.9271 24.2612C86.8911 24.2281 86.869 24.1826 86.8651 24.1338C86.8632 24.1184 86.8632 24.1027 86.8651 24.0872L88.2464 16.4063C88.2524 16.3606 88.242 16.3142 88.217 16.2755C88.1921 16.2367 88.1541 16.2081 88.11 16.1948C88.0659 16.1815 88.0186 16.1843 87.9764 16.2028C87.9342 16.2212 87.8999 16.2541 87.8797 16.2956L84.4905 24.1902C84.4768 24.2267 84.4516 24.2578 84.4187 24.2788C84.3859 24.2998 84.3471 24.3096 84.3082 24.3067H81.3303C81.2819 24.3067 81.2356 24.2874 81.2014 24.2532C81.1672 24.219 81.148 24.1725 81.148 24.1241L80.5543 16.2276C80.5555 16.2021 80.5516 16.1766 80.5429 16.1526C80.5342 16.1286 80.5209 16.1066 80.5037 16.0877C80.4865 16.0689 80.4657 16.0536 80.4426 16.0428C80.4195 16.032 80.3945 16.0258 80.369 16.0246C80.3436 16.0235 80.3181 16.0274 80.2941 16.0361C80.2702 16.0448 80.2481 16.0581 80.2293 16.0753C80.2105 16.0926 80.1952 16.1133 80.1844 16.1365C80.1736 16.1596 80.1675 16.1846 80.1663 16.2101L78.7928 24.1397C78.7849 24.183 78.7626 24.2223 78.7295 24.2512C78.6963 24.2802 78.6544 24.297 78.6105 24.2989H76.1952C76.1437 24.2989 76.0944 24.2784 76.058 24.242C76.0216 24.2056 76.0012 24.1562 76.0012 24.1047C76.0003 24.0957 76.0003 24.0865 76.0012 24.0775L78.1293 12.0987C78.1376 12.0558 78.1601 12.0169 78.1932 11.9883C78.2263 11.9598 78.2681 11.9432 78.3117 11.9414H82.537C82.5864 11.9444 82.6328 11.9661 82.6667 12.0022C82.7006 12.0384 82.7194 12.0861 82.7193 12.1356L83.3013 20.5215C83.3072 20.5717 83.3324 20.6176 83.3715 20.6495C83.4106 20.6814 83.4606 20.6968 83.5109 20.6925C83.544 20.6889 83.5758 20.6769 83.603 20.6575C83.6301 20.6381 83.6519 20.612 83.666 20.5818L87.1018 12.0812C87.1149 12.0441 87.1399 12.0124 87.1728 11.991C87.2058 11.9696 87.2449 11.9597 87.2841 11.9628H91.5986C91.6475 11.9626 91.6946 11.9809 91.7306 12.0141C91.7666 12.0472 91.7887 12.0927 91.7926 12.1414C91.7945 12.1569 91.7945 12.1726 91.7926 12.1881L89.6722 24.1552C89.6636 24.2001 89.6394 24.2405 89.6039 24.2692C89.5684 24.298 89.5239 24.3133 89.4782 24.3125Z" fill="#828D93"/>
<path d="M105.375 17.0555C105.375 21.4621 102.451 24.5539 98.2491 24.5539C94.5961 24.5539 92.5765 22.2234 92.5765 19.1976C92.5765 14.7716 95.4982 11.6992 99.7002 11.6992C103.349 11.6992 105.375 14.0278 105.375 17.0555ZM102.403 17.1274C102.403 15.1387 101.4 13.7773 99.5372 13.7773C96.8212 13.7773 95.5486 16.702 95.5486 19.1355C95.5486 21.1048 96.5496 22.4856 98.4101 22.4856C101.118 22.4856 102.403 19.5647 102.403 17.1274Z" fill="#828D93"/>
<path d="M109.014 24.1537L106.938 12.173C106.933 12.1495 106.932 12.1252 106.936 12.1014C106.94 12.0777 106.949 12.055 106.961 12.0346C106.974 12.0142 106.991 11.9965 107.011 11.9826C107.03 11.9687 107.052 11.9588 107.076 11.9535H107.121H109.773C109.818 11.9554 109.861 11.9731 109.895 12.0036C109.929 12.0341 109.95 12.0755 109.957 12.1206L111.195 21.5183C111.181 21.5456 111.173 21.5758 111.174 21.6064C111.174 21.637 111.181 21.6672 111.195 21.6944C111.209 21.7217 111.229 21.7453 111.253 21.7633C111.278 21.7813 111.307 21.7932 111.337 21.798C111.367 21.8028 111.398 21.8004 111.427 21.791C111.456 21.7816 111.483 21.7655 111.504 21.7439C111.526 21.7223 111.542 21.6959 111.552 21.6668C111.561 21.6378 111.564 21.6068 111.559 21.5766L116.204 12.0604C116.22 12.0286 116.244 12.0019 116.274 11.983C116.304 11.9642 116.339 11.954 116.374 11.9535H118.945C118.992 11.9503 119.04 11.966 119.076 11.9973C119.112 12.0285 119.135 12.0728 119.139 12.1206C119.141 12.1609 119.131 12.2009 119.11 12.2351L112.758 24.212C112.742 24.2424 112.717 24.2677 112.687 24.2855C112.658 24.3032 112.624 24.3127 112.589 24.313H109.194C109.151 24.3106 109.109 24.2936 109.077 24.2647C109.044 24.2358 109.022 24.1967 109.014 24.1537Z" fill="#828D93"/>
<path d="M122.514 17.0204H127.839C127.888 17.0203 127.935 17.0386 127.971 17.0717C128.007 17.1048 128.03 17.1503 128.033 17.1991C128.035 17.2146 128.035 17.2302 128.033 17.2457L127.696 19.046C127.69 19.0899 127.668 19.1301 127.634 19.1591C127.601 19.188 127.558 19.2038 127.514 19.2033H122.054C122.01 19.2053 121.969 19.2221 121.935 19.251C121.902 19.2799 121.88 19.3193 121.872 19.3626L121.438 21.8873C121.432 21.9108 121.431 21.9351 121.435 21.9588C121.439 21.9826 121.448 22.0053 121.461 22.0257C121.474 22.0461 121.49 22.0638 121.51 22.0777C121.53 22.0916 121.552 22.1015 121.575 22.1067H121.62H127.517C127.566 22.1066 127.613 22.1249 127.649 22.158C127.685 22.1912 127.707 22.2367 127.711 22.2854C127.712 22.3009 127.712 22.3165 127.711 22.332L127.385 24.1595C127.379 24.2035 127.357 24.2436 127.324 24.2726C127.29 24.3015 127.247 24.3173 127.203 24.3168H118.436C118.412 24.3187 118.387 24.3155 118.364 24.3075C118.341 24.2995 118.319 24.2869 118.301 24.2703C118.283 24.2538 118.269 24.2337 118.258 24.2113C118.248 24.1889 118.243 24.1647 118.242 24.1401C118.24 24.1246 118.24 24.109 118.242 24.0935L120.359 12.1128C120.365 12.0687 120.386 12.0282 120.42 11.9992C120.454 11.9702 120.497 11.9546 120.541 11.9555H129.128C129.152 11.9539 129.177 11.9573 129.2 11.9655C129.223 11.9737 129.245 11.9866 129.263 12.0033C129.281 12.02 129.295 12.0402 129.306 12.0627C129.316 12.0852 129.321 12.1095 129.322 12.1341C129.324 12.1495 129.324 12.1653 129.322 12.1807L128.996 13.983C128.99 14.0271 128.968 14.0675 128.935 14.0965C128.901 14.1256 128.858 14.1412 128.813 14.1403H122.949C122.905 14.1422 122.863 14.159 122.83 14.188C122.797 14.2169 122.774 14.2563 122.766 14.2996L122.326 16.7971C122.32 16.8205 122.319 16.8449 122.323 16.8688C122.327 16.8927 122.335 16.9156 122.348 16.9362C122.36 16.9568 122.377 16.9747 122.397 16.9888C122.416 17.0029 122.438 17.013 122.462 17.0185C122.479 17.022 122.497 17.0227 122.514 17.0204V17.0204Z" fill="#828D93"/>
<path d="M38.3886 24.3125H30.4095C30.3849 24.3141 30.3603 24.3107 30.3371 24.3024C30.3138 24.2942 30.2925 24.2814 30.2744 24.2647C30.2562 24.248 30.2417 24.2278 30.2316 24.2053C30.2214 24.1828 30.216 24.1585 30.2155 24.1338C30.2136 24.1184 30.2136 24.1027 30.2155 24.0872L32.332 12.0987C32.3403 12.0558 32.3628 12.0169 32.3959 11.9883C32.429 11.9598 32.4707 11.9432 32.5144 11.9414H34.918C34.9669 11.9413 35.014 11.9596 35.05 11.9927C35.086 12.0258 35.1081 12.0713 35.112 12.1201C35.113 12.1356 35.113 12.1512 35.112 12.1667L33.4378 21.714C33.4321 21.7375 33.431 21.7618 33.4347 21.7857C33.4385 21.8096 33.4469 21.8325 33.4595 21.8531C33.4721 21.8737 33.4887 21.8916 33.5083 21.9057C33.5279 21.9198 33.5501 21.9299 33.5736 21.9354H33.6202H39.4401C39.4872 21.9349 39.5328 21.9516 39.5685 21.9823C39.6042 22.0131 39.6275 22.0557 39.6341 22.1024C39.6365 22.1427 39.6264 22.1828 39.605 22.217L38.5535 24.1999C38.5388 24.2318 38.5157 24.2592 38.4867 24.2791C38.4576 24.2989 38.4238 24.3105 38.3886 24.3125Z" fill="#828D93"/>
<path d="M61.2805 24.3129H53.3014C53.2768 24.3145 53.2522 24.311 53.2289 24.3028C53.2057 24.2946 53.1844 24.2818 53.1663 24.2651C53.1481 24.2484 53.1336 24.2282 53.1234 24.2057C53.1133 24.1832 53.1079 24.1589 53.1074 24.1342C53.1045 24.1188 53.1045 24.103 53.1074 24.0876L55.2336 12.0991C55.242 12.0558 55.2647 12.0167 55.2982 11.9881C55.3317 11.9595 55.3739 11.9432 55.4179 11.9418H57.8215C57.8461 11.9402 57.8708 11.9436 57.894 11.9518C57.9172 11.9601 57.9386 11.9729 57.9567 11.9896C57.9748 12.0063 57.9894 12.0265 57.9995 12.049C58.0096 12.0715 58.0151 12.0958 58.0155 12.1205C58.0184 12.1359 58.0184 12.1517 58.0155 12.1671L56.3045 21.7221C56.2987 21.7456 56.2977 21.77 56.3014 21.7939C56.3051 21.8178 56.3135 21.8407 56.3262 21.8613C56.3388 21.8818 56.3554 21.8997 56.375 21.9139C56.3946 21.928 56.4168 21.9381 56.4403 21.9435H56.4868H62.3068C62.3539 21.9431 62.3995 21.9598 62.4352 21.9905C62.4709 22.0212 62.4942 22.0639 62.5008 22.1106C62.5032 22.1509 62.493 22.1909 62.4717 22.2251L61.4202 24.208C61.4075 24.2358 61.3881 24.26 61.3637 24.2783C61.3393 24.2966 61.3107 24.3085 61.2805 24.3129V24.3129Z" fill="#828D93"/>
<path d="M72.8272 12.1085C72.8193 12.0649 72.7967 12.0253 72.7631 11.9963C72.7296 11.9673 72.6872 11.9507 72.6429 11.9492H69.2441C69.2092 11.9491 69.1749 11.9585 69.1448 11.9762C69.1148 11.994 69.0901 12.0196 69.0734 12.0502L62.7277 24.031C62.7147 24.0511 62.7058 24.0736 62.7015 24.0972C62.6971 24.1208 62.6975 24.145 62.7026 24.1685C62.7076 24.1919 62.7172 24.2141 62.7309 24.2339C62.7445 24.2536 62.7619 24.2704 62.782 24.2834C62.8162 24.3048 62.8562 24.315 62.8965 24.3126H65.4669C65.5024 24.3121 65.5371 24.3019 65.5672 24.2831C65.5973 24.2642 65.6217 24.2375 65.6376 24.2057L66.0392 23.3978L68.5457 18.3484V18.3348L68.9123 17.5871L69.1645 17.0763L70.183 15.0391C70.2016 15.0024 70.2313 14.9726 70.2679 14.954C70.3045 14.9353 70.346 14.9287 70.3866 14.9352C70.4271 14.9417 70.4646 14.9609 70.4935 14.99C70.5225 15.0191 70.5415 15.0567 70.5477 15.0973L71.0211 18.3989C71.0278 18.449 71.0148 18.4998 70.9847 18.5404C70.9546 18.581 70.9099 18.6083 70.8601 18.6164H69.3314C69.2817 18.6169 69.2331 18.6311 69.191 18.6575C69.1489 18.6839 69.1149 18.7214 69.0928 18.766L68.2644 20.4323C68.2317 20.4954 68.2254 20.5689 68.2469 20.6366C68.2684 20.7043 68.3158 20.7608 68.3788 20.7935C68.4168 20.8144 68.4596 20.8252 68.503 20.8246H71.2423C71.2874 20.8243 71.3311 20.8409 71.3648 20.871C71.3985 20.9011 71.4198 20.9427 71.4246 20.9877L71.8805 24.1533C71.8849 24.1986 71.906 24.2407 71.9397 24.2712C71.9735 24.3018 72.0174 24.3186 72.0629 24.3184H74.7129C74.7618 24.3185 74.8089 24.3002 74.8448 24.2671C74.8808 24.234 74.903 24.1885 74.9069 24.1397C74.9089 24.1249 74.9089 24.1099 74.9069 24.095L72.8272 12.1085Z" fill="#828D93"/>
<path d="M49.9339 12.1086C49.9261 12.0653 49.9037 12.026 49.8706 11.997C49.8375 11.9681 49.7955 11.9513 49.7516 11.9493H46.3527C46.3179 11.948 46.2833 11.9569 46.2534 11.9748C46.2234 11.9927 46.1993 12.019 46.184 12.0503L39.8344 24.0311C39.8117 24.0763 39.8075 24.1286 39.8227 24.1768C39.8379 24.225 39.8714 24.2654 39.9159 24.2894C39.9431 24.3048 39.9739 24.3128 40.0051 24.3127H42.5756C42.6108 24.3119 42.645 24.3015 42.6748 24.2827C42.7045 24.2639 42.7285 24.2373 42.7444 24.2059L42.9287 23.8408L45.6582 18.3427V18.333L45.9221 17.8086L46.0637 17.5193L47.313 15.0412C47.3316 15.0045 47.3613 14.9747 47.3979 14.956C47.4345 14.9374 47.476 14.9308 47.5166 14.9373C47.5571 14.9437 47.5946 14.9629 47.6235 14.9921C47.6525 15.0212 47.6715 15.0588 47.6777 15.0994L48.1511 18.401C48.1578 18.4514 48.1444 18.5024 48.114 18.543C48.0835 18.5837 48.0383 18.6108 47.9881 18.6185H46.4614C46.4111 18.6185 46.3618 18.6325 46.319 18.6589C46.2762 18.6853 46.2415 18.7231 46.2189 18.768L45.3924 20.4343C45.3719 20.4753 45.3621 20.5209 45.3642 20.5667C45.3662 20.6125 45.3799 20.657 45.4041 20.696C45.4282 20.7349 45.4619 20.7671 45.502 20.7893C45.5421 20.8115 45.5872 20.823 45.633 20.8228H48.3626C48.407 20.8249 48.4494 20.8422 48.4826 20.8719C48.5159 20.9016 48.5378 20.9419 48.5449 20.9859L48.9989 24.1515C49.0055 24.1959 49.0273 24.2366 49.0606 24.2666C49.0938 24.2967 49.1365 24.3144 49.1812 24.3166H51.8293C51.8782 24.3167 51.9253 24.2984 51.9613 24.2653C51.9972 24.2322 52.0194 24.1867 52.0233 24.1379C52.0253 24.1231 52.0253 24.1081 52.0233 24.0932L49.9339 12.1086Z" fill="#828D93"/>
<path d="M28.2096 5.26425C18.6396 5.26425 20.7426 11.5741 20.7426 11.5741C19.4641 11.1663 3.16441 5.7789 0.848072 5.01372C0.82826 5.00756 0.806825 5.00939 0.788342 5.01882C0.769858 5.02825 0.75579 5.04454 0.749134 5.06421C0.74424 5.07701 0.743099 5.09093 0.745848 5.10435C0.748598 5.11777 0.755125 5.13012 0.764654 5.13996C1.00133 5.41185 1.47663 5.94981 2.2371 6.79462C2.29451 6.85988 2.36812 6.90879 2.4505 6.93639L2.6833 7.01601L16.1856 11.4498C16.2622 11.4762 16.3269 11.5293 16.3679 11.5993L17.0993 12.8442C17.1022 12.8474 17.1037 12.8516 17.1037 12.8559C17.1037 12.8602 17.1022 12.8643 17.0993 12.8675C17.0943 12.8695 17.0888 12.8695 17.0838 12.8675L3.90742 8.54056C3.89888 8.53713 3.88937 8.53702 3.88076 8.54025C3.87214 8.54349 3.86504 8.54983 3.86086 8.55803C3.85703 8.56378 3.85498 8.57054 3.85498 8.57746C3.85498 8.58437 3.85703 8.59113 3.86086 8.59688C4.1732 8.94063 4.50106 9.29797 4.83085 9.66308C4.92375 9.76232 5.03971 9.83704 5.16841 9.8806L17.6988 13.9901C17.779 14.011 17.8483 14.0617 17.8927 14.1318L18.6222 15.3806C18.6238 15.3821 18.6252 15.3838 18.6261 15.3859C18.627 15.3879 18.6274 15.39 18.6274 15.3922C18.6274 15.3945 18.627 15.3966 18.6261 15.3986C18.6252 15.4006 18.6238 15.4024 18.6222 15.4039C18.62 15.4048 18.6177 15.4053 18.6154 15.4053C18.6131 15.4053 18.6108 15.4048 18.6086 15.4039L6.604 11.4673C6.59654 11.4654 6.58864 11.4663 6.58183 11.4699C6.57502 11.4735 6.56978 11.4795 6.56714 11.4867C6.56438 11.4911 6.56291 11.4961 6.56291 11.5013C6.56291 11.5064 6.56438 11.5115 6.56714 11.5158C6.93961 11.9043 7.31532 12.2985 7.69427 12.6986C7.74106 12.7473 7.79898 12.784 7.86305 12.8054L19.1499 16.5089C19.2522 16.5428 19.3394 16.6115 19.3962 16.7032L20.1121 17.915C20.1148 17.9179 20.1163 17.9217 20.1163 17.9257C20.1163 17.9297 20.1148 17.9335 20.1121 17.9364H20.1004L9.59739 14.4892C9.58402 14.4855 9.56973 14.487 9.55746 14.4935C9.5452 14.5 9.53588 14.511 9.53143 14.5241C9.52911 14.5333 9.52913 14.5429 9.53151 14.5521C9.53388 14.5613 9.53853 14.5697 9.54501 14.5766C11.8827 16.9071 13.972 18.7831 14.7577 18.8492L7.23255 35.792C7.22651 35.8064 7.22338 35.8218 7.22333 35.8374C7.22329 35.8531 7.22632 35.8685 7.23227 35.883C7.23822 35.8974 7.24697 35.9105 7.258 35.9216C7.26904 35.9326 7.28215 35.9414 7.29657 35.9473C7.31598 35.9551 7.33705 35.9577 7.35776 35.955C7.37848 35.9523 7.39816 35.9443 7.41491 35.9318C10.806 33.1449 13.1941 25.728 16.8044 23.7588C22.0249 20.9058 24.0367 19.2337 25.3229 16.3788C26.8399 13.0151 28.776 7.3889 29.0612 7.1675C31.1215 5.57304 34.8113 2.00542 36.3672 0.475056C36.3771 0.465296 36.385 0.453658 36.3904 0.440821C36.3957 0.427984 36.3985 0.414204 36.3985 0.400285C36.3985 0.386366 36.3957 0.372587 36.3904 0.35975C36.385 0.346913 36.3771 0.335275 36.3672 0.325515C36.3503 0.307601 36.3278 0.296075 36.3034 0.29289C36.279 0.289704 36.2542 0.295056 36.2333 0.308036C34.0664 1.71217 28.5122 5.26425 28.2096 5.26425Z" fill="#828D93"/>
</g>
<defs>
<clipPath id="clip0">
<rect width="128.58" height="35.6645" fill="white" transform="translate(0.745361 0.298828)"/>
</clipPath>
</defs>
</svg>
