<svg width="104" height="41" viewBox="0 0 104 41" fill="none" xmlns="http://www.w3.org/2000/svg">
<g clip-path="url(#clip0)">
<path d="M98.9665 12.9868V20.6219H92.5973V12.9868H88.49V31.9175H92.5973V23.9118H98.9665V31.9175H103.074V12.9868H98.9665ZM76.844 21.28V16.0144H79.1347C81.0566 16.0144 82.031 16.5412 82.031 18.6209C82.031 20.3848 80.8195 21.28 79.3187 21.28H76.844ZM83.0841 23.4655C84.7689 22.5703 86.136 20.9116 86.136 18.1733C86.136 14.5397 83.4243 12.9863 79.3687 12.9863H72.7633V31.9171H76.8445V24.3603H79.3214L82.5321 31.9167H86.8504L83.0841 23.4655Z" fill="#4D5C65"/>
<path d="M17.1428 15.7876L17.0578 15.9853C16.9725 16.1551 16.888 16.325 16.2657 17.7957C14.8795 21.0484 12.4176 26.169 10.2118 31.8544L10.1552 32.0243H8.45805L2.63065 17.7957C1.75355 15.6456 1.92295 16.0415 1.72524 15.6177C1.15953 15.5045 1.49922 15.5611 0.000244141 15.3347V13.2695H9.25022V15.3347C7.72293 15.5607 8.0905 15.5328 7.27001 15.6177L7.77911 16.9752C8.65621 19.2668 9.78763 22.0387 10.5214 23.8495L10.5497 23.8774L10.6908 24.2755L10.7762 24.4449L10.8328 24.2755C11.2004 23.3701 12.5016 20.1456 13.492 17.2039C13.6618 16.7226 13.8316 16.214 13.9732 15.7044L13.0112 15.5629L11.8231 15.3647V13.2717H19.0363V15.3647C17.3675 15.7323 17.7071 15.6744 17.141 15.7894" fill="#4D5C65"/>
<path d="M30.7354 24.819C30.5425 26.5834 29.9914 27.824 29.109 28.5132C28.2637 29.1184 27.2138 29.366 26.1871 29.2023C25.1405 29.0951 24.1743 28.5923 23.486 27.7966C22.0524 26.1703 21.4182 23.3859 21.7495 20.1336C21.7873 19.4562 21.9634 18.7937 22.2668 18.1869C22.5703 17.58 22.9946 17.0417 23.5138 16.6049C23.885 16.3152 24.3103 16.1027 24.7647 15.9796C25.2191 15.8566 25.6936 15.8255 26.1602 15.8884C26.7148 15.934 27.2537 16.0948 27.7426 16.3606C28.2315 16.6264 28.6595 16.9913 28.9993 17.432C30.3497 19.0584 31.0114 21.8993 30.7358 24.8186L30.7354 24.819ZM35.8905 22.5309C35.9402 20.0608 35.0084 17.6717 33.2994 15.8875C32.3622 14.9867 31.2565 14.2796 30.0456 13.8066C28.8348 13.3336 27.5425 13.1041 26.2429 13.131C23.3758 13.131 20.9228 14.0683 19.1584 15.8875C17.4755 17.6956 16.5399 20.0741 16.5399 22.5442C16.5399 25.0144 17.4755 27.3928 19.1584 29.2009C20.9228 30.9932 23.3758 31.9574 26.2429 31.9574C29.082 31.9574 31.5355 30.9932 33.2994 29.2009C35.0092 27.4061 35.9404 25.0084 35.8905 22.5301" fill="#4D5C65"/>
<path d="M50.8314 19.1124C50.0317 17.2928 48.8742 15.8871 46.0346 15.9424C42.7823 15.9694 41.6791 19.5809 41.6791 21.2059C41.6791 27.2155 45.3454 28.8136 47.2748 28.8136C49.619 28.8136 51.1065 27.1872 51.5753 26.5808L53.2017 28.2903L53.1464 28.3452C52.401 29.459 51.3919 30.3714 50.2089 31.0013C49.0259 31.6312 47.7056 31.959 46.3654 31.9557C43.8415 31.9897 41.4056 31.0292 39.5839 29.282C38.7009 28.3958 38.0045 27.3416 37.5357 26.1817C37.067 25.0218 36.8355 23.7797 36.8549 22.5288C36.8549 17.0155 40.852 13.1289 46.5857 13.1289C49.1771 13.1289 51.4373 14.1489 53.5321 16.2436L53.6148 16.2989L50.8314 19.1124Z" fill="#4D5C65"/>
<path d="M65.9095 13.0759L66.6265 11.8626L62.2706 9.02344L57.392 11.6149L58.1364 12.8534L61.9677 11.3938H62.023L65.9095 13.0759ZM65.0545 19.3062C62.5462 20.1607 60.0122 21.0153 57.5017 21.8968C57.3961 21.1106 57.3869 20.3145 57.4743 19.526C57.6397 17.6515 58.7972 15.5289 61.4993 15.7496C63.3185 15.8881 64.4216 16.9629 65.0001 19.085L65.0545 19.3062ZM70.1818 20.5447V20.4894C69.1892 16.4922 67.1493 13.1572 61.9106 13.1298C60.7538 13.0919 59.6013 13.2871 58.5215 13.7038C57.4417 14.1205 56.4568 14.7502 55.6254 15.5554C53.8058 17.3472 52.7863 20.0488 52.7863 22.915C52.7863 27.9869 56.8661 31.9292 62.1035 31.9567C66.0457 31.9567 68.4727 30.1374 70.015 27.7945L70.0699 27.7118L68.1679 25.7825C67.2033 27.4632 64.6392 29.0352 63.1783 28.8698C61.9651 28.8783 60.7875 28.4608 59.8506 27.6901C58.9137 26.9194 58.277 25.8444 58.0515 24.6524C58.9887 24.3494 70.1804 20.6004 70.1804 20.5455" fill="#4D5C65"/>
</g>
<defs>
<clipPath id="clip0">
<rect width="103.074" height="23" fill="white" transform="translate(0 9.02344)"/>
</clipPath>
</defs>
</svg>
