<svg width="126" height="41" viewBox="0 0 126 41" fill="none" xmlns="http://www.w3.org/2000/svg">
<g clip-path="url(#clip0)">
<path d="M50.8249 17.766V26.4009H46.3787V19.0572C46.3787 17.4858 45.5288 16.5508 44.1543 16.5508C42.581 16.5744 41.607 17.8419 41.607 19.6386V26.4009H37.1607V19.0572C37.1607 17.4858 36.3108 16.5508 34.9363 16.5508C33.363 16.5744 32.3632 17.8419 32.3632 19.6386V26.4009H27.9427V12.7009H32.3632V14.9558C33.2881 13.3609 34.8123 12.5254 36.7603 12.5254C38.9589 12.5254 40.5839 13.6646 41.2582 15.5896C42.1314 13.5625 43.7823 12.5254 45.9783 12.5254C48.9029 12.5228 50.8249 14.5499 50.8249 17.766Z" fill="#4D5C65"/>
<path d="M57.0125 12.7002V26.4002H52.5922V12.7002H57.0125ZM56.8395 8.8503C56.8395 10.0393 55.9895 10.901 54.8166 10.901C53.6437 10.901 52.7937 10.0393 52.7937 8.8503C52.7937 7.63509 53.6437 6.77344 54.8166 6.77344C55.9895 6.77344 56.8395 7.63509 56.8395 8.8503Z" fill="#4D5C65"/>
<path d="M72.9737 17.7647V26.3996H68.5503V19.0559C68.5503 17.5106 67.6514 16.5495 66.254 16.5495C64.7554 16.5731 63.7814 17.6128 63.6057 19.158V26.3996H59.1595V12.6996H63.6057V14.9283C64.5539 13.3569 66.1038 12.5215 68.0781 12.5215C71.0257 12.5215 72.9737 14.5486 72.9737 17.7647Z" fill="#4D5C65"/>
<path d="M88.3295 12.7012V26.4011H83.8837V24.1724C82.9585 25.7674 81.486 26.5793 79.5611 26.6028C76.6392 26.6028 74.7406 24.5522 74.7406 21.3622V12.7012H79.1864V20.071C79.1864 21.6163 80.0366 22.5512 81.3596 22.5512C82.9328 22.5276 83.8811 21.2601 83.8811 19.4634V12.7012H88.3295Z" fill="#4D5C65"/>
<path d="M99.2659 25.6903C98.2919 26.2717 96.9432 26.6017 95.6176 26.6017C92.996 26.6279 91.0967 25.0565 91.0967 22.2227V16.3483H89.2239V13.3601H91.0967V9.5625H95.5195V13.3601H99.0176V16.3483H95.5195V21.513C95.5195 22.5266 95.9693 22.9823 96.7443 22.9561C97.1941 22.9561 97.7697 22.778 98.4183 22.5004L99.2659 25.6903Z" fill="#4D5C65"/>
<path d="M114.03 19.5389C114.03 23.7686 111.083 26.5526 106.636 26.5526C102.19 26.5526 99.2684 23.7686 99.2684 19.5389C99.2684 15.3354 102.19 12.5488 106.636 12.5488C111.083 12.5488 114.03 15.3354 114.03 19.5389ZM103.738 19.5887C103.738 21.6393 104.911 23.0065 106.634 23.0065C108.383 23.0065 109.556 21.6393 109.556 19.5887C109.556 17.5616 108.381 16.1945 106.634 16.1945C104.913 16.1945 103.738 17.5616 103.738 19.5887Z" fill="#4D5C65"/>
<path d="M119.985 15.6395C119.237 15.6395 118.712 15.9171 118.712 16.5012C118.712 18.3004 125.806 17.4388 125.78 22.2001C125.78 25.0103 123.357 26.6052 120.06 26.6052C117.787 26.6052 115.615 25.9479 113.966 24.6567L115.366 21.7444C116.914 22.8339 118.663 23.4415 120.161 23.4415C120.986 23.4415 121.585 23.1639 121.585 22.6061C121.585 20.7309 114.614 21.6684 114.614 16.9333C114.614 14.0708 116.986 12.502 120.161 12.502C122.109 12.502 124.083 13.0598 125.78 14.0969L124.282 17.0354C122.61 16.145 121.086 15.6395 119.985 15.6395Z" fill="#4D5C65"/>
<path d="M14.1778 22.567C13.8574 22.8891 13.4466 23.0515 12.9377 23.0515C12.4287 23.0515 12.0154 22.8891 11.6976 22.567C11.3798 22.2448 11.2196 21.8258 11.2196 21.3099C11.2196 20.7939 11.3798 20.3723 11.6976 20.0423C12.0154 19.7123 12.4287 19.5473 12.9377 19.5473C13.4466 19.5473 13.8574 19.7123 14.1778 20.0423C14.4955 20.3723 14.6558 20.7939 14.6558 21.3099C14.6558 21.8232 14.4955 22.2422 14.1778 22.567ZM17.1643 18.0335C16.2782 17.1902 15.1363 16.7659 13.7385 16.7659C13.5939 16.7659 13.4001 16.7711 13.1521 16.7842L15.6297 12.6934H11.2042L9.1089 16.1583C8.51727 17.1404 8.0781 18.0466 7.79651 18.8742C7.51228 19.7018 7.3728 20.5268 7.3728 21.3439C7.3728 22.842 7.88949 24.0598 8.9203 25.0026C9.95117 25.9429 11.292 26.4143 12.9377 26.4143C14.6041 26.4143 15.9475 25.9455 16.9654 25.0079C17.9833 24.0703 18.4923 22.8367 18.4923 21.3073C18.4923 19.9689 18.0504 18.8768 17.1643 18.0335Z" fill="#4D5C65"/>
<path d="M21.4555 29.8663C21.4658 29.8558 21.4787 29.848 21.4916 29.8375C21.5019 29.8271 21.5149 29.8166 21.5252 29.8061C23.3053 28.2007 24.5402 26.205 25.2222 24.0574L22.4191 23.1355C21.8921 24.7907 20.9491 26.3333 19.5772 27.5721C19.5669 27.5826 19.554 27.593 19.5437 27.6035C19.5333 27.614 19.5204 27.6244 19.5075 27.6323C17.5621 29.3582 15.1362 30.1806 12.7335 30.1335C12.7025 30.1335 12.6715 30.1308 12.6405 30.1308C9.97433 30.0523 7.34169 28.9025 5.44026 26.7209C1.79234 22.5357 2.18503 16.1244 6.31348 12.4264C10.442 8.7284 16.7664 9.12648 20.4143 13.3116C21.3496 14.3828 22.0135 15.6033 22.4217 16.884L25.2196 15.9621C24.69 14.3042 23.8271 12.725 22.6155 11.3369C17.8954 5.92083 9.70564 5.40751 4.36293 10.1924C-0.979773 14.9773 -1.48614 23.2796 3.23393 28.6956C5.69861 31.5242 9.10881 33.0117 12.5682 33.1112C12.5992 33.1112 12.6301 33.1139 12.6612 33.1139C15.7847 33.1767 18.9339 32.1108 21.4555 29.8663Z" fill="#4D5C65"/>
</g>
<defs>
<clipPath id="clip0">
<rect width="125.78" height="27" fill="white" transform="translate(0 6.52344)"/>
</clipPath>
</defs>
</svg>
