<svg width="107" height="41" viewBox="0 0 107 41" fill="none" xmlns="http://www.w3.org/2000/svg">
<path d="M105.298 13.1894C105.298 13.2593 105.227 13.8008 105.156 14.0978C105.086 14.3947 104.395 16.0716 104.341 16.351C104.288 16.6306 104.324 16.683 104.306 17.1721C104.093 17.2594 103.615 17.6088 103.367 17.6088C103.119 17.6088 102.499 17.0323 102.233 16.9625C102.233 16.2463 102.41 16.1939 102.357 15.827C102.286 15.3903 102.056 14.9361 101.914 14.6043C101.772 14.2549 101.879 14.1327 101.861 14.0279C101.861 14.0279 101.701 14.2375 101.755 14.5519C101.825 14.9361 102.144 15.5301 102.18 15.7921C102.233 16.0542 102.215 16.351 102.109 16.421C101.258 16.3336 100.621 16.0716 100.071 15.7746C99.522 15.4776 99.0615 15.2331 98.583 15.041C98.6717 14.7091 99.3804 13.6785 99.7169 13.2767C100.054 12.875 100.497 12.4558 101.046 12.1413C101.595 11.8269 102.57 11.6522 103.261 11.7046C103.969 11.7745 104.643 11.9667 104.643 11.9667C104.643 11.9667 105.086 11.5998 105.422 11.7221C105.316 11.9667 105.21 12.2287 105.21 12.2287L105.653 12.4732C105.635 12.4907 105.298 13.1195 105.298 13.1894ZM85.4895 19.6699C85.4895 20.229 85.702 20.7354 86.0387 21.1372C86.0387 21.1372 86.0387 21.1372 86.0564 21.1547C85.9324 20.7879 85.7906 20.159 85.7906 20.0892V19.373C85.7906 19.0237 86.1273 18.2026 86.2513 17.9232L86.2336 17.9407C86.0564 18.1153 85.8969 18.325 85.7729 18.552C85.7551 18.5695 85.7551 18.587 85.7551 18.6044C85.6311 18.8665 85.5426 19.1459 85.5248 19.4604C85.5248 19.5128 85.5248 19.5826 85.5248 19.635C85.4895 19.6525 85.4895 19.6525 85.4895 19.6699ZM97.5376 15.8794C97.5554 15.8619 97.5908 15.8445 97.6263 15.7921C97.7148 15.6698 97.8034 15.4952 97.8034 15.4952C97.8034 15.303 97.396 15.3205 97.3251 15.2681C97.2365 15.1982 97.2011 15.1109 97.0593 15.041V15.0585C97.0593 15.0934 97.0593 15.1458 97.0593 15.1807C97.0771 15.303 97.0947 15.4252 97.0947 15.5476C97.0947 15.7048 97.0593 15.9667 97.0416 16.0192C97.0416 16.0192 97.2365 16.0891 97.2542 16.1065C97.3427 16.0192 97.4314 15.9319 97.5376 15.8794ZM97.5023 14.4296L95.943 12.7003L94.9331 13.5388L94.9685 13.661C95.004 13.7484 95.0394 13.8357 95.0926 13.9056C95.1457 13.993 95.1989 14.0803 95.2697 14.1502C95.3406 14.2375 95.4115 14.3248 95.5001 14.4121C95.5177 14.4296 95.5177 14.4296 95.5355 14.447C95.7659 14.6742 96.0317 14.8139 96.2975 14.9187C96.4746 14.9885 96.6518 15.0061 96.8113 15.0236L97.5023 14.4296ZM96.7404 11.5649V11.1107C96.7404 11.0409 96.7226 10.9885 96.6873 10.971C96.634 10.9361 96.5809 10.9011 96.5277 10.8662C96.51 10.8487 96.4924 10.8312 96.4746 10.8312C96.3682 10.8487 96.2442 10.8487 96.1557 10.7963C96.1026 10.7788 96.0317 10.7439 95.9962 10.709C95.9253 10.6566 95.9253 10.6042 95.9075 10.5168C95.8544 10.5168 95.8013 10.5168 95.7481 10.4994V10.7963C95.7481 10.8138 95.7481 10.8138 95.7481 10.8312C95.7659 10.8837 95.7659 10.9535 95.7659 11.0059C95.7659 11.1457 95.7126 11.2854 95.6419 11.4077C95.5177 11.5824 95.3052 11.7046 95.0572 11.7046C95.0394 11.7745 95.0572 11.8968 95.0572 11.9667C95.0748 12.054 95.1457 12.2636 95.1812 12.3684C95.2343 12.578 95.3052 12.7876 95.3052 13.0147L95.5355 12.8226C95.4824 12.6479 95.4292 12.4558 95.3761 12.2636C95.3406 12.1413 95.3052 12.0016 95.2697 11.8793C95.5532 11.8095 95.7835 11.6522 95.8899 11.4426C96.0317 11.4776 96.2442 11.5474 96.2975 11.5474L96.7404 11.5649ZM97.3251 10.9885C97.396 10.9186 97.3782 10.7788 97.2542 10.5168C97.2187 10.4644 97.1478 10.3946 97.1124 10.3596C97.0238 10.412 96.9884 10.412 96.9529 10.4295C96.9175 10.4819 96.8998 10.5168 96.8644 10.5518C96.8467 10.5692 96.7935 10.5692 96.7758 10.5867C96.7226 10.709 96.6518 10.7439 96.6164 10.7788C96.634 10.8312 96.8467 10.9361 96.9175 10.971C96.9884 10.9885 97.2542 11.0409 97.3251 10.9885ZM97.6263 9.94039C97.9097 9.76572 98.1577 9.5561 98.3172 9.32903C98.2641 9.31155 98.2286 9.29409 98.1755 9.25915C98.087 9.20675 97.9983 9.13687 97.9097 9.04954C97.8388 8.97966 97.768 8.89232 97.7148 8.82246C97.5731 9.17181 97.3251 9.52116 96.9529 9.81811C96.9707 9.85305 96.9884 9.88799 96.9884 9.92293C96.9884 9.94039 96.9884 9.94039 96.9884 9.95787C97.0062 10.0452 97.0062 10.1325 96.9884 10.2199C97.2187 10.15 97.4314 10.0452 97.6263 9.94039ZM98.4059 9.17181C98.4235 9.17181 98.4235 9.15434 98.4235 9.13687C98.4235 9.067 98.335 8.9098 98.1755 8.77005C98.1046 8.70018 98.0337 8.64777 97.9629 8.59537C97.8743 8.54297 97.8212 8.52549 97.768 8.54297C97.768 8.54297 97.768 8.54297 97.7503 8.54297V8.56043C97.7503 8.57791 97.7503 8.59537 97.7503 8.61285C97.768 8.68271 97.8566 8.82246 97.9806 8.92726C98.1578 9.11941 98.335 9.22421 98.4059 9.17181ZM96.758 9.85305L96.3682 9.88799C96.3682 9.88799 96.1733 10.0277 96.1557 10.1325C96.1379 10.1849 96.1557 10.3247 96.1557 10.3771L96.7758 10.3946C96.8998 10.1151 96.8289 9.92293 96.758 9.85305ZM96.3328 10.674C96.6518 10.6915 96.634 10.5168 96.634 10.5168H96.0671C96.0671 10.4994 95.9962 10.6566 96.3328 10.674ZM95.5177 10.0277C95.4646 9.97533 95.4115 9.94039 95.3406 9.90545C95.2697 9.97533 95.1812 10.0627 95.0926 10.1151C95.0572 10.15 95.0217 10.1675 94.9863 10.1849C94.9154 10.1151 94.88 10.0277 94.8623 9.95787C94.8623 9.94039 94.8445 9.92293 94.8445 9.90545C94.8445 9.81812 94.88 9.78318 94.9331 9.76571C94.9863 9.74825 95.0572 9.73078 95.1279 9.67838C95.1279 9.64344 95.1634 9.59104 95.1989 9.5561C95.1634 9.46876 95.0926 9.36395 95.0926 9.36395C95.0926 9.36395 95.004 9.31155 94.9331 9.25915C94.8623 9.22421 94.7736 9.17181 94.7382 9.15434C94.7382 9.25915 94.756 9.32903 94.7382 9.39889C94.7382 9.39889 94.7382 9.41636 94.7382 9.43383C94.7382 9.46876 94.7382 9.52116 94.7382 9.57356C94.7382 9.66091 94.7382 9.73078 94.7382 9.81811H94.5965C94.5965 9.78318 94.5965 9.76571 94.5965 9.73078C94.5965 9.67838 94.5965 9.64344 94.5965 9.59104C94.5965 9.53864 94.5965 9.5037 94.5965 9.4513C94.5787 9.27661 94.5787 9.08447 94.5611 8.92726C94.5433 8.92726 94.5256 8.9098 94.5078 8.9098C94.4725 8.9098 94.4371 8.89232 94.4016 8.89232H94.3838C94.3484 8.89232 94.3307 8.89232 94.2953 8.89232C94.2953 8.9098 94.3484 9.27661 94.3662 9.34649C94.3662 9.38143 94.4371 9.76571 94.4371 9.78318H94.2953C94.2598 9.6085 94.2422 9.45129 94.1889 9.29409C94.1535 9.15434 94.118 9.0146 94.0649 8.87486C93.9409 8.89232 93.7991 8.92726 93.6929 8.97966C93.6929 8.97966 93.6929 8.97966 93.6751 8.97966C93.5866 9.0146 93.5157 9.067 93.4448 9.11941C93.4271 9.11941 93.4271 9.13687 93.4093 9.15434C93.3562 9.20675 93.3208 9.25915 93.2677 9.31155C93.1968 9.39889 93.1435 9.48623 93.1081 9.53864C93.0904 9.57356 93.0904 9.6085 93.055 9.66092C93.0373 9.67838 93.0373 9.71331 93.0373 9.74825C93.0373 9.78318 93.0195 9.80065 93.0195 9.83559C93.0373 9.83559 93.0373 9.83559 93.0373 9.83559C93.0904 9.85305 93.1259 9.85305 93.179 9.87053C93.2853 9.88799 93.4093 9.90545 93.5333 9.90545C93.5511 9.90545 93.5511 9.90545 93.5688 9.90545C93.622 9.90545 93.6751 9.90545 93.7282 9.90545C93.7637 10.0627 93.8524 10.2199 93.994 10.3596C94.1004 10.4644 94.2244 10.5518 94.3484 10.6042C94.3838 10.6216 94.4193 10.6216 94.4371 10.6391C94.4547 10.6391 94.4725 10.6566 94.4902 10.6566C94.4902 10.6915 94.4902 10.709 94.4902 10.7439C94.4902 10.7963 94.4902 10.8312 94.4902 10.8662L94.5965 10.8837C94.5965 10.8487 94.5965 10.8138 94.5965 10.7788C94.5965 10.7614 94.5965 10.7439 94.5965 10.7264C94.5965 10.709 94.5965 10.6915 94.5965 10.674C94.5965 10.6566 94.5965 10.6566 94.5965 10.6391C94.5965 10.5867 94.5965 10.5518 94.5965 10.4994C94.5965 10.4644 94.5965 10.447 94.5965 10.4295C94.5965 10.3771 94.5965 10.3422 94.5965 10.2898V10.2723C94.5965 10.2548 94.5965 10.2373 94.5965 10.2199V10.1675H94.7382C94.7382 10.1849 94.7382 10.2024 94.7382 10.2373C94.7382 10.2548 94.7382 10.2723 94.7382 10.2898C94.756 10.3072 94.756 10.3072 94.7736 10.3247C94.8268 10.3771 94.88 10.447 94.9331 10.4994C94.9508 10.5168 94.9685 10.5343 94.9863 10.5518C94.9863 10.5518 94.9863 10.5518 95.004 10.5692L95.0217 10.5867C95.0572 10.6391 95.0925 10.674 95.1279 10.7264C95.1812 10.6915 95.2166 10.674 95.2521 10.6391C95.2875 10.6042 95.3229 10.5692 95.3406 10.5343C95.3583 10.5168 95.3583 10.4994 95.3761 10.4819C95.3937 10.447 95.4115 10.4295 95.4115 10.412C95.4115 10.3946 95.4292 10.3771 95.4292 10.3596C95.4292 10.3596 95.4292 10.3422 95.447 10.3422C95.4646 10.3072 95.4824 10.2723 95.5001 10.2373C95.5177 10.2024 95.5177 10.1849 95.5532 10.1675C95.571 10.15 95.5886 10.1325 95.6241 10.1151C95.5532 10.0801 95.5355 10.0452 95.5177 10.0277ZM93.5866 14.9012C93.5511 14.8663 93.5333 14.8488 93.498 14.8139C93.4802 14.7964 93.4626 14.779 93.4448 14.7615C93.4448 14.7615 93.4448 14.744 93.4271 14.744L92.9132 15.1633L94.5078 16.9101L94.5611 16.8576L95.5001 16.0716C95.1989 15.9843 94.9154 15.8619 94.6142 15.7048C94.2953 15.5301 93.9764 15.2855 93.6929 15.0236L93.6751 15.0061C93.6575 14.9885 93.6397 14.9712 93.6042 14.9536C93.622 14.9361 93.6042 14.9187 93.5866 14.9012ZM92.4526 15.5301L92.9132 15.9143L94.0649 16.8401L94.1535 16.7354L92.9841 15.4427L92.9486 15.4079C92.9486 15.4079 92.9486 15.4079 92.9486 15.3903L92.8246 15.2506L92.4526 15.5301ZM92.4172 16.1589L93.4626 16.5607L93.5511 16.5956L92.6121 15.8445L92.5766 15.8096L92.4172 16.1589ZM85.2413 23.0063C85.2059 22.8316 85.1528 22.657 85.1173 22.5172L84.7984 21.4168L84.3554 19.8796C84.3023 19.6874 84.2668 19.4778 84.2668 19.2507C84.2668 17.9931 85.2946 16.98 86.5525 16.98C86.6588 16.98 86.7828 16.98 86.8891 16.9974C86.9599 16.98 87.0308 16.98 87.1017 16.9625C87.1194 16.9625 87.1726 16.945 87.2081 16.9276C87.2435 16.9276 87.2612 16.9101 87.279 16.8925C87.3321 16.8752 87.3675 16.8576 87.4206 16.8227C87.5092 16.7877 87.5979 16.7528 87.6864 16.7179C88.0762 16.5432 88.5191 16.421 88.9798 16.351C89.228 16.3161 89.4759 16.2986 89.7417 16.2986C90.0606 16.2986 90.3619 16.3336 90.6453 16.3685C90.982 16.421 91.3009 16.5083 91.6022 16.6306C91.7793 16.683 91.9211 16.7179 91.9565 16.7179C92.1514 16.7179 92.1691 16.5083 92.4172 16.5083C92.4881 16.5083 92.6475 16.5956 92.7537 16.6306L92.7183 16.683C92.2932 17.3643 91.9387 18.1503 91.7262 19.0237C91.7262 19.0411 91.7084 19.0586 91.7084 19.0761C91.6907 19.111 91.6907 19.1634 91.6731 19.1983C91.6731 19.1983 94.9509 20.491 94.9509 20.5084C94.9685 20.456 95.5355 19.0935 95.5355 19.0935C95.5355 19.0935 96.1379 19.5128 96.4569 19.6874C96.4391 19.8621 96.4391 20.1241 96.4569 20.4211C96.51 21.3818 96.6873 22.8142 96.7404 23.2509C96.7935 23.3033 96.8289 23.3557 96.8998 23.3557C96.9707 23.3557 97.8212 23.2684 98.0515 22.9539L97.9097 20.8403L97.8034 19.2856L96.6873 16.648L96.51 16.2463L96.1733 17.0323L94.8268 20.229L91.9034 19.1459V19.1284C91.9034 19.111 91.9034 19.111 91.9034 19.0935C92.1336 18.1677 92.5058 17.3467 92.9664 16.648C92.9841 16.6131 92.9841 16.5956 92.9841 16.5956C92.9841 16.5258 92.9841 16.5432 92.9664 16.5258L92.2045 16.2463L92.3994 15.7397L92.2045 15.5825L92.2577 15.5301L92.4526 15.3728L92.7537 15.1284L93.1081 14.8314L93.2677 14.7091L93.3208 14.6567L93.2499 14.5519C93.2499 14.5519 93.1259 14.3947 93.0728 14.3248C92.9486 14.1502 92.8424 13.9581 92.7537 13.7659C92.7006 13.6436 92.6475 13.5213 92.6121 13.399C92.5943 13.3291 92.5766 13.2942 92.5766 13.2593C92.5234 13.1021 92.5057 12.9449 92.4881 12.7876C92.4703 12.7003 92.4703 12.613 92.4703 12.5256V12.5082C92.4703 12.3335 92.5234 12.1588 92.6121 12.0191C92.6297 11.9667 92.6652 11.9317 92.7183 11.8793L92.7361 11.8619C92.7715 11.8269 92.807 11.792 92.8424 11.7745C92.9132 11.7221 92.9841 11.6697 93.0728 11.6348C93.1435 11.5998 93.1968 11.5824 93.2322 11.5649C93.2322 11.53 93.2322 11.4776 93.2322 11.4252C93.2677 11.4252 93.3031 11.4426 93.3208 11.4426C93.4093 11.4601 93.4979 11.4776 93.5688 11.5125H93.5866C93.5688 11.3553 93.3562 11.3203 93.303 11.2155C93.2853 11.1981 93.2853 11.1806 93.2853 11.1457C93.2853 11.1107 93.303 11.0933 93.303 11.0933C93.3208 11.0583 93.3562 11.0409 93.3562 10.9885C93.3562 10.971 93.3562 10.9535 93.3384 10.9361C93.3384 10.9186 93.3208 10.9011 93.303 10.9011C93.2853 10.9011 93.2677 10.8837 93.2677 10.8837C93.2499 10.8662 93.2322 10.8662 93.2322 10.8487C93.2144 10.8312 93.1968 10.8138 93.179 10.7963C93.0195 10.6216 92.8955 10.412 92.8424 10.1849C92.8424 10.1675 92.8424 10.15 92.8246 10.1325C92.8246 10.1151 92.8246 10.0801 92.8246 10.0627C92.8246 9.99279 92.8246 9.90545 92.8246 9.83559C92.8246 9.81811 92.8246 9.78318 92.8424 9.76571C92.8955 9.5037 93.0373 9.29409 93.2322 9.11941C93.2853 9.067 93.3384 9.03207 93.4093 8.99714C93.4093 8.99714 93.4093 8.99714 93.4271 8.97966C93.498 8.94472 93.5866 8.89232 93.6575 8.87486C93.6751 8.87486 93.6929 8.85738 93.6929 8.85738C93.7106 8.85738 93.7106 8.85738 93.7282 8.85738C93.7991 8.83992 93.87 8.82245 93.9586 8.80498C94.0295 8.80498 94.1004 8.78752 94.1535 8.78752C94.2067 8.78752 94.2422 8.78752 94.2776 8.78752C94.2953 8.78752 94.3129 8.78752 94.3307 8.78752C94.3484 8.78752 94.3662 8.78752 94.3838 8.78752C94.4193 8.78752 94.4547 8.78752 94.4902 8.78752C94.5256 8.78752 94.5787 8.78752 94.6142 8.78752C94.632 8.80498 94.632 8.82246 94.6496 8.83992C94.6496 8.83992 94.6496 8.85738 94.6674 8.85738C94.7027 8.92726 94.7382 8.97966 94.7559 9.0146C94.7559 9.0146 94.756 9.03206 94.7736 9.03206C94.7736 9.04954 94.7914 9.067 94.8091 9.08447C94.9331 9.18927 95.1103 9.22421 95.1634 9.31155C95.2166 9.39889 95.3761 9.73078 95.3761 9.73078C95.3761 9.73078 95.7304 10.1151 95.7304 10.1325C95.7304 10.2024 95.7304 10.2373 95.7835 10.2898C95.8722 10.2548 95.9784 10.2373 95.9962 10.2199C95.9962 10.1849 95.9962 10.0801 96.0139 10.0627C96.0139 10.0452 96.262 9.73078 96.386 9.74825C96.4215 9.74825 96.8467 9.71331 96.8467 9.71331C97.2719 9.36395 97.5023 8.9622 97.5909 8.52549V8.49057V8.47309C97.5909 8.45563 97.6085 8.43816 97.6263 8.42069C97.6617 8.38576 97.7325 8.36829 97.8034 8.38576C97.8566 8.40322 97.9274 8.42069 97.9983 8.45563C98.087 8.50803 98.1932 8.57791 98.2819 8.66525C98.3172 8.70018 98.335 8.71765 98.3526 8.75258C98.4059 8.82246 98.459 8.87486 98.4944 8.94472C98.5653 9.08447 98.6008 9.18927 98.5653 9.25915C98.5653 9.25915 98.5653 9.25915 98.5475 9.27661C98.3172 9.69584 97.8566 10.0627 97.2542 10.2723C97.2542 10.2723 97.2011 10.2898 97.2187 10.2898C97.3427 10.412 97.4136 10.5343 97.4491 10.6566H98.0161V12.2636C98.0161 12.2811 98.0161 12.316 98.0161 12.3335C98.0161 12.351 98.0161 12.3859 97.9983 12.4034C97.9983 12.4208 97.9983 12.4383 97.9806 12.4558C97.9629 12.5256 97.9274 12.5955 97.8921 12.6654C97.8921 12.6828 97.8743 12.6828 97.8566 12.7003C97.7325 12.8575 97.5554 12.9798 97.3427 13.0147C97.3073 13.0147 97.2719 13.0147 97.2187 13.0322H96.4391L97.7148 14.447C97.7148 14.447 97.3251 14.7615 97.2011 14.8839C97.2011 14.9012 97.3427 15.076 97.396 15.1109C97.4845 15.1633 98.0338 15.2157 97.9806 15.4603C97.9806 15.4776 97.9806 15.5127 97.9629 15.5476C97.9274 15.6524 97.7857 15.827 97.7325 15.897C97.644 16.0018 97.4668 16.0192 97.396 16.2113C97.4845 16.2637 97.5731 16.3861 97.5909 16.4734C97.7857 16.2463 98.2286 15.7048 98.4059 15.3205C99.0615 15.4776 100.656 16.351 101.064 16.4909C101.418 16.5956 101.967 16.6655 101.967 16.6655C101.932 16.7703 101.879 16.8925 101.879 16.9625C101.879 16.9974 102.003 17.0323 102.144 17.1197C102.197 17.1546 102.286 17.2245 102.357 17.2943C102.304 17.6961 102.428 18.0629 102.516 18.3425C102.57 18.4472 102.605 18.5695 102.641 18.6917C102.658 18.7267 102.658 18.7616 102.676 18.8141C102.694 18.9014 102.711 18.9887 102.729 19.0935C102.747 19.2159 102.765 19.3381 102.765 19.4604C102.765 19.4953 102.765 19.5302 102.765 19.5477C102.765 19.5652 102.765 19.6001 102.765 19.6175C102.765 19.635 102.765 19.6525 102.765 19.6874C102.765 19.7223 102.765 19.7399 102.765 19.7747C102.765 19.932 102.747 20.0717 102.711 20.229C102.711 20.2639 102.694 20.2988 102.694 20.3338C102.694 20.3862 102.676 20.4211 102.658 20.4735C102.623 20.6481 102.57 20.8054 102.499 20.9626C102.499 20.98 102.481 20.9975 102.481 21.015C102.481 21.0324 102.481 21.0324 102.463 21.0499V21.0674C102.446 21.0674 102.428 21.0499 102.41 21.0499C102.304 21.015 102.215 20.98 102.127 20.9277C102.073 20.8927 102.003 20.8578 101.949 20.8054C101.896 20.753 101.843 20.7181 101.79 20.6656C101.879 20.8578 102.02 21.0499 102.197 21.1723C102.233 21.1896 102.251 21.2245 102.286 21.2421C102.304 21.2596 102.339 21.2596 102.357 21.277C102.357 21.277 102.8 21.4168 102.871 21.4342C103.119 21.4866 103.774 21.5739 104.253 21.7487C104.324 21.7661 104.465 21.609 104.873 21.6439C105.281 21.6788 105.599 22.0805 105.582 22.3426C105.582 22.6045 105.458 22.6745 105.422 22.8316C105.369 23.0239 105.05 24.7356 105.015 25.0325C104.997 25.2247 104.979 25.4867 104.979 25.5043C104.979 25.5392 105.05 25.8536 105.068 25.9583C105.068 25.9759 105.068 25.9934 105.068 26.0107C105.068 26.0632 105.068 26.1156 105.05 26.1505C105.015 26.3776 104.908 26.5698 104.749 26.6571C104.749 26.6746 104.749 26.6746 104.731 26.692C104.713 26.7794 104.678 26.8492 104.643 26.9365C104.465 27.3907 104.217 27.775 103.934 28.0545V28.0371L103.314 26.8492V26.8317C103.438 26.6047 103.615 26.3776 103.828 26.168C103.845 26.1331 103.881 26.1156 103.916 26.0807C103.987 26.0283 104.04 25.9759 104.111 25.9059C104.111 25.8885 104.111 25.871 104.111 25.8536C104.111 25.6265 104.217 25.3994 104.377 25.2422C104.395 25.2247 104.43 25.1898 104.448 25.1723C104.448 25.12 104.536 23.3382 104.465 22.6745C104.324 22.657 103.952 22.5521 103.757 22.4124C103.704 22.36 101.701 22.5521 101.631 22.5521C101.577 22.5521 101.4 22.4823 101.294 22.4823C101.188 22.4823 100.993 22.5172 100.922 22.5172C100.78 22.5172 100.656 22.4648 100.55 22.3949C100.443 22.3076 100.355 22.2027 100.319 22.063C100.302 22.0281 100.302 21.9932 100.302 21.9757C100.302 21.9582 100.302 21.9408 100.302 21.9233V21.9058C100.302 21.8884 100.302 21.8709 100.302 21.836C100.302 21.8185 100.302 21.8011 100.319 21.7661C100.337 21.7136 100.355 21.6612 100.39 21.609C100.284 21.5739 100.178 21.539 100.071 21.4866C99.9827 21.4342 99.8765 21.3818 99.7878 21.312C99.5753 21.1547 99.3804 20.9626 99.2386 20.753C99.1855 20.6832 99.15 20.5957 99.1146 20.5259C99.2386 21.0324 99.5575 21.4517 100.001 21.7312C100.001 21.7661 99.9827 21.8185 99.9827 21.8535C99.9827 21.9408 99.9827 22.0106 100.001 22.0805C100.036 22.2378 100.125 22.3949 100.231 22.5172C100.355 22.657 100.532 22.7618 100.727 22.8142C100.567 23.3906 100.213 24.3863 100.213 24.4561C100.213 24.6658 99.6638 25.7488 99.6638 25.7488C99.6638 26.2029 99.522 26.6571 99.4689 27.0414C99.4513 27.1462 99.4513 27.2335 99.4513 27.3208C99.4513 27.3907 99.4158 27.845 99.3804 28.596C99.3804 28.6659 99.3626 28.6659 99.3626 28.7357C99.3626 28.7881 99.3804 28.8581 99.4158 28.9105C99.4158 28.9105 99.4158 28.9105 99.4158 28.9279C99.4335 28.9629 99.4689 28.9978 99.4867 29.0327C99.522 29.0851 99.5575 29.1201 99.5929 29.1724C99.6638 29.2772 99.7347 29.3996 99.8056 29.5218C99.8411 29.5917 99.8587 29.6441 99.8942 29.6965C99.9118 29.7314 99.9296 29.7663 99.9296 29.7839C100.036 30.0633 100.125 30.3427 100.142 30.6048H98.6717C98.6893 30.5175 98.707 30.4302 98.707 30.3428C98.7248 30.0284 98.6539 29.6965 98.4768 29.3821C98.3881 29.2074 98.3704 29.1026 98.2464 28.9629C98.2641 28.8405 98.2819 28.596 98.3704 28.3341C98.4413 28.072 98.707 27.6528 98.707 27.6353C98.707 27.6353 98.7957 25.8885 98.7957 25.8012C98.7957 25.7313 98.6717 25.1025 98.6184 24.7706C98.6184 24.7531 98.5475 24.1942 98.335 23.7924C98.2995 23.7225 98.4944 23.5479 98.5475 23.443L98.5121 23.4081H98.4944C98.4235 23.4779 96.9884 23.8972 96.9884 23.8972C96.9884 23.8972 96.6695 23.4954 96.5455 23.4255C95.9608 23.3906 95.3228 23.3033 94.6851 23.1985C93.7106 23.0239 92.8246 22.7793 92.0805 22.5172C91.9387 22.4648 91.7971 22.4124 91.6553 22.36L91.6376 22.3775C91.6376 22.3949 91.6376 22.4299 91.6376 22.4473C91.6376 22.5521 91.6376 22.6394 91.6198 22.7269C91.5844 23.1112 91.4782 23.4779 91.3186 23.7749C91.2478 23.9321 91.1591 24.0543 91.0706 24.1767C91.0706 24.1942 91.0529 24.1942 91.0529 24.2116C91.106 24.3339 91.1591 24.4736 91.1946 24.6134C91.2124 24.7007 91.23 24.788 91.23 24.8928C91.23 25.0152 91.23 25.12 91.23 25.2247C92.24 26.4125 92.7715 27.3383 92.8955 27.513C92.8955 27.513 92.8955 27.513 92.9132 27.5305C93.1081 27.6353 93.2677 27.8799 93.2677 28.1768C93.2677 28.2641 93.2499 28.3341 93.2322 28.4214C93.1968 28.5087 93.1613 28.596 93.1081 28.6659C93.1259 28.7532 93.1435 28.8232 93.1613 28.9105C93.1968 29.0851 93.1968 29.2772 93.1968 29.4694V29.4869C93.179 29.7839 93.1259 30.0459 93.0373 30.2905C93.0195 30.3428 92.9841 30.3952 92.9664 30.4476L91.8502 29.5393L91.8147 29.5218C91.8679 29.3996 91.9211 29.2599 91.992 29.1375C92.0451 29.0153 92.1691 28.8581 92.2223 28.7532C92.116 28.631 91.992 28.4912 91.992 28.2641C91.992 28.2292 91.992 28.1943 91.992 28.1593C91.992 28.1244 91.992 28.1069 91.992 28.072C92.0096 27.845 92.0805 27.6528 92.1691 27.5305C92.0274 27.2859 91.7084 26.8317 91.6022 26.692C91.4249 26.465 91.106 26.1505 90.9466 26.0107C90.858 25.941 90.5037 25.8536 90.4504 25.8361C90.4859 25.8361 90.4328 25.8361 90.4504 25.8361C90.3619 25.8186 90.0961 25.7837 90.0961 25.7837L89.7063 25.7138H89.6886L89.7949 25.4168V25.3994C89.8126 25.2771 89.8126 25.1723 89.7949 25.0501C89.7772 24.9628 89.7594 24.8928 89.7417 24.823C89.7239 24.8055 89.724 24.7706 89.7063 24.7531C89.6886 24.7182 89.6708 24.7007 89.6532 24.6658L89.6354 24.6483C89.4936 24.4736 89.1747 24.0543 89.1216 24.0019C89.1393 23.9845 89.1393 23.967 89.1571 23.967L89.1747 23.9496C89.3874 23.7051 89.5645 23.4081 89.7063 23.1112C89.7772 22.9714 89.8481 22.8142 89.9012 22.657C89.9721 22.4648 90.0252 22.2727 90.0606 22.063C90.0784 21.9757 90.0961 21.8709 90.1137 21.7836C90.1137 21.7836 90.1137 21.7661 90.1137 21.7487C90.1846 21.6963 90.2379 21.6612 90.3088 21.609C90.4859 21.4691 90.6453 21.312 90.7693 21.1372C90.858 21.0324 90.9288 20.9102 90.982 20.7879C90.9997 20.753 90.9997 20.7354 91.0175 20.7181C90.9997 20.7354 90.982 20.7705 90.9642 20.7879C90.7517 21.0848 90.4682 21.3294 90.1492 21.5215C90.1315 21.5215 90.1315 21.539 90.1137 21.539C90.0961 21.5565 90.0606 21.5739 90.0252 21.5914C89.9543 21.6263 89.9012 21.6614 89.8303 21.6788C89.8126 21.7661 89.7948 21.8535 89.7772 21.9408C89.7417 22.063 89.7239 22.1854 89.6708 22.3251C89.6354 22.4299 89.6 22.5348 89.5645 22.6394C89.4937 22.8142 89.4229 22.9714 89.3342 23.1285C89.228 23.3207 89.1216 23.4954 88.9976 23.6527C88.9622 23.6876 88.9444 23.74 88.9089 23.7749C88.6609 24.0719 88.3597 24.3513 88.0408 24.561C87.8637 24.6833 87.6688 24.7706 87.4739 24.8579C87.4206 24.8754 87.3675 24.9103 87.3143 24.9277C87.279 25.1025 87.0309 25.3645 86.8537 25.5043C86.7829 25.5741 86.6411 25.6614 86.5702 25.7662C86.4107 25.9934 86.3222 26.2553 86.2691 26.465C86.1449 26.8667 86.0033 27.6178 86.0033 27.7052C86.0033 27.775 85.9678 28.072 85.9678 28.1419C85.9678 28.2117 86.1804 28.9279 86.1804 28.9978V29.0153C86.4816 29.2248 86.7474 29.5393 86.9245 29.9411C87.0309 30.1681 87.0841 30.3952 87.1194 30.6048H85.8615C85.826 30.4127 85.7906 30.2205 85.702 30.0284C85.578 29.679 85.4008 29.3821 85.1882 29.155C85.135 29.1026 85.0819 29.0502 85.0288 28.9978C85.011 28.9629 84.9933 28.9279 84.9933 28.8756V28.8581C84.9933 28.6659 85.1173 28.3165 85.1882 28.1244C85.2237 28.0371 85.2591 27.9672 85.2591 27.8974C85.2591 27.8274 85.3831 26.3601 85.3831 26.3077C85.3653 26.2728 85.135 25.5392 84.9048 25.2422C84.9933 25.1374 85.0819 25.0501 85.135 24.9801C85.3122 24.8055 85.4362 24.7182 85.5426 24.4037C85.5602 24.3339 85.6135 24.3339 85.6135 24.264C85.6135 24.2291 85.6135 24.2116 85.5957 24.1942C85.3299 24.3863 84.9755 24.5085 84.6212 24.5085C85.0464 24.1767 85.2591 23.6176 85.1528 23.0587C85.2413 23.0412 85.2413 23.0239 85.2413 23.0063Z" fill="#4D5C65"/>
<path d="M0 30.4464V12.6816H9.21337V15.6862H3.36643V19.7736H7.83137V22.778H3.36643V27.4594H9.44371V30.4639H0V30.4464Z" fill="#4D5C65"/>
<path d="M18.1431 17.6256C17.8596 16.7871 17.5407 16.1757 17.1509 15.8089C16.7611 15.4246 16.2826 15.2499 15.698 15.2499C15.0956 15.2499 14.6349 15.4246 14.316 15.774C13.997 16.1234 13.8375 16.595 13.8375 17.2063C13.8375 17.643 14.0324 18.0448 14.4046 18.3766C14.7767 18.7085 15.2373 19.0405 15.7865 19.3548C16.3359 19.6693 16.9382 20.0012 17.5938 20.3506C18.2494 20.6999 18.8518 21.1191 19.401 21.5907C19.9504 22.0624 20.4109 22.6388 20.7831 23.2852C21.1552 23.9489 21.3501 24.735 21.3501 25.6432C21.3501 26.4118 21.226 27.1106 20.978 27.7394C20.73 28.3682 20.3578 28.8923 19.8795 29.3464C19.401 29.7831 18.8163 30.1325 18.1076 30.3595C17.4166 30.6041 16.6193 30.7089 15.7512 30.7089C14.3691 30.7089 13.182 30.3072 12.1898 29.5212C11.1976 28.7351 10.4712 27.4599 10.0105 25.7132L13.3238 24.9969C13.4124 25.5384 13.5718 25.9926 13.749 26.3595C13.9439 26.7263 14.1566 27.0232 14.3868 27.2503C14.6349 27.4774 14.8829 27.6521 15.1487 27.7394C15.4145 27.8442 15.6803 27.8791 15.9107 27.8791C16.4953 27.8791 16.9913 27.687 17.3813 27.3202C17.7711 26.9533 17.9836 26.4293 17.9836 25.7656C17.9836 25.2066 17.7887 24.735 17.4166 24.3332C17.0446 23.9314 16.5839 23.5646 16.0347 23.2152C15.4854 22.8659 14.8829 22.534 14.2273 22.2021C13.5718 21.8703 12.9694 21.486 12.4202 21.0492C11.8709 20.6125 11.4102 20.106 11.0381 19.5296C10.6661 18.953 10.4712 18.2544 10.4712 17.4159C10.4712 15.8788 10.9141 14.6561 11.8 13.7826C12.6859 12.8918 13.997 12.4551 15.7512 12.4551C16.4953 12.4551 17.1686 12.5599 17.7711 12.7695C18.3734 12.9791 18.905 13.2761 19.3479 13.6604C19.8086 14.0446 20.1807 14.4988 20.4818 15.0228C20.7831 15.5468 21.0134 16.1234 21.1552 16.7522L18.1431 17.6256Z" fill="#4D5C65"/>
<path d="M33.0264 12.6816V15.6862H29.1107V30.4464H25.7443V15.6862H21.8286V12.6816H33.0264Z" fill="#4D5C65"/>
<path d="M30.8293 30.4464L35.188 12.6816H39.4935L43.7281 30.4464H40.5212L39.6707 26.7084H35.0109L34.054 30.4464H30.8293ZM35.631 23.7038H38.9619L37.332 16.5245H37.2787L35.631 23.7038Z" fill="#4D5C65"/>
<path d="M44.4546 12.6816H49.1321C50.0889 12.6816 50.9394 12.7864 51.6836 13.0135C52.4277 13.2406 53.0655 13.59 53.5793 14.0791C54.0932 14.5682 54.5007 15.2144 54.7841 15.9831C55.0677 16.769 55.2271 17.7124 55.2626 18.8303V24.2977C55.2271 25.4157 55.0677 26.359 54.7841 27.145C54.5007 27.931 54.0932 28.5599 53.5793 29.049C53.0655 29.538 52.4277 29.9049 51.6836 30.1146C50.9394 30.3416 50.0889 30.4464 49.1321 30.4464H44.4546V12.6816ZM47.8209 27.4419H48.9903C49.9117 27.4419 50.6382 27.1799 51.152 26.6733C51.6658 26.1493 51.9139 25.241 51.9139 23.9135V19.2321C51.9139 17.9744 51.6836 17.066 51.2405 16.5071C50.7976 15.9656 50.0357 15.6862 48.9903 15.6862H47.8209V27.4419Z" fill="#4D5C65"/>
<path d="M55.2273 30.4465L59.5859 12.6817H63.8914L68.1261 30.4465H64.919L64.0685 26.7084H59.4087L58.452 30.4465H55.2273ZM66.1239 8.38465C66.0353 8.78642 65.929 9.15324 65.805 9.50259C65.681 9.85195 65.5037 10.1664 65.3088 10.4459C65.1139 10.7253 64.8481 10.9524 64.5469 11.1096C64.2458 11.2668 63.8736 11.3542 63.4307 11.3542C63.1119 11.3542 62.7928 11.3018 62.4739 11.2144C62.155 11.1271 61.8538 11.0223 61.5525 10.9175C61.2691 10.8127 60.9679 10.7079 60.6844 10.6205C60.401 10.5332 60.1175 10.4808 59.8517 10.4808C59.5505 10.4808 59.3025 10.5856 59.1252 10.7952C58.948 11.0048 58.824 11.2494 58.7531 11.5289H57.2117C57.2826 11.1271 57.3712 10.7603 57.513 10.3934C57.6546 10.0266 57.8318 9.71221 58.0622 9.43272C58.2925 9.15324 58.5582 8.92615 58.8772 8.76895C59.1961 8.61174 59.5681 8.5244 60.0112 8.5244C60.3301 8.5244 60.649 8.5768 60.9678 8.66414C61.2869 8.76895 61.588 8.87375 61.8892 8.97857C62.1905 9.08337 62.4563 9.18818 62.7221 9.29298C62.9877 9.39779 63.2004 9.43272 63.3953 9.43272C63.6787 9.43272 63.9269 9.32792 64.1394 9.1183C64.3343 8.90869 64.4761 8.66414 64.5469 8.36719H66.1239V8.38465ZM60.0112 23.7039H63.3421L61.7298 16.5247H61.6767L60.0112 23.7039Z" fill="#4D5C65"/>
<path d="M68.179 18.3941C68.179 17.2937 68.3208 16.3679 68.5865 15.6168C68.87 14.8656 69.242 14.2543 69.7381 13.7826C70.2165 13.311 70.8013 12.9791 71.4922 12.7695C72.1656 12.5599 72.9274 12.4551 73.7247 12.4551C74.5398 12.4551 75.2839 12.5599 75.9572 12.7695C76.6304 12.9791 77.2151 13.3285 77.7112 13.7826C78.1897 14.2543 78.5795 14.8656 78.863 15.6168C79.1464 16.3679 79.2704 17.2937 79.2704 18.3941V24.735C79.2704 25.8354 79.1287 26.7612 78.863 27.5123C78.5795 28.2634 78.2074 28.8748 77.7112 29.3464C77.2329 29.8181 76.6482 30.15 75.9572 30.3595C75.2839 30.5692 74.522 30.674 73.7247 30.674C72.9097 30.674 72.1656 30.5692 71.4922 30.3595C70.819 30.15 70.2343 29.8006 69.7381 29.3464C69.2598 28.8748 68.87 28.2634 68.5865 27.5123C68.303 26.7612 68.179 25.8354 68.179 24.735V18.3941ZM71.5454 25.1892C71.5454 26.1672 71.7403 26.8311 72.1301 27.1805C72.5199 27.5299 73.0514 27.7045 73.7424 27.7045C74.4156 27.7045 74.965 27.5299 75.3548 27.1805C75.7446 26.8311 75.9395 26.1672 75.9395 25.1892V17.9575C75.9395 16.9792 75.7446 16.3155 75.3548 15.9661C74.965 15.6168 74.4334 15.4421 73.7424 15.4421C73.0692 15.4421 72.5199 15.6168 72.1301 15.9661C71.7403 16.3155 71.5454 16.9792 71.5454 17.9575V25.1892Z" fill="#4D5C65"/>
</svg>
