<svg width="87" height="20" viewBox="0 0 87 20" fill="none" xmlns="http://www.w3.org/2000/svg">
<g clip-path="url(#clip0)">
<path d="M82.6499 3.90515V10.2124H77.3883V3.90515H73.9954V19.5436H77.3883V12.9302H82.6499V19.5436H86.0432V3.90515H82.6499ZM64.3748 10.7561V6.40621H66.2671C67.8547 6.40621 68.6597 6.84139 68.6597 8.55943C68.6597 10.0166 67.6589 10.7561 66.4191 10.7561H64.3748ZM69.5297 12.5615C70.9214 11.8219 72.0508 10.4518 72.0508 8.18966C72.0508 5.18802 69.8107 3.90479 66.4604 3.90479H61.0038V19.5433H64.3752V13.3006H66.4213L69.0737 19.5429H72.6409L69.5297 12.5615Z" fill="#828D93"/>
<path d="M15.0564 6.21783L14.9863 6.38115C14.9157 6.52146 14.846 6.66177 14.3319 7.87668C13.1867 10.5637 11.153 14.7938 9.33084 19.4904L9.28407 19.6307H7.88208L3.06815 7.87668C2.34359 6.10054 2.48353 6.42756 2.3202 6.07752C1.85287 5.98398 2.13349 6.03076 0.895203 5.84368V4.1377H8.53649V5.84368C7.27482 6.03039 7.57845 6.00737 6.90067 6.07752L7.32122 7.19888C8.04578 9.09194 8.98043 11.3818 9.58661 12.8777L9.60999 12.9007L9.72655 13.2296L9.79707 13.3695L9.84384 13.2296C10.1475 12.4816 11.2224 9.81796 12.0405 7.38779C12.1808 6.99025 12.3211 6.57006 12.4381 6.14914L11.6434 6.03221L10.6619 5.86852V4.13952H16.6206V5.86852C15.242 6.17216 15.5226 6.12429 15.055 6.21929" fill="#828D93"/>
<path d="M26.2852 13.679C26.1259 15.1365 25.6706 16.1614 24.9416 16.7307C24.2433 17.2307 23.3761 17.4352 22.5279 17.3C21.6633 17.2114 20.8651 16.7961 20.2965 16.1388C19.1123 14.7953 18.5883 12.4952 18.862 9.80849C18.8933 9.24888 19.0388 8.7016 19.2894 8.2003C19.5401 7.69899 19.8906 7.25425 20.3195 6.89345C20.6261 6.65416 20.9774 6.47854 21.3529 6.3769C21.7283 6.27525 22.1202 6.24962 22.5056 6.30153C22.9638 6.3392 23.409 6.47207 23.8129 6.69165C24.2168 6.91123 24.5703 7.21269 24.851 7.57673C25.9666 8.92025 26.5132 11.2671 26.2855 13.6786L26.2852 13.679ZM30.5437 11.7889C30.5848 9.74832 29.8151 7.77473 28.4033 6.30081C27.629 5.55669 26.7156 4.97256 25.7154 4.58183C24.7151 4.1911 23.6476 4.00146 22.574 4.02373C20.2055 4.02373 18.1791 4.79798 16.7216 6.30081C15.3314 7.79449 14.5585 9.75929 14.5585 11.7998C14.5585 13.8404 15.3314 15.8052 16.7216 17.2989C18.1791 18.7794 20.2055 19.576 22.574 19.576C24.9194 19.576 26.9461 18.7794 28.4033 17.2989C29.8157 15.8162 30.585 13.8355 30.5437 11.7882" fill="#828D93"/>
<path d="M42.8862 8.96539C42.2255 7.4622 41.2693 6.30101 38.9236 6.34668C36.2369 6.36897 35.3256 9.35233 35.3256 10.6948C35.3256 15.6592 38.3543 16.9794 39.9481 16.9794C41.8846 16.9794 43.1134 15.6359 43.5007 15.1349L44.8442 16.5471L44.7986 16.5924C44.1828 17.5125 43.3492 18.2663 42.372 18.7866C41.3947 19.3069 40.304 19.5778 39.1969 19.5751C37.1119 19.6031 35.0996 18.8097 33.5948 17.3663C32.8653 16.6342 32.29 15.7634 31.9028 14.8052C31.5156 13.847 31.3243 12.821 31.3403 11.7876C31.3403 7.2331 34.6423 4.02246 39.3788 4.02246C41.5196 4.02246 43.3867 4.86505 45.1172 6.59551L45.1855 6.64118L42.8862 8.96539Z" fill="#828D93"/>
<path d="M55.3419 3.97851L55.9342 2.97626L52.3359 0.630859L48.3057 2.77165L48.9207 3.79472L52.0856 2.58895H52.1313L55.3419 3.97851ZM54.6356 9.12532C52.5635 9.83124 50.4703 10.5372 48.3963 11.2654C48.3091 10.6159 48.3015 9.95823 48.3737 9.30692C48.5103 7.75842 49.4665 6.00494 51.6987 6.18726C53.2015 6.30163 54.1128 7.18951 54.5907 8.94262L54.6356 9.12532ZM58.8712 10.1484V10.1027C58.0512 6.80075 56.3661 4.04574 52.0385 4.02309C51.0829 3.99177 50.1308 4.15303 49.2388 4.49727C48.3468 4.84151 47.5332 5.3617 46.8464 6.02686C45.3432 7.50704 44.501 9.73881 44.501 12.1065C44.501 16.2964 47.8713 19.553 52.1978 19.5757C55.4545 19.5757 57.4593 18.0729 58.7334 16.1374L58.7787 16.0691L57.2076 14.4753C56.4107 15.8637 54.2925 17.1623 53.0857 17.0257C52.0835 17.0327 51.1107 16.6878 50.3368 16.0512C49.5628 15.4145 49.0368 14.5264 48.8505 13.5417C49.6248 13.2914 58.8701 10.1944 58.8701 10.1491" fill="#828D93"/>
</g>
<defs>
<clipPath id="clip0">
<rect width="85.1485" height="19" fill="white" transform="translate(0.89502 0.630859)"/>
</clipPath>
</defs>
</svg>
