<svg width="76" height="20" viewBox="0 0 76 20" fill="none" xmlns="http://www.w3.org/2000/svg">
<g clip-path="url(#clip0)">
<path d="M56.4821 4.79828C52.8721 4.79828 50.0743 7.99999 49.9479 11.9211C49.7494 18.7023 58.8466 21.0586 61.8248 17.3173V14.4393C61.8248 14.4393 60.8862 16.0762 57.2041 16.0762C53.5399 16.0762 53.4135 13.3601 53.4135 13.3601H62.8898C62.9801 12.8925 63.0161 12.4248 63.0161 11.9392C63.0161 7.98195 60.092 4.79828 56.4821 4.79828ZM53.3774 10.9318C53.7565 9.42091 55.0561 8.30574 56.5903 8.30574C58.1246 8.30574 59.4242 9.42091 59.8032 10.9318H53.3774ZM9.49809 6.81287C8.50533 5.69759 7.18768 5.01414 5.72564 5.01414C2.62105 5.01414 0.0940552 8.1439 0.0940552 12.0111C0.0940552 15.8784 2.62105 19.008 5.72564 19.008C7.16963 19.008 8.48728 18.3246 9.49809 17.2094V18.9361H13.1081V5.08609H9.49809V6.81287ZM6.79058 15.8963C5.20219 15.8963 3.92064 14.1876 3.92064 12.065C3.92064 9.94263 5.20219 8.23379 6.79058 8.23379C8.37898 8.23379 9.66056 9.94263 9.66056 12.065C9.6786 14.1876 8.39703 15.8963 6.79058 15.8963ZM33.6128 17.3173V10.2303V8.23379C33.6128 8.23379 33.3781 4.97816 29.9848 4.97816C26.5914 4.97816 25.8514 6.86678 25.8514 6.86678C25.8514 6.86678 24.8766 4.81621 22.2955 4.81621C20.1836 4.81621 19.0284 6.03942 18.6854 6.47103V4.99609H15.1477V18.8462H18.6854V9.79872C18.902 9.24103 19.5158 8.12586 20.7793 8.12586C22.1692 8.12586 22.5842 9.25907 22.6745 9.94252V17.2454C22.8008 17.9469 23.216 18.4145 23.7034 18.8282H27.2412C26.6816 18.3605 26.3206 17.8569 26.2123 17.2814V10.4642C26.2123 10.4642 26.104 8.26976 28.2159 8.16183C29.7501 8.08988 30.0209 9.47493 30.0569 10.2484V10.6621C30.0569 10.716 30.0569 10.734 30.0569 10.734V17.2633C30.1833 17.9648 30.5985 18.4325 31.0858 18.8462H34.6236C34.0821 18.3965 33.7211 17.8929 33.6128 17.3173ZM43.4139 5.01414C41.9699 5.01414 40.6522 5.69759 39.6415 6.81287V0.805176H36.0315V18.9001H39.6415V17.1734C40.6342 18.2886 41.9518 18.972 43.4139 18.972C46.5184 18.972 49.0455 15.8424 49.0455 11.9752C49.0455 8.1439 46.5184 5.01414 43.4139 5.01414ZM42.3309 15.8963C40.7425 15.8963 39.461 14.1876 39.461 12.065C39.461 9.94263 40.7425 8.23379 42.3309 8.23379C43.9193 8.23379 45.2008 9.94263 45.2008 12.065C45.2189 14.1876 43.9373 15.8963 42.3309 15.8963ZM71.4635 5.03207L68.8463 14.7811L66.2291 5.03207H62.0414L66.6803 18.9001H70.6512L75.5428 5.03207H71.4635Z" fill="#AE91FF"/>
</g>
<defs>
<clipPath id="clip0">
<rect width="75.9235" height="19.2642" fill="white" transform="translate(0 0.499023)"/>
</clipPath>
</defs>
</svg>
