<svg width="108" height="29" viewBox="0 0 108 29" fill="none" xmlns="http://www.w3.org/2000/svg">
<g clip-path="url(#clip0)">
<path d="M33.5754 0.130859H0.325439V8.00586H33.5754V0.130859Z" fill="#AE91FF"/>
<path fill-rule="evenodd" clip-rule="evenodd" d="M33.5754 8.00586H107.075V28.1309H33.5754V8.00586ZM44.2533 13.2977H39.929V23.0006H41.634V19.6176H43.7682L46.1515 23.0006H48.1624L45.5415 19.3273C46.9015 18.9393 47.8567 17.9826 47.8567 16.3885V16.3613C47.8567 15.5155 47.5662 14.7943 47.0537 14.2681C46.43 13.6582 45.4732 13.2977 44.2533 13.2977ZM46.1242 16.4859C46.1242 17.47 45.3485 18.1073 44.1287 18.1073H41.634V14.8508H44.1149C45.3759 14.8508 46.1242 15.418 46.1242 16.4586V16.4859ZM50.9964 13.2977H58.2594V14.8216H52.7015V17.3453H57.5657V18.8693H52.7015V21.4749H58.2594V23.0006H50.9964V13.2977ZM62.6358 13.2977H60.7513L64.7578 23.004H66.3075L70.3156 13.2977H68.4721L65.5608 20.7555L62.6358 13.2977ZM72.868 13.2977H80.1308V14.8216H74.573V17.3453H79.4372V18.8693H74.573V21.4749H80.1308V23.0006H72.868V13.2977ZM91.4562 18.1491V18.1764C91.4562 20.9068 93.5352 23.1653 96.5154 23.1653C99.4948 23.1653 101.602 20.8793 101.602 18.1491V18.1218C101.602 15.3898 99.5219 13.1311 96.5426 13.1311C93.5632 13.1311 91.4562 15.4189 91.4562 18.1491ZM99.8142 18.1491V18.1764C99.8142 20.061 98.4702 21.6003 96.5426 21.6003C94.6167 21.6003 93.2447 20.0336 93.2447 18.1491V18.1218C93.2447 16.2355 94.5878 14.6979 96.5154 14.6979C98.4422 14.6979 99.8142 16.2646 99.8142 18.1491ZM84.6771 23.0009H89.7786V21.4479H84.6771V23.0009ZM84.6754 21.4485H82.9719V13.2986H84.6754V21.4485Z" fill="#AE91FF"/>
</g>
<defs>
<clipPath id="clip0">
<rect width="106.75" height="28" fill="white" transform="translate(0.325439 0.130859)"/>
</clipPath>
</defs>
</svg>
