<svg width="101" height="34" viewBox="0 0 101 34" fill="none" xmlns="http://www.w3.org/2000/svg">
<g clip-path="url(#clip0)">
<path d="M46.7603 12.5732C46.7603 12.3084 46.5408 12.0728 46.2775 12.0876C44.99 12.1759 43.9512 12.6468 43.1905 13.4709C42.3273 14.4128 41.903 15.7079 41.903 17.3709V22.0802C41.903 22.3451 42.1225 22.5658 42.3859 22.5658H42.7662C43.0295 22.5658 43.249 22.3451 43.249 22.0802V17.3709C43.249 16.0905 43.5562 15.1192 44.1561 14.4423C44.6681 13.8683 45.3705 13.5446 46.2775 13.4563C46.5554 13.4268 46.7603 13.2502 46.7603 12.9559V12.5732Z" fill="#828D93"/>
<path d="M52.2468 21.3299C50.9593 21.3299 49.9937 20.9914 49.3207 20.3292C48.7794 19.7847 48.4575 19.0341 48.3551 18.0923H56.7675C57.0309 18.0923 57.1772 18.0334 57.3089 17.9156C57.5137 17.7243 57.5137 17.3711 57.5137 17.3711C57.5137 15.7082 57.0455 14.4425 56.1238 13.5006C55.2022 12.5588 53.9 12.1025 52.2322 12.1025C50.5496 12.1025 49.2915 12.5734 48.3405 13.5006C46.8336 15.0017 46.9505 17.4153 46.9505 17.43C46.9505 19.1077 47.4188 20.3734 48.3259 21.3152C49.8182 22.8458 52.2028 22.6986 52.2028 22.6986C53.8708 22.6986 55.1728 22.2276 56.0945 21.3004C56.592 20.8001 56.8554 20.4617 57.0894 19.7405C57.2504 19.2255 56.7529 19.2695 56.7529 19.2695H56.1238C55.8458 19.2695 55.7435 19.4609 55.5971 19.7405C54.9095 20.9914 53.5342 21.3299 52.2468 21.3299ZM48.3551 16.7236C48.4575 15.6492 48.8378 14.7957 49.4962 14.2365C50.1546 13.6773 51.0763 13.3976 52.2322 13.3976C53.4025 13.3976 54.3097 13.6773 54.968 14.2365C55.6264 14.7957 56.0067 15.6492 56.1238 16.7236H48.3551Z" fill="#828D93"/>
<path d="M68.7643 8.06934H68.3839C68.1207 8.06934 67.9012 8.29009 67.9012 8.55499V13.8236C67.4769 13.2496 66.8478 12.7639 66.1894 12.5137C65.531 12.2636 64.8288 12.1312 63.9802 12.1312C62.327 12.1312 61.0395 12.6021 60.1178 13.5292C59.1961 14.4564 58.7279 15.722 58.7279 17.3997C58.7279 19.0628 59.1961 20.3872 60.1178 21.3144C61.0395 22.2416 62.327 22.7124 63.9802 22.7124C65.648 22.7124 66.9356 22.2416 67.8719 21.3144C68.7937 20.3872 69.2618 19.0628 69.2618 17.4439V8.61386C69.2472 8.29009 69.0277 8.06934 68.7643 8.06934ZM66.9063 20.343C66.2333 21.02 65.2676 21.3585 63.9802 21.3585C62.7074 21.3585 61.7417 21.02 61.0687 20.343C60.3958 19.6661 60.0593 18.6654 60.0593 17.385C60.0593 16.09 60.3958 15.1628 61.0687 14.4858C61.7417 13.8089 62.7074 13.4851 63.9802 13.4851C65.2676 13.4851 66.2333 13.8236 66.9063 14.4858C67.5793 15.1628 67.9012 16.09 67.9012 17.385C67.9012 18.6654 67.5646 19.6661 66.9063 20.343Z" fill="#828D93"/>
<path d="M31.9107 17.4006C31.9107 19.0635 32.3642 20.3587 33.286 21.2858C34.2077 22.2129 35.4951 22.6838 37.1631 22.6838C38.6992 22.6838 39.694 22.2571 40.1915 21.9186C40.5865 21.6831 40.5427 21.4035 40.5427 21.0944V20.859C40.5427 20.2262 40.0306 20.4911 39.738 20.6382C39.1235 20.962 38.4943 21.3299 37.1631 21.3299C35.8755 21.3299 34.9099 20.9914 34.2516 20.3145C33.5786 19.6375 33.2567 18.6662 33.2567 17.3859C33.2567 16.1055 33.5932 15.1342 34.2516 14.4572C34.9099 13.7803 35.8901 13.4418 37.1631 13.4418C38.0554 13.4418 38.7577 13.6036 39.3868 13.9421C39.6648 14.0746 40.1915 14.3395 40.1915 13.7508V13.4711C40.1915 13.1621 40.2354 12.9119 39.8403 12.6912C39.021 12.2791 38.3188 12.1025 37.1777 12.1025C35.5097 12.1025 34.2223 12.5734 33.3006 13.5006C32.3789 14.4278 31.9107 15.7375 31.9107 17.4006Z" fill="#828D93"/>
<path d="M80.4248 21.8157C80.4248 21.5213 80.2054 21.3448 79.9421 21.3153C79.035 21.227 78.3327 20.9033 77.8206 20.3293C77.2208 19.6524 76.9136 18.681 76.9136 17.4007V13.5596H79.1374C79.4008 13.5596 79.6201 13.3388 79.6201 13.074V12.6913C79.6201 12.4264 79.4008 12.2057 79.1374 12.2057H76.9136V8.98273C76.9136 8.71783 76.6941 8.49707 76.4308 8.49707H76.0504C75.787 8.49707 75.5676 8.71783 75.5676 8.98273V12.2057H74.6167C74.3533 12.2057 74.1338 12.4264 74.1338 12.6913V13.074C74.1338 13.3388 74.3533 13.5596 74.6167 13.5596H75.5676V17.4007C75.5676 19.0637 75.9919 20.3587 76.8551 21.3006C77.6159 22.1248 78.6399 22.5957 79.9421 22.684C80.2201 22.6987 80.4248 22.4632 80.4248 22.1983V21.8157Z" fill="#828D93"/>
<path d="M72.1294 8.06934H71.749C71.4856 8.06934 71.2663 8.29009 71.2663 8.55499V9.79119C71.2663 10.0561 71.4856 10.2768 71.749 10.2768H72.1294C72.3928 10.2768 72.6123 10.0561 72.6123 9.79119V8.55499C72.6123 8.29009 72.3928 8.06934 72.1294 8.06934Z" fill="#828D93"/>
<path d="M72.1294 12.2051H71.749C71.4856 12.2051 71.2663 12.4258 71.2663 12.6907V22.0653C71.2663 22.3301 71.4856 22.5509 71.749 22.5509H72.1294C72.3928 22.5509 72.6123 22.3301 72.6123 22.0653V12.6907C72.6123 12.4258 72.3928 12.2051 72.1294 12.2051Z" fill="#828D93"/>
<path d="M88.7934 15.1487V16.2524H85.8673C82.4877 16.2524 80.9661 17.2384 80.9661 19.4313C80.9661 21.4622 82.5463 22.6836 85.2089 22.6836C88.6763 22.6836 90.1394 21.6388 90.1394 19.1958V15.1487C90.1394 13.6476 89.1152 12.9706 89.1152 12.9706C88.6033 12.5733 87.9595 12.3231 87.1694 12.2348C86.6866 12.1759 86.2769 12.1465 85.7796 12.1465C85.3113 12.1465 84.9017 12.1612 84.4336 12.2201C83.5997 12.3084 82.912 12.5586 82.3707 12.9706C81.6977 13.5004 81.3612 14.2363 81.3466 15.1487C81.3466 15.1487 81.3612 15.5755 81.8294 15.5755H82.1951C82.4584 15.5755 82.6779 15.3989 82.6779 15.134C82.6779 14.148 83.4972 13.8389 83.4972 13.8389C83.7313 13.7211 84.6237 13.4563 85.765 13.4563C86.9645 13.4563 87.7546 13.7211 87.9887 13.8389C87.9887 13.8389 88.7934 14.148 88.7934 15.1487ZM88.7788 19.1516C88.7788 20.8146 87.7546 21.3739 85.1943 21.3739C83.3656 21.3739 82.2975 20.7557 82.2975 19.446C82.2975 18.0038 83.4094 17.4446 85.8966 17.4446H88.7788V19.1516Z" fill="#828D93"/>
<path d="M95.9184 17.9154C98.4055 17.9154 99.298 18.0626 99.298 19.5048C99.298 20.8146 98.0251 21.3739 96.211 21.3739C94.7479 21.3739 93.7824 21.1826 93.2264 20.7116C92.7729 20.2995 92.8022 19.6815 92.8022 19.6815C92.8022 19.4165 92.5827 19.24 92.3193 19.24H91.9389C91.4854 19.24 91.4561 19.6667 91.4561 19.6667C91.4561 21.1972 92.4656 21.8742 92.4656 21.8742C93.2703 22.4188 94.4846 22.6689 96.1818 22.6689C98.8444 22.6689 100.615 21.5063 100.615 19.4754C100.615 17.2679 99.2834 16.5909 95.9038 16.5909C94.4554 16.5909 93.7677 16.223 93.7677 16.223C92.9192 15.8551 92.9631 15.0604 92.9631 15.0604C92.9631 14.1333 93.7677 13.7948 93.7677 13.7948C94.0019 13.677 94.7187 13.4416 95.9038 13.4416C97.0449 13.4416 97.8642 13.6918 98.0983 13.8095C98.0983 13.8095 98.8444 14.1333 98.903 14.869C98.9176 15.1193 99.1224 15.2812 99.3857 15.2812H99.7661C100.234 15.2812 100.234 14.8543 100.234 14.8543C100.234 14.251 99.9271 13.4857 99.2394 12.9706C98.6981 12.5586 98.0251 12.3231 97.2498 12.2201C96.7962 12.1612 96.3865 12.1465 95.9038 12.1465C95.4063 12.1465 95.0845 12.1759 94.587 12.2348C93.797 12.3378 93.1094 12.6174 92.6412 12.9706C92.6412 12.9706 91.6171 13.6476 91.6171 15.0604C91.6171 15.0604 91.544 16.2966 92.6412 17.1061C92.6705 17.1207 93.5336 17.9154 95.9184 17.9154Z" fill="#828D93"/>
<path d="M10.5064 7.76074C5.21019 7.76074 0.9235 12.0727 0.9235 17.4002C0.9235 22.7276 5.21019 27.0249 10.5064 27.0249C12.6571 27.0249 14.3103 26.2302 14.3103 26.2302C15.4806 26.7452 16.7682 27.0249 18.1288 27.0249C22.1375 27.0249 25.7365 24.4936 27.1264 20.7115C27.1264 20.7115 27.3751 20.1375 27.0387 19.6518C26.8046 19.3134 26.3949 19.1221 25.9414 19.1073H19.6943C18.6555 19.1073 18.2312 20.3141 18.2312 20.3141C17.4996 22.242 16.0952 23.7873 14.3395 24.7143C11.7207 23.3311 9.92116 20.5643 9.92116 17.3855C9.92116 14.2066 11.7207 11.4399 14.3395 10.0565C16.0952 10.9837 17.4996 12.529 18.2312 14.4569C18.2312 14.4569 18.6555 15.6636 19.6943 15.6636H25.9414C26.4095 15.6636 26.8046 15.4576 27.0387 15.1191C27.3751 14.6334 27.1264 14.0594 27.1264 14.0594C25.7365 10.292 22.1228 7.76074 18.1288 7.76074C16.7682 7.76074 15.4806 8.04036 14.3103 8.55545C14.3103 8.55545 12.7009 7.76074 10.5064 7.76074ZM18.1288 9.11468C21.4792 9.11468 24.5222 11.1897 25.7658 14.3097H20.0453C19.5918 14.3097 19.3577 13.6769 19.3577 13.6769C18.6263 11.9256 17.4119 10.4539 15.8903 9.42373C16.5926 9.23241 17.3387 9.11468 18.1288 9.11468ZM10.5064 25.671C5.97097 25.671 2.26949 21.9624 2.26949 17.4002C2.26949 12.838 5.95634 9.12939 10.5064 9.12939C11.2672 9.12939 12.0279 9.23241 12.7448 9.43845C10.2138 11.1603 8.54591 14.0889 8.54591 17.4002C8.54591 20.7115 10.2138 23.6254 12.7448 25.362C12.0279 25.5532 11.2672 25.671 10.5064 25.671ZM18.1288 25.671C17.3533 25.671 16.6073 25.5532 15.8903 25.362C17.3973 24.3318 18.6263 22.8601 19.3577 21.1088C19.3577 21.1088 19.5918 20.476 20.0453 20.476H25.7658C24.5222 23.5959 21.4792 25.671 18.1288 25.671Z" fill="#828D93"/>
</g>
<defs>
<clipPath id="clip0">
<rect width="99.7204" height="32.8624" fill="white" transform="translate(0.9235 0.961914)"/>
</clipPath>
</defs>
</svg>
