<svg width="54" height="54" viewBox="0 0 54 54" fill="none" xmlns="http://www.w3.org/2000/svg">
<rect width="54" height="54" rx="3" fill="#F8F9FA"/>
<path d="M27.0002 39.2581C29.8518 39.2581 32.1614 41.5677 32.1614 44.4193V46.3548H29.5808H24.4195H21.8389V44.4193C21.8389 41.5677 24.1485 39.2581 27.0002 39.2581Z" fill="#B1A0EE"/>
<path d="M41.1935 39.2581C44.0451 39.2581 46.3548 41.5677 46.3548 44.4193V46.3548H43.7742H38.6129H36.0322V44.4193C36.0322 41.5677 38.3419 39.2581 41.1935 39.2581Z" fill="#B1A0EE"/>
<path d="M12.8063 39.2581C15.6579 39.2581 17.9676 41.5677 17.9676 44.4193V46.3548H15.387H10.2257H7.64502V44.4193C7.64502 41.5677 9.9547 39.2581 12.8063 39.2581Z" fill="#B1A0EE"/>
<path d="M12.8064 39.258C14.5879 39.258 16.0322 37.8138 16.0322 36.0322C16.0322 34.2506 14.5879 32.8064 12.8064 32.8064C11.0248 32.8064 9.58057 34.2506 9.58057 36.0322C9.58057 37.8138 11.0248 39.258 12.8064 39.258Z" fill="#FFD688"/>
<path d="M26.9997 39.258C28.7813 39.258 30.2255 37.8138 30.2255 36.0322C30.2255 34.2506 28.7813 32.8064 26.9997 32.8064C25.2182 32.8064 23.7739 34.2506 23.7739 36.0322C23.7739 37.8138 25.2182 39.258 26.9997 39.258Z" fill="#FFD688"/>
<path d="M41.1936 39.258C42.9751 39.258 44.4194 37.8138 44.4194 36.0322C44.4194 34.2506 42.9751 32.8064 41.1936 32.8064C39.412 32.8064 37.9678 34.2506 37.9678 36.0322C37.9678 37.8138 39.412 39.258 41.1936 39.258Z" fill="#FFD688"/>
<path d="M43.5329 39.109C44.4613 38.4013 45.0645 37.2871 45.0645 36.0323C45.0645 34.1181 43.6665 32.5284 41.8387 32.2194V31.5161C41.8387 29.7374 40.3916 28.2903 38.6129 28.2903H27.6452V25.9394C27.9935 26.2045 28.4123 26.3548 28.8574 26.3548C29.9439 26.3548 30.8258 25.489 30.8639 24.4123C31.9168 24.3748 32.7619 23.5297 32.7994 22.4768C33.8523 22.4394 34.6974 21.5942 34.7348 20.5413C35.8116 20.5032 36.6774 19.6206 36.6774 18.5348C36.6774 17.9968 36.4677 17.491 36.0877 17.111L35.9535 16.9768C36.84 15.889 37.3226 14.5419 37.3226 13.1194C37.3226 9.74516 34.5774 7 31.2032 7C29.6245 7 28.1413 7.59871 27 8.68C25.8587 7.59871 24.3755 7 22.7968 7C19.4226 7 16.6774 9.74516 16.6774 13.1194C16.6774 14.7045 17.2806 16.1942 18.371 17.3374C18.1135 17.6832 17.9677 18.0961 17.9677 18.5348C17.9677 19.6213 18.8335 20.5032 19.9103 20.5413C19.9477 21.5942 20.7929 22.4394 21.8458 22.4768C21.8832 23.5297 22.7284 24.3748 23.7813 24.4123C23.8194 25.489 24.7019 26.3548 25.7877 26.3548C25.9839 26.3548 26.1723 26.3181 26.3548 26.2645V28.2903H15.3871C13.6084 28.2903 12.1613 29.7374 12.1613 31.5161V32.2194C10.3335 32.5284 8.93548 34.1181 8.93548 36.0323C8.93548 37.2871 9.53871 38.4013 10.4671 39.109C8.42839 40.011 7 42.0503 7 44.4194V47H18.6129V44.4194C18.6129 42.0503 17.1845 40.011 15.1458 39.109C16.0742 38.4013 16.6774 37.2871 16.6774 36.0323C16.6774 34.1181 15.2794 32.5284 13.4516 32.2194V31.5161C13.4516 30.449 14.32 29.5806 15.3871 29.5806H26.3548V32.2194C24.5271 32.5277 23.129 34.1174 23.129 36.0323C23.129 37.2871 23.7323 38.4013 24.6606 39.109C22.6219 40.011 21.1935 42.0503 21.1935 44.4194V47H32.8064V44.4194C32.8064 42.0503 31.3781 40.011 29.3394 39.109C30.2677 38.4013 30.871 37.2871 30.871 36.0323C30.871 34.1181 29.4729 32.5284 27.6452 32.2194V29.5806H38.6129C39.68 29.5806 40.5484 30.449 40.5484 31.5161V32.2194C38.7206 32.5277 37.3226 34.1174 37.3226 36.0323C37.3226 37.2871 37.9258 38.4013 38.8542 39.109C36.8155 40.011 35.3871 42.0503 35.3871 44.4194V47H47V44.4194C47 42.0503 45.5716 40.011 43.5329 39.109ZM31.2032 8.29032C33.8658 8.29032 36.0323 10.4568 36.0323 13.1194C36.0323 14.1961 35.6781 15.2161 35.0323 16.0548L32.0658 13.0884C32.2581 12.9439 32.4445 12.7903 32.6181 12.6174L31.7058 11.7052C30.9948 12.4155 30.051 12.8065 29.0458 12.8065H28.0232L26.9219 13.9077C26.8 14.0297 26.6374 14.0968 26.4652 14.0968H24.0413C23.8942 14.0968 23.7742 13.9768 23.7742 13.8297C23.7742 13.7594 23.8026 13.6903 23.8523 13.6406L27.7884 9.70452C28.7006 8.7929 29.9129 8.29032 31.2032 8.29032ZM22.7968 8.29032C24.0277 8.29032 25.1852 8.75226 26.0813 9.58645L22.9394 12.7284C22.6458 13.0219 22.4839 13.4135 22.4839 13.8297C22.4839 14.6884 23.1826 15.3871 24.0413 15.3871H26.4652C26.9819 15.3871 27.4684 15.1858 27.8342 14.82L28.5574 14.0968H29.0458C29.6903 14.0968 30.3148 13.9735 30.8968 13.7445L35.1755 18.0232C35.3116 18.16 35.3871 18.3413 35.3871 18.5348C35.3871 18.9335 35.0626 19.2581 34.6639 19.2581C34.4703 19.2581 34.289 19.1826 34.1523 19.0465L32.6174 17.5116L31.7052 18.4239L33.24 19.9587C33.3761 20.0955 33.4516 20.2768 33.4516 20.4703C33.4516 20.869 33.1271 21.1935 32.7284 21.1935C32.5348 21.1935 32.3535 21.1181 32.2168 20.9819L30.6819 19.4471L29.7697 20.3594L31.3045 21.8942C31.4406 22.031 31.5161 22.2123 31.5161 22.4058C31.5161 22.8045 31.1916 23.129 30.7929 23.129C30.5994 23.129 30.4181 23.0535 30.2813 22.9174L28.7465 21.3826L27.8342 22.2948L29.369 23.8297C29.5052 23.9665 29.5806 24.1477 29.5806 24.3413C29.5806 24.74 29.2561 25.0645 28.8574 25.0645C28.6639 25.0645 28.4826 24.989 28.3458 24.8529L28.1303 24.6374C28.2342 24.3923 28.2903 24.1271 28.2903 23.8523C28.2903 22.7658 27.4245 21.8839 26.3477 21.8458C26.3103 20.7929 25.4652 19.9477 24.4123 19.9103C24.3748 18.8574 23.5297 18.0123 22.4768 17.9748C22.4387 16.8981 21.5561 16.0323 20.4703 16.0323C20.0361 16.0323 19.6271 16.1742 19.2845 16.4265C18.4368 15.5271 17.9677 14.3606 17.9677 13.1194C17.9677 10.4568 20.1342 8.29032 22.7968 8.29032ZM19.2581 18.5348C19.2581 18.3413 19.3335 18.16 19.4697 18.0232L19.9587 17.5342C20.0955 17.3981 20.2768 17.3226 20.4703 17.3226C20.869 17.3226 21.1935 17.6471 21.1935 18.0458C21.1935 18.2394 21.1181 18.4206 20.9819 18.5574L20.4929 19.0465C20.3561 19.1826 20.1748 19.2581 19.9813 19.2581C19.5826 19.2581 19.2581 18.9335 19.2581 18.5348ZM21.1935 20.4703C21.1935 20.2768 21.269 20.0955 21.4052 19.9587L21.8942 19.4697C22.031 19.3335 22.2123 19.2581 22.4058 19.2581C22.8045 19.2581 23.129 19.5826 23.129 19.9813C23.129 20.1748 23.0535 20.3561 22.9174 20.4929L22.4284 20.9819C22.2916 21.1181 22.1103 21.1935 21.9168 21.1935C21.5181 21.1935 21.1935 20.869 21.1935 20.4703ZM23.129 22.4058C23.129 22.2123 23.2045 22.031 23.3406 21.8942L23.8297 21.4052C23.9665 21.269 24.1477 21.1935 24.3413 21.1935C24.74 21.1935 25.0645 21.5181 25.0645 21.9168C25.0645 22.1103 24.989 22.2916 24.8529 22.4284L24.3639 22.9174C24.2271 23.0535 24.0458 23.129 23.8523 23.129C23.4535 23.129 23.129 22.8045 23.129 22.4058ZM25.7877 25.0645C25.389 25.0645 25.0645 24.74 25.0645 24.3413C25.0645 24.1477 25.14 23.9665 25.2761 23.8297L25.7652 23.3406C25.9019 23.2045 26.0832 23.129 26.2768 23.129C26.6755 23.129 27 23.4535 27 23.8523C27 24.0458 26.9245 24.2271 26.7884 24.3639L26.2994 24.8529C26.1626 24.989 25.9813 25.0645 25.7877 25.0645ZM17.3226 44.4194V45.7097H16.0323V43.129H14.7419V45.7097H10.871V43.129H9.58065V45.7097H8.29032V44.4194C8.29032 41.929 10.3161 39.9032 12.8065 39.9032C15.2968 39.9032 17.3226 41.929 17.3226 44.4194ZM15.3871 36.0323C15.3871 37.4555 14.2297 38.6129 12.8065 38.6129C11.3832 38.6129 10.2258 37.4555 10.2258 36.0323C10.2258 34.609 11.3832 33.4516 12.8065 33.4516C14.2297 33.4516 15.3871 34.609 15.3871 36.0323ZM31.5161 44.4194V45.7097H30.2258V43.129H28.9355V45.7097H25.0645V43.129H23.7742V45.7097H22.4839V44.4194C22.4839 41.929 24.5097 39.9032 27 39.9032C29.4903 39.9032 31.5161 41.929 31.5161 44.4194ZM29.5806 36.0323C29.5806 37.4555 28.4232 38.6129 27 38.6129C25.5768 38.6129 24.4194 37.4555 24.4194 36.0323C24.4194 34.609 25.5768 33.4516 27 33.4516C28.4232 33.4516 29.5806 34.609 29.5806 36.0323ZM38.6129 36.0323C38.6129 34.609 39.7703 33.4516 41.1935 33.4516C42.6168 33.4516 43.7742 34.609 43.7742 36.0323C43.7742 37.4555 42.6168 38.6129 41.1935 38.6129C39.7703 38.6129 38.6129 37.4555 38.6129 36.0323ZM45.7097 45.7097H44.4194V43.129H43.129V45.7097H39.2581V43.129H37.9677V45.7097H36.6774V44.4194C36.6774 41.929 38.7032 39.9032 41.1935 39.9032C43.6839 39.9032 45.7097 41.929 45.7097 44.4194V45.7097Z" fill="#7655E9"/>
</svg>
