<svg width="145" height="33" viewBox="0 0 145 33" fill="none" xmlns="http://www.w3.org/2000/svg">
<path d="M14.9699 4.70281C14.6404 5.09243 14.4722 5.59328 14.4999 6.10281V28.2228C14.4659 28.7332 14.6348 29.2364 14.9699 29.6228L15.0399 29.7028L27.4299 17.3128V17.0128L15.0399 4.63281L14.9699 4.70281Z" fill="url(#paint0_linear)"/>
<path d="M31.5299 21.4428L27.4299 17.3128V17.0128L31.5299 12.8828L31.6199 12.9428L36.5299 15.7228C37.9299 16.5128 37.9299 17.8128 36.5299 18.6128L31.6399 21.3928L31.5299 21.4428Z" fill="url(#paint1_linear)"/>
<path d="M31.65 21.3841L27.43 17.1641L14.97 29.6241C15.2525 29.8756 15.6142 30.0203 15.9923 30.0331C16.3704 30.0459 16.741 29.9259 17.04 29.6941L31.65 21.3841Z" fill="url(#paint2_linear)"/>
<path d="M31.65 12.9426L17.04 4.64257C16.743 4.40748 16.3726 4.28462 15.994 4.2956C15.6154 4.30657 15.2528 4.45067 14.97 4.70257L27.43 17.1626L31.65 12.9426Z" fill="url(#paint3_linear)"/>
<path opacity="0.2" d="M31.53 21.293L17.04 29.543C16.7519 29.7604 16.4009 29.878 16.04 29.878C15.6791 29.878 15.328 29.7604 15.04 29.543L14.97 29.613L15.04 29.693C15.328 29.9104 15.6791 30.028 16.04 30.028C16.4009 30.028 16.7519 29.9104 17.04 29.693L31.65 21.383L31.53 21.293Z" fill="black"/>
<path opacity="0.12" d="M14.9699 29.4842C14.6487 29.0876 14.4913 28.5831 14.5299 28.0742V28.2242C14.4959 28.7346 14.6648 29.2378 14.9999 29.6242L15.0699 29.5542L14.9699 29.4842Z" fill="black"/>
<path opacity="0.12" d="M36.53 18.4641L31.53 21.2941L31.62 21.3841L36.53 18.6041C36.8199 18.4815 37.0713 18.2831 37.2578 18.0297C37.4444 17.7762 37.5591 17.4772 37.59 17.1641C37.5275 17.4486 37.399 17.7145 37.2149 17.9403C37.0308 18.1661 36.7962 18.3455 36.53 18.4641Z" fill="black"/>
<path opacity="0.25" d="M17.04 4.78307L36.53 15.8631C36.7962 15.9816 37.0307 16.161 37.2149 16.3868C37.399 16.6126 37.5275 16.8785 37.59 17.1631C37.5591 16.8499 37.4443 16.5509 37.2578 16.2975C37.0713 16.044 36.8198 15.8456 36.53 15.7231L17.04 4.64306C15.65 3.84306 14.5 4.50306 14.5 6.10306V6.25306C14.53 4.65306 15.65 3.99307 17.04 4.78307Z" fill="white"/>
<path d="M45.8701 10.1637V4.16366H47.7001C48.1071 4.14398 48.5139 4.20743 48.8956 4.35013C49.2772 4.49283 49.6258 4.71179 49.9201 4.99366C50.194 5.28282 50.4076 5.62362 50.5483 5.99619C50.6891 6.36876 50.7543 6.76563 50.7401 7.16366C50.7543 7.56168 50.6891 7.95855 50.5483 8.33112C50.4076 8.70369 50.194 9.04449 49.9201 9.33366C49.6258 9.61552 49.2772 9.83448 48.8956 9.97718C48.5139 10.1199 48.1071 10.1833 47.7001 10.1637H45.8701ZM46.6401 9.42366H47.7001C48.0038 9.4513 48.3099 9.41183 48.5966 9.30803C48.8834 9.20423 49.1438 9.03864 49.3595 8.823C49.5751 8.60736 49.7407 8.34694 49.8445 8.06019C49.9483 7.77343 49.9878 7.46736 49.9601 7.16366C49.986 6.86034 49.9453 6.55505 49.8408 6.26911C49.7364 5.98317 49.5708 5.7235 49.3555 5.50825C49.1403 5.293 48.8806 5.12736 48.5947 5.02293C48.3087 4.9185 48.0034 4.87779 47.7001 4.90365H46.6401V9.42366Z" fill="white" stroke="white" stroke-width="0.2" stroke-miterlimit="10"/>
<path d="M51.8301 10.1641V4.16406H52.6001V10.1641H51.8301Z" fill="white" stroke="white" stroke-width="0.2" stroke-miterlimit="10"/>
<path d="M55.6601 10.2934C55.2038 10.286 54.7607 10.1395 54.3901 9.87342C53.9759 9.5904 53.6832 9.1621 53.5701 8.67342L54.2701 8.38342C54.3559 8.70896 54.5369 9.00146 54.7901 9.22342C55.0289 9.439 55.3383 9.55991 55.6601 9.56342C55.9691 9.5738 56.2724 9.47856 56.5201 9.29342C56.6348 9.21472 56.7278 9.10846 56.7907 8.98439C56.8536 8.86033 56.8844 8.72245 56.8801 8.58342C56.8881 8.43393 56.8594 8.28475 56.7967 8.14882C56.734 8.0129 56.639 7.89433 56.5201 7.80342C56.1778 7.57209 55.7993 7.3997 55.4001 7.29342C54.9501 7.17788 54.5348 6.95483 54.1901 6.64342C54.0565 6.51397 53.9512 6.35832 53.8806 6.18624C53.8101 6.01416 53.7758 5.82935 53.7801 5.64342C53.7803 5.4297 53.8258 5.21846 53.9137 5.02367C54.0017 4.82887 54.1299 4.65495 54.2901 4.51342C54.6522 4.22496 55.0975 4.0605 55.5602 4.04429C56.0229 4.02809 56.4786 4.161 56.8601 4.42342C57.1481 4.62884 57.3648 4.91899 57.4801 5.25342L56.7801 5.54342C56.7137 5.33589 56.5844 5.15417 56.4101 5.02342C56.1922 4.84951 55.9186 4.76067 55.6401 4.77342C55.3658 4.76896 55.0981 4.85703 54.8801 5.02342C54.7829 5.09478 54.7042 5.18822 54.6503 5.29602C54.5964 5.40382 54.5689 5.5229 54.5701 5.64342C54.5687 5.75339 54.5945 5.86201 54.6451 5.95967C54.6956 6.05734 54.7695 6.14105 54.8601 6.20342C55.1162 6.39282 55.404 6.53505 55.7101 6.62342C55.9618 6.69876 56.2089 6.78892 56.4501 6.89342C56.6627 6.99098 56.8639 7.11171 57.0501 7.25342C57.2476 7.39471 57.4059 7.584 57.5101 7.80342C57.6225 8.04417 57.6773 8.30781 57.6701 8.57342C57.6746 8.84421 57.6128 9.112 57.4901 9.35342C57.3801 9.57232 57.2146 9.75852 57.0101 9.89342C56.8147 10.0303 56.5986 10.135 56.3701 10.2034C56.1391 10.2682 55.8999 10.2985 55.6601 10.2934Z" fill="white" stroke="white" stroke-width="0.2" stroke-miterlimit="10"/>
<path d="M59.53 10.1643H58.76V4.16434H60.81C61.2996 4.15594 61.7732 4.33891 62.13 4.67434C62.3041 4.83798 62.4428 5.03552 62.5376 5.2548C62.6324 5.47407 62.6813 5.71044 62.6813 5.94934C62.6813 6.18824 62.6324 6.42461 62.5376 6.64388C62.4428 6.86316 62.3041 7.0607 62.13 7.22434C61.7732 7.55977 61.2996 7.74274 60.81 7.73434H59.53V10.1643ZM59.53 6.99434H60.83C60.9755 7.00101 61.1207 6.97583 61.2554 6.92056C61.3901 6.86529 61.5111 6.78126 61.61 6.67434C61.7083 6.58092 61.7866 6.46847 61.8402 6.34383C61.8937 6.2192 61.9213 6.08498 61.9213 5.94934C61.9213 5.8137 61.8937 5.67948 61.8402 5.55485C61.7866 5.43021 61.7083 5.31776 61.61 5.22434C61.5111 5.11742 61.3901 5.03339 61.2554 4.97812C61.1207 4.92285 60.9755 4.89767 60.83 4.90434H59.53V6.99434Z" fill="white" stroke="white" stroke-width="0.2" stroke-miterlimit="10"/>
<path d="M68.5301 9.38305C68.2413 9.6721 67.8983 9.90141 67.5208 10.0579C67.1433 10.2143 66.7387 10.2948 66.3301 10.2948C65.9215 10.2948 65.5168 10.2143 65.1394 10.0579C64.7619 9.90141 64.4189 9.6721 64.1301 9.38305C63.5648 8.78209 63.25 7.98811 63.25 7.16305C63.25 6.33798 63.5648 5.544 64.1301 4.94305C64.4189 4.65399 64.7619 4.42468 65.1394 4.26823C65.5168 4.11178 65.9215 4.03125 66.3301 4.03125C66.7387 4.03125 67.1433 4.11178 67.5208 4.26823C67.8983 4.42468 68.2413 4.65399 68.5301 4.94305C68.8262 5.2317 69.0611 5.57703 69.2209 5.95844C69.3807 6.33985 69.462 6.74953 69.4601 7.16305C69.4667 7.57724 69.3875 7.98833 69.2275 8.3704C69.0674 8.75248 68.83 9.09727 68.5301 9.38305ZM64.7001 8.88305C64.9108 9.10189 65.1642 9.27515 65.4445 9.39212C65.7249 9.50908 66.0263 9.56726 66.3301 9.56305C66.6341 9.56907 66.936 9.51172 67.2167 9.39465C67.4973 9.27757 67.7505 9.10334 67.9601 8.88305C68.3916 8.41417 68.6311 7.80025 68.6311 7.16305C68.6311 6.52584 68.3916 5.91192 67.9601 5.44305C67.7505 5.22275 67.4973 5.04852 67.2167 4.93144C66.936 4.81437 66.6341 4.75702 66.3301 4.76305C66.0263 4.75883 65.7249 4.81701 65.4445 4.93397C65.1642 5.05094 64.9108 5.22421 64.7001 5.44305C64.2749 5.91506 64.0397 6.5278 64.0397 7.16305C64.0397 7.7983 64.2749 8.41104 64.7001 8.88305Z" fill="white" stroke="white" stroke-width="0.2" stroke-miterlimit="10"/>
<path d="M70.53 10.1641V4.16406H71.53L74.44 8.83406V7.67406V4.16406H75.21V10.1641H74.41L71.41 5.27406V6.42406V10.1641H70.53Z" fill="white" stroke="white" stroke-width="0.2" stroke-miterlimit="10"/>
<path d="M76.53 10.163V4.16305H77.3V10.163H76.53ZM77.25 3.69305H76.58L77.02 2.62305H77.85L77.25 3.69305Z" fill="white" stroke="white" stroke-width="0.2" stroke-miterlimit="10"/>
<path d="M80.1701 10.1641L78.0601 4.16406H78.9101L80.5301 9.03406L82.3001 4.16406H83.1501L80.9701 10.1641H80.1701Z" fill="white" stroke="white" stroke-width="0.2" stroke-miterlimit="10"/>
<path d="M87.53 4.90406H84.79V6.80406H87.26V7.52406H84.79V9.42406H87.53V10.1641H84.02V4.16406H87.53V4.90406Z" fill="white" stroke="white" stroke-width="0.2" stroke-miterlimit="10"/>
<path d="M88.73 10.1641V4.16406H89.53V9.42406H92.13V10.1641H88.73Z" fill="white" stroke="white" stroke-width="0.2" stroke-miterlimit="10"/>
<path d="M95.0801 10.1641V4.16406H96.0201L98.9401 8.83406V7.67406V4.16406H99.7101V10.1641H98.9101L95.8501 5.27406V6.42406V10.1641H95.0801Z" fill="white" stroke="white" stroke-width="0.2" stroke-miterlimit="10"/>
<path d="M105.99 9.3842C105.701 9.67326 105.358 9.90257 104.981 10.059C104.603 10.2155 104.199 10.296 103.79 10.296C103.381 10.296 102.977 10.2155 102.599 10.059C102.222 9.90257 101.879 9.67326 101.59 9.3842C101.025 8.78325 100.71 7.98927 100.71 7.16421C100.71 6.33914 101.025 5.54516 101.59 4.94421C101.873 4.64701 102.214 4.41244 102.593 4.25568C102.972 4.09893 103.38 4.02348 103.79 4.03421C104.199 4.02773 104.606 4.10513 104.984 4.26163C105.363 4.41813 105.705 4.65042 105.99 4.94421C106.278 5.2367 106.504 5.58384 106.655 5.96513C106.806 6.34643 106.879 6.75415 106.87 7.16421C106.883 7.57478 106.812 7.98367 106.66 8.36554C106.509 8.74741 106.281 9.09413 105.99 9.3842ZM102.16 8.8842C102.373 9.10008 102.627 9.27149 102.907 9.38849C103.186 9.50548 103.487 9.56573 103.79 9.56573C104.093 9.56573 104.394 9.50548 104.673 9.38849C104.953 9.27149 105.207 9.10008 105.42 8.8842C105.852 8.41533 106.091 7.80141 106.091 7.16421C106.091 6.527 105.852 5.91308 105.42 5.44421C105.207 5.22833 104.953 5.05692 104.673 4.93992C104.394 4.82293 104.093 4.76268 103.79 4.76268C103.487 4.76268 103.186 4.82293 102.907 4.93992C102.627 5.05692 102.373 5.22833 102.16 5.44421C101.729 5.91308 101.489 6.527 101.489 7.16421C101.489 7.80141 101.729 8.41533 102.16 8.8842Z" fill="white" stroke="white" stroke-width="0.2" stroke-miterlimit="10"/>
<path d="M72.6699 18.914C71.8273 18.916 71.0043 19.1677 70.3048 19.6375C69.6054 20.1072 69.0609 20.7738 68.7403 21.553C68.4197 22.3322 68.3374 23.1889 68.5037 24.0149C68.67 24.8408 69.0775 25.5989 69.6747 26.1933C70.2719 26.7877 71.0319 27.1916 71.8586 27.3541C72.6854 27.5165 73.5417 27.4301 74.3194 27.1059C75.097 26.7816 75.7611 26.234 76.2275 25.5324C76.694 24.8307 76.9419 24.0065 76.9399 23.164C76.948 22.6019 76.843 22.044 76.6311 21.5233C76.4191 21.0027 76.1046 20.53 75.7061 20.1335C75.3077 19.7369 74.8336 19.4246 74.312 19.2151C73.7904 19.0056 73.2319 18.9032 72.6699 18.914ZM72.6699 25.744C72.1535 25.7801 71.6381 25.66 71.1908 25.3994C70.7436 25.1387 70.3851 24.7495 70.1619 24.2824C69.9387 23.8153 69.8613 23.2919 69.9396 22.7801C70.0178 22.2684 70.2483 21.7921 70.6009 21.413C70.9534 21.034 71.4119 20.7698 71.9167 20.6548C72.4214 20.5397 72.9491 20.5792 73.4311 20.7681C73.9131 20.9569 74.3271 21.2864 74.6194 21.7137C74.9117 22.141 75.0686 22.6463 75.0699 23.164C75.086 23.492 75.0363 23.8199 74.9236 24.1284C74.811 24.4369 74.6377 24.7197 74.414 24.9602C74.1903 25.2006 73.9208 25.3939 73.6212 25.5285C73.3217 25.6631 72.9982 25.7364 72.6699 25.744ZM63.3499 18.914C62.5073 18.916 61.6843 19.1677 60.9848 19.6375C60.2854 20.1072 59.7409 20.7738 59.4203 21.553C59.0997 22.3322 59.0174 23.1889 59.1837 24.0149C59.35 24.8408 59.7575 25.5989 60.3547 26.1933C60.9519 26.7877 61.7119 27.1916 62.5386 27.3541C63.3654 27.5165 64.2217 27.4301 64.9994 27.1059C65.777 26.7816 66.4411 26.234 66.9075 25.5324C67.374 24.8307 67.6219 24.0065 67.6199 23.164C67.628 22.6019 67.523 22.044 67.3111 21.5233C67.0991 21.0027 66.7846 20.53 66.3861 20.1335C65.9877 19.7369 65.5136 19.4246 64.992 19.2151C64.4704 19.0056 63.9119 18.9032 63.3499 18.914ZM63.3499 25.744C62.8335 25.7801 62.3181 25.66 61.8708 25.3994C61.4236 25.1387 61.0651 24.7495 60.8419 24.2824C60.6187 23.8153 60.5413 23.2919 60.6196 22.7801C60.6978 22.2684 60.9283 21.7921 61.2809 21.413C61.6334 21.034 62.0919 20.7698 62.5967 20.6548C63.1014 20.5397 63.6291 20.5792 64.1111 20.7681C64.5931 20.9569 65.0071 21.2864 65.2994 21.7137C65.5917 22.141 65.7486 22.6463 65.7499 23.164C65.766 23.492 65.7163 23.8199 65.6036 24.1284C65.491 24.4369 65.3177 24.7197 65.094 24.9602C64.8703 25.2006 64.6008 25.3939 64.3012 25.5285C64.0017 25.6631 63.6782 25.7364 63.3499 25.744ZM52.2699 20.224V22.024H56.5899C56.5221 22.8718 56.1697 23.6718 55.5899 24.294C55.1565 24.7355 54.6353 25.0811 54.06 25.3085C53.4847 25.5359 52.868 25.64 52.2499 25.614C50.9768 25.614 49.7559 25.1083 48.8558 24.2081C47.9556 23.3079 47.4499 22.087 47.4499 20.814C47.4499 19.5409 47.9556 18.32 48.8558 17.4199C49.7559 16.5197 50.9768 16.014 52.2499 16.014C53.4703 15.9958 54.6488 16.4593 55.5299 17.304L56.7999 16.034C56.2039 15.4445 55.4962 14.9799 54.7183 14.6674C53.9405 14.3548 53.1081 14.2007 52.2699 14.214C51.3809 14.1794 50.494 14.3246 49.6625 14.641C48.831 14.9573 48.0719 15.4383 47.4306 16.055C46.7894 16.6717 46.2793 17.4116 45.9309 18.2302C45.5824 19.0488 45.4028 19.9293 45.4028 20.819C45.4028 21.7087 45.5824 22.5892 45.9309 23.4078C46.2793 24.2264 46.7894 24.9662 47.4306 25.583C48.0719 26.1997 48.831 26.6807 49.6625 26.997C50.494 27.3134 51.3809 27.4586 52.2699 27.424C53.1253 27.4581 53.9783 27.311 54.7728 26.9921C55.5673 26.6733 56.2854 26.19 56.8799 25.574C57.93 24.4204 58.4895 22.9032 58.4399 21.344C58.4435 20.9687 58.4133 20.5939 58.3499 20.224H52.2699ZM97.5799 21.624C97.3191 20.8567 96.8314 20.1868 96.1814 19.7028C95.5314 19.2189 94.7497 18.9438 93.9399 18.914C93.3929 18.9129 92.8515 19.0241 92.3491 19.2405C91.8468 19.457 91.3942 19.7742 91.0193 20.1725C90.6444 20.5708 90.3551 21.0418 90.1695 21.5564C89.9838 22.0709 89.9057 22.6181 89.9399 23.164C89.9313 24.0768 90.2183 24.968 90.758 25.7042C91.2977 26.4405 92.0611 26.9825 92.9341 27.2491C93.8072 27.5158 94.7431 27.4928 95.6021 27.1837C96.4611 26.8746 97.197 26.2958 97.6999 25.534L96.2499 24.534C96.0337 24.8943 95.7271 25.1918 95.3605 25.397C94.9939 25.6022 94.58 25.7081 94.1599 25.704C93.7265 25.7219 93.2978 25.6082 92.9301 25.378C92.5624 25.1478 92.273 24.8117 92.0999 24.414L97.7899 22.064L97.5799 21.624ZM91.7799 23.044C91.7596 22.7334 91.8015 22.4218 91.9032 22.1276C92.0048 21.8334 92.1641 21.5624 92.3718 21.3305C92.5795 21.0986 92.8313 20.9105 93.1126 20.7772C93.3939 20.6438 93.6989 20.568 94.0099 20.554C94.3321 20.5343 94.6529 20.6102 94.9322 20.7721C95.2115 20.9339 95.4368 21.1746 95.5799 21.464L91.7799 23.044ZM87.1599 27.164H89.0299V14.664H87.1599V27.164ZM84.0999 19.864H84.0299C83.7505 19.5458 83.4058 19.2918 83.0192 19.1192C82.6326 18.9466 82.2132 18.8596 81.7899 18.864C80.6971 18.917 79.6665 19.3884 78.9119 20.1806C78.1572 20.9727 77.7362 22.0249 77.7362 23.119C77.7362 24.2131 78.1572 25.2652 78.9119 26.0574C79.6665 26.8496 80.6971 27.321 81.7899 27.374C82.2139 27.3825 82.6345 27.2973 83.0217 27.1244C83.4089 26.9515 83.7532 26.6953 84.0299 26.374H84.0999V26.984C84.0999 28.614 83.2299 29.484 81.8299 29.484C81.3622 29.4737 80.9081 29.3247 80.5253 29.0558C80.1425 28.787 79.8483 28.4104 79.6799 27.974L78.0599 28.644C78.3594 29.3962 78.8801 30.0399 79.5533 30.4898C80.2264 30.9398 81.0203 31.1749 81.8299 31.164C84.0199 31.164 85.8299 29.874 85.8299 26.734V19.164H84.0999V19.864ZM81.9499 25.744C81.2947 25.7031 80.6797 25.4141 80.2302 24.9356C79.7807 24.4572 79.5304 23.8255 79.5304 23.169C79.5304 22.5125 79.7807 21.8807 80.2302 21.4023C80.6797 20.9239 81.2947 20.6348 81.9499 20.594C82.2701 20.6078 82.5843 20.6859 82.8737 20.8236C83.1632 20.9613 83.422 21.1559 83.6347 21.3957C83.8474 21.6354 84.0097 21.9156 84.112 22.2193C84.2142 22.5231 84.2543 22.8444 84.2299 23.164C84.2572 23.4847 84.2191 23.8076 84.118 24.1131C84.017 24.4187 83.855 24.7006 83.6419 24.9418C83.4287 25.1829 83.1689 25.3784 82.8781 25.5163C82.5873 25.6542 82.2715 25.7316 81.9499 25.744ZM106.34 14.664H101.86V27.164H103.73V22.424H106.34C106.873 22.4623 107.408 22.3904 107.912 22.2127C108.416 22.0351 108.878 21.7555 109.269 21.3915C109.66 21.0274 109.972 20.5867 110.185 20.0968C110.399 19.6069 110.509 19.0783 110.509 18.544C110.509 18.0097 110.399 17.4811 110.185 16.9912C109.972 16.5012 109.66 16.0605 109.269 15.6965C108.878 15.3325 108.416 15.0529 107.912 14.8753C107.408 14.6976 106.873 14.6257 106.34 14.664ZM106.34 20.664H103.73V16.404H106.38C106.661 16.404 106.939 16.4593 107.199 16.5669C107.458 16.6744 107.694 16.8321 107.893 17.0308C108.092 17.2295 108.249 17.4654 108.357 17.725C108.465 17.9847 108.52 18.263 108.52 18.544C108.52 18.825 108.465 19.1033 108.357 19.3629C108.249 19.6226 108.092 19.8585 107.893 20.0572C107.694 20.2559 107.458 20.4135 107.199 20.5211C106.939 20.6286 106.661 20.684 106.38 20.684L106.34 20.664ZM117.88 18.874C117.199 18.832 116.521 18.9905 115.929 19.33C115.337 19.6695 114.857 20.175 114.55 20.784L116.2 21.474C116.367 21.1734 116.617 20.9275 116.92 20.766C117.224 20.6045 117.567 20.5344 117.91 20.564C118.147 20.5363 118.388 20.5561 118.617 20.6223C118.847 20.6885 119.061 20.7998 119.247 20.9497C119.434 21.0996 119.588 21.285 119.702 21.4952C119.816 21.7054 119.886 21.9362 119.91 22.174V22.294C119.309 21.9779 118.639 21.8131 117.96 21.814C116.18 21.814 114.36 22.814 114.36 24.634C114.377 25.0208 114.473 25.4002 114.64 25.7495C114.807 26.0989 115.042 26.4111 115.333 26.6676C115.623 26.9241 115.961 27.1197 116.328 27.2428C116.696 27.3658 117.084 27.4139 117.47 27.384C117.939 27.4099 118.407 27.3106 118.825 27.0963C119.243 26.8819 119.597 26.5601 119.85 26.164H119.91V27.164H121.71V22.354C121.71 20.164 120.05 18.894 117.92 18.894L117.88 18.874ZM117.65 25.724C117.04 25.724 116.19 25.414 116.19 24.664C116.19 23.664 117.25 23.324 118.19 23.324C118.784 23.3093 119.371 23.4544 119.89 23.744C119.827 24.2871 119.57 24.789 119.165 25.1567C118.761 25.5244 118.236 25.7331 117.69 25.744L117.65 25.724ZM128.27 19.164L126.13 24.584H126.07L123.85 19.164H121.85L125.18 26.744L123.28 30.954H125.23L130.35 19.164H128.27ZM111.47 27.164H113.33V14.664H111.47V27.164Z" fill="white"/>
<defs>
<linearGradient id="paint0_linear" x1="26.3299" y1="5.87281" x2="9.54991" y2="22.6528" gradientUnits="userSpaceOnUse">
<stop stop-color="#00A0FF"/>
<stop offset="0.01" stop-color="#00A1FF"/>
<stop offset="0.26" stop-color="#00BEFF"/>
<stop offset="0.51" stop-color="#00D2FF"/>
<stop offset="0.76" stop-color="#00DFFF"/>
<stop offset="1" stop-color="#00E3FF"/>
</linearGradient>
<linearGradient id="paint1_linear" x1="38.3599" y1="17.1628" x2="14.1699" y2="17.1628" gradientUnits="userSpaceOnUse">
<stop stop-color="#FFE000"/>
<stop offset="0.41" stop-color="#FFBD00"/>
<stop offset="0.78" stop-color="#FFA500"/>
<stop offset="1" stop-color="#FF9C00"/>
</linearGradient>
<linearGradient id="paint2_linear" x1="29.36" y1="19.4641" x2="6.59997" y2="42.2141" gradientUnits="userSpaceOnUse">
<stop stop-color="#FF3A44"/>
<stop offset="1" stop-color="#C31162"/>
</linearGradient>
<linearGradient id="paint3_linear" x1="11.83" y1="-2.65743" x2="21.99" y2="7.50257" gradientUnits="userSpaceOnUse">
<stop stop-color="#32A071"/>
<stop offset="0.07" stop-color="#2DA771"/>
<stop offset="0.48" stop-color="#15CF74"/>
<stop offset="0.8" stop-color="#06E775"/>
<stop offset="1" stop-color="#00F076"/>
</linearGradient>
</defs>
</svg>
