<svg width="108" height="24" viewBox="0 0 108 24" fill="none" xmlns="http://www.w3.org/2000/svg">
<g clip-path="url(#clip0)">
<path d="M43.3388 10.2084V17.564H39.5513V11.3083C39.5513 9.96967 38.8272 9.1732 37.6564 9.1732C36.3161 9.19328 35.4865 10.273 35.4865 11.8036V17.564H31.6989V11.3083C31.6989 9.96967 30.9749 9.1732 29.8041 9.1732C28.4638 9.19328 27.6121 10.273 27.6121 11.8036V17.564H23.8466V5.89362H27.6121V7.81451C28.4 6.45583 29.6984 5.74414 31.3578 5.74414C33.2307 5.74414 34.6149 6.71461 35.1894 8.3544C35.9332 6.6276 37.3395 5.74414 39.2102 5.74414C41.7015 5.74191 43.3388 7.46873 43.3388 10.2084Z" fill="#828D93"/>
<path d="M48.6097 5.89347V17.5638H44.8442V5.89347H48.6097ZM48.4623 2.6139C48.4623 3.62678 47.7382 4.36078 46.7391 4.36078C45.7399 4.36078 45.0159 3.62678 45.0159 2.6139C45.0159 1.57872 45.7399 0.844727 46.7391 0.844727C47.7382 0.844727 48.4623 1.57872 48.4623 2.6139Z" fill="#828D93"/>
<path d="M62.2063 10.2077V17.5633H58.4382V11.3076C58.4382 9.99123 57.6725 9.17249 56.4821 9.17249C55.2055 9.19257 54.3758 10.0783 54.2262 11.3946V17.5633H50.4387V5.89292H54.2262V7.79148C55.0339 6.45288 56.3542 5.74121 58.036 5.74121C60.5469 5.74121 62.2063 7.46802 62.2063 10.2077Z" fill="#828D93"/>
<path d="M75.287 5.89307V17.5634H71.4999V15.6648C70.7117 17.0235 69.4574 17.7151 67.8176 17.7352C65.3286 17.7352 63.7113 15.9884 63.7113 13.271V5.89307H67.4985V12.1711C67.4985 13.4874 68.2227 14.2838 69.3497 14.2838C70.6898 14.2637 71.4976 13.184 71.4976 11.6535V5.89307H75.287Z" fill="#828D93"/>
<path d="M84.6033 16.9582C83.7737 17.4535 82.6248 17.7346 81.4955 17.7346C79.2623 17.7569 77.6445 16.4183 77.6445 14.0044V9.00023H76.049V6.45469H77.6445V3.21973H81.412V6.45469H84.3919V9.00023H81.412V13.3998C81.412 14.2632 81.7951 14.6514 82.4554 14.6291C82.8385 14.6291 83.3288 14.4774 83.8814 14.2409L84.6033 16.9582Z" fill="#828D93"/>
<path d="M97.1803 11.7187C97.1803 15.3217 94.6694 17.6933 90.8817 17.6933C87.0945 17.6933 84.6055 15.3217 84.6055 11.7187C84.6055 8.13793 87.0945 5.76416 90.8817 5.76416C94.6694 5.76416 97.1803 8.13793 97.1803 11.7187ZM88.4128 11.7611C88.4128 13.5079 89.4119 14.6725 90.88 14.6725C92.3694 14.6725 93.369 13.5079 93.369 11.7611C93.369 10.0343 92.3677 8.86973 90.88 8.86973C89.4142 8.86973 88.4128 10.0343 88.4128 11.7611Z" fill="#828D93"/>
<path d="M102.253 8.39639C101.615 8.39639 101.168 8.63284 101.168 9.13037C101.168 10.6631 107.212 9.92909 107.19 13.985C107.19 16.3789 105.125 17.7375 102.317 17.7375C100.381 17.7375 98.5299 17.1776 97.1258 16.0777L98.3184 13.5968C99.6367 14.5249 101.127 15.0425 102.403 15.0425C103.105 15.0425 103.616 14.806 103.616 14.3308C103.616 12.7335 97.6778 13.5321 97.6778 9.49848C97.6778 7.06003 99.6984 5.72363 102.403 5.72363C104.062 5.72363 105.744 6.19884 107.19 7.0823L105.914 9.58549C104.489 8.82694 103.191 8.39639 102.253 8.39639Z" fill="#828D93"/>
<path d="M12.1208 14.2976C11.8479 14.572 11.498 14.7103 11.0644 14.7103C10.6309 14.7103 10.2787 14.572 10.0081 14.2976C9.73734 14.0231 9.60091 13.6662 9.60091 13.2267C9.60091 12.7872 9.73734 12.428 10.0081 12.1469C10.2787 11.8658 10.6309 11.7252 11.0644 11.7252C11.498 11.7252 11.8479 11.8658 12.1208 12.1469C12.3915 12.428 12.528 12.7872 12.528 13.2267C12.528 13.664 12.3915 14.021 12.1208 14.2976ZM14.6649 10.4357C13.91 9.71732 12.9373 9.35594 11.7466 9.35594C11.6235 9.35594 11.4584 9.36037 11.2471 9.37153L13.3577 5.88672H9.58773L7.80287 8.83833C7.29889 9.67497 6.92478 10.4469 6.68491 11.1519C6.44279 11.8569 6.32397 12.5596 6.32397 13.2557C6.32397 14.5318 6.76412 15.5692 7.64221 16.3724C8.52036 17.1734 9.66257 17.5749 11.0644 17.5749C12.4839 17.5749 13.6283 17.1755 14.4954 16.3769C15.3625 15.5782 15.7961 14.5273 15.7961 13.2245C15.7961 12.0844 15.4197 11.1541 14.6649 10.4357Z" fill="#828D93"/>
<path d="M18.3203 20.5148C18.3291 20.5059 18.3401 20.4992 18.3511 20.4903C18.3599 20.4814 18.3709 20.4724 18.3797 20.4635C19.8961 19.0959 20.948 17.3959 21.529 15.5664L19.1412 14.7811C18.6922 16.1911 17.889 17.5052 16.7204 18.5605C16.7116 18.5694 16.7006 18.5783 16.6918 18.5872C16.6829 18.5961 16.6719 18.6051 16.661 18.6118C15.0038 20.082 12.9373 20.7825 10.8905 20.7424C10.8641 20.7424 10.8377 20.7401 10.8113 20.7401C8.5401 20.6732 6.29749 19.6938 4.67775 17.8354C1.57026 14.2702 1.90478 8.80875 5.42161 5.6586C8.93845 2.50844 14.3259 2.84754 17.4334 6.41266C18.2301 7.32514 18.7957 8.3648 19.1434 9.45578L21.5269 8.67047C21.0757 7.25821 20.3406 5.91293 19.3085 4.7305C15.2877 0.116804 8.31123 -0.320469 3.76003 3.75556C-0.791164 7.83159 -1.22251 14.9039 2.79829 19.5175C4.89782 21.9271 7.80281 23.1942 10.7497 23.279C10.7761 23.279 10.8025 23.2812 10.8289 23.2812C13.4896 23.3348 16.1723 22.4268 18.3203 20.5148Z" fill="#828D93"/>
</g>
<defs>
<clipPath id="clip0">
<rect width="107.146" height="23" fill="white" transform="translate(0.043457 0.630859)"/>
</clipPath>
</defs>
</svg>
