<svg width="76" height="21" viewBox="0 0 76 21" fill="none" xmlns="http://www.w3.org/2000/svg">
<g clip-path="url(#clip0)">
<path d="M56.4821 5.05951C52.8721 5.05951 50.0744 8.26122 49.948 12.1824C49.7494 18.9635 58.8467 21.3198 61.8248 17.5786V14.7005C61.8248 14.7005 60.8863 16.3374 57.2041 16.3374C53.5399 16.3374 53.4136 13.6213 53.4136 13.6213H62.8898C62.9801 13.1537 63.0162 12.686 63.0162 12.2004C63.0162 8.24318 60.092 5.05951 56.4821 5.05951ZM53.3775 11.1931C53.7565 9.68214 55.0561 8.56697 56.5904 8.56697C58.1246 8.56697 59.4242 9.68214 59.8033 11.1931H53.3775ZM9.49811 7.0741C8.50535 5.95882 7.1877 5.27537 5.72566 5.27537C2.62107 5.27537 0.0940749 8.40513 0.0940749 12.2724C0.0940749 16.1396 2.62107 19.2693 5.72566 19.2693C7.16965 19.2693 8.4873 18.5858 9.49811 17.4706V19.1973H13.1081V5.34732H9.49811V7.0741ZM6.7906 16.1575C5.20221 16.1575 3.92066 14.4488 3.92066 12.3263C3.92066 10.2039 5.20221 8.49502 6.7906 8.49502C8.379 8.49502 9.66058 10.2039 9.66058 12.3263C9.67862 14.4488 8.39705 16.1575 6.7906 16.1575ZM33.6128 17.5786V10.4916V8.49502C33.6128 8.49502 33.3781 5.23939 29.9848 5.23939C26.5914 5.23939 25.8514 7.12801 25.8514 7.12801C25.8514 7.12801 24.8766 5.07744 22.2955 5.07744C20.1836 5.07744 19.0285 6.30065 18.6855 6.73226V5.25733H15.1477V19.1074H18.6855V10.06C18.9021 9.50226 19.5158 8.38709 20.7793 8.38709C22.1692 8.38709 22.5842 9.5203 22.6746 10.2038V17.5066C22.8008 18.2081 23.216 18.6757 23.7034 19.0895H27.2412C26.6816 18.6218 26.3207 18.1181 26.2123 17.5426V10.7255C26.2123 10.7255 26.1041 8.531 28.2159 8.42307C29.7501 8.35111 30.0209 9.73616 30.057 10.5096V10.9233C30.057 10.9772 30.057 10.9952 30.057 10.9952V17.5245C30.1833 18.226 30.5985 18.6937 31.0858 19.1074H34.6236C34.0821 18.6578 33.7211 18.1541 33.6128 17.5786ZM43.4139 5.27537C41.9699 5.27537 40.6523 5.95882 39.6415 7.0741V1.06641H36.0315V19.1613H39.6415V17.4347C40.6342 18.5498 41.9519 19.2333 43.4139 19.2333C46.5185 19.2333 49.0455 16.1036 49.0455 12.2364C49.0455 8.40513 46.5185 5.27537 43.4139 5.27537ZM42.3309 16.1575C40.7426 16.1575 39.461 14.4488 39.461 12.3263C39.461 10.2039 40.7426 8.49502 42.3309 8.49502C43.9193 8.49502 45.2008 10.2039 45.2008 12.3263C45.2189 14.4488 43.9373 16.1575 42.3309 16.1575ZM71.4635 5.2933L68.8463 15.0424L66.2291 5.2933H62.0414L66.6803 19.1613H70.6513L75.5428 5.2933H71.4635Z" fill="#828D93"/>
</g>
<defs>
<clipPath id="clip0">
<rect width="75.9235" height="19.2642" fill="white" transform="translate(0 0.760742)"/>
</clipPath>
</defs>
</svg>
