<svg width="132" height="21" viewBox="0 0 132 21" fill="none" xmlns="http://www.w3.org/2000/svg">
<path fill-rule="evenodd" clip-rule="evenodd" d="M1.11975 7.22413L4.89517 9.74344L9.42993 6.72026L7.54222 5.45706L9.99766 3.82483L15.2847 7.35187L6.59837 13.1427L8.48607 14.4059L19.2588 7.22413L10.1893 1.17773L1.11975 7.22413ZM19.2588 13.2705L15.4763 10.7512L10.9415 13.7743L12.8292 15.0304L10.3738 16.6698L5.08678 13.1427L13.7731 7.35187L11.8854 6.08866L1.11975 13.2705L10.1893 19.3168L19.2588 13.2705ZM19.2588 3.69705L17.364 4.96029L15.4763 3.69705L19.2588 1.17773V3.69705ZM1.11975 16.7975L3.00746 15.5343L4.89517 16.7975L1.11975 19.3168V16.7975Z" fill="#828D93"/>
<path fill-rule="evenodd" clip-rule="evenodd" d="M27.8313 16.2868C29.0164 16.2868 31.9615 16.1519 31.9615 13.0933C31.9615 11.4327 31.4435 10.2759 29.4564 10.0275C30.9751 9.72946 31.7344 8.72171 31.7344 7.33075C31.7344 4.75467 29.9815 4.20117 27.8454 4.20117H22.8849V16.2868H27.8313ZM116.859 16.2868C118.519 16.2868 120.194 16.0668 120.194 13.5049C120.194 10.5456 115.908 10.8436 115.908 8.96303C115.908 8.28175 116.327 7.91272 117.029 7.91272H119.328V6.38694H116.099C113.452 6.38694 112.8 7.58628 112.8 9.13335C112.8 12.0784 117.547 12.0075 117.547 13.6681C117.547 14.3352 117.185 14.7894 116.454 14.7894H113.055L110.536 6.39404H107.52L104.731 15.3997L102.978 11.5249C104.262 11.2907 104.773 10.4746 104.78 8.98432C104.78 7.29531 103.773 6.39404 102.218 6.39404H97.4991V16.2868H100.075V7.91272H100.934C101.658 7.91272 102.289 8.44496 102.289 9.41721C102.289 10.2404 101.878 10.9217 101.218 10.8791L100.494 10.8864L102.843 16.2869H106.973L107.591 14.0941H110.259L110.869 16.2869L116.859 16.2868ZM109.869 12.5823H107.96L108.868 8.53013L109.869 12.5823ZM81.1342 16.5777C84.9877 16.5777 84.9877 14.0158 84.9877 11.3901C84.9877 8.72883 84.9877 6.19529 81.1342 6.19529C77.2807 6.19529 77.2807 8.72883 77.2807 11.3901C77.2807 14.0158 77.2807 16.5777 81.1342 16.5777ZM81.1342 15.0732C80.0059 15.0732 79.8568 13.9662 79.8568 11.3901C79.8568 8.814 80.0058 7.69982 81.1342 7.69982C82.2626 7.69982 82.4045 8.814 82.4045 11.3901C82.4045 13.9662 82.2627 15.0732 81.1342 15.0732ZM68.8996 16.2868H72.6608C76.6065 16.2868 76.344 12.7952 76.344 11.2694C76.344 8.18238 75.7762 6.36565 72.7531 6.36565H68.8996V16.2868ZM71.4118 7.90562H72.4266C73.8105 7.90562 73.8105 9.51658 73.8105 11.3404C73.8105 13.8313 73.5692 14.7823 72.3627 14.7823H71.4118V7.90562ZM91.4031 11.014H92.0276C93.234 11.014 93.6172 11.6739 93.6172 12.7384C93.6172 14.4345 92.4747 14.4487 91.9637 14.4487H90.6366V11.0352L91.4031 11.014ZM90.6366 9.16883V6.08178H92.1127C92.9217 6.08178 93.4895 6.72759 93.4895 7.62176C93.4895 8.79271 92.7585 9.15464 92.2405 9.15464H91.4031L90.6366 9.16883ZM92.5314 16.2939C93.7166 16.2939 96.6617 16.159 96.6617 13.0933C96.6617 11.4327 96.1436 10.283 94.1637 10.0275C95.6823 9.72946 96.4417 8.72171 96.4417 7.33075C96.4417 4.75467 94.6817 4.20117 92.5527 4.20117H87.5851V16.2939H92.5314ZM130.577 16.2866V14.7892H127.639V6.39386H125.126V16.2866H130.577ZM123.65 6.39386H121.131V16.2866H123.65V6.39386ZM62.3139 16.5776C66.1674 16.5776 66.1674 14.0086 66.1674 11.3686C66.1674 8.69316 66.1674 6.15257 62.3139 6.15257C58.4675 6.15257 58.4675 8.69316 58.4675 11.3686C58.4675 14.0086 58.4675 16.5776 62.3139 16.5776ZM62.3139 15.0731C61.1855 15.0731 61.0436 13.9518 61.0436 11.3686C61.0436 8.77833 61.1854 7.66416 62.3139 7.66416C63.4422 7.66416 63.5913 8.77833 63.5913 11.3686C63.5913 13.9518 63.4423 15.0731 62.3139 15.0731ZM37.4117 12.575H35.4956L36.404 8.52995L37.4117 12.575ZM34.5092 16.2866L35.1337 14.0937H37.8021L38.4124 16.2866H41.0452L38.0717 6.39386H35.0627L32.0254 16.2866H34.5092ZM54.2663 16.5776C56.452 16.5776 57.7295 15.7118 57.7295 13.015H55.2385C55.2102 13.8099 55.1961 15.0731 54.2663 15.0731C53.2089 15.0731 53.0528 14.4273 53.0528 11.3686C53.0528 8.19641 53.2941 7.66416 54.2166 7.66416C54.8766 7.66416 55.1747 8.16092 55.1747 9.50929H57.6514C57.7437 7.33772 56.5372 6.15257 54.1527 6.15257C50.6044 6.15257 50.5051 8.4093 50.5051 11.3686C50.5051 14.3421 50.4128 16.5776 54.2663 16.5776ZM43.7703 16.2866V9.6938L46.5167 16.2866H49.4902V6.39386H47.347V12.7879L44.6716 6.39386H41.6271V16.2866H43.7703ZM26.5326 10.9996H26.9229C28.399 10.9996 28.8674 11.6525 28.8674 12.7241C28.8674 14.4131 27.4693 14.4273 26.8448 14.4273H25.9294V11.0138L26.5326 10.9996ZM25.9294 9.14736V6.06032H27.0222C28.0158 6.06032 28.7112 6.71321 28.7112 7.60029C28.7112 8.77123 27.8171 9.14026 27.1784 9.14026H26.1494L25.9294 9.14736Z" fill="#828D93"/>
</svg>
