<svg width="79" height="31" viewBox="0 0 79 31" fill="none" xmlns="http://www.w3.org/2000/svg">
<g clip-path="url(#clip0)">
<path fill-rule="evenodd" clip-rule="evenodd" d="M40.4814 15.3861C39.9116 14.9583 39.2455 14.6969 38.6026 14.4354C37.9602 14.197 37.271 13.9361 36.7475 13.6983C36.2724 13.4594 36.0346 13.1985 36.0346 12.7707C36.0346 11.8905 36.8906 11.4144 37.8182 11.4144C38.5316 11.4144 39.2219 11.6285 40.1973 12.1757L41.0296 10.7252C39.8637 10.0586 38.8404 9.67871 37.7466 9.67871C35.8673 9.67871 33.9412 10.8204 33.9412 12.9838C33.9412 14.9099 35.4154 15.4818 36.8906 16.029C37.1989 16.1721 37.5325 16.3142 37.8424 16.4341C38.5074 16.6714 39.3639 16.9324 39.3876 17.7884C39.4118 18.8348 38.3417 19.3352 37.2473 19.3352C36.3671 19.3352 35.3917 19.0021 34.5115 18.3119L33.656 19.7161C34.773 20.5721 36.0109 21.0708 37.271 21.0708C39.2455 21.0708 41.5042 20.0244 41.5521 17.6226C41.5757 16.5514 41.1012 15.8622 40.4814 15.3861Z" fill="#828D93"/>
<path fill-rule="evenodd" clip-rule="evenodd" d="M48.9724 18.6457C48.6625 18.9303 47.8781 19.3596 47.0458 19.3596C45.833 19.3354 44.976 18.3353 44.976 17.2888C44.976 16.1718 45.8088 15.4821 46.9979 15.4821L48.9724 15.5058V18.6457ZM51.1364 13.0309C51.1364 10.939 49.3055 9.75 47.5214 9.75C46.0703 9.7742 45.0954 10.011 43.6449 10.7965L44.2626 12.2233C45.4053 11.6525 46.1177 11.4141 47.0931 11.4141C48.0922 11.4141 49.0203 12.1286 49.0203 13.1261V13.8643H46.4986C44.4294 13.8643 42.741 15.1727 42.6926 17.3372C42.6926 19.3354 44.3336 20.9285 46.2845 20.9759V20.9527C48.401 21.0006 50.0662 20.1672 51.16 19.0729L51.1364 13.0309Z" fill="#828D93"/>
<path fill-rule="evenodd" clip-rule="evenodd" d="M55.561 12.1053C56.1323 11.7955 57.1072 11.3677 58.0111 11.4387H58.0348C60.0088 11.5582 60.3655 13.4606 60.3655 15.2442C60.3655 17.0046 59.8657 19.2885 58.1537 19.3595C56.8699 19.4311 55.8461 18.9076 55.561 18.6692V12.1053ZM58.3915 21.001V20.9763C61.2457 21.0715 62.7209 18.1458 62.7441 15.1253C62.7441 12.4615 61.4114 9.79777 58.3915 9.70254C57.345 9.67887 56.4175 9.9635 55.561 10.4396V3.75684L53.3965 4.49341V19.0023C53.468 19.1222 54.8475 20.8811 58.3915 21.001Z" fill="#828D93"/>
<path fill-rule="evenodd" clip-rule="evenodd" d="M66.1217 5.20703C65.3131 5.20703 64.6707 5.84943 64.6707 6.6586H64.6465C64.6465 7.46725 65.2889 8.10912 66.0965 8.10912C66.9057 8.10912 67.548 7.46725 67.548 6.6586C67.5723 5.84943 66.9293 5.20703 66.1217 5.20703Z" fill="#828D93"/>
<path fill-rule="evenodd" clip-rule="evenodd" d="M67.2383 9.60742L65.0028 10.3445L65.027 20.7854H67.2383V9.60742Z" fill="#828D93"/>
<path fill-rule="evenodd" clip-rule="evenodd" d="M75.777 9.86993C74.4922 9.58424 73.3032 9.82205 72.4472 10.0588C71.3529 10.3692 70.5447 10.8917 69.5698 11.6056V20.7864H71.7816V12.0812C72.2815 11.7487 73.0422 11.4157 73.8267 11.3915C75.2067 11.3688 76.0864 12.1291 76.0864 13.5323V20.7864H78.2987V12.6999C78.2987 11.1305 77.0855 10.154 75.777 9.86993Z" fill="#828D93"/>
<path fill-rule="evenodd" clip-rule="evenodd" d="M20.5069 1.81387L20.4527 1.79177C16.23 8.7892 18.2225 11.2393 18.5713 12.1232C18.9248 13.0192 20.51 15.2 20.9572 15.8456C21.2292 16.2359 21.4497 16.6437 21.6807 17.0577C23.0943 19.5863 20.3085 21.9307 18.3924 23.1281C15.7476 24.7802 12.4156 25.8513 9.25943 25.6004C8.98375 25.5788 8.70964 25.5446 8.4371 25.4962C7.69106 25.3631 6.92661 24.9917 6.50624 24.3387C6.12111 23.7395 6.07324 22.974 6.21266 22.2758C6.51991 20.7359 7.6253 19.4989 8.65544 18.3141C9.86132 16.9273 11.0267 15.493 11.9484 13.9031C12.8707 12.3132 13.5458 10.5543 13.7046 8.72396C13.9004 11.5655 12.6782 14.3177 11.1803 16.7405C10.2312 18.2762 9.15105 19.7567 8.53602 21.454C8.37029 21.9117 8.23455 22.4431 8.36923 22.9261C8.50918 23.4286 8.95954 23.7153 9.41885 23.9084C11.8706 24.9391 14.8253 24.1388 17.0087 22.8288C17.961 22.2574 19.1753 21.4288 19.533 20.3202C19.805 19.4763 19.5841 18.564 19.2868 17.7575C18.798 16.4338 17.9799 15.2694 17.3401 14.0199C16.915 13.1892 16.5636 12.3084 16.461 11.3746C16.4442 11.2246 16.4352 11.0741 16.4363 10.9231C16.4594 7.08824 19.5677 2.85401 20.4106 1.77546L20.4248 1.78072L20.3585 1.75389C18.6486 1.05046 16.7767 0.661133 14.8127 0.661133C6.74825 0.661133 0.211182 7.1982 0.211182 15.2626C0.211182 23.3265 6.74825 29.8636 14.8127 29.8636C22.876 29.8636 29.4136 23.3265 29.4136 15.2626C29.4136 9.21904 25.7418 4.0341 20.5069 1.81387Z" fill="#828D93"/>
<path fill-rule="evenodd" clip-rule="evenodd" d="M35.5615 22.8994L35.0417 24.2126C34.9817 24.3694 34.9107 24.6009 34.9107 24.6009H34.9028C34.9028 24.6009 34.8281 24.3694 34.7686 24.2126L34.2483 22.8994H33.7322L33.5149 25.5558H33.9979L34.1099 24.0706C34.121 23.8943 34.1136 23.6555 34.1136 23.6555H34.121C34.121 23.6555 34.2036 23.9175 34.2672 24.0706L34.6934 25.0991H35.1164L35.5468 24.0706C35.6104 23.9175 35.6888 23.6581 35.6888 23.6581H35.6962C35.6962 23.6581 35.6888 23.8943 35.6999 24.0706L35.8125 25.5558H36.2912L36.0776 22.8994H35.5615Z" fill="#828D93"/>
<path fill-rule="evenodd" clip-rule="evenodd" d="M37.3648 24.4261H38.2592V24.0105H37.3648V23.3155H38.4723V22.9004H36.8823V25.5563H38.5322V25.1411H37.3648V24.4261Z" fill="#828D93"/>
<path fill-rule="evenodd" clip-rule="evenodd" d="M39.9133 25.1412H39.5166V23.3145H39.9133C40.4447 23.3145 40.7962 23.6334 40.7962 24.2247C40.7962 24.8234 40.4521 25.1412 39.9133 25.1412ZM39.9391 22.8994H39.0342V25.5563H39.9391C40.7588 25.5563 41.2939 25.0628 41.2939 24.2247C41.2939 23.3861 40.7588 22.8994 39.9391 22.8994Z" fill="#828D93"/>
<path fill-rule="evenodd" clip-rule="evenodd" d="M44.1639 25.1594C43.6098 25.1594 43.2694 24.7143 43.2694 24.2087C43.2694 23.7152 43.5988 23.2959 44.1596 23.2959C44.5832 23.2959 44.8857 23.5769 44.8857 23.5769L45.1172 23.217C45.1172 23.217 44.7847 22.8545 44.1375 22.8545C43.3557 22.8545 42.7717 23.4459 42.7717 24.2166C42.7717 24.9979 43.3331 25.6008 44.1449 25.6008C44.8226 25.6008 45.1887 25.1705 45.1887 25.1705L44.9346 24.8222C44.9346 24.8222 44.6237 25.1594 44.1639 25.1594Z" fill="#828D93"/>
<mask id="mask0" style="mask-type:alpha" maskUnits="userSpaceOnUse" x="0" y="0" width="79" height="30">
<path d="M0.211182 29.8636H78.2993V0.661133H0.211182V29.8636Z" fill="white"/>
</mask>
<g mask="url(#mask0)">
<path fill-rule="evenodd" clip-rule="evenodd" d="M41.7996 25.5558H42.282V22.8994H41.7996V25.5558Z" fill="#828D93"/>
<path fill-rule="evenodd" clip-rule="evenodd" d="M45.634 25.5558H46.1165V22.8994H45.634V25.5558Z" fill="#828D93"/>
<path fill-rule="evenodd" clip-rule="evenodd" d="M48.482 24.4346C48.482 24.5913 48.5083 24.8449 48.5083 24.8449H48.5004C48.5004 24.8449 48.381 24.5877 48.28 24.4346L47.2735 22.9004H46.7905V25.5568H47.2735V24.0268C47.2735 23.8695 47.2472 23.6143 47.2472 23.6143H47.2546C47.2546 23.6143 47.3745 23.8732 47.4755 24.0268L48.482 25.5568H48.9608V22.9004H48.482V24.4346Z" fill="#828D93"/>
<path fill-rule="evenodd" clip-rule="evenodd" d="M50.139 24.4824L50.3752 23.7711C50.4273 23.6222 50.4873 23.3602 50.4873 23.3602H50.4946C50.4946 23.3602 50.5509 23.6222 50.5993 23.7711L50.835 24.4824H50.139ZM50.2363 22.9004L49.3014 25.5568H49.7986L50.0232 24.876H50.955L51.1791 25.5568H51.6774L50.7414 22.9004H50.2363Z" fill="#828D93"/>
<path fill-rule="evenodd" clip-rule="evenodd" d="M53.8065 25.1412H53.4103V23.3145H53.8065C54.3379 23.3145 54.6894 23.6334 54.6894 24.2247C54.6894 24.8234 54.3453 25.1412 53.8065 25.1412ZM53.8328 22.8994H52.9274V25.5563H53.8328C54.652 25.5563 55.1871 25.0628 55.1871 24.2247C55.1871 23.3861 54.652 22.8994 53.8328 22.8994Z" fill="#828D93"/>
<path fill-rule="evenodd" clip-rule="evenodd" d="M57.3531 24.4824L57.5888 23.7711C57.6414 23.6222 57.7014 23.3602 57.7014 23.3602H57.7087C57.7087 23.3602 57.7645 23.6222 57.8134 23.7711L58.0491 24.4824H57.3531ZM57.4504 22.9004L56.5155 25.5568H57.0127L57.2373 24.876H58.1686L58.3932 25.5568H58.8909L57.9555 22.9004H57.4504Z" fill="#828D93"/>
<path fill-rule="evenodd" clip-rule="evenodd" d="M60.6832 24.5723H61.091V24.8822C61.091 24.8822 60.8253 25.1594 60.4254 25.1594C59.9272 25.1594 59.5347 24.7854 59.5347 24.2093C59.5347 23.7079 59.8525 23.2959 60.4475 23.2959C60.8705 23.2959 61.1541 23.55 61.1541 23.55L61.394 23.1912C61.394 23.1912 61.0573 22.8545 60.4065 22.8545C59.6173 22.8545 59.037 23.4532 59.037 24.2245C59.037 25.0579 59.6394 25.6009 60.3391 25.6009C60.8332 25.6009 61.1099 25.3167 61.1099 25.3167H61.1173C61.1173 25.3167 61.1136 25.3725 61.1136 25.4288V25.5561H61.525V24.1566H60.6832V24.5723Z" fill="#828D93"/>
<path fill-rule="evenodd" clip-rule="evenodd" d="M63.7513 24.4346C63.7513 24.5913 63.7776 24.8449 63.7776 24.8449H63.7702C63.7702 24.8449 63.6502 24.5877 63.5498 24.4346L62.5428 22.9004H62.0603V25.5568H62.5428V24.0268C62.5428 23.8695 62.517 23.6143 62.517 23.6143H62.5238C62.5238 23.6143 62.6438 23.8732 62.7448 24.0268L63.7513 25.5568H64.2306V22.9004H63.7513V24.4346Z" fill="#828D93"/>
<path fill-rule="evenodd" clip-rule="evenodd" d="M66.2696 22.7236L66.6626 22.2148H66.1723L65.8882 22.7236H66.2696Z" fill="#828D93"/>
<path fill-rule="evenodd" clip-rule="evenodd" d="M66.0944 25.1594C65.6077 25.1594 65.2184 24.7554 65.2184 24.2087C65.2184 23.6852 65.6077 23.2964 66.0944 23.2964C66.58 23.2964 66.9698 23.6852 66.9698 24.2087C66.9698 24.7554 66.58 25.1594 66.0944 25.1594ZM66.0944 22.8545C65.312 22.8545 64.7212 23.4495 64.7212 24.2087C64.7212 24.9911 65.312 25.6014 66.0944 25.6014C66.8757 25.6014 67.467 24.9911 67.467 24.2087C67.467 23.4495 66.8757 22.8545 66.0944 22.8545Z" fill="#828D93"/>
<path fill-rule="evenodd" clip-rule="evenodd" d="M69.7087 23.3151H70.5805V25.5563H71.063V23.3151H71.9348V22.8994H69.7087V23.3151Z" fill="#828D93"/>
<path fill-rule="evenodd" clip-rule="evenodd" d="M72.2866 25.5558H72.7691V22.8994H72.2866V25.5558Z" fill="#828D93"/>
<path fill-rule="evenodd" clip-rule="evenodd" d="M74.651 25.1594C74.0975 25.1594 73.7571 24.7143 73.7571 24.2087C73.7571 23.7152 74.0865 23.2959 74.6473 23.2959C75.0703 23.2959 75.3734 23.5769 75.3734 23.5769L75.6054 23.217C75.6054 23.217 75.2723 22.8545 74.6252 22.8545C73.8434 22.8545 73.2594 23.4459 73.2594 24.2166C73.2594 24.9979 73.8208 25.6008 74.6326 25.6008C75.3097 25.6008 75.6764 25.1705 75.6764 25.1705L75.4223 24.8222C75.4223 24.8222 75.1113 25.1594 74.651 25.1594Z" fill="#828D93"/>
<path fill-rule="evenodd" clip-rule="evenodd" d="M76.6273 24.4824L76.863 23.7711C76.9156 23.6222 76.9751 23.3602 76.9751 23.3602H76.9824C76.9824 23.3602 77.0387 23.6222 77.0871 23.7711L77.3228 24.4824H76.6273ZM76.7241 22.9004L75.7892 25.5568H76.2869L76.511 24.876H77.4428L77.6669 25.5568H78.1652L77.2297 22.9004H76.7241Z" fill="#828D93"/>
<path fill-rule="evenodd" clip-rule="evenodd" d="M55.6497 25.5558H56.1358V22.8994H55.6497V25.5558Z" fill="#828D93"/>
<path fill-rule="evenodd" clip-rule="evenodd" d="M68.298 23.6178C68.298 23.4316 68.4743 23.3 68.6984 23.3C69.0315 23.3 69.2861 23.5321 69.2861 23.5321L69.4955 23.1396C69.4955 23.1396 69.2261 22.8555 68.7021 22.8555C68.1933 22.8555 67.8119 23.1843 67.8119 23.6262C67.8119 24.4412 69.0651 24.3591 69.0651 24.8342C69.0651 25.0515 68.8821 25.1562 68.68 25.1562C68.3054 25.1562 68.0176 24.8753 68.0176 24.8753L67.7556 25.2378C67.7556 25.2378 68.0813 25.6013 68.6726 25.6013C69.2261 25.6013 69.5481 25.2456 69.5481 24.8226C69.5481 23.9735 68.298 24.0892 68.298 23.6178Z" fill="#828D93"/>
</g>
</g>
<defs>
<clipPath id="clip0">
<rect width="78.3922" height="29.4629" fill="white" transform="translate(0.211182 0.661133)"/>
</clipPath>
</defs>
</svg>
