<svg width="53" height="29" viewBox="0 0 53 29" fill="none" xmlns="http://www.w3.org/2000/svg">
<path d="M26.0854 1.14178C26.0784 1.0021 26.041 0.865622 25.9759 0.741848C25.9108 0.618075 25.8195 0.50998 25.7083 0.425091C25.5972 0.340203 25.4689 0.28056 25.3323 0.250315C25.1958 0.220069 25.0543 0.219946 24.9177 0.249957L15.8936 2.68162C15.8936 2.68162 17.366 5.45334 19.849 4.45244C21.6098 3.68007 23.2778 2.71154 24.8214 1.56524C24.123 3.35512 23.628 5.21783 23.3457 7.11829C23.0249 9.77772 26.095 10.4706 26.095 10.4706L26.0854 1.14178Z" fill="#828D93"/>
<path d="M28.1673 0.249957C28.0307 0.219946 27.8892 0.220069 27.7527 0.250315C27.6161 0.28056 27.4878 0.340203 27.3767 0.425091C27.2655 0.50998 27.1742 0.618075 27.1091 0.741848C27.044 0.865622 27.0066 1.0021 26.9996 1.14178V10.4899C26.9996 10.4899 30.0633 9.79697 29.7489 7.13754C29.4646 5.23715 28.9686 3.37454 28.27 1.58449C29.8145 2.73125 31.4836 3.6998 33.2456 4.47169C35.7286 5.47259 37.2011 2.70087 37.2011 2.70087L28.1673 0.249957Z" fill="#828D93"/>
<path d="M6.77303 17.7589C8.81332 17.7589 9.76931 18.9266 9.76931 20.9893V24.6657C8.30325 25.6024 7.2414 25.9489 5.96461 25.9489C4.62687 25.9489 3.84092 25.3779 3.84092 24.3449C3.84092 23.0617 4.94446 22.5805 7.15478 22.5805C7.49482 22.5805 7.98565 22.603 8.19738 22.6222V20.5595C7.71718 20.503 7.23407 20.4752 6.75058 20.4761C3.43029 20.4889 0.863892 21.9293 0.863892 24.4957C0.863892 27.0621 2.54168 28.5345 5.64702 28.5345C7.17167 28.4768 8.65061 27.9983 9.92008 27.1519L10.2601 28.0886C10.2752 28.1486 10.3115 28.201 10.3621 28.2364C10.4128 28.2717 10.4746 28.2876 10.536 28.2811H12.8297V20.9669C12.8297 17.3515 10.8536 15.0128 7.15478 15.0128C4.64612 15.0128 2.69245 16.033 1.54399 17.4156L3.60673 18.84C4.10024 18.4849 4.63988 18.1989 5.21073 17.9898C5.7143 17.8398 6.23804 17.7683 6.76341 17.7781L6.77303 17.7589ZM45.3877 15.0128C44.05 15.023 42.7453 15.4291 41.6381 16.1799C40.531 16.9307 39.671 17.9927 39.1667 19.2317C38.6623 20.4707 38.5363 21.8314 38.8044 23.142C39.0725 24.4526 39.7228 25.6544 40.6732 26.5959C41.6235 27.5373 42.8315 28.1762 44.1446 28.4319C45.4576 28.6876 46.817 28.5487 48.0512 28.0327C49.2855 27.5167 50.3392 26.6468 51.0796 25.5325C51.8199 24.4183 52.2137 23.1098 52.2112 21.7721C52.2082 20.8799 52.0292 19.997 51.6845 19.1741C51.3398 18.3511 50.836 17.6043 50.2022 16.9764C49.5683 16.3485 48.8168 15.8518 47.9906 15.5149C47.1645 15.1779 46.2799 15.0073 45.3877 15.0128V15.0128ZM19.1784 28.3004V19.6388C20.3044 18.8111 22.088 18.5545 23.2172 18.6411L24.4267 15.6865C24.0031 15.6115 23.5736 15.576 23.1435 15.5806C21.7608 15.5806 20.083 16.1549 18.7645 16.9408L18.4245 16.0041C18.4087 15.9448 18.3722 15.893 18.3216 15.8583C18.271 15.8236 18.2096 15.8082 18.1486 15.8148H15.903V28.326L19.1784 28.3004ZM45.3877 25.58C43.4629 25.58 41.9648 24.069 41.9648 21.7945C41.9648 19.5201 43.4533 17.9898 45.3877 17.9898C47.3222 17.9898 48.8075 19.4976 48.8075 21.7721C48.8075 24.0466 47.3222 25.58 45.3877 25.58Z" fill="#828D93"/>
<path d="M32.0647 25.5709C29.9827 25.5709 28.6835 23.9316 28.6835 21.7855C28.6835 19.6393 30.0437 17.9808 31.9364 17.9808C32.4081 17.9681 32.8778 18.0477 33.3191 18.215C33.9109 18.4557 34.4737 18.7624 34.9968 19.1293L37.1879 17.5253C35.9753 15.9213 34.275 14.9941 31.7664 14.9941C30.8947 14.996 30.0321 15.1721 29.2295 15.5122C28.4269 15.8523 27.7003 16.3495 27.0927 16.9745C26.485 17.5995 26.0085 18.3397 25.6911 19.1516C25.3737 19.9635 25.2218 20.8306 25.2445 21.7021C25.2445 25.5517 27.8366 28.5447 31.9813 28.5447C34.4707 28.5447 36.1902 27.5663 37.4028 25.9783L35.2342 24.4064C34.7187 24.7904 34.1545 25.1043 33.5564 25.3399C33.0791 25.5082 32.5734 25.5812 32.0679 25.5549" fill="#828D93"/>
</svg>
