<svg width="80" height="27" viewBox="0 0 80 27" fill="none" xmlns="http://www.w3.org/2000/svg">
<g clip-path="url(#clip0)">
<path fill-rule="evenodd" clip-rule="evenodd" d="M29.6329 20.3116H39.1798V17.4449H32.6351V4.68945H29.6329V20.3116Z" fill="#828D93"/>
<path fill-rule="evenodd" clip-rule="evenodd" d="M45.2991 17.6233C43.5146 17.6106 42.2518 16.2737 42.2715 14.4181C42.2909 12.5713 43.5442 11.2911 45.3312 11.2928C47.1343 11.2946 48.3764 12.5938 48.3678 14.4693C48.3593 16.3365 47.0947 17.6362 45.2991 17.6233V17.6233ZM45.3292 8.69535C41.9951 8.68356 39.4423 11.1789 39.4429 14.4493C39.4434 17.7257 41.9828 20.2175 45.3188 20.2151C48.6745 20.2128 51.1986 17.7421 51.1979 14.4603C51.1974 11.1643 48.6961 8.70715 45.3292 8.69535V8.69535Z" fill="#828D93"/>
<path fill-rule="evenodd" clip-rule="evenodd" d="M60.6733 14.5024C60.6495 16.351 59.392 17.636 57.6076 17.6231C55.8231 17.6104 54.5603 16.2735 54.58 14.418C54.5995 12.5711 55.8527 11.2909 57.6397 11.2927C59.4301 11.2945 60.6644 12.5768 60.6733 14.4311C60.6733 14.4549 60.6732 14.4786 60.6733 14.5024V14.5024ZM60.6708 9.4786C59.7973 8.98405 58.7683 8.69907 57.6377 8.69518C54.3036 8.68338 51.7508 11.1787 51.7513 14.4491C51.7519 17.7255 54.2913 20.2173 57.6274 20.215C58.7616 20.2141 59.7968 19.9259 60.6757 19.4251C60.6761 20.1879 60.6764 20.6693 60.6764 20.6693C60.6679 22.5368 59.4033 23.8327 57.6076 23.8327C55.3018 23.8327 54.2878 21.5983 54.2878 21.5983L52.1756 22.8807C52.1756 22.8807 53.3891 26.4245 57.6274 26.4245C60.983 26.4222 63.507 23.9515 63.5065 20.6696V8.68652H60.6704C60.6704 8.68652 60.6705 8.98157 60.6708 9.4786" fill="#828D93"/>
<path fill-rule="evenodd" clip-rule="evenodd" d="M72.9817 14.5031C72.9576 16.3513 71.7003 17.636 69.9161 17.6231C68.1315 17.6104 66.8687 16.2735 66.8884 14.418C66.908 12.5711 68.1612 11.2909 69.9481 11.2928C71.7384 11.2945 72.9724 12.5766 72.9817 14.4305C72.9817 14.4547 72.9816 14.4788 72.9817 14.5031V14.5031ZM72.9792 9.4786C72.1058 8.98405 71.0768 8.69907 69.9463 8.69518C66.6122 8.68339 64.0593 11.1787 64.0598 14.4491C64.0604 17.7255 66.5997 20.2173 69.9359 20.215C71.0701 20.2141 72.1054 19.926 72.9842 19.4252C72.9845 20.188 72.9849 20.6693 72.9849 20.6693C72.9764 22.5368 71.7118 23.8327 69.9161 23.8327C67.6103 23.8327 66.5963 21.5983 66.5963 21.5983L64.484 22.8807C64.484 22.8807 65.6975 26.4245 69.9359 26.4245C73.2915 26.4222 75.8155 23.9515 75.815 20.6696V8.68652H72.9789C72.9789 8.68652 72.979 8.98167 72.9792 9.4786" fill="#828D93"/>
<path fill-rule="evenodd" clip-rule="evenodd" d="M79.8639 8.68652H76.9603V20.0493H79.8639V8.68652Z" fill="#828D93"/>
<path fill-rule="evenodd" clip-rule="evenodd" d="M78.4116 7.59009C79.2134 7.59009 79.8634 6.94007 79.8634 6.13825C79.8634 5.33644 79.2134 4.68652 78.4116 4.68652C77.6097 4.68652 76.9597 5.33644 76.9597 6.13825C76.9597 6.94007 77.6097 7.59009 78.4116 7.59009Z" fill="#828D93"/>
<path fill-rule="evenodd" clip-rule="evenodd" d="M24.0533 6.8762C23.4041 6.53506 22.6418 6.23613 22.3566 6.12793C22.2585 6.05728 22.1959 6.01065 22.1959 6.01065C22.1959 6.01065 18.3511 3.26028 16.6559 2.54697C14.9606 1.83354 12.0126 0.280543 9.01911 0.364609C6.65553 0.430931 5.19698 0.869762 4.68707 0.992128C4.08271 1.13711 3.6786 1.30762 4.34074 1.61954C4.56243 1.72394 5.5075 2.28666 6.65499 2.94165C8.33122 3.89851 10.4393 5.05228 11.3553 5.26196C12.2324 5.46266 13.6771 5.75737 15.523 5.71821C17.6295 5.67363 18.6541 6.57239 18.8613 6.90043C18.4841 6.36509 17.0486 5.9347 15.1341 6.05307C13.2913 6.16699 11.8101 6.04344 10.9475 5.78691C9.25735 5.28425 7.44609 4.52949 5.92317 3.81683C5.29684 4.00757 4.9106 4.1678 4.67647 4.26702C4.14513 4.49217 3.64788 4.89648 4.39311 5.10659C4.92596 5.25687 9.90856 7.03924 11.3591 7.12591C12.1836 7.17524 13.5362 7.22393 15.2017 6.90974C17.0862 6.55411 18.0676 7.3279 18.2979 7.6277C17.7095 8.5217 17.3243 9.56111 17.4345 10.7164C10.545 9.5016 8.34594 8.87268 6.79023 8.60523C4.07048 8.13772 0.615558 10.4418 0.191874 13.2953C-0.0489631 14.9168 0.364659 16.4314 1.34975 17.8328C2.44034 19.3842 3.8753 20.7222 4.084 21.0063C4.2173 21.2488 4.17391 21.8891 4.18311 22.32C4.19338 22.8039 4.80208 23.2387 5.15652 23.2709C5.36771 23.29 9.4468 24.5645 9.4468 24.5645L15.4899 26.4246C15.4899 26.4246 15.5817 26.0072 15.5999 25.8314C15.6462 25.3845 15.3061 24.2813 13.8901 23.8692C11.8054 23.242 11.3957 23.1229 10.9521 22.9895C10.7133 22.9176 10.8808 22.9141 11.2508 22.6218C11.8821 22.0862 12.4232 21.3635 12.6996 20.7758C13.9329 18.1536 12.3808 15.8184 12.3808 15.8184C12.3808 15.8184 13.3495 16.8358 13.7135 18.6146C14.1682 20.8365 12.662 22.5995 12.662 22.5995L13.5608 22.8602C13.5608 22.8602 19.3669 17.0124 19.934 16.381C20.4128 15.848 21.2457 15.5117 21.669 15.3742C23.2177 14.9249 25.1542 14.0572 25.6467 13.7455C26.1392 13.4338 26.7426 12.3331 26.8941 12.0611C27.0454 11.7891 27.2441 11.4307 27.2827 11.0257C27.2962 10.8834 26.4685 9.77923 26.4685 9.77923C26.4685 9.77923 25.1445 7.54007 24.0533 6.8762" fill="#828D93"/>
<path fill-rule="evenodd" clip-rule="evenodd" d="M7.15517 24.8949C6.81166 25.0992 6.69254 25.6415 7.1926 25.9341C7.63641 26.1677 9.1272 25.3507 9.1272 25.3507L7.63219 24.8794C7.63219 24.8794 7.39763 24.7808 7.15517 24.8949" fill="#828D93"/>
</g>
<defs>
<clipPath id="clip0">
<rect width="79.739" height="26.0633" fill="white" transform="translate(0.124878 0.361328)"/>
</clipPath>
</defs>
</svg>
