<svg width="109" height="19" viewBox="0 0 109 19" fill="none" xmlns="http://www.w3.org/2000/svg">
<g clip-path="url(#clip0)">
<path d="M23.7703 17.5515V15.6477C24.6768 16.2823 25.674 16.6449 26.7619 16.6449C27.8497 16.6449 28.6656 16.373 29.1189 15.829C29.6628 15.2851 29.8441 14.3785 29.8441 13.1094V1.86816H31.6572V13.2907C31.6572 14.2879 31.4759 15.1038 31.204 15.829C30.932 16.5543 30.5694 17.0982 30.1161 17.4608C29.5722 17.7328 29.1189 18.0047 28.575 18.186C28.1217 18.2767 27.5778 18.3674 26.9432 18.3674C25.7647 18.3674 24.7675 18.0954 23.7703 17.5515Z" fill="#828D93"/>
<path d="M35.1929 13.0183V5.94727H36.9153V13.109C36.9153 14.3782 37.1873 15.2847 37.7312 15.8287C38.2751 16.3726 39.1817 16.7352 40.2695 16.7352C41.4481 16.7352 42.264 16.3726 42.8079 15.8287C43.3518 15.2847 43.6238 14.3782 43.6238 13.109V5.94727H45.4369V13.0183C45.4369 14.7408 44.9836 16.01 44.0771 17.0072C43.1705 17.9137 41.9013 18.367 40.2695 18.367C38.6378 18.367 37.3686 17.9137 36.5527 17.0072C35.6461 16.01 35.1929 14.7408 35.1929 13.0183Z" fill="#828D93"/>
<path d="M47.8848 9.30214C47.8848 8.30494 48.2474 7.48905 48.9726 6.76381C49.6979 6.12922 50.7857 5.7666 52.2362 5.7666C53.2334 5.7666 54.3213 5.94791 55.3185 6.49184V8.21428C54.4119 7.67036 53.4147 7.39839 52.4175 7.39839C50.6044 7.39839 49.6072 8.03297 49.6072 9.30214C49.6072 9.66476 49.8792 10.0274 50.3324 10.2993C50.7857 10.5713 51.3297 10.7526 51.9642 10.9339C52.5988 11.1152 53.2334 11.2966 53.868 11.5685C54.5026 11.8405 55.0465 12.2031 55.4998 12.747C55.9531 13.3816 56.225 14.1069 56.225 14.9228C56.225 16.0106 55.7717 16.8265 55.0465 17.4611C54.2306 18.0957 53.1428 18.3676 51.6923 18.3676C50.3324 18.3676 49.1539 18.0957 48.0661 17.4611V15.5573C49.2446 16.2826 50.4231 16.6452 51.6923 16.6452C53.5054 16.6452 54.4119 16.1013 54.4119 14.9228C54.4119 14.3788 54.2306 13.9255 53.7773 13.5629C53.3241 13.2003 52.7801 12.9283 52.1455 12.747C51.511 12.5657 50.8764 12.3844 50.1511 12.2031C49.5166 12.0218 48.9726 11.6592 48.5194 11.2059C48.0661 10.662 47.8848 10.0274 47.8848 9.30214Z" fill="#828D93"/>
<path d="M60.1228 14.5598C60.1228 16.0103 61.2107 16.7356 63.2957 16.7356C63.749 16.7356 64.2023 16.7356 64.5649 16.5542C64.9275 16.4636 65.2901 16.2823 65.6528 16.0103C66.106 15.6477 66.378 15.1944 66.65 14.4692C66.8313 13.8346 66.9219 12.928 66.9219 11.9308C66.9219 10.2991 66.6499 9.2112 66.0154 8.48596C65.3808 7.76072 64.4742 7.3981 63.1144 7.3981C62.1172 7.3981 61.12 7.57941 60.1228 8.03268V14.5598ZM58.3097 14.4692V1.32422H60.1228V6.21958C61.0293 5.94762 62.0265 5.76631 63.1144 5.76631C63.6583 5.76631 64.2023 5.76631 64.6555 5.85697C65.1995 5.94762 65.6527 6.12893 66.1967 6.49155C66.65 6.76351 67.1032 7.12613 67.4658 7.48875C67.8285 7.94203 68.1004 8.57661 68.3724 9.30185C68.5537 10.0271 68.735 10.9336 68.735 11.9308C68.735 13.0187 68.5537 13.9253 68.3724 14.7411C68.1004 15.557 67.7378 16.1916 67.3752 16.6449C67.0126 17.0982 66.5593 17.4608 66.106 17.7328C65.5621 18.0047 65.1088 18.186 64.6555 18.2767C64.2023 18.3673 63.749 18.3673 63.2957 18.3673C62.4798 18.3673 61.6639 18.2767 61.0293 18.0047C60.3948 17.8234 59.8508 17.5515 59.5789 17.2795C59.2162 17.0075 58.9443 16.6449 58.763 16.2823C58.5817 15.829 58.4004 15.557 58.4004 15.2851C58.3097 15.0131 58.3097 14.7411 58.3097 14.4692Z" fill="#828D93"/>
<path d="M71.4548 18.1863V6.94512C73.2679 6.12922 75.2623 5.7666 77.3474 5.7666V7.39839C75.9876 7.48905 74.6278 7.67035 73.1773 8.03297V18.1863H71.4548Z" fill="#828D93"/>
<path d="M80.067 14.3788C80.067 15.92 81.1549 16.7358 83.4213 16.7358C85.597 16.7358 86.6849 15.92 86.6849 14.4695V12.1124C86.1409 12.0218 85.4157 12.0218 84.5091 12.0218C81.5175 12.0218 80.067 12.8377 80.067 14.3788ZM78.3446 14.3788C78.3446 13.8349 78.4353 13.3816 78.6166 12.9283C78.7979 12.4751 79.0698 12.1124 79.3418 11.8405C79.7044 11.6592 80.067 11.3872 80.5203 11.2059C80.9736 11.0246 81.3362 10.8433 81.6988 10.7526C82.0615 10.662 82.4241 10.5713 82.968 10.5713C83.4213 10.4807 83.7839 10.4807 83.9652 10.4807C84.1465 10.4807 84.4185 10.4807 84.6905 10.4807L86.6849 10.5713C86.6849 9.48345 86.3222 8.66756 85.7783 8.21428C85.1437 7.76101 84.2372 7.48905 83.0587 7.48905C81.7895 7.48905 80.611 7.67036 79.5231 8.12363V6.40119C80.7016 5.94791 81.9708 5.7666 83.1493 5.7666C84.8718 5.7666 86.2316 6.21988 87.1381 7.03577C88.0447 7.94232 88.4073 9.21149 88.4073 10.8433V14.4695C88.4073 15.2854 88.226 15.92 87.8634 16.4639C87.5008 17.0985 87.0475 17.4611 86.5036 17.7331C85.9596 17.9144 85.4157 18.0957 84.8718 18.1863C84.4185 18.277 83.9652 18.3676 83.4213 18.3676C83.0587 18.3676 82.696 18.3676 82.2428 18.277C81.8801 18.277 81.4269 18.0957 80.9736 18.005C80.4297 17.8237 79.9764 17.5517 79.6138 17.2798C79.2511 17.0078 78.9792 16.6452 78.7072 16.1919C78.4353 15.648 78.3446 15.1041 78.3446 14.3788Z" fill="#828D93"/>
<path d="M90.5829 9.30214C90.5829 8.30494 90.9455 7.48905 91.5801 6.76381C92.3053 6.12922 93.3932 5.7666 94.9343 5.7666C95.9315 5.7666 97.0194 5.94791 98.0166 6.49184V8.21428C97.11 7.67036 96.1128 7.39839 95.1156 7.39839C93.2119 7.39839 92.3053 8.03297 92.3053 9.30214C92.3053 9.66476 92.5773 10.0274 93.0306 10.2993C93.3932 10.5713 93.9371 10.7526 94.6624 10.9339C95.2969 11.1152 95.9315 11.2966 96.5661 11.5685C97.2007 11.8405 97.7446 12.2031 98.1979 12.747C98.6512 13.3816 98.9231 14.1069 98.9231 14.9228C98.9231 16.0106 98.4699 16.8265 97.654 17.4611C96.9287 18.0957 95.8409 18.3676 94.3904 18.3676C93.0306 18.3676 91.8521 18.0957 90.6735 17.4611V15.5573C91.8521 16.2826 93.1212 16.6452 94.2997 16.6452C96.2035 16.6452 97.11 16.1013 97.11 14.9228C97.11 14.3788 96.9287 13.9255 96.4755 13.5629C96.0222 13.2003 95.4783 12.9283 94.8437 12.747C94.1184 12.5657 93.4838 12.3844 92.8493 12.2031C92.2147 12.0218 91.6707 11.6592 91.2175 11.2059C90.7642 10.662 90.5829 10.0274 90.5829 9.30214Z" fill="#828D93"/>
<path d="M101.28 18.1861H103.003V5.94764H101.28V18.1861ZM101.19 3.77192H103.184V1.86816H101.19V3.77192Z" fill="#828D93"/>
<path d="M106.538 18.186H108.351V1.32422H106.538V18.186Z" fill="#828D93"/>
<path d="M12.8016 1.86854H12.7922C12.2742 0.999847 11.3253 0.417969 10.2404 0.417969C8.60749 0.417969 7.28247 1.73623 7.27152 3.36656C7.24928 3.88709 7.36266 4.40752 7.63424 4.86015L10.2632 9.30224L12.6601 5.10766C13.0041 4.62488 13.2071 4.03479 13.2093 3.39738C13.2152 2.86513 13.0793 2.33139 12.8016 1.86854Z" fill="#828D93"/>
<path d="M0.744219 13.9257L6.66271 3.64622C6.57627 4.37327 6.70244 5.11619 7.08282 5.75016L9.72172 10.209L5.91155 16.8267C5.09566 18.2771 3.28256 18.7304 1.83208 17.9145C0.3816 17.0986 -0.0716749 15.2855 0.744219 13.9257Z" fill="#828D93"/>
<path d="M13.3911 5.75016L10.7991 10.2861L14.6144 16.8267C15.4303 18.2771 17.2434 18.7304 18.6939 17.9145C20.0537 17.0986 20.5976 15.2855 19.7818 13.9257L13.8876 3.82152C13.9064 4.49182 13.7409 5.16707 13.3911 5.75016Z" fill="#828D93"/>
</g>
<defs>
<clipPath id="clip0">
<rect width="108.786" height="18.131" fill="white" transform="translate(0.109131 0.327148)"/>
</clipPath>
</defs>
</svg>
