<svg width="89" height="41" viewBox="0 0 89 41" fill="none" xmlns="http://www.w3.org/2000/svg">
<g clip-path="url(#clip0)">
<mask id="mask0" style="mask-type:alpha" maskUnits="userSpaceOnUse" x="0" y="17" width="11" height="13">
<path d="M0 17.3066H10.3259V29.4898H0V17.3066Z" fill="white"/>
</mask>
<g mask="url(#mask0)">
<path fill-rule="evenodd" clip-rule="evenodd" d="M4.33704 19.0968C3.89013 19.0968 3.7005 19.4745 3.7005 19.9829C3.7005 20.4427 3.79556 20.7879 4.20174 21.4773C4.70248 21.0173 4.93285 20.5247 4.93285 20.0815C4.93285 19.4906 4.7568 19.0968 4.33704 19.0968ZM3.35137 24.4054C2.92717 24.7042 2.38149 25.0647 2.31729 25.874C2.24569 26.7782 2.8284 27.3866 3.74741 27.4098C4.03137 27.4173 4.5889 27.2713 5.06791 26.8953C4.41112 26.074 3.90371 25.3138 3.35137 24.4056V24.4054ZM8.74964 29.4402C7.84297 29.4402 7.19334 29.2437 6.42174 28.521C5.59581 29.1777 4.71606 29.4898 3.75507 29.4898C1.61433 29.4898 0.134329 28.2538 0.0059339 25.9533C-0.0594982 24.778 0.398773 23.8027 2.25235 22.6101C1.72421 21.6412 1.53482 20.9849 1.53482 20.1802C1.53482 18.3901 2.61779 17.3066 4.41828 17.3066C6.05606 17.3066 6.96297 18.4395 6.96297 20.0489C6.96297 21.2143 6.36741 22.0518 5.24371 22.8397C5.77211 23.6279 6.23211 24.2852 6.63803 24.8269C7.03062 24.0553 7.55482 23.1931 7.97383 22.1242L9.79457 22.9879C9.2768 24.6168 8.58717 25.741 8.00544 26.6656C8.35729 27.0103 8.60075 27.1012 8.95309 27.1091C9.64396 27.1249 9.82791 27.0639 10.3259 26.8538V29.1975C9.72272 29.3982 9.12914 29.4405 8.74964 29.4405" fill="#4D5C65"/>
</g>
<path fill-rule="evenodd" clip-rule="evenodd" d="M4.13037 16.2972V0.568359H13.6491V4.30416H8.06099V6.7812H11.7225V10.1893H8.06099V12.6713H13.6494V16.2975L4.13037 16.2972ZM25.9501 16.2972V8.56392C25.9501 7.77774 25.6998 7.38392 25.083 7.38392C24.7941 7.38392 24.5242 7.47157 24.2351 7.64614V16.2972H20.3042V8.56392C20.3042 7.77774 20.0536 7.38392 19.4368 7.38392C19.1479 7.38392 18.8778 7.47157 18.5891 7.64614V16.2972H14.658V4.30416H17.4519L18.5891 6.64169H18.6664C19.8612 4.95947 20.6701 4.23873 21.9032 4.23873C23.156 4.23873 23.9652 5.04712 24.1773 6.64169H24.3121C25.5069 4.95947 26.3163 4.23873 27.5496 4.23873C29.0138 4.23873 29.8812 5.30935 29.8812 7.5375V16.2975H25.9501V16.2972ZM59.2647 15.4982L58.001 12.8728C57.0837 13.3511 56.1901 13.6518 55.3615 13.6518C54.3069 13.6518 53.1664 13.195 53.0311 11.6792H59.0227V10.0274C59.0227 6.35725 57.3272 4.23873 54.4173 4.23873C51.623 4.23873 49.8123 6.35725 49.8123 10.0276V10.661C49.8123 14.3313 51.5696 16.2889 54.7067 16.4501C56.2188 16.5281 57.6264 16.3284 59.2647 15.4982ZM55.5728 9.54589H53.04C53.04 7.88342 53.3452 6.66688 54.3116 6.66688C55.0054 6.66688 55.5538 7.27503 55.5728 9.54589ZM79.557 30.4237V29.7247C79.557 26.0545 77.7598 23.9353 74.6486 23.9353C71.537 23.9353 69.74 26.0545 69.74 29.7247V30.4234C69.74 34.0935 71.537 36.2128 74.6486 36.2128C77.7598 36.2128 79.5573 34.0935 79.5573 30.4237H79.557ZM75.8151 30.4452C75.8151 32.9138 75.4953 33.5913 74.6486 33.5913C73.8027 33.5913 73.4822 32.9138 73.4822 30.4452V29.7024C73.4822 27.2338 73.8027 26.5568 74.6486 26.5568C75.4953 26.5568 75.8151 27.2338 75.8151 29.7024V30.4452ZM59.6551 36.2128C56.698 36.2128 54.8817 34.0933 54.8817 30.4234V29.7247C54.8817 26.0545 56.7175 23.935 59.7709 23.935C62.3798 23.935 63.8874 25.3333 64.2351 28.2607L60.6795 28.9817C60.6022 27.3866 60.4089 26.775 59.7326 26.775C59.056 26.775 58.6057 27.4526 58.6057 29.9212V30.2266C58.6057 32.6953 59.0946 33.3728 59.7711 33.3728C60.3119 33.3728 60.6022 32.9572 60.7761 31.3847L64.2546 32.1056C63.7909 34.9896 62.2062 36.2128 59.6551 36.2128Z" fill="#4D5C65"/>
<mask id="mask1" style="mask-type:alpha" maskUnits="userSpaceOnUse" x="0" y="0" width="89" height="41">
<path d="M0 40.5197H88.8568V0.523438H0V40.5197Z" fill="white"/>
</mask>
<g mask="url(#mask1)">
<path fill-rule="evenodd" clip-rule="evenodd" d="M64.9246 35.9943H68.8673V23.9341H64.9246V35.9943ZM78.5414 12.9963V8.30001C78.5414 5.43828 77.3656 4.30248 74.514 4.30248C72.8569 4.30248 71.3769 4.90001 69.7389 5.861L70.9179 8.28396C72.3439 7.45408 73.1458 7.25162 73.8394 7.25162C74.5522 7.25162 74.9377 7.68816 74.9377 8.36594V9.26149C71.0263 9.54544 69.3303 10.8343 69.3303 13.237C69.3303 15.2691 70.5829 16.3832 72.0858 16.3832C73.2229 16.3832 74.0125 16.1217 74.9377 15.0733L75.5201 16.2706H79.533C79.533 16.2706 78.5414 14.8568 78.5414 12.9963ZM74.9377 13.6087C74.591 13.8052 74.3211 13.8709 73.936 13.8709C73.2421 13.8709 72.8569 13.4338 72.8569 12.6696C72.8569 11.6864 73.2999 11.0524 74.9377 10.7684V13.6084V13.6087ZM85.1656 8.87581C84.6145 8.68495 83.9295 8.53458 83.4789 8.14347C83.1043 7.81804 83.1718 7.39853 83.3863 7.17433C83.8132 6.72791 84.5755 6.93581 85.274 7.16248C86.0137 7.40248 86.6397 7.86445 87.195 8.39137C87.5942 7.52791 88.0387 6.71729 88.431 5.85063C87.6372 5.0689 86.612 4.48544 85.5105 4.31088C84.2488 4.11137 82.8172 4.18643 81.7108 4.8847C79.7977 6.0931 79.2974 9.45408 81.2172 10.8941C81.8527 11.3709 82.1592 11.6084 83.3673 11.8669C83.9653 11.9948 85.314 12.1064 85.2115 12.9459C85.1451 13.483 84.2797 13.6447 83.3841 13.5953C82.5876 13.5514 81.8095 13.2119 81.1039 12.7558C80.6767 13.6854 80.1937 14.579 79.7648 15.5082C80.7705 16.0921 82.0029 16.3835 83.1453 16.5193C84.3515 16.6625 85.6439 16.5775 86.7473 16.0274C87.6226 15.5916 88.3061 14.8531 88.6234 13.9198C88.9434 12.9803 88.9774 11.8185 88.4476 10.9496C87.7567 9.81606 86.3537 9.28766 85.1656 8.87557V8.87581ZM85.1656 28.6328C84.6145 28.4415 83.9295 28.2916 83.4789 27.9003C83.1043 27.5748 83.1718 27.1556 83.3863 26.9309C83.8132 26.4847 84.5755 26.6928 85.274 26.9193C86.0137 27.1595 86.6397 27.6212 87.195 28.1484C87.5942 27.2849 88.0387 26.4738 88.431 25.6074C87.6372 24.8254 86.612 24.2422 85.5105 24.0677C84.2488 23.8682 82.8172 23.9432 81.7108 24.6417C79.7977 25.8499 79.2974 29.2111 81.2172 30.6509C81.8527 31.1279 82.1592 31.3654 83.3673 31.6237C83.9653 31.7516 85.314 31.8635 85.2115 32.7025C85.1451 33.2398 84.2797 33.4012 83.3841 33.3519C82.5876 33.3084 81.8095 32.9689 81.1039 32.5124C80.6767 33.4425 80.1937 34.3358 79.7648 35.2649C80.7705 35.8489 82.0029 36.1403 83.1453 36.2761C84.3515 36.4193 85.6439 36.3343 86.7473 35.7842C87.6226 35.3486 88.3061 34.6101 88.6234 33.6768C88.9434 32.7373 88.9774 31.5753 88.4476 30.7064C87.7567 29.5726 86.3537 29.0447 85.1656 28.6328ZM65.2446 8.87581C64.6935 8.68495 64.0083 8.53458 63.5579 8.14347C63.1834 7.81804 63.2508 7.39853 63.4653 7.17433C63.892 6.72791 64.6545 6.93581 65.353 7.16248C66.0927 7.40248 66.7184 7.86445 67.274 8.39137C67.673 7.52791 68.1174 6.71729 68.5098 5.85063C67.7162 5.0689 66.691 4.48544 65.5893 4.31088C64.3278 4.11137 62.8962 4.18643 61.7898 4.8847C59.8764 6.0931 59.3764 9.45408 61.296 10.8941C61.9315 11.3709 62.2382 11.6084 63.4463 11.8669C64.0444 11.9948 65.393 12.1064 65.2903 12.9459C65.2241 13.483 64.3587 13.6447 63.4629 13.5953C62.6666 13.5514 61.8883 13.2119 61.1829 12.7558C60.7555 13.6854 60.2725 14.579 59.8436 15.5082C60.8493 16.0921 62.0816 16.3835 63.2243 16.5193C64.4305 16.6625 65.7226 16.5775 66.8261 16.0274C67.7014 15.5916 68.3848 14.8531 68.7024 13.9198C69.0224 12.9803 69.0562 11.8185 68.5263 10.9496C67.8355 9.81606 66.4327 9.28766 65.2446 8.87557V8.87581ZM19.0727 35.9943L15.3429 27.9333H15.2656V35.9943H11.3347V20.2649H15.3626L18.7058 27.5403H18.7829V20.2649H22.714V35.9941L19.0727 35.9943ZM33.0392 35.2222L31.7762 32.5973C30.8584 33.0753 29.9651 33.3758 29.1367 33.3758C28.0814 33.3758 26.9409 32.9195 26.8063 31.4035H32.7979V29.7519C32.7979 26.0815 31.1016 23.963 28.1925 23.963C25.3982 23.963 23.5868 26.0815 23.5868 29.7519V30.3852C23.5868 34.0553 25.3443 36.0133 28.4811 36.1746C29.994 36.2521 31.4016 36.0528 33.0392 35.2222ZM29.3483 29.2701H26.815C26.815 27.6077 27.1204 26.3911 28.0866 26.3911C28.7806 26.3911 29.3288 26.9993 29.3483 29.2701ZM35.8957 13.3514C35.1747 13.3514 34.8145 13.0324 34.8145 13.0324V7.4652C34.8145 7.4652 35.1745 7.14668 35.8957 7.14668C36.7935 7.14668 37.39 8.41458 37.3927 10.2487C37.3903 12.0832 36.7935 13.3511 35.8957 13.3511V13.3514ZM37.7624 4.23902C36.4932 4.23902 35.6345 4.59433 34.8145 6.01433L33.6342 4.30421H30.9429V19.3795H34.8145V14.6489C35.5564 16.0687 36.4155 16.2106 37.7626 16.2106C39.6367 16.2106 40.9643 14.1785 40.9643 10.4649V9.96199C40.9643 6.24841 39.7345 4.23902 37.7626 4.23902H37.7624ZM59.2644 15.4985L58.0006 12.8731C57.0834 13.3514 56.1898 13.6521 55.3611 13.6521C54.3066 13.6521 53.1661 13.1953 53.0308 11.6795H59.0224V10.0277C59.0224 6.35754 57.3268 4.23902 54.4169 4.23902C51.6226 4.23902 49.812 6.35754 49.812 10.0279V10.6612C49.812 14.3316 51.5693 16.2891 54.7063 16.4504C56.2184 16.5284 57.6261 16.3287 59.2644 15.4985ZM55.5725 9.54618H53.0397C53.0397 7.88371 53.3448 6.66717 54.3113 6.66717C55.0051 6.66717 55.5535 7.27532 55.5725 9.54618Z" fill="#4D5C65"/>
<path fill-rule="evenodd" clip-rule="evenodd" d="M59.2649 15.4978L58.0012 12.8724C57.084 13.3506 56.1904 13.6514 55.3617 13.6514C54.3072 13.6514 53.1667 13.1946 53.0314 11.6788H59.023V10.0269C59.023 6.3568 57.3274 4.23828 54.4175 4.23828C51.6232 4.23828 49.8126 6.3568 49.8126 10.0272V10.6605C49.8126 14.3309 51.5699 16.2884 54.7069 16.4496C56.219 16.5277 57.6267 16.3279 59.2649 15.4978ZM55.5731 9.54544H53.0402C53.0402 7.88297 53.3454 6.66643 54.3119 6.66643C55.0057 6.66643 55.5541 7.27458 55.5731 9.54544ZM45.8151 9.54939V7.4647C45.8151 7.4647 46.3183 7.14569 47.2578 7.14569C47.8677 7.14569 48.5331 7.4926 49.0326 8.08198C49.2943 6.78248 49.7938 5.71877 50.4985 4.92964C50.019 4.47631 49.4368 4.23828 48.7664 4.23828C47.4973 4.23828 46.6383 4.91729 45.8183 6.33705L44.6383 4.30322H41.9469V16.297H45.8151V9.54939ZM50.3716 30.4445C50.3716 32.9133 50.0516 33.5909 49.2049 33.5909C48.3593 33.5909 48.0388 32.9133 48.0388 30.4447V29.702C48.0388 27.2333 48.3593 26.5563 49.2049 26.5563C50.0516 26.5563 50.3716 27.2333 50.3716 29.702V30.4447V30.4445ZM49.2049 23.9348C46.0938 23.9348 44.2963 26.0541 44.2963 29.7242V30.423C44.2963 34.0931 46.0938 36.2124 49.2049 36.2124C52.3165 36.2124 54.1136 34.0931 54.1136 30.4232V29.7242C54.1136 26.0541 52.3165 23.9348 49.2049 23.9348ZM38.6348 33.0452C37.737 33.0452 37.1405 31.777 37.1378 29.9427C37.1402 28.1087 37.737 26.8405 38.6348 26.8405C39.356 26.8405 39.7163 27.1593 39.7163 27.1593V32.7262C39.7163 32.7262 39.356 33.0452 38.6348 33.0452ZM40.896 23.9333L39.716 26.0321C38.8963 24.6124 38.037 23.9333 36.7679 23.9333C34.796 23.9333 33.5662 25.9425 33.5662 29.6561V30.159C33.5662 33.8726 34.8938 35.9047 36.7679 35.9047C38.1151 35.9047 38.9741 35.763 39.716 34.3435V34.857C39.7052 36.1249 39.2481 37.0385 38.1812 37.2541C37.3516 37.422 36.1521 37.1904 35.1951 36.6793L33.7881 39.4743C35.1215 40.3178 36.8674 40.5198 37.5674 40.5198C41.0301 40.5198 43.5874 38.7333 43.5874 34.1343V23.9333H40.896ZM64.9252 22.9943H68.8561V20.2642H64.9252V22.9943ZM49.3309 22.8978C49.8168 22.8971 50.3015 22.9495 50.776 23.0541L51.9227 20.2645H48.2602L47.9973 23.0272C48.4364 22.9401 48.883 22.8968 49.3306 22.8978" fill="#4D5C65"/>
<path fill-rule="evenodd" clip-rule="evenodd" d="M23.7202 21.6605C23.7202 20.6662 24.3943 20.2168 25.1861 20.2168C25.7316 20.2168 26.0743 20.4452 26.28 20.7027L25.7019 21.2188C25.599 21.1081 25.4476 20.9607 25.1607 20.9607C24.8143 20.9607 24.5454 21.2111 24.5454 21.6277C24.5454 22.0551 24.7516 22.3388 25.1642 22.3388C25.5217 22.3388 25.6577 22.1876 25.6911 22.0733H25.1237V21.4689H26.4276V22.961L25.9711 23.0311L25.82 22.5558C25.7131 22.7805 25.4368 23.0348 24.9212 23.0348C24.2874 23.0348 23.7202 22.5153 23.7202 21.6605ZM27.638 21.6091H28.0691C28.2901 21.6091 28.4666 21.539 28.4666 21.2886C28.4666 21.0272 28.2975 20.9573 28.0691 20.9573H27.638V21.6091ZM29.2627 22.9943H28.4081L28.0471 22.2575H27.638V22.9943H26.8422V20.2647H28.2827C28.9716 20.2647 29.2884 20.7215 29.2884 21.2593C29.2884 21.5909 29.1595 21.9407 28.8207 22.1249L29.2627 22.9943ZM32.6558 22.9943V20.2642H33.5252L34.5345 21.6123V20.2642H35.3158V22.9941H34.5644L33.437 21.4911V22.9941L32.6558 22.9943ZM36.6143 22.2832H36.8536C37.3474 22.2832 37.5869 22.103 37.5869 21.6279C37.5869 21.1563 37.3548 21.0012 36.817 21.0012H36.6143V22.2832ZM35.8 22.9943V20.2642H36.8427C37.6385 20.2642 38.4121 20.5185 38.4121 21.6277C38.4121 22.7175 37.5906 22.9941 36.7911 22.9941H35.8V22.9943ZM38.7491 22.9943V20.2642H40.7936V21.0012H39.5634V21.2995H40.7936V21.9402H39.5634V22.2869H40.7936V22.9941L38.7491 22.9943ZM41.08 22.6336L41.4701 22.0773C41.7429 22.2649 42.122 22.3644 42.4239 22.3644C42.8111 22.3644 42.9034 22.276 42.9034 22.1657C42.9034 22.0511 42.7926 22.0106 42.3911 21.9775C41.8054 21.9296 41.2345 21.7788 41.2345 21.1121C41.2345 20.4526 41.7758 20.2203 42.3948 20.2203C43.0429 20.2203 43.397 20.3862 43.5884 20.541L43.1834 21.1267C43.0284 21.0235 42.6783 20.9311 42.4057 20.9311C42.137 20.9311 42.0486 20.9756 42.0486 21.0825C42.0486 21.2148 42.1625 21.2479 42.5679 21.2812C43.1792 21.3331 43.7136 21.4509 43.7136 22.1286C43.7136 22.6812 43.242 23.0385 42.4501 23.0385C41.7281 23.0385 41.3671 22.8615 41.0797 22.6336H41.08ZM30.5615 22.0032L30.8711 21.2077L31.1805 22.0032H30.5615ZM30.4913 20.2647L29.4012 22.9943H30.1782L30.3037 22.6738H31.4419L31.5671 22.9943H32.3963L31.2982 20.2647H30.4913Z" fill="#4D5C65"/>
<path fill-rule="evenodd" clip-rule="evenodd" d="M27.6375 21.6094H28.0686C28.2896 21.6094 28.4661 21.5392 28.4661 21.2889C28.4661 21.0274 28.297 20.9575 28.0686 20.9575H27.6375V21.6094ZM29.2622 22.9946H28.4076L28.0466 22.2578H27.6375V22.9946H26.8417V20.2649H28.2822C28.971 20.2649 29.2878 20.7217 29.2878 21.2595C29.2878 21.5911 29.1589 21.941 28.8202 22.1252L29.2622 22.9946ZM15.4538 1.99035H15.9031C16.1241 1.99035 16.3229 1.88665 16.3229 1.62912C16.3229 1.35628 16.131 1.26097 15.9031 1.26097H15.4538V1.9901V1.99035ZM14.658 3.29801V0.568129H16.1019C16.7538 0.568129 17.1444 0.995289 17.1444 1.58492C17.1444 2.1706 16.7617 2.6422 16.054 2.6422H15.454V3.29801H14.6582H14.658ZM17.4817 3.29776V0.568129H19.5261V1.30492H18.296V1.60344H19.5266V2.24418H18.296V2.59035H19.5266V3.29751L17.4817 3.29776ZM23.1592 2.21455V0.568129H23.977V2.10047C23.977 2.47233 24.1426 2.6348 24.5073 2.6348C24.8646 2.6348 25.0343 2.49109 25.0343 2.10047V0.568129H25.8264V2.21455C25.8264 2.72665 25.5241 3.35282 24.4965 3.35282C23.4649 3.35282 23.1592 2.72665 23.1592 2.21455ZM26.2849 3.29776V0.568129H28.3293V1.30492H27.0989V1.60344H28.3293V2.24418H27.0989V2.59035H28.3293V3.29751L26.2849 3.29776ZM28.8659 3.29776V0.568129H29.7352L30.7446 1.91628V0.568129H31.5256V3.29776H30.7743L29.6468 1.7948V3.29776H28.8659ZM33.572 2.30689L33.2624 1.51134L32.9528 2.30689H33.572ZM32.6952 2.97751L32.5696 3.29801H31.7925L32.8903 0.54961H33.6824L34.7876 3.29776H33.9587L33.8333 2.97751H32.695H32.6952ZM34.797 2.93677L35.1871 2.38047C35.4599 2.56862 35.8397 2.66763 36.1417 2.66763C36.5283 2.66763 36.6207 2.57949 36.6207 2.46887C36.6207 2.3548 36.5101 2.3143 36.1081 2.28097C35.5229 2.23307 34.9515 2.0822 34.9515 1.41554C34.9515 0.755783 35.493 0.523684 36.112 0.523684C36.7607 0.523684 37.114 0.68961 37.3056 0.844178L36.9004 1.4301C36.7456 1.32714 36.396 1.2348 36.1231 1.2348C35.8545 1.2348 35.7659 1.27899 35.7659 1.38591C35.7659 1.5185 35.8802 1.55134 36.2851 1.58467C36.8967 1.63652 37.4308 1.7543 37.4308 2.43183C37.4308 2.98467 36.9594 3.34196 36.1673 3.34196C35.4454 3.34196 35.0844 3.16517 34.797 2.93677ZM20.7291 1.93677C20.7291 1.52344 20.9757 1.2022 21.3834 1.2022C21.7878 1.2022 22.0343 1.52344 22.0343 1.93677C22.0343 2.11159 21.9888 2.26714 21.9083 2.39159L21.7836 2.14714L21.1461 2.36393L21.2947 2.66566C20.9417 2.62171 20.7291 2.32196 20.7291 1.93677ZM22.4214 3.21652C22.3325 3.20665 22.3152 3.18196 22.2733 3.10418C22.2715 3.10118 22.2699 3.09813 22.2683 3.09504C22.6155 2.86443 22.8592 2.47949 22.8592 1.93825C22.8592 0.0518326 19.9036 0.0518326 19.9036 1.93825C19.9036 2.98517 20.8143 3.4501 21.6246 3.33455L21.6426 3.37159C21.6814 3.44665 21.7333 3.53035 21.7333 3.53035C21.8138 3.65554 21.9382 3.7501 22.1291 3.77233C22.197 3.78023 22.5217 3.81677 22.8328 3.61331L22.6113 3.15973C22.5128 3.22047 22.4508 3.21973 22.4212 3.21652" fill="#4D5C65"/>
</g>
</g>
<defs>
<clipPath id="clip0">
<rect width="88.8889" height="40" fill="white" transform="translate(0 0.523438)"/>
</clipPath>
</defs>
</svg>
