<svg width="101" height="34" viewBox="0 0 101 34" fill="none" xmlns="http://www.w3.org/2000/svg">
<g clip-path="url(#clip0)">
<path d="M46.7604 12.311C46.7604 12.0462 46.5409 11.8106 46.2775 11.8254C44.9901 11.9137 43.9513 12.3846 43.1906 13.2087C42.3273 14.1506 41.9031 15.4457 41.9031 17.1087V21.818C41.9031 22.0829 42.1226 22.3036 42.3859 22.3036H42.7662C43.0296 22.3036 43.2491 22.0829 43.2491 21.818V17.1087C43.2491 15.8283 43.5563 14.857 44.1562 14.1801C44.6682 13.6061 45.3705 13.2823 46.2775 13.1941C46.5555 13.1646 46.7604 12.9879 46.7604 12.6937V12.311Z" fill="#AE91FF"/>
<path d="M52.2468 21.0677C50.9593 21.0677 49.9937 20.7292 49.3207 20.067C48.7794 19.5225 48.4576 18.7719 48.3551 17.8301H56.7676C57.0309 17.8301 57.1772 17.7711 57.3089 17.6534C57.5138 17.4621 57.5138 17.1089 57.5138 17.1089C57.5138 15.446 57.0455 14.1803 56.1238 13.2384C55.2022 12.2966 53.9 11.8403 52.2322 11.8403C50.5497 11.8403 49.2915 12.3112 48.3405 13.2384C46.8336 14.7395 46.9505 17.1531 46.9505 17.1678C46.9505 18.8455 47.4188 20.1112 48.3259 21.053C49.8182 22.5836 52.2029 22.4364 52.2029 22.4364C53.8708 22.4364 55.1728 21.9654 56.0946 21.0382C56.592 20.5379 56.8554 20.1995 57.0894 19.4783C57.2504 18.9633 56.7529 19.0073 56.7529 19.0073H56.1238C55.8458 19.0073 55.7435 19.1987 55.5971 19.4783C54.9095 20.7292 53.5342 21.0677 52.2468 21.0677ZM48.3551 16.4614C48.4576 15.387 48.8379 14.5335 49.4962 13.9743C50.1546 13.4151 51.0764 13.1354 52.2322 13.1354C53.4026 13.1354 54.3097 13.4151 54.9681 13.9743C55.6264 14.5335 56.0067 15.387 56.1238 16.4614H48.3551Z" fill="#AE91FF"/>
<path d="M68.7643 7.80762H68.3839C68.1207 7.80762 67.9012 8.02837 67.9012 8.29327V13.5619C67.4769 12.9879 66.8478 12.5022 66.1894 12.252C65.531 12.0019 64.8288 11.8694 63.9802 11.8694C62.327 11.8694 61.0395 12.3404 60.1178 13.2675C59.1961 14.1946 58.7279 15.4603 58.7279 17.138C58.7279 18.801 59.1961 20.1255 60.1178 21.0527C61.0395 21.9799 62.327 22.4507 63.9802 22.4507C65.648 22.4507 66.9356 21.9799 67.8719 21.0527C68.7937 20.1255 69.2618 18.801 69.2618 17.1822V8.35214C69.2472 8.02837 69.0277 7.80762 68.7643 7.80762ZM66.9063 20.0813C66.2333 20.7583 65.2676 21.0968 63.9802 21.0968C62.7074 21.0968 61.7417 20.7583 61.0687 20.0813C60.3958 19.4044 60.0593 18.4036 60.0593 17.1232C60.0593 15.8282 60.3958 14.9011 61.0687 14.2241C61.7417 13.5471 62.7074 13.2234 63.9802 13.2234C65.2676 13.2234 66.2333 13.5619 66.9063 14.2241C67.5793 14.9011 67.9012 15.8282 67.9012 17.1232C67.9012 18.4036 67.5646 19.4044 66.9063 20.0813Z" fill="#AE91FF"/>
<path d="M31.9108 17.1384C31.9108 18.8013 32.3643 20.0964 33.286 21.0236C34.2077 21.9507 35.4951 22.4216 37.1631 22.4216C38.6992 22.4216 39.6941 21.9949 40.1915 21.6564C40.5866 21.4209 40.5427 21.1412 40.5427 20.8322V20.5967C40.5427 19.964 40.0306 20.2289 39.738 20.376C39.1235 20.6998 38.4944 21.0677 37.1631 21.0677C35.8756 21.0677 34.91 20.7292 34.2516 20.0523C33.5786 19.3753 33.2568 18.404 33.2568 17.1236C33.2568 15.8433 33.5932 14.872 34.2516 14.195C34.91 13.5181 35.8902 13.1796 37.1631 13.1796C38.0555 13.1796 38.7577 13.3414 39.3869 13.6799C39.6648 13.8124 40.1915 14.0773 40.1915 13.4886V13.2089C40.1915 12.8999 40.2354 12.6497 39.8404 12.429C39.0211 12.0169 38.3188 11.8403 37.1777 11.8403C35.5098 11.8403 34.2224 12.3112 33.3006 13.2384C32.3789 14.1656 31.9108 15.4753 31.9108 17.1384Z" fill="#AE91FF"/>
<path d="M80.4249 21.5535C80.4249 21.2591 80.2055 21.0826 79.9421 21.0531C79.035 20.9648 78.3328 20.6411 77.8207 20.0671C77.2209 19.3902 76.9137 18.4188 76.9137 17.1385V13.2974H79.1374C79.4008 13.2974 79.6202 13.0766 79.6202 12.8118V12.4291C79.6202 12.1642 79.4008 11.9435 79.1374 11.9435H76.9137V8.72052C76.9137 8.45562 76.6942 8.23486 76.4308 8.23486H76.0504C75.7871 8.23486 75.5677 8.45562 75.5677 8.72052V11.9435H74.6167C74.3534 11.9435 74.1339 12.1642 74.1339 12.4291V12.8118C74.1339 13.0766 74.3534 13.2974 74.6167 13.2974H75.5677V17.1385C75.5677 18.8015 75.9919 20.0965 76.8551 21.0384C77.6159 21.8626 78.64 22.3335 79.9421 22.4218C80.2201 22.4365 80.4249 22.201 80.4249 21.9361V21.5535Z" fill="#AE91FF"/>
<path d="M72.1294 7.80762H71.749C71.4857 7.80762 71.2663 8.02837 71.2663 8.29327V9.52947C71.2663 9.79438 71.4857 10.0151 71.749 10.0151H72.1294C72.3928 10.0151 72.6123 9.79438 72.6123 9.52947V8.29327C72.6123 8.02837 72.3928 7.80762 72.1294 7.80762Z" fill="#AE91FF"/>
<path d="M72.1294 11.9429H71.749C71.4857 11.9429 71.2663 12.1636 71.2663 12.4285V21.8031C71.2663 22.0679 71.4857 22.2887 71.749 22.2887H72.1294C72.3928 22.2887 72.6123 22.0679 72.6123 21.8031V12.4285C72.6123 12.1636 72.3928 11.9429 72.1294 11.9429Z" fill="#AE91FF"/>
<path d="M88.7934 14.886V15.9897H85.8673C82.4877 15.9897 80.9662 16.9757 80.9662 19.1686C80.9662 21.1995 82.5463 22.4209 85.2089 22.4209C88.6764 22.4209 90.1394 21.3761 90.1394 18.9331V14.886C90.1394 13.3849 89.1153 12.7079 89.1153 12.7079C88.6033 12.3106 87.9595 12.0604 87.1695 11.9721C86.6866 11.9132 86.277 11.8838 85.7796 11.8838C85.3114 11.8838 84.9017 11.8985 84.4336 11.9574C83.5997 12.0457 82.9121 12.2959 82.3708 12.7079C81.6978 13.2377 81.3612 13.9736 81.3466 14.886C81.3466 14.886 81.3612 15.3128 81.8294 15.3128H82.1951C82.4585 15.3128 82.678 15.1362 82.678 14.8713C82.678 13.8853 83.4973 13.5762 83.4973 13.5762C83.7314 13.4584 84.6238 13.1936 85.765 13.1936C86.9646 13.1936 87.7547 13.4584 87.9888 13.5762C87.9888 13.5762 88.7934 13.8853 88.7934 14.886ZM88.7788 18.8889C88.7788 20.552 87.7547 21.1112 85.1943 21.1112C83.3656 21.1112 82.2976 20.493 82.2976 19.1833C82.2976 17.7411 83.4094 17.1819 85.8967 17.1819H88.7788V18.8889Z" fill="#AE91FF"/>
<path d="M95.9184 17.6527C98.4056 17.6527 99.2981 17.7999 99.2981 19.2421C99.2981 20.552 98.0251 21.1112 96.211 21.1112C94.748 21.1112 93.7824 20.9199 93.2264 20.4489C92.7729 20.0368 92.8022 19.4188 92.8022 19.4188C92.8022 19.1538 92.5827 18.9773 92.3193 18.9773H91.9389C91.4854 18.9773 91.4562 19.404 91.4562 19.404C91.4562 20.9345 92.4656 21.6115 92.4656 21.6115C93.2703 22.1561 94.4846 22.4062 96.1818 22.4062C98.8444 22.4062 100.615 21.2436 100.615 19.2128C100.615 17.0052 99.2834 16.3282 95.9038 16.3282C94.4554 16.3282 93.7678 15.9603 93.7678 15.9603C92.9192 15.5924 92.9631 14.7977 92.9631 14.7977C92.9631 13.8706 93.7678 13.5321 93.7678 13.5321C94.0019 13.4143 94.7187 13.1789 95.9038 13.1789C97.0449 13.1789 97.8642 13.4291 98.0984 13.5468C98.0984 13.5468 98.8444 13.8706 98.903 14.6063C98.9176 14.8566 99.1224 15.0185 99.3858 15.0185H99.7662C100.234 15.0185 100.234 14.5916 100.234 14.5916C100.234 13.9883 99.9271 13.223 99.2395 12.7079C98.6981 12.2959 98.0251 12.0604 97.2498 11.9574C96.7962 11.8985 96.3866 11.8838 95.9038 11.8838C95.4064 11.8838 95.0845 11.9132 94.5871 11.9721C93.797 12.0752 93.1094 12.3547 92.6413 12.7079C92.6413 12.7079 91.6171 13.3849 91.6171 14.7977C91.6171 14.7977 91.544 16.0339 92.6413 16.8434C92.6705 16.858 93.5337 17.6527 95.9184 17.6527Z" fill="#AE91FF"/>
<path d="M10.5064 7.49902C5.21021 7.49902 0.923523 11.811 0.923523 17.1385C0.923523 22.4659 5.21021 26.7632 10.5064 26.7632C12.6571 26.7632 14.3103 25.9685 14.3103 25.9685C15.4807 26.4835 16.7682 26.7632 18.1288 26.7632C22.1376 26.7632 25.7366 24.2319 27.1264 20.4498C27.1264 20.4498 27.3752 19.8758 27.0387 19.3901C26.8046 19.0516 26.395 18.8604 25.9414 18.8456H19.6943C18.6555 18.8456 18.2312 20.0524 18.2312 20.0524C17.4997 21.9802 16.0952 23.5256 14.3395 24.4526C11.7207 23.0693 9.92118 20.3026 9.92118 17.1237C9.92118 13.9449 11.7207 11.1782 14.3395 9.79483C16.0952 10.722 17.4997 12.2672 18.2312 14.1951C18.2312 14.1951 18.6555 15.4019 19.6943 15.4019H25.9414C26.4096 15.4019 26.8046 15.1959 27.0387 14.8574C27.3752 14.3717 27.1264 13.7977 27.1264 13.7977C25.7366 10.0303 22.1228 7.49902 18.1288 7.49902C16.7682 7.49902 15.4807 7.77864 14.3103 8.29373C14.3103 8.29373 12.701 7.49902 10.5064 7.49902ZM18.1288 8.85297C21.4792 8.85297 24.5222 10.928 25.7658 14.0479H20.0454C19.5919 14.0479 19.3577 13.4152 19.3577 13.4152C18.6263 11.6638 17.412 10.1922 15.8903 9.16201C16.5927 8.97069 17.3388 8.85297 18.1288 8.85297ZM10.5064 25.4093C5.971 25.4093 2.26951 21.7007 2.26951 17.1385C2.26951 12.5763 5.95637 8.86767 10.5064 8.86767C11.2672 8.86767 12.028 8.97069 12.7448 9.17673C10.2138 10.8986 8.54594 13.8272 8.54594 17.1385C8.54594 20.4498 10.2138 23.3636 12.7448 25.1002C12.028 25.2915 11.2672 25.4093 10.5064 25.4093ZM18.1288 25.4093C17.3534 25.4093 16.6073 25.2915 15.8903 25.1002C17.3973 24.0701 18.6263 22.5984 19.3577 20.8471C19.3577 20.8471 19.5919 20.2143 20.0454 20.2143H25.7658C24.5222 23.3342 21.4792 25.4093 18.1288 25.4093Z" fill="#AE91FF"/>
</g>
<defs>
<clipPath id="clip0">
<rect width="99.7204" height="32.8624" fill="white" transform="translate(0.923523 0.699707)"/>
</clipPath>
</defs>
</svg>
