<svg width="93" height="34" viewBox="0 0 93 34" fill="none" xmlns="http://www.w3.org/2000/svg">
<g clip-path="url(#clip0)">
<path d="M7.97662 22.7226L3.60334 17.9435V23.1167H0.755615V14.3961C0.755615 14.1006 0.85732 13.9034 1.00988 13.7063C1.16243 13.5585 1.41669 13.46 1.72181 13.46H2.28118C2.53544 13.46 2.73885 13.5093 2.94226 13.5585C3.14566 13.6571 3.29823 13.7556 3.45077 13.9034L7.82406 18.6825V13.5585H10.6718V22.2792C10.6718 22.5747 10.5701 22.7718 10.4175 22.9689C10.265 23.1168 10.0107 23.2152 9.70559 23.2152H9.14622C8.89196 23.2152 8.68854 23.166 8.48514 23.1167C8.28173 22.9689 8.12917 22.8704 7.97662 22.7226Z" fill="#AE91FF"/>
<path d="M17.2825 20.9491C18.0452 20.9491 18.6556 20.7028 19.1132 20.1609C19.5709 19.6682 19.8251 19.0277 19.8251 18.2886C19.8251 17.5989 19.5709 17.0077 19.1132 16.4657C18.6556 15.973 18.0452 15.6773 17.2825 15.6773C16.5706 15.6773 15.9604 15.9237 15.5027 16.4657C15.045 16.9584 14.7907 17.5989 14.7907 18.3379C14.7907 19.0769 15.045 19.6682 15.5027 20.2101C16.0112 20.7028 16.5706 20.9491 17.2825 20.9491ZM16.6723 23.3634C16.0112 23.3634 15.401 23.2155 14.7907 22.9692C14.2314 22.7228 13.7228 22.378 13.316 21.8853C12.9092 21.4418 12.6041 20.8998 12.3499 20.3087C12.0956 19.7175 11.9939 19.0277 11.9939 18.3379C11.9939 17.6482 12.0956 17.0077 12.3499 16.3671C12.6041 15.7266 12.9092 15.2339 13.316 14.7413C13.7228 14.2979 14.2314 13.953 14.7907 13.6573C15.3502 13.411 16.0112 13.2632 16.6723 13.2632C17.2825 13.2632 17.7911 13.3618 18.2995 13.6081C18.8081 13.8052 19.2149 14.15 19.6217 14.5934V13.5588H22.3169V23.117H19.7234V21.9346C19.3675 22.4273 18.9098 22.7721 18.3504 23.0184C17.8927 23.2648 17.2825 23.3634 16.6723 23.3634Z" fill="#AE91FF"/>
<path d="M27.8597 23.1171C26.6901 23.1171 25.8256 22.8215 25.1645 22.2303C24.5035 21.6391 24.1984 20.8015 24.1984 19.7669V10.8984H27.0969V13.5589H29.6904V15.9239H27.0969V19.4712C27.0969 19.8653 27.1986 20.1117 27.4529 20.3581C27.6563 20.5551 28.0123 20.703 28.4191 20.703H29.6396V23.0678H27.8597V23.1171Z" fill="#AE91FF"/>
<path d="M36.047 23.363C34.5215 23.363 33.301 22.9689 32.4874 22.1314C31.6229 21.2937 31.2161 20.2098 31.2161 18.8303V13.5586H34.2163V18.9782C34.2163 19.5694 34.3688 20.0621 34.674 20.4069C34.979 20.8011 35.4367 20.9489 36.0978 20.9489C36.7589 20.9489 37.2166 20.7518 37.5217 20.4069C37.8268 20.0128 37.9794 19.5694 37.9794 18.9782V13.5586H40.9796V18.8303C40.9796 20.2098 40.5728 21.343 39.7084 22.1807C38.8439 23.0182 37.5726 23.363 36.047 23.363Z" fill="#AE91FF"/>
<path d="M46.2172 13.5586H47.997V15.9234H46.7766C46.3698 15.9234 46.0138 16.022 45.8104 16.2684C45.607 16.4654 45.4544 16.761 45.4544 17.1552V23.1167H42.5559V16.9582C42.5559 15.9234 42.861 15.0859 43.5221 14.4946C44.1832 13.8541 45.0984 13.5586 46.2172 13.5586Z" fill="#AE91FF"/>
<path d="M53.947 20.9491C54.7098 20.9491 55.32 20.7028 55.7777 20.1609C56.2354 19.6682 56.4896 19.0277 56.4896 18.2886C56.4896 17.5989 56.2354 17.0077 55.7777 16.4657C55.32 15.973 54.7098 15.6773 53.947 15.6773C53.235 15.6773 52.6248 15.9237 52.1672 16.4657C51.7095 16.9584 51.4552 17.5989 51.4552 18.3379C51.4552 19.0769 51.7095 19.6682 52.1672 20.2101C52.6248 20.7028 53.235 20.9491 53.947 20.9491ZM53.2859 23.3634C52.6248 23.3634 52.0146 23.2155 51.4044 22.9692C50.845 22.7228 50.3364 22.378 49.9296 21.8853C49.5228 21.4418 49.2178 20.8998 48.9635 20.3087C48.7092 19.7175 48.6075 19.0277 48.6075 18.3379C48.6075 17.6482 48.7092 17.0077 48.9635 16.3671C49.2178 15.7266 49.5228 15.2339 49.9296 14.7413C50.3364 14.2979 50.845 13.953 51.4044 13.6573C51.9638 13.411 52.6248 13.2632 53.2859 13.2632C53.8961 13.2632 54.4047 13.3618 54.9132 13.6081C55.4217 13.8052 55.8285 14.15 56.2354 14.5934V13.5588H58.9305V23.117H56.337V21.9346C55.9811 22.4273 55.5234 22.7721 54.964 23.0184C54.5063 23.2648 53.947 23.3634 53.2859 23.3634Z" fill="#AE91FF"/>
<path d="M66.4566 16.7616L66.6092 16.9094C66.8634 16.7616 67.0668 16.6137 67.2194 16.4166C67.372 16.2196 67.4737 16.0225 67.4737 15.8255C67.4737 15.6777 67.4228 15.5298 67.2703 15.3821C67.1685 15.2343 66.9651 15.185 66.7617 15.185C66.5583 15.185 66.4058 15.2343 66.2532 15.3821C66.1006 15.5298 66.0498 15.6777 66.0498 15.9239C66.0498 16.0718 66.1006 16.2196 66.1515 16.3675C66.1515 16.4166 66.2532 16.5645 66.4566 16.7616ZM64.8802 20.506C64.8802 20.703 64.9819 20.8509 65.1345 21.048C65.3379 21.1958 65.5922 21.2943 65.8972 21.2943C66.1515 21.2943 66.4058 21.245 66.7109 21.1958C66.9651 21.0973 67.2703 20.9987 67.5245 20.8509L65.999 19.3235L65.5922 19.5207C65.3379 19.6684 65.1345 19.8162 65.0327 20.0133C64.9311 20.1612 64.8802 20.3582 64.8802 20.506ZM65.7956 23.3144C65.2361 23.3144 64.7277 23.2651 64.3209 23.1173C63.914 22.9694 63.5072 22.7724 63.2529 22.526C62.9478 22.2796 62.7444 22.0334 62.5918 21.6885C62.4393 21.3928 62.3884 21.048 62.3884 20.703C62.3884 20.2596 62.4902 19.8162 62.7444 19.3728C62.9986 18.9294 63.4563 18.5353 64.1683 18.1903L64.6768 17.9441C64.3208 17.5498 64.0666 17.1557 63.8632 16.7616C63.7106 16.3675 63.6089 16.0225 63.6089 15.6777C63.6089 14.9386 63.914 14.2982 64.5243 13.8054C65.1345 13.3127 65.8972 13.0171 66.7617 13.0171C67.2194 13.0171 67.6771 13.0664 68.0331 13.2142C68.389 13.362 68.6942 13.5591 68.9483 13.8054C69.2026 14.0518 69.406 14.2982 69.5078 14.643C69.6603 14.9386 69.7112 15.2343 69.7112 15.5791C69.7112 16.1211 69.5586 16.6137 69.2026 17.0571C68.8976 17.5007 68.4399 17.8948 67.8805 18.2396L69.0501 19.4714C69.2026 19.2743 69.3551 19.0773 69.5078 18.8801C69.6603 18.683 69.762 18.4367 69.8637 18.2396H72.2537C72.0503 18.7816 71.7453 19.2743 71.4401 19.7177C71.135 20.1612 70.8299 20.6046 70.4739 20.9494L72.4571 23.0187H69.762L68.9992 22.2305C68.4907 22.5753 67.9822 22.8216 67.4228 22.9694C66.8635 23.2158 66.3549 23.3144 65.7956 23.3144Z" fill="#AE91FF"/>
<path d="M78.6102 23.3634C77.7966 23.3634 76.983 23.2155 76.3219 22.9692C75.61 22.7228 75.0505 22.3287 74.5421 21.8853C74.0335 21.4418 73.6776 20.8998 73.4233 20.2594C73.169 19.6189 73.0165 18.9784 73.0165 18.2886C73.0165 17.5989 73.169 16.9584 73.4233 16.3179C73.6776 15.7266 74.0844 15.1847 74.5421 14.7413C75.0505 14.2979 75.61 13.953 76.3219 13.6573C77.0339 13.411 77.7966 13.2632 78.6611 13.2632C79.0679 13.2632 79.4747 13.3125 79.8307 13.3618C80.2375 13.4602 80.5426 13.5588 80.7968 13.6573V16.17C80.5934 16.0716 80.39 16.0223 80.0341 15.9237C79.729 15.8252 79.3222 15.7759 78.8645 15.7759C77.9491 15.7759 77.1864 16.0223 76.6778 16.515C76.1693 17.0077 75.8642 17.5989 75.8642 18.2886C75.8642 19.0277 76.1185 19.6189 76.6778 20.1116C77.1864 20.6043 77.9491 20.8507 78.8645 20.8507C79.3222 20.8507 79.6781 20.8014 80.0341 20.7028C80.3392 20.6043 80.5934 20.5057 80.7968 20.4564V22.92C80.5426 23.0184 80.2375 23.117 79.8307 23.2155C79.4239 23.3141 79.017 23.3634 78.6102 23.3634Z" fill="#AE91FF"/>
<path d="M87.1534 20.9491C87.9162 20.9491 88.4755 20.7028 88.9841 20.2101C89.4418 19.7175 89.696 19.0769 89.696 18.3379C89.696 17.5989 89.4418 17.0077 88.9841 16.515C88.5264 16.0223 87.9162 15.7759 87.1534 15.7759C86.4414 15.7759 85.8312 16.0223 85.3735 16.515C84.9158 17.0077 84.6617 17.6482 84.6617 18.3379C84.6617 19.0769 84.9158 19.7175 85.3735 20.2101C85.8821 20.7028 86.4414 20.9491 87.1534 20.9491ZM87.1534 23.3634C86.3906 23.3634 85.6787 23.2155 85.0176 22.9692C84.3565 22.7228 83.7972 22.3287 83.3395 21.8853C82.8818 21.4418 82.4749 20.8998 82.2208 20.3087C81.9665 19.7175 81.8138 19.0277 81.8138 18.2886C81.8138 17.5989 81.9665 16.9584 82.2208 16.3179C82.4749 15.7266 82.8818 15.1847 83.3395 14.7413C83.7972 14.2979 84.3565 13.953 85.0176 13.6573C85.6787 13.411 86.3906 13.2632 87.1534 13.2632C87.9162 13.2632 88.6281 13.411 89.2891 13.6573C89.9502 13.9037 90.5096 14.2979 90.9673 14.7413C91.425 15.1847 91.8318 15.7266 92.0861 16.3179C92.3402 16.9091 92.4929 17.5989 92.4929 18.2886C92.4929 19.0277 92.3402 19.6682 92.0861 20.3087C91.8318 20.9491 91.425 21.4418 90.9673 21.8853C90.5096 22.3287 89.9502 22.6736 89.2891 22.9692C88.6789 23.2648 87.9671 23.3634 87.1534 23.3634Z" fill="#AE91FF"/>
</g>
<defs>
<clipPath id="clip0">
<rect width="91.7881" height="32.8624" fill="white" transform="translate(0.755615 0.699707)"/>
</clipPath>
</defs>
</svg>
