<svg width="24" height="24" viewBox="0 0 24 24" fill="none" xmlns="http://www.w3.org/2000/svg">
<path fill-rule="evenodd" clip-rule="evenodd" d="M2.25 9C2.25 8.0335 3.0335 7.25 4 7.25H20C20.9665 7.25 21.75 8.0335 21.75 9V11C21.75 11.9665 20.9665 12.75 20 12.75H4C3.0335 12.75 2.25 11.9665 2.25 11V9ZM4 8.75C3.86193 8.75 3.75 8.86193 3.75 9V11C3.75 11.1381 3.86193 11.25 4 11.25H20C20.1381 11.25 20.25 11.1381 20.25 11V9C20.25 8.86193 20.1381 8.75 20 8.75H4Z" fill="white"/>
<path fill-rule="evenodd" clip-rule="evenodd" d="M12 7.25C12.4142 7.25 12.75 7.58579 12.75 8V21C12.75 21.4142 12.4142 21.75 12 21.75C11.5858 21.75 11.25 21.4142 11.25 21V8C11.25 7.58579 11.5858 7.25 12 7.25Z" fill="white"/>
<path fill-rule="evenodd" clip-rule="evenodd" d="M5 11.25C5.41421 11.25 5.75 11.5858 5.75 12V19C5.75 19.6904 6.30964 20.25 7 20.25H17C17.6904 20.25 18.25 19.6904 18.25 19V12C18.25 11.5858 18.5858 11.25 19 11.25C19.4142 11.25 19.75 11.5858 19.75 12V19C19.75 20.5188 18.5188 21.75 17 21.75H7C5.48122 21.75 4.25 20.5188 4.25 19V12C4.25 11.5858 4.58579 11.25 5 11.25Z" fill="white"/>
<path fill-rule="evenodd" clip-rule="evenodd" d="M9.65527 4.84484C8.97259 4.08631 8.22697 3.73741 7.51307 3.74984L7.5 3.75007V3.74996C6.5335 3.74996 5.75 4.53346 5.75 5.49996C5.75 6.46646 6.5335 7.24996 7.5 7.24996C7.91421 7.24996 8.25 7.58574 8.25 7.99996C8.25 8.41417 7.91421 8.74996 7.5 8.74996C5.70507 8.74996 4.25 7.29488 4.25 5.49996C4.25 3.70723 5.70152 2.25352 7.49342 2.24996C8.75115 2.23026 9.88303 2.85564 10.7702 3.84139C11.2433 4.36701 11.6572 5.0046 12 5.73033C12.3428 5.0046 12.7567 4.36701 13.2298 3.84139C14.117 2.85564 15.2489 2.23026 16.5066 2.24996C18.2985 2.25352 19.75 3.70723 19.75 5.49996C19.75 7.29488 18.2949 8.74996 16.5 8.74996C16.0858 8.74996 15.75 8.41417 15.75 7.99996C15.75 7.58574 16.0858 7.24996 16.5 7.24996C17.4665 7.24996 18.25 6.46646 18.25 5.49996C18.25 4.53346 17.4665 3.74996 16.5 3.74996H16.4869L16.4869 3.74984C15.773 3.73741 15.0274 4.08631 14.3447 4.84484C13.6606 5.60504 13.0769 6.74259 12.7288 8.17683C12.6472 8.51315 12.3461 8.74996 12 8.74996C11.6539 8.74996 11.3528 8.51315 11.2712 8.17683C10.9231 6.74259 10.3394 5.60504 9.65527 4.84484Z" fill="white"/>
</svg>
