<svg width="21" height="22" viewBox="0 0 21 22" fill="none" xmlns="http://www.w3.org/2000/svg">
<g clip-path="url(#clip0)">
<path d="M15.5129 21.5043C15.2991 21.5043 15.0853 21.4402 14.8929 21.312L12.3274 19.6661C12.135 19.5379 11.6861 19.4524 11.3868 19.4524H11.2157H5.65719C2.92068 19.4524 0.697266 17.2294 0.697266 14.4934V5.13121C0.697266 2.39522 2.92068 0.172241 5.65719 0.172241H14.6364C17.3729 0.172241 19.5963 2.39522 19.5963 5.13121V14.4934C19.5963 16.4171 18.4632 18.1912 16.7101 19.0035L16.475 19.1317C16.475 19.1531 16.475 19.1745 16.475 19.1745V20.4356C16.4536 21.141 15.9832 21.5043 15.5129 21.5043ZM11.3654 18.6401C11.7075 18.6401 12.3488 18.7256 12.7336 18.9821L15.2991 20.628C15.3633 20.6707 15.4274 20.6921 15.4915 20.6921C15.6198 20.6921 15.6412 20.5425 15.6412 20.4356V19.1745C15.6412 19.0035 15.6412 18.6615 15.9832 18.4691L16.3467 18.2767C17.8218 17.6141 18.7839 16.1179 18.7839 14.4934V5.13121C18.7839 2.8441 16.9239 0.984486 14.6364 0.984486H5.65719C3.36964 0.984486 1.50967 2.8441 1.50967 5.13121V14.4934C1.50967 16.7805 3.36964 18.6401 5.65719 18.6401H11.3654Z" fill="white"/>
<path d="M8.80155 12.8249H13.398C13.6973 12.8249 13.9539 12.9318 14.1677 13.1455C14.3815 13.3593 14.4884 13.6158 14.4884 13.9364V13.9577C14.4884 14.257 14.3815 14.5135 14.1677 14.7486C13.9539 14.9624 13.6973 15.0692 13.398 15.0692H7.45467C6.74916 15.0692 6.23607 14.7272 5.95814 14.0646C5.85124 13.8081 5.78711 13.573 5.78711 13.3379C5.78711 12.9318 5.95814 12.547 6.3002 12.205C6.89882 11.5851 7.79674 10.6446 9.01534 9.36215C10.0843 8.25066 10.8967 7.39567 11.4525 6.81855H7.26226C6.96295 6.81855 6.68502 6.71168 6.47123 6.49793C6.25744 6.28418 6.15055 6.02768 6.15055 5.72843V5.70706C6.15055 5.40781 6.25744 5.15131 6.47123 4.93757C6.68502 4.72382 6.94157 4.61694 7.26226 4.61694H12.7567C13.4836 4.61694 13.9966 4.95894 14.2959 5.62156C14.4028 5.87806 14.467 6.11318 14.467 6.34831C14.467 6.75443 14.2959 7.13917 13.9539 7.48117C11.9656 9.49041 10.2553 11.2859 8.80155 12.8249Z" fill="white"/>
</g>
<defs>
<clipPath id="clip0">
<rect width="19.4297" height="21.5886" fill="white" transform="translate(0.634766)"/>
</clipPath>
</defs>
</svg>
