<svg width="145" height="33" viewBox="0 0 145 33" fill="none" xmlns="http://www.w3.org/2000/svg">
<path d="M37.269 15.8238C37.2797 14.9891 37.5014 14.1707 37.9135 13.4448C38.3255 12.7188 38.9145 12.1089 39.6256 11.6717C39.1738 11.0265 38.5779 10.4956 37.885 10.1211C37.1922 9.7465 36.4216 9.53866 35.6344 9.51403C33.9552 9.33777 32.3272 10.5189 31.4715 10.5189C30.5992 10.5189 29.2817 9.53153 27.863 9.56072C26.9453 9.59037 26.051 9.85722 25.2671 10.3353C24.4832 10.8133 23.8365 11.4863 23.3901 12.2886C21.4561 15.637 22.8987 20.5581 24.7513 23.2647C25.6782 24.59 26.7615 26.0705 28.1789 26.018C29.566 25.9604 30.084 25.1335 31.7583 25.1335C33.4171 25.1335 33.9031 26.018 35.3493 25.9846C36.8377 25.9604 37.7754 24.6533 38.6698 23.3154C39.3358 22.3711 39.8483 21.3274 40.1882 20.2229C39.3235 19.8572 38.5856 19.245 38.0665 18.4627C37.5474 17.6804 37.27 16.7626 37.269 15.8238Z" fill="white"/>
<path d="M34.5373 7.73476C35.3489 6.76055 35.7487 5.50837 35.6518 4.24414C34.412 4.37436 33.2668 4.96692 32.4443 5.90375C32.0421 6.36142 31.7341 6.89385 31.5379 7.47062C31.3416 8.04739 31.261 8.65718 31.3006 9.26514C31.9207 9.27153 32.5342 9.13711 33.0949 8.87203C33.6555 8.60694 34.1487 8.21809 34.5373 7.73476Z" fill="white"/>
<path d="M54.8025 22.6631H50.0691L48.9324 26.0196H46.9275L51.4109 13.6016H53.4939L57.9773 26.0196H55.9382L54.8025 22.6631ZM50.5593 21.1143H54.3113L52.4617 15.667H52.41L50.5593 21.1143Z" fill="white"/>
<path d="M67.6599 21.4929C67.6599 24.3064 66.1541 26.114 63.8816 26.114C63.306 26.1441 62.7335 26.0115 62.2297 25.7313C61.7259 25.4512 61.3112 25.0349 61.033 24.53H60.99V29.0144H59.1316V16.9655H60.9305V18.4714H60.9646C61.2556 17.9689 61.6773 17.5547 62.1849 17.2729C62.6926 16.9911 63.2671 16.8521 63.8474 16.8708C66.1453 16.8708 67.6599 18.6872 67.6599 21.4929ZM65.7498 21.4929C65.7498 19.6599 64.8025 18.4548 63.3572 18.4548C61.9373 18.4548 60.9822 19.6853 60.9822 21.4929C60.9822 23.3171 61.9373 24.5388 63.3572 24.5388C64.8025 24.5388 65.7498 23.3425 65.7498 21.4929Z" fill="white"/>
<path d="M77.6248 21.4929C77.6248 24.3064 76.1189 26.114 73.8465 26.114C73.2708 26.1441 72.6983 26.0115 72.1945 25.7313C71.6907 25.4512 71.276 25.0349 70.9978 24.53H70.9548V29.0143H69.0964V16.9655H70.8953V18.4714H70.9294C71.2204 17.9689 71.6421 17.5547 72.1498 17.2729C72.6574 16.991 73.2319 16.8521 73.8123 16.8708C76.1101 16.8708 77.6248 18.6872 77.6248 21.4929ZM75.7146 21.4929C75.7146 19.6599 74.7674 18.4548 73.322 18.4548C71.9021 18.4548 70.947 19.6853 70.947 21.4929C70.947 23.3171 71.9021 24.5388 73.322 24.5388C74.7674 24.5388 75.7146 23.3425 75.7146 21.4929H75.7146Z" fill="white"/>
<path d="M84.2107 22.5596C84.3484 23.7911 85.5447 24.5996 87.1795 24.5996C88.7459 24.5996 89.8728 23.791 89.8728 22.6807C89.8728 21.7168 89.1931 21.1397 87.5838 20.7442L85.9744 20.3565C83.6941 19.8057 82.6355 18.7393 82.6355 17.0088C82.6355 14.8662 84.5027 13.3945 87.1541 13.3945C89.7781 13.3945 91.5769 14.8662 91.6375 17.0088H89.7615C89.6492 15.7695 88.6248 15.0215 87.1277 15.0215C85.6306 15.0215 84.6062 15.7783 84.6062 16.8799C84.6062 17.7578 85.2605 18.2744 86.8611 18.6699L88.2292 19.0058C90.7771 19.6084 91.8357 20.6318 91.8357 22.4482C91.8357 24.7715 89.9851 26.2265 87.0417 26.2265C84.2878 26.2265 82.4285 24.8056 82.3083 22.5595L84.2107 22.5596Z" fill="white"/>
<path d="M95.8464 14.8242V16.9668H97.5681V18.4385H95.8464V23.4297C95.8464 24.2051 96.1912 24.5664 96.948 24.5664C97.1524 24.5628 97.3564 24.5485 97.5593 24.5234V25.9863C97.219 26.0499 96.8732 26.0787 96.5271 26.0722C94.6941 26.0722 93.9792 25.3838 93.9792 23.6279V18.4385H92.6628V16.9668H93.9792V14.8242H95.8464Z" fill="white"/>
<path d="M98.5652 21.4941C98.5652 18.6455 100.243 16.8555 102.859 16.8555C105.484 16.8555 107.154 18.6455 107.154 21.4941C107.154 24.3506 105.493 26.1328 102.859 26.1328C100.226 26.1328 98.5652 24.3506 98.5652 21.4941ZM105.26 21.4941C105.26 19.54 104.365 18.3867 102.859 18.3867C101.353 18.3867 100.459 19.5488 100.459 21.4941C100.459 23.456 101.353 24.6006 102.859 24.6006C104.365 24.6006 105.26 23.456 105.26 21.4941H105.26Z" fill="white"/>
<path d="M108.686 16.9655H110.459V18.5065H110.502C110.622 18.0252 110.904 17.5998 111.3 17.302C111.697 17.0041 112.184 16.8518 112.679 16.8707C112.894 16.87 113.107 16.8932 113.316 16.9401V18.6783C113.046 18.5957 112.764 18.5578 112.481 18.566C112.211 18.5551 111.942 18.6027 111.692 18.7056C111.442 18.8085 111.218 18.9642 111.034 19.1621C110.85 19.36 110.711 19.5953 110.626 19.852C110.542 20.1087 110.514 20.3806 110.545 20.649V26.0192H108.686L108.686 16.9655Z" fill="white"/>
<path d="M121.885 23.3613C121.635 25.0049 120.034 26.1328 117.986 26.1328C115.352 26.1328 113.718 24.3682 113.718 21.5371C113.718 18.6973 115.361 16.8555 117.908 16.8555C120.413 16.8555 121.988 18.5762 121.988 21.3213V21.958H115.594V22.0703C115.564 22.4035 115.606 22.7392 115.716 23.055C115.826 23.3709 116.002 23.6596 116.233 23.9022C116.463 24.1447 116.742 24.3355 117.052 24.4618C117.362 24.5881 117.695 24.6471 118.029 24.6348C118.468 24.6759 118.909 24.5742 119.286 24.3448C119.662 24.1153 119.955 23.7704 120.12 23.3613L121.885 23.3613ZM115.602 20.6592H120.129C120.145 20.3596 120.1 20.0598 119.995 19.7786C119.891 19.4974 119.729 19.2408 119.52 19.025C119.312 18.8093 119.061 18.6389 118.784 18.5247C118.506 18.4105 118.208 18.3549 117.908 18.3613C117.605 18.3595 117.305 18.4177 117.025 18.5324C116.745 18.6472 116.491 18.8162 116.276 19.0299C116.062 19.2435 115.892 19.4975 115.776 19.7771C115.661 20.0568 115.602 20.3566 115.602 20.6592V20.6592Z" fill="white"/>
<path d="M48.1711 10.2226V4.25586H50.5696C51.6907 4.25586 52.3645 4.82617 52.3645 5.74414C52.3648 6.04569 52.2608 6.33807 52.0702 6.57174C51.8796 6.80542 51.6141 6.96603 51.3186 7.02637V7.09668C51.6852 7.11402 52.0306 7.27354 52.2815 7.54139C52.5324 7.80924 52.669 8.16431 52.6623 8.53125C52.6623 9.58154 51.8977 10.2227 50.6233 10.2227L48.1711 10.2226ZM49.0979 6.78218H50.1975C51.0168 6.78218 51.4426 6.48042 51.4426 5.91402C51.4426 5.36373 51.0413 5.04146 50.3547 5.04146H49.0979V6.78218ZM50.4377 9.43697C51.2727 9.43697 51.7151 9.09761 51.7151 8.46529C51.7151 7.84078 51.2561 7.51412 50.384 7.51412H49.0979V9.43697H50.4377Z" fill="white"/>
<path d="M53.6145 8.94921C53.6145 8.13866 54.218 7.67138 55.2893 7.60497L56.509 7.53466V7.14599C56.509 6.6704 56.1946 6.40185 55.5872 6.40185C55.0911 6.40185 54.7473 6.58398 54.6487 6.90234H53.7883C53.8792 6.1289 54.6067 5.63281 55.6282 5.63281C56.7571 5.63281 57.3938 6.19481 57.3938 7.14599V10.2227H56.5383V9.58984H56.468C56.3253 9.81683 56.1249 10.0019 55.8873 10.1261C55.6497 10.2503 55.3833 10.3092 55.1155 10.2968C54.9264 10.3165 54.7354 10.2963 54.5546 10.2376C54.3739 10.1789 54.2074 10.083 54.066 9.95605C53.9246 9.82908 53.8113 9.67388 53.7336 9.50047C53.6558 9.32705 53.6152 9.13926 53.6145 8.94921ZM56.509 8.56444V8.18798L55.4094 8.25829C54.7893 8.29979 54.5081 8.51073 54.5081 8.9077C54.5081 9.31297 54.8596 9.54881 55.3431 9.54881C55.4847 9.56315 55.6278 9.54885 55.7638 9.50676C55.8998 9.46467 56.0259 9.39565 56.1347 9.30381C56.2435 9.21197 56.3327 9.09918 56.397 8.97216C56.4613 8.84514 56.4994 8.70649 56.509 8.56444Z" fill="white"/>
<path d="M58.6692 4.38728C58.6624 4.27218 58.6902 4.15768 58.7492 4.0586C58.8082 3.95952 58.8956 3.88043 59 3.83157C59.1044 3.78272 59.2212 3.76635 59.335 3.78459C59.4489 3.80283 59.5546 3.85484 59.6386 3.93387C59.7225 4.01291 59.7808 4.11533 59.8059 4.22788C59.831 4.34042 59.8217 4.4579 59.7792 4.5651C59.7367 4.6723 59.663 4.76428 59.5677 4.82912C59.4724 4.89396 59.3597 4.92868 59.2444 4.92878C59.1707 4.93254 59.097 4.92136 59.0278 4.89591C58.9585 4.87045 58.8951 4.83126 58.8414 4.78068C58.7876 4.7301 58.7447 4.66917 58.7151 4.60157C58.6855 4.53396 58.6699 4.46107 58.6692 4.38728ZM58.8011 5.71882H59.6868V10.2218H58.801L58.8011 5.71882Z" fill="white"/>
<path d="M62.7366 8.62549L61.7522 10.2217H60.7766L62.2698 7.98047L60.7639 5.71875H61.802L62.7698 7.30664H62.8401L63.7991 5.71875H64.7874L63.303 7.94336L64.804 10.2217H63.7834L62.803 8.62549H62.7366Z" fill="white"/>
<path d="M65.5881 8.94921C65.5881 8.13866 66.1917 7.67138 67.2629 7.60497L68.4827 7.53466V7.14599C68.4827 6.6704 68.1682 6.40185 67.5608 6.40185C67.0647 6.40185 66.721 6.58398 66.6223 6.90234H65.762C65.8528 6.1289 66.5803 5.63281 67.6018 5.63281C68.7307 5.63281 69.3674 6.19481 69.3674 7.14599V10.2227H68.512V9.58984H68.4417C68.2989 9.81683 68.0985 10.0019 67.8609 10.1261C67.6233 10.2503 67.357 10.3092 67.0891 10.2968C66.9001 10.3165 66.709 10.2963 66.5283 10.2376C66.3475 10.1789 66.181 10.083 66.0396 9.95605C65.8982 9.82908 65.785 9.67388 65.7072 9.50047C65.6294 9.32705 65.5889 9.13926 65.5881 8.94921ZM68.4827 8.56444V8.18798L67.3831 8.25829C66.7629 8.29979 66.4817 8.51073 66.4817 8.9077C66.4817 9.31297 66.8332 9.54881 67.3167 9.54881C67.4583 9.56315 67.6014 9.54885 67.7374 9.50676C67.8734 9.46467 67.9996 9.39565 68.1084 9.30381C68.2171 9.21197 68.3063 9.09918 68.3706 8.97216C68.4349 8.84514 68.473 8.70649 68.4827 8.56444Z" fill="white"/>
<path d="M70.759 5.7181H71.6145V6.40853H71.6809C71.7767 6.16885 71.9459 5.96569 72.1644 5.82822C72.3828 5.69075 72.6392 5.62604 72.8967 5.64339C73.0298 5.6416 73.1628 5.65404 73.2932 5.6805V6.5575C73.1301 6.52265 72.9639 6.50465 72.7971 6.50379C72.6506 6.49062 72.5028 6.50827 72.3635 6.55559C72.2242 6.60291 72.0962 6.67886 71.988 6.77855C71.8798 6.87825 71.7936 6.99948 71.735 7.13447C71.6764 7.26946 71.6466 7.41522 71.6477 7.56238V10.2211H70.759L70.759 5.7181Z" fill="white"/>
<path d="M76.718 5.71831H77.574V6.43364H77.6404C77.7531 6.17671 77.9431 5.96134 78.184 5.81754C78.4248 5.67373 78.7046 5.60866 78.9842 5.63139C79.2033 5.61491 79.4233 5.64795 79.6279 5.72804C79.8325 5.80814 80.0164 5.93324 80.1661 6.09409C80.3158 6.25493 80.4274 6.44739 80.4926 6.65721C80.5578 6.86703 80.5749 7.08883 80.5428 7.30619V10.2212H79.6541V7.52935C79.6541 6.80572 79.3396 6.44585 78.6824 6.44585C78.5337 6.43892 78.3852 6.46424 78.2471 6.52007C78.1091 6.5759 77.9847 6.66092 77.8826 6.7693C77.7805 6.87769 77.703 7.00687 77.6554 7.148C77.6079 7.28913 77.5915 7.43887 77.6072 7.58696V10.2212H76.7181L76.718 5.71831Z" fill="white"/>
<path d="M81.6609 8.94921C81.6609 8.13866 82.2644 7.67138 83.3357 7.60497L84.5554 7.53466V7.14599C84.5554 6.6704 84.241 6.40185 83.6336 6.40185C83.1375 6.40185 82.7937 6.58398 82.6951 6.90234H81.8347C81.9255 6.1289 82.6531 5.63281 83.6746 5.63281C84.8035 5.63281 85.4402 6.19481 85.4402 7.14599V10.2227H84.5847V9.58984H84.5144C84.3717 9.81683 84.1713 10.0019 83.9337 10.1261C83.696 10.2503 83.4297 10.3092 83.1619 10.2968C82.9728 10.3165 82.7818 10.2963 82.601 10.2376C82.4203 10.1789 82.2538 10.083 82.1124 9.95605C81.971 9.82908 81.8577 9.67388 81.78 9.50047C81.7022 9.32705 81.6616 9.13926 81.6609 8.94921ZM84.5554 8.56444V8.18798L83.4558 8.25829C82.8357 8.29979 82.5544 8.51073 82.5544 8.9077C82.5544 9.31297 82.906 9.54881 83.3894 9.54881C83.5311 9.56315 83.6742 9.54885 83.8102 9.50676C83.9462 9.46467 84.0723 9.39565 84.1811 9.30381C84.2899 9.21197 84.3791 9.09918 84.4434 8.97217C84.5077 8.84515 84.5458 8.70649 84.5554 8.56444H84.5554Z" fill="white"/>
</svg>
