<svg width="24" height="24" viewBox="0 0 24 24" fill="none" xmlns="http://www.w3.org/2000/svg">
<path fill-rule="evenodd" clip-rule="evenodd" d="M11.398 7.45336C10.4438 6.16953 8.84962 5.5302 7.27277 5.799C5.69593 6.06781 4.40357 7.19923 3.92863 8.72669C3.4537 10.2541 3.87663 11.9189 5.02303 13.0345L5.02776 13.0391L5.02774 13.0391L12 19.9444L18.9722 13.0391C18.9906 13.0208 19.0098 13.0038 19.0295 12.9878C20.1252 11.8716 20.5206 10.241 20.0531 8.7439C19.5778 7.22201 18.2907 6.09417 16.7195 5.82285C15.1484 5.55152 13.5576 6.18237 12.5994 7.4567C12.4573 7.64571 12.2344 7.75663 11.9979 7.75597C11.7614 7.75531 11.5391 7.64316 11.398 7.45336ZM19.9676 14.1644L12.5277 21.5329C12.2354 21.8223 11.7645 21.8223 11.4722 21.5329L3.97692 14.1095C3.97611 14.1087 3.97529 14.1079 3.97447 14.1071C2.42531 12.5978 1.85405 10.3468 2.49628 8.28132C3.13884 6.21476 4.88733 4.68402 7.0207 4.32034C8.8516 4.00822 10.6998 4.60105 12.0031 5.87338C13.3086 4.61303 15.1515 4.02986 16.9748 4.34473C19.1004 4.71181 20.8418 6.23772 21.4849 8.29674C22.1279 10.3558 21.5644 12.6015 20.0255 14.113C20.0069 14.1313 19.9876 14.1485 19.9676 14.1644Z" fill="#212529"/>
</svg>
