<svg width="57" height="56" viewBox="0 0 57 56" fill="none" xmlns="http://www.w3.org/2000/svg">
<path d="M20.25 52V45.5L14.9008 46.6887C13.0273 47.1051 11.25 45.6794 11.25 43.7602V36H7.77681C6.63822 36 5.91475 34.7813 6.45997 33.7817L10.6395 26.1193C11.0401 25.3848 11.25 24.5616 11.25 23.725C11.25 23.1 11.25 22.4887 11.25 22C11.25 11.9693 19.057 4 29.0877 4C39.1184 4 47.2498 12.1315 47.2498 22.1622C47.2498 26.1833 45.8488 29.8976 43.592 32.9059C42.2532 34.6906 41.25 36.7686 41.25 38.9996V49.5" stroke="white" stroke-width="2" stroke-linecap="round" stroke-linejoin="round"/>
<path d="M35.65 13.6L34.95 14.3M20.25 20H21.25H20.25ZM29.25 11V12V11ZM37.25 20H38.25H37.25ZM22.85 13.6L23.55 14.3L22.85 13.6Z" stroke="white" stroke-width="2" stroke-linecap="round" stroke-linejoin="round"/>
<path d="M26.25 24C25.4105 23.3704 24.7903 22.4925 24.4774 21.4908C24.1645 20.4892 24.1747 19.4144 24.5066 18.4189C24.8384 17.4233 25.4751 16.5574 26.3264 15.9438C27.1778 15.3302 28.2006 15 29.25 15C30.2994 15 31.3222 15.3302 32.1736 15.9438C33.0249 16.5574 33.6616 17.4233 33.9934 18.4189C34.3253 19.4144 34.3355 20.4892 34.0226 21.4908C33.7097 22.4925 33.0895 23.3704 32.25 24C31.8596 24.3865 31.5656 24.8594 31.3919 25.3806C31.2181 25.9018 31.1695 26.4566 31.25 27C31.25 27.5304 31.0393 28.0391 30.6642 28.4142C30.2891 28.7893 29.7804 29 29.25 29C28.7196 29 28.2109 28.7893 27.8358 28.4142C27.4607 28.0391 27.25 27.5304 27.25 27C27.3305 26.4566 27.2819 25.9018 27.1081 25.3806C26.9344 24.8594 26.6404 24.3865 26.25 24" stroke="white" stroke-width="2" stroke-linecap="round" stroke-linejoin="round"/>
<path d="M26.9492 25H31.5492" stroke="white" stroke-width="2" stroke-linecap="round" stroke-linejoin="round"/>
</svg>
