<svg width="57" height="56" viewBox="0 0 57 56" fill="none" xmlns="http://www.w3.org/2000/svg">
<path d="M20.25 52V45.5L14.9008 46.6887C13.0273 47.1051 11.25 45.6794 11.25 43.7602V36H7.77681C6.63822 36 5.91475 34.7813 6.45997 33.7817L10.6395 26.1193C11.0401 25.3848 11.25 24.5616 11.25 23.725C11.25 23.1 11.25 22.4887 11.25 22C11.25 11.9693 19.057 4 29.0877 4C39.1184 4 47.2498 12.1315 47.2498 22.1622C47.2498 26.1833 45.8488 29.8976 43.592 32.9059C42.2532 34.6906 41.25 36.7686 41.25 38.9996V49.5" stroke="white" stroke-width="2" stroke-linecap="round" stroke-linejoin="round"/>
<path d="M29.25 29C34.2206 29 38.25 24.9706 38.25 20C38.25 15.0294 34.2206 11 29.25 11C24.2794 11 20.25 15.0294 20.25 20C20.25 24.9706 24.2794 29 29.25 29Z" stroke="white" stroke-width="2" stroke-linecap="round" stroke-linejoin="round"/>
<path d="M26.25 20L28.25 22L32.25 18" stroke="white" stroke-width="2" stroke-linecap="round" stroke-linejoin="round"/>
</svg>
