<svg width="57" height="56" viewBox="0 0 57 56" fill="none" xmlns="http://www.w3.org/2000/svg">
<path d="M20.75 52V45.5L15.4008 46.6887C13.5273 47.1051 11.75 45.6794 11.75 43.7602V36H8.27681C7.13822 36 6.41475 34.7813 6.95997 33.7817L11.1395 26.1193C11.5401 25.3848 11.75 24.5616 11.75 23.725C11.75 23.1 11.75 22.4887 11.75 22C11.75 11.9693 19.557 4 29.5877 4C39.6184 4 47.7498 12.1315 47.7498 22.1622C47.7498 26.1833 46.3488 29.8976 44.092 32.9059C42.7532 34.6906 41.75 36.7686 41.75 38.9996V49.5" stroke="white" stroke-width="2" stroke-linecap="round" stroke-linejoin="round"/>
<g clip-path="url(#clip0)">
<path d="M22.75 15H25.75C26.0152 15 26.2696 14.8946 26.4571 14.7071C26.6446 14.5196 26.75 14.2652 26.75 14V13C26.75 12.4696 26.9607 11.9609 27.3358 11.5858C27.7109 11.2107 28.2196 11 28.75 11C29.2804 11 29.7891 11.2107 30.1642 11.5858C30.5393 11.9609 30.75 12.4696 30.75 13V14C30.75 14.2652 30.8554 14.5196 31.0429 14.7071C31.2304 14.8946 31.4848 15 31.75 15H34.75C35.0152 15 35.2696 15.1054 35.4571 15.2929C35.6446 15.4804 35.75 15.7348 35.75 16V19C35.75 19.2652 35.8554 19.5196 36.0429 19.7071C36.2304 19.8946 36.4848 20 36.75 20H37.75C38.2804 20 38.7891 20.2107 39.1642 20.5858C39.5393 20.9609 39.75 21.4696 39.75 22C39.75 22.5304 39.5393 23.0391 39.1642 23.4142C38.7891 23.7893 38.2804 24 37.75 24H36.75C36.4848 24 36.2304 24.1054 36.0429 24.2929C35.8554 24.4804 35.75 24.7348 35.75 25V28C35.75 28.2652 35.6446 28.5196 35.4571 28.7071C35.2696 28.8946 35.0152 29 34.75 29H31.75C31.4848 29 31.2304 28.8946 31.0429 28.7071C30.8554 28.5196 30.75 28.2652 30.75 28V27C30.75 26.4696 30.5393 25.9609 30.1642 25.5858C29.7891 25.2107 29.2804 25 28.75 25C28.2196 25 27.7109 25.2107 27.3358 25.5858C26.9607 25.9609 26.75 26.4696 26.75 27V28C26.75 28.2652 26.6446 28.5196 26.4571 28.7071C26.2696 28.8946 26.0152 29 25.75 29H22.75C22.4848 29 22.2304 28.8946 22.0429 28.7071C21.8554 28.5196 21.75 28.2652 21.75 28V25C21.75 24.7348 21.8554 24.4804 22.0429 24.2929C22.2304 24.1054 22.4848 24 22.75 24H23.75C24.2804 24 24.7891 23.7893 25.1642 23.4142C25.5393 23.0391 25.75 22.5304 25.75 22C25.75 21.4696 25.5393 20.9609 25.1642 20.5858C24.7891 20.2107 24.2804 20 23.75 20H22.75C22.4848 20 22.2304 19.8946 22.0429 19.7071C21.8554 19.5196 21.75 19.2652 21.75 19V16C21.75 15.7348 21.8554 15.4804 22.0429 15.2929C22.2304 15.1054 22.4848 15 22.75 15" stroke="white" stroke-width="2" stroke-linecap="round" stroke-linejoin="round"/>
</g>
<defs>
<clipPath id="clip0">
<rect width="24" height="24" fill="white" transform="translate(17.75 8)"/>
</clipPath>
</defs>
</svg>
