<svg width="57" height="56" viewBox="0 0 57 56" fill="none" xmlns="http://www.w3.org/2000/svg">
<path d="M20.75 52V45.5L15.4008 46.6887C13.5273 47.1051 11.75 45.6794 11.75 43.7602V36H8.27681C7.13822 36 6.41475 34.7813 6.95997 33.7817L11.1395 26.1193C11.5401 25.3848 11.75 24.5616 11.75 23.725C11.75 23.1 11.75 22.4887 11.75 22C11.75 11.9693 19.557 4 29.5877 4C39.6184 4 47.7498 12.1315 47.7498 22.1622C47.7498 26.1833 46.3488 29.8976 44.092 32.9059C42.7532 34.6906 41.75 36.7686 41.75 38.9996V49.5" stroke="white" stroke-width="2" stroke-linecap="round" stroke-linejoin="round"/>
<path d="M19.75 17C19.75 19.6522 20.8036 22.1957 22.6789 24.0711C24.5543 25.9464 27.0978 27 29.75 27C32.4022 27 34.9457 25.9464 36.8211 24.0711C38.6964 22.1957 39.75 19.6522 39.75 17" stroke="white" stroke-width="2" stroke-linecap="round" stroke-linejoin="round"/>
<path d="M29.75 27C29.75 24.3478 30.8036 21.8043 32.6789 19.9289C34.5543 18.0536 37.0978 17 39.75 17" stroke="white" stroke-width="2" stroke-linecap="round" stroke-linejoin="round"/>
<path d="M19.75 17C21.0632 17 22.3636 17.2587 23.5768 17.7612C24.7901 18.2638 25.8925 19.0003 26.8211 19.9289C27.7497 20.8575 28.4862 21.9599 28.9888 23.1732C29.4913 24.3864 29.75 25.6868 29.75 27" stroke="white" stroke-width="2" stroke-linecap="round" stroke-linejoin="round"/>
<path d="M29.75 12C30.7578 12.9621 31.5465 14.1299 32.0624 15.4241C32.5784 16.7183 32.8095 18.1085 32.74 19.5" stroke="white" stroke-width="2" stroke-linecap="round" stroke-linejoin="round"/>
<path d="M26.7601 19.5C26.6906 18.1085 26.9217 16.7183 27.4377 15.4241C27.9536 14.1299 28.7423 12.9621 29.7501 12" stroke="white" stroke-width="2" stroke-linecap="round" stroke-linejoin="round"/>
</svg>
