<svg width="24" height="80" viewBox="0 0 24 80" fill="none" xmlns="http://www.w3.org/2000/svg">
<path fill-rule="evenodd" clip-rule="evenodd" d="M5.29289 8.29289C5.68342 7.90237 6.31658 7.90237 6.70711 8.29289L12 13.5858L17.2929 8.29289C17.6834 7.90237 18.3166 7.90237 18.7071 8.29289C19.0976 8.68342 19.0976 9.31658 18.7071 9.70711L12.7071 15.7071C12.3166 16.0976 11.6834 16.0976 11.2929 15.7071L5.29289 9.70711C4.90237 9.31658 4.90237 8.68342 5.29289 8.29289Z" fill="#DBDEE0"/>
<path fill-rule="evenodd" clip-rule="evenodd" d="M5.29289 36.2929C5.68342 35.9024 6.31658 35.9024 6.70711 36.2929L12 41.5858L17.2929 36.2929C17.6834 35.9024 18.3166 35.9024 18.7071 36.2929C19.0976 36.6834 19.0976 37.3166 18.7071 37.7071L12.7071 43.7071C12.3166 44.0976 11.6834 44.0976 11.2929 43.7071L5.29289 37.7071C4.90237 37.3166 4.90237 36.6834 5.29289 36.2929Z" fill="#DBDEE0"/>
<path fill-rule="evenodd" clip-rule="evenodd" d="M5.29289 64.2929C5.68342 63.9024 6.31658 63.9024 6.70711 64.2929L12 69.5858L17.2929 64.2929C17.6834 63.9024 18.3166 63.9024 18.7071 64.2929C19.0976 64.6834 19.0976 65.3166 18.7071 65.7071L12.7071 71.7071C12.3166 72.0976 11.6834 72.0976 11.2929 71.7071L5.29289 65.7071C4.90237 65.3166 4.90237 64.6834 5.29289 64.2929Z" fill="#DBDEE0"/>
</svg>
