<svg width="24" height="24" viewBox="0 0 24 24" fill="none" xmlns="http://www.w3.org/2000/svg">
<path fill-rule="evenodd" clip-rule="evenodd" d="M9 3.75C7.20507 3.75 5.75 5.20507 5.75 7C5.75 8.79493 7.20507 10.25 9 10.25C10.7949 10.25 12.25 8.79493 12.25 7C12.25 5.20507 10.7949 3.75 9 3.75ZM4.25 7C4.25 4.37665 6.37665 2.25 9 2.25C11.6234 2.25 13.75 4.37665 13.75 7C13.75 9.62335 11.6234 11.75 9 11.75C6.37665 11.75 4.25 9.62335 4.25 7Z" fill="white"/>
<path fill-rule="evenodd" clip-rule="evenodd" d="M7 15.75C5.20507 15.75 3.75 17.2051 3.75 19V21C3.75 21.4142 3.41421 21.75 3 21.75C2.58579 21.75 2.25 21.4142 2.25 21V19C2.25 16.3766 4.37665 14.25 7 14.25H11C13.6234 14.25 15.75 16.3766 15.75 19V21C15.75 21.4142 15.4142 21.75 15 21.75C14.5858 21.75 14.25 21.4142 14.25 21V19C14.25 17.2051 12.7949 15.75 11 15.75H7Z" fill="white"/>
<path fill-rule="evenodd" clip-rule="evenodd" d="M15.2736 2.94397C15.3764 2.5427 15.7849 2.3007 16.1862 2.40344C18.288 2.94158 19.758 4.83543 19.758 7.005C19.758 9.17458 18.288 11.0684 16.1862 11.6066C15.7849 11.7093 15.3764 11.4673 15.2736 11.066C15.1709 10.6648 15.4129 10.2562 15.8142 10.1534C17.2522 9.78524 18.258 8.48945 18.258 7.005C18.258 5.52056 17.2522 4.22477 15.8142 3.85656C15.4129 3.75382 15.1709 3.34524 15.2736 2.94397Z" fill="white"/>
<path fill-rule="evenodd" clip-rule="evenodd" d="M17.274 14.9625C17.3775 14.5614 17.7866 14.3203 18.1877 14.4238C20.2751 14.9627 21.7378 16.8399 21.7502 18.9957L21.7502 19H21.7502V21C21.7502 21.4142 21.4144 21.75 21.0002 21.75C20.586 21.75 20.2502 21.4142 20.2502 21V19.0023C20.2408 17.5281 19.2403 16.2448 17.8127 15.8762C17.4116 15.7726 17.1704 15.3636 17.274 14.9625Z" fill="white"/>
</svg>
