<svg width="24" height="25" viewBox="0 0 24 25" fill="none" xmlns="http://www.w3.org/2000/svg">
<path fill-rule="evenodd" clip-rule="evenodd" d="M12 4.26172C12.5523 4.26172 13 4.70943 13 5.26172V11.2617H19C19.5523 11.2617 20 11.7094 20 12.2617C20 12.814 19.5523 13.2617 19 13.2617H13V19.2617C13 19.814 12.5523 20.2617 12 20.2617C11.4477 20.2617 11 19.814 11 19.2617V13.2617H5C4.44772 13.2617 4 12.814 4 12.2617C4 11.7094 4.44772 11.2617 5 11.2617H11V5.26172C11 4.70943 11.4477 4.26172 12 4.26172Z" fill="black"/>
</svg>
