<svg width="24" height="24" viewBox="0 0 24 24" fill="none" xmlns="http://www.w3.org/2000/svg">
<path fill-rule="evenodd" clip-rule="evenodd" d="M12 7.25C12.4142 7.25 12.75 7.58579 12.75 8V11.6893L14.5303 13.4697C14.8232 13.7626 14.8232 14.2374 14.5303 14.5303C14.2374 14.8232 13.7626 14.8232 13.4697 14.5303L11.4697 12.5303C11.329 12.3897 11.25 12.1989 11.25 12V8C11.25 7.58579 11.5858 7.25 12 7.25Z" fill="white"/>
<path fill-rule="evenodd" clip-rule="evenodd" d="M20.1898 10.8887C19.6693 6.72451 16.1056 3.61461 11.9093 3.66254C7.71297 3.71047 4.22128 6.90096 3.796 11.076C3.75403 11.488 3.38594 11.7881 2.97386 11.7461C2.56178 11.7041 2.26175 11.336 2.30372 10.924C2.80632 5.98986 6.93287 2.21928 11.8922 2.16263C16.8515 2.10599 21.0631 5.78133 21.6782 10.7027C22.2934 15.624 19.1161 20.2229 14.2954 21.3888C10.1868 22.3824 6.00047 20.6124 3.79986 17.1837V20C3.79986 20.4142 3.46408 20.75 3.04986 20.75C2.63565 20.75 2.29986 20.4142 2.29986 20V15C2.29986 14.5857 2.63565 14.25 3.04986 14.25H3.53236C3.54401 14.2497 3.55564 14.2497 3.56724 14.25H8.04986C8.46408 14.25 8.79986 14.5857 8.79986 15C8.79986 15.4142 8.46408 15.75 8.04986 15.75H4.69984C6.43304 19.0552 10.2256 20.8298 13.9428 19.9308C18.0219 18.9443 20.7103 15.0529 20.1898 10.8887Z" fill="white"/>
</svg>
