<svg xmlns="http://www.w3.org/2000/svg" width="211" height="211" fill="none"><mask id="a" maskUnits="userSpaceOnUse" x="0" y="0" width="211" height="211"><circle cx="105.5" cy="105.5" r="105.5" fill="#EEB200"/></mask><g mask="url(#a)" fill="#ffd688"><path d="M8.045 142.29c1.696 2.793-3.697 4.106-3.489.858.073-1.802 2.584-2.424 3.489-.859zM18.5 135.913c1.695 2.794-3.697 4.107-3.489.859.073-1.802 2.584-2.424 3.489-.859zM1.67 131.834c1.695 2.794-3.697 4.107-3.49.859.073-1.802 2.584-2.424 3.49-.859zM12.124 125.46c1.695 2.793-3.697 4.106-3.489.858.073-1.802 2.584-2.424 3.489-.859zM32.171 127.576c1.696 2.794-3.696 4.107-3.488.859.072-1.802 2.583-2.424 3.488-.859zM42.626 121.2c1.696 2.794-3.697 4.107-3.488.859.072-1.802 2.583-2.424 3.488-.859zM25.795 117.121c1.696 2.794-3.696 4.107-3.488.859.072-1.802 2.584-2.424 3.488-.859zM36.25 110.745c1.696 2.794-3.696 4.107-3.488.859.072-1.802 2.583-2.424 3.488-.859zM56.297 112.862c1.696 2.794-3.696 4.107-3.488.859.072-1.802 2.584-2.424 3.488-.859zM66.752 106.486c1.696 2.794-3.696 4.107-3.488.859.072-1.802 2.583-2.424 3.488-.859zM49.923 102.407c1.696 2.794-3.697 4.107-3.488.859.072-1.802 2.583-2.424 3.488-.859zM60.376 96.032c1.696 2.793-3.696 4.107-3.488.858.072-1.801 2.583-2.423 3.488-.858zM80.424 98.149c1.695 2.793-3.697 4.106-3.489.858.073-1.802 2.584-2.423 3.489-.858zM90.878 91.773c1.696 2.793-3.696 4.106-3.488.858.073-1.802 2.584-2.423 3.488-.858zM74.049 87.693c1.696 2.794-3.697 4.107-3.488.859.072-1.802 2.583-2.424 3.488-.859zM84.503 81.318c1.695 2.793-3.697 4.107-3.489.858.073-1.801 2.584-2.423 3.489-.858zM4.276 112.591c1.696 2.794-3.696 4.107-3.488.859.073-1.802 2.584-2.424 3.488-.859zM17.948 104.254c1.696 2.794-3.697 4.107-3.488.859.072-1.802 2.583-2.424 3.488-.859zM28.402 97.878c1.696 2.793-3.696 4.106-3.488.858.073-1.802 2.584-2.423 3.488-.858zM11.573 93.798c1.696 2.794-3.697 4.107-3.488.859.072-1.802 2.583-2.423 3.488-.859zM22.027 87.423c1.695 2.794-3.697 4.107-3.489.859.073-1.802 2.584-2.424 3.489-.859zM42.074 89.54c1.696 2.793-3.696 4.107-3.488.859.072-1.802 2.584-2.424 3.488-.859zM52.529 83.164c1.695 2.794-3.697 4.107-3.489.859.073-1.802 2.584-2.424 3.489-.859zM35.699 79.085c1.695 2.794-3.697 4.107-3.489.859.073-1.802 2.584-2.423 3.489-.859zM46.153 72.71c1.696 2.793-3.696 4.106-3.488.858.072-1.802 2.584-2.423 3.488-.859zM66.2 74.826c1.696 2.794-3.696 4.107-3.488.859.073-1.802 2.584-2.423 3.489-.859zM76.656 68.45c1.695 2.794-3.697 4.107-3.489.86.073-1.803 2.584-2.424 3.489-.86zM59.825 64.371c1.696 2.794-3.696 4.107-3.488.859.072-1.802 2.583-2.423 3.488-.859zM70.28 57.996c1.695 2.793-3.697 4.107-3.489.858.073-1.801 2.584-2.423 3.489-.858zM21.777 164.807c1.696 2.794-3.696 4.107-3.488.859.073-1.802 2.584-2.424 3.488-.859zM32.233 158.431c1.695 2.794-3.697 4.107-3.489.859.073-1.802 2.584-2.424 3.489-.859zM15.403 154.352c1.695 2.794-3.697 4.107-3.489.859.073-1.802 2.584-2.424 3.489-.859zM25.857 147.976c1.695 2.794-3.697 4.107-3.489.859.073-1.802 2.584-2.424 3.489-.859zM45.904 150.094c1.695 2.794-3.697 4.107-3.489.859.073-1.802 2.584-2.424 3.489-.859zM56.358 143.718c1.696 2.794-3.696 4.107-3.488.859.072-1.802 2.584-2.424 3.488-.859zM39.53 139.638c1.695 2.794-3.697 4.107-3.49.859.073-1.802 2.585-2.424 3.49-.859zM49.983 133.263c1.695 2.794-3.697 4.107-3.489.859.073-1.802 2.584-2.424 3.489-.859zM70.03 135.38c1.696 2.794-3.696 4.107-3.488.859.072-1.802 2.584-2.424 3.488-.859zM80.485 129.004c1.696 2.794-3.697 4.107-3.488.859.072-1.802 2.583-2.424 3.488-.859zM63.655 124.925c1.696 2.794-3.697 4.107-3.488.859.072-1.802 2.583-2.424 3.488-.859zM74.109 118.55c1.696 2.793-3.696 4.106-3.488.858.072-1.802 2.583-2.424 3.488-.859zM94.156 120.667c1.696 2.794-3.696 4.107-3.488.859.072-1.802 2.584-2.424 3.488-.859zM104.611 114.291c1.696 2.794-3.696 4.107-3.488.859.073-1.802 2.584-2.424 3.488-.859zM87.782 110.211c1.695 2.794-3.697 4.107-3.489.859.073-1.802 2.584-2.424 3.489-.859zM98.235 103.836c1.696 2.794-3.696 4.107-3.488.859.072-1.802 2.584-2.424 3.488-.859zM1.918 54.45c1.696 2.794-3.696 4.108-3.488.86.072-1.803 2.584-2.424 3.488-.86zM15.59 46.113c1.695 2.793-3.697 4.107-3.489.858.073-1.802 2.584-2.423 3.489-.858zM26.044 39.737c1.696 2.793-3.696 4.106-3.488.858.073-1.802 2.584-2.423 3.488-.858zM9.215 35.658c1.695 2.793-3.697 4.106-3.489.858.073-1.802 2.584-2.423 3.489-.858zM19.669 29.282c1.695 2.794-3.697 4.107-3.489.859.073-1.802 2.584-2.424 3.489-.859zM39.716 31.4c1.696 2.793-3.696 4.106-3.488.858.072-1.802 2.583-2.423 3.488-.859zM50.17 25.024c1.696 2.793-3.696 4.106-3.488.858.073-1.802 2.584-2.423 3.489-.858zM33.34 20.944c1.696 2.794-3.696 4.107-3.488.859.073-1.802 2.584-2.424 3.489-.859zM43.795 14.569c1.696 2.793-3.697 4.107-3.488.858.072-1.801 2.583-2.423 3.488-.858zM1.367 22.791c1.695 2.793-3.697 4.107-3.489.859.073-1.802 2.584-2.424 3.489-.859zM11.822 16.415c1.695 2.793-3.697 4.107-3.489.858.073-1.802 2.584-2.423 3.489-.858zM5.445 5.96c1.696 2.794-3.696 4.107-3.488.859.072-1.802 2.584-2.423 3.488-.859zM25.493 8.077c1.695 2.793-3.697 4.107-3.489.859.073-1.802 2.584-2.424 3.489-.859zM35.947 1.701c1.696 2.794-3.696 4.107-3.488.859.072-1.802 2.584-2.424 3.488-.859zM19.117-2.378c1.696 2.794-3.696 4.107-3.488.859.072-1.802 2.584-2.424 3.488-.859zM5.196 83.344c1.696 2.794-3.696 4.107-3.488.859.072-1.802 2.584-2.424 3.488-.859zM15.65 76.968c1.697 2.794-3.696 4.107-3.487.859.072-1.802 2.583-2.423 3.488-.859zM9.275 66.514c1.695 2.793-3.697 4.106-3.489.858.073-1.802 2.584-2.423 3.489-.858zM29.322 68.63c1.696 2.794-3.696 4.108-3.488.86.072-1.802 2.584-2.424 3.488-.86zM39.777 62.255c1.696 2.793-3.696 4.107-3.488.859.072-1.802 2.583-2.424 3.488-.859zM22.947 58.175c1.696 2.794-3.696 4.107-3.488.859.073-1.802 2.584-2.423 3.488-.859zM33.401 51.8c1.696 2.794-3.696 4.107-3.488.859.072-1.802 2.584-2.423 3.488-.859zM53.449 53.917c1.695 2.794-3.697 4.107-3.489.859.073-1.802 2.584-2.424 3.489-.859zM63.903 47.541c1.696 2.794-3.696 4.107-3.488.859.073-1.802 2.584-2.423 3.488-.859zM47.073 43.462c1.695 2.794-3.697 4.107-3.489.859.073-1.802 2.584-2.423 3.489-.859zM57.528 37.087c1.695 2.793-3.697 4.106-3.489.858.073-1.802 2.584-2.423 3.489-.858zM103.182 83.888c1.696 2.793-3.696 4.107-3.488.858.073-1.801 2.584-2.423 3.488-.858zM113.637 77.512c1.696 2.793-3.696 4.107-3.488.858.073-1.802 2.584-2.423 3.488-.858zM96.808 73.432c1.696 2.794-3.696 4.107-3.488.859.072-1.802 2.583-2.423 3.488-.859zM107.261 67.057c1.696 2.794-3.696 4.107-3.488.859.073-1.802 2.584-2.423 3.488-.859zM127.31 69.174c1.695 2.794-3.697 4.107-3.489.859.073-1.802 2.584-2.424 3.488-.859zM137.763 62.798c1.696 2.793-3.696 4.107-3.488.858.073-1.801 2.584-2.423 3.488-.858zM120.935 58.718c1.696 2.794-3.696 4.107-3.488.859.073-1.802 2.584-2.423 3.488-.859zM131.388 52.343c1.696 2.794-3.696 4.107-3.488.859.073-1.802 2.584-2.423 3.488-.859zM151.435 54.46c1.696 2.794-3.696 4.107-3.488.86.073-1.803 2.584-2.424 3.488-.86zM161.89 48.084c1.696 2.794-3.696 4.107-3.488.859.073-1.802 2.584-2.423 3.488-.859zM145.06 44.005c1.696 2.794-3.696 4.107-3.488.859.073-1.802 2.584-2.423 3.488-.859zM155.514 37.63c1.696 2.793-3.696 4.107-3.488.859.073-1.802 2.584-2.424 3.488-.859zM175.561 39.747c1.696 2.793-3.696 4.106-3.488.858.073-1.802 2.584-2.423 3.488-.858zM186.016 33.37c1.696 2.794-3.696 4.107-3.488.86.073-1.803 2.584-2.424 3.488-.86zM169.186 29.292c1.696 2.794-3.696 4.107-3.488.859.073-1.802 2.584-2.424 3.488-.859zM179.64 22.916c1.696 2.794-3.696 4.107-3.488.859.073-1.802 2.584-2.424 3.488-.859zM88.96 60.566c1.695 2.793-3.697 4.106-3.489.858.073-1.802 2.584-2.423 3.489-.858zM99.414 54.19c1.696 2.793-3.696 4.106-3.488.858.073-1.802 2.584-2.423 3.488-.858zM82.584 50.11c1.696 2.794-3.696 4.107-3.488.86.073-1.803 2.584-2.424 3.488-.86zM93.039 43.735c1.695 2.793-3.697 4.107-3.489.859.073-1.802 2.584-2.424 3.489-.859zM113.086 45.852c1.696 2.794-3.696 4.107-3.488.859.073-1.802 2.584-2.423 3.488-.859zM123.54 39.476c1.696 2.794-3.696 4.107-3.488.859.073-1.802 2.584-2.423 3.488-.859zM106.711 35.397c1.696 2.793-3.696 4.107-3.488.858.073-1.801 2.584-2.423 3.488-.858zM117.164 29.022c1.696 2.793-3.696 4.106-3.488.858.073-1.802 2.584-2.423 3.488-.858zM137.212 31.138c1.696 2.794-3.696 4.107-3.488.859.073-1.802 2.584-2.423 3.488-.859zM147.666 24.762c1.696 2.794-3.696 4.107-3.488.859.073-1.802 2.584-2.424 3.488-.859zM130.838 20.683c1.696 2.793-3.696 4.106-3.488.858.073-1.802 2.584-2.423 3.488-.858zM141.291 14.308c1.696 2.793-3.696 4.106-3.488.858.073-1.802 2.584-2.423 3.488-.858zM161.338 16.425c1.696 2.793-3.696 4.107-3.488.858.073-1.801 2.584-2.423 3.488-.858zM171.793 10.049c1.696 2.793-3.696 4.107-3.488.858.073-1.802 2.584-2.423 3.488-.858zM154.963 5.97c1.696 2.793-3.696 4.107-3.488.858.073-1.801 2.584-2.423 3.488-.858zM165.417-.406c1.696 2.794-3.696 4.107-3.488.859.073-1.802 2.584-2.423 3.488-.859zM116.915 106.405c1.696 2.794-3.696 4.107-3.488.859.073-1.802 2.584-2.424 3.488-.859zM127.37 100.03c1.696 2.793-3.696 4.106-3.488.858.073-1.802 2.584-2.424 3.488-.859zM110.541 95.95c1.696 2.793-3.696 4.106-3.488.858.073-1.802 2.584-2.423 3.488-.858zM120.994 89.575c1.696 2.793-3.696 4.107-3.488.858.073-1.802 2.584-2.423 3.488-.858zM141.041 91.692c1.696 2.794-3.696 4.107-3.488.859.073-1.802 2.584-2.424 3.488-.859zM151.496 85.316c1.696 2.793-3.696 4.107-3.488.858.073-1.801 2.584-2.423 3.488-.858zM134.667 81.236c1.696 2.794-3.696 4.107-3.488.859.073-1.802 2.584-2.423 3.488-.859zM145.12 74.861c1.696 2.794-3.696 4.107-3.488.859.073-1.802 2.584-2.423 3.488-.859zM165.168 76.978c1.696 2.794-3.696 4.107-3.488.859.073-1.802 2.584-2.424 3.488-.859zM175.622 70.602c1.696 2.794-3.696 4.107-3.488.859.073-1.802 2.584-2.423 3.488-.859zM158.792 66.524c1.696 2.793-3.696 4.106-3.488.858.073-1.802 2.584-2.423 3.488-.858zM169.247 60.148c1.696 2.793-3.696 4.106-3.488.858.073-1.802 2.584-2.423 3.488-.858zM189.294 62.265c1.696 2.793-3.696 4.107-3.488.858.073-1.801 2.584-2.423 3.488-.858zM199.75 55.889c1.695 2.793-3.697 4.107-3.489.859.073-1.802 2.584-2.424 3.488-.859zM182.92 51.81c1.695 2.793-3.697 4.106-3.489.858.073-1.802 2.584-2.423 3.488-.858zM193.373 45.434c1.696 2.794-3.696 4.107-3.488.859.073-1.802 2.584-2.424 3.488-.859zM62.475 17.138c1.696 2.794-3.696 4.107-3.488.859.073-1.802 2.584-2.424 3.488-.859zM72.93 10.762c1.696 2.793-3.696 4.107-3.488.859.072-1.802 2.584-2.424 3.488-.859zM56.1 6.683c1.695 2.794-3.697 4.107-3.489.859.073-1.802 2.584-2.423 3.489-.859zM66.554.308c1.696 2.793-3.696 4.106-3.488.858.072-1.802 2.584-2.423 3.488-.858zM86.602 2.425c1.695 2.793-3.697 4.107-3.489.858.073-1.801 2.584-2.423 3.489-.858zM76.208 39.656c1.695 2.794-3.697 4.107-3.489.859.073-1.802 2.584-2.423 3.489-.859zM86.663 33.28c1.695 2.794-3.697 4.107-3.489.859.073-1.802 2.584-2.424 3.489-.859zM69.832 29.201c1.696 2.794-3.696 4.107-3.488.859.073-1.802 2.584-2.424 3.488-.859zM80.287 22.826c1.695 2.793-3.697 4.106-3.489.858.073-1.802 2.584-2.423 3.489-.858zM100.334 24.943c1.696 2.793-3.696 4.107-3.488.858.072-1.802 2.584-2.423 3.488-.858zM110.79 18.567c1.695 2.793-3.697 4.106-3.489.858.073-1.802 2.584-2.423 3.488-.858zM93.96 14.488c1.695 2.793-3.697 4.106-3.49.858.073-1.802 2.584-2.423 3.49-.858zM104.413 8.112c1.696 2.794-3.696 4.107-3.488.859.073-1.802 2.584-2.424 3.488-.859zM124.46 10.23c1.696 2.793-3.696 4.106-3.488.858.073-1.802 2.584-2.423 3.488-.859zM134.915 3.853c1.696 2.794-3.696 4.107-3.488.859.073-1.802 2.584-2.424 3.488-.859zM118.085-.226c1.696 2.793-3.696 4.107-3.488.858.073-1.801 2.584-2.423 3.488-.858zM127.161 208.352c1.696 2.794-3.696 4.107-3.488.859.073-1.802 2.584-2.424 3.488-.859zM147.208 210.47c1.696 2.793-3.696 4.106-3.488.858.073-1.802 2.584-2.424 3.488-.859zM157.663 204.093c1.696 2.794-3.696 4.107-3.488.859.073-1.802 2.584-2.424 3.488-.859zM140.835 200.013c1.696 2.794-3.696 4.107-3.488.859.073-1.802 2.584-2.424 3.488-.859zM151.288 193.64c1.696 2.793-3.696 4.106-3.488.858.073-1.802 2.584-2.424 3.488-.859zM48.346 211.182c1.695 2.794-3.697 4.107-3.489.859.073-1.802 2.584-2.424 3.489-.859zM58.8 204.806c1.696 2.794-3.696 4.107-3.488.859.073-1.802 2.584-2.424 3.489-.859zM41.97 200.727c1.696 2.794-3.696 4.107-3.488.859.073-1.802 2.584-2.424 3.489-.859zM52.425 194.352c1.695 2.794-3.697 4.107-3.489.859.073-1.802 2.584-2.424 3.489-.859zM72.472 196.47c1.696 2.793-3.696 4.106-3.488.858.072-1.802 2.583-2.424 3.488-.859zM82.927 190.093c1.695 2.794-3.697 4.107-3.489.859.073-1.802 2.584-2.424 3.489-.859zM66.097 186.014c1.695 2.794-3.697 4.107-3.489.859.073-1.802 2.584-2.424 3.489-.859zM76.55 179.638c1.697 2.794-3.696 4.107-3.487.859.072-1.802 2.583-2.424 3.488-.859zM96.599 181.755c1.695 2.794-3.697 4.107-3.489.859.073-1.802 2.584-2.424 3.489-.859zM107.053 175.38c1.696 2.793-3.696 4.106-3.488.858.073-1.802 2.584-2.424 3.488-.859zM90.223 171.301c1.696 2.794-3.696 4.107-3.488.859.072-1.802 2.584-2.424 3.488-.859zM100.677 164.924c1.696 2.794-3.696 4.107-3.488.859.072-1.802 2.584-2.424 3.488-.859zM120.724 167.042c1.696 2.794-3.696 4.107-3.488.859.073-1.802 2.584-2.424 3.488-.859zM131.18 160.666c1.695 2.794-3.697 4.107-3.489.859.073-1.802 2.584-2.424 3.488-.859zM114.35 156.587c1.695 2.794-3.697 4.107-3.489.859.073-1.802 2.584-2.424 3.488-.859zM124.803 150.211c1.696 2.794-3.696 4.107-3.488.859.073-1.802 2.584-2.424 3.488-.859zM34.123 187.861c1.695 2.794-3.697 4.107-3.489.859.073-1.802 2.584-2.424 3.489-.859zM44.577 181.485c1.696 2.794-3.696 4.107-3.488.859.073-1.802 2.584-2.424 3.488-.859zM27.747 177.406c1.696 2.794-3.696 4.107-3.488.859.072-1.802 2.584-2.424 3.488-.859zM38.202 171.03c1.695 2.794-3.697 4.107-3.489.859.073-1.802 2.584-2.424 3.489-.859zM58.249 173.147c1.695 2.794-3.697 4.107-3.489.859.073-1.802 2.584-2.424 3.489-.859zM68.704 166.771c1.695 2.794-3.697 4.107-3.489.859.073-1.802 2.584-2.424 3.489-.859zM51.873 162.692c1.696 2.794-3.696 4.107-3.488.859.072-1.802 2.583-2.424 3.488-.859zM62.328 156.316c1.695 2.794-3.697 4.107-3.489.859.073-1.802 2.584-2.424 3.489-.859zM82.375 158.433c1.696 2.794-3.696 4.107-3.488.859.072-1.802 2.584-2.424 3.488-.859zM92.83 152.057c1.696 2.794-3.696 4.107-3.488.859.072-1.802 2.583-2.424 3.488-.859zM76 147.98c1.695 2.793-3.697 4.106-3.489.858.073-1.802 2.584-2.424 3.488-.859zM86.454 141.603c1.696 2.794-3.696 4.107-3.488.859.072-1.802 2.583-2.424 3.488-.859zM106.501 143.72c1.696 2.794-3.696 4.107-3.488.859.073-1.802 2.584-2.424 3.488-.859zM116.956 137.344c1.696 2.794-3.696 4.107-3.488.859.073-1.802 2.584-2.424 3.488-.859zM100.126 133.265c1.696 2.794-3.696 4.107-3.488.859.072-1.802 2.583-2.424 3.488-.859zM110.58 126.89c1.696 2.793-3.696 4.106-3.488.858.073-1.802 2.584-2.424 3.488-.859zM79.83 208.532c1.695 2.794-3.697 4.107-3.49.859.073-1.802 2.584-2.424 3.49-.859zM90.284 202.156c1.696 2.794-3.696 4.107-3.488.859.072-1.802 2.583-2.424 3.488-.859zM110.331 204.273c1.696 2.794-3.696 4.107-3.488.859.073-1.802 2.584-2.424 3.488-.859zM120.785 197.897c1.696 2.794-3.696 4.107-3.488.859.073-1.802 2.584-2.424 3.488-.859zM103.955 193.818c1.696 2.794-3.696 4.107-3.488.859.073-1.802 2.584-2.424 3.488-.859zM114.41 187.443c1.695 2.794-3.697 4.107-3.489.859.073-1.802 2.584-2.424 3.488-.859zM134.457 189.56c1.696 2.794-3.696 4.107-3.488.859.073-1.802 2.584-2.424 3.488-.859zM144.912 183.183c1.696 2.794-3.696 4.107-3.488.859.073-1.802 2.584-2.424 3.488-.859zM128.082 179.104c1.696 2.794-3.696 4.107-3.488.859.073-1.802 2.584-2.424 3.488-.859zM138.536 172.73c1.696 2.793-3.696 4.106-3.488.858.073-1.802 2.584-2.424 3.488-.859zM177.816 209.076c1.696 2.794-3.696 4.107-3.488.859.073-1.802 2.584-2.424 3.488-.859zM188.271 202.7c1.696 2.794-3.696 4.107-3.488.859.073-1.802 2.584-2.424 3.488-.859zM208.318 204.817c1.696 2.794-3.696 4.107-3.488.859.073-1.802 2.584-2.424 3.488-.859zM201.942 194.362c1.696 2.794-3.696 4.107-3.488.859.073-1.802 2.584-2.424 3.488-.859zM212.397 187.986c1.696 2.794-3.696 4.107-3.488.859.073-1.802 2.584-2.424 3.488-.859zM169.97 196.21c1.695 2.793-3.697 4.106-3.489.858.073-1.802 2.584-2.424 3.488-.859zM180.423 189.833c1.696 2.794-3.696 4.107-3.488.859.073-1.802 2.584-2.424 3.488-.859zM163.593 185.754c1.696 2.794-3.696 4.107-3.488.859.073-1.802 2.584-2.424 3.488-.859zM174.047 179.378c1.696 2.794-3.696 4.107-3.488.859.073-1.802 2.584-2.424 3.488-.859zM194.094 181.495c1.696 2.794-3.696 4.107-3.488.859.073-1.802 2.584-2.424 3.488-.859zM204.55 175.12c1.695 2.793-3.697 4.106-3.489.858.073-1.802 2.584-2.424 3.488-.859zM187.72 171.04c1.696 2.794-3.696 4.107-3.488.859.073-1.802 2.584-2.424 3.488-.859zM198.173 164.665c1.696 2.794-3.696 4.107-3.488.859.073-1.802 2.584-2.424 3.488-.859zM211.846 156.326c1.696 2.794-3.696 4.107-3.488.859.073-1.802 2.584-2.424 3.488-.859zM143.484 152.782c1.696 2.794-3.696 4.107-3.488.859.073-1.802 2.584-2.424 3.488-.859zM153.94 146.406c1.695 2.794-3.697 4.107-3.489.859.073-1.802 2.584-2.424 3.488-.859zM137.108 142.327c1.696 2.794-3.696 4.107-3.488.859.073-1.802 2.584-2.424 3.488-.859zM147.563 135.951c1.696 2.794-3.696 4.107-3.488.859.073-1.802 2.584-2.424 3.488-.859zM167.61 138.068c1.696 2.794-3.696 4.107-3.488.859.073-1.802 2.584-2.424 3.488-.859zM178.065 131.692c1.696 2.794-3.696 4.107-3.488.859.073-1.802 2.584-2.424 3.488-.859zM161.235 127.612c1.696 2.794-3.696 4.107-3.488.859.073-1.802 2.584-2.424 3.488-.859zM171.69 121.237c1.695 2.794-3.697 4.107-3.489.859.073-1.802 2.584-2.424 3.488-.859zM191.737 123.354c1.696 2.794-3.696 4.107-3.488.859.073-1.802 2.584-2.424 3.488-.859zM202.191 116.978c1.696 2.794-3.696 4.107-3.488.859.073-1.802 2.584-2.424 3.488-.859zM185.361 112.9c1.696 2.793-3.696 4.106-3.488.858.073-1.802 2.584-2.424 3.488-.859zM195.816 106.524c1.696 2.794-3.696 4.107-3.488.859.073-1.802 2.584-2.424 3.488-.859zM209.488 98.185c1.696 2.794-3.696 4.107-3.488.859.073-1.802 2.584-2.423 3.488-.859zM129.261 129.46c1.696 2.793-3.696 4.106-3.488.858.073-1.802 2.584-2.424 3.488-.859zM139.716 123.084c1.696 2.794-3.696 4.107-3.488.859.073-1.802 2.584-2.424 3.488-.859zM122.885 119.004c1.696 2.794-3.696 4.107-3.488.859.073-1.802 2.584-2.424 3.488-.859zM133.34 112.63c1.696 2.793-3.696 4.106-3.488.858.073-1.802 2.584-2.424 3.488-.859zM153.387 114.746c1.696 2.794-3.696 4.107-3.488.859.073-1.802 2.584-2.424 3.488-.859zM163.842 108.37c1.696 2.794-3.696 4.107-3.488.859.073-1.802 2.584-2.424 3.488-.859zM147.013 104.291c1.696 2.794-3.696 4.107-3.488.859.073-1.802 2.584-2.424 3.488-.859zM157.466 97.915c1.696 2.794-3.696 4.107-3.488.859.073-1.802 2.584-2.423 3.488-.859zM177.513 100.032c1.696 2.794-3.696 4.107-3.488.859.073-1.802 2.584-2.424 3.488-.859zM187.968 93.656c1.696 2.794-3.696 4.107-3.488.859.073-1.802 2.584-2.423 3.488-.859zM171.14 89.577c1.695 2.793-3.697 4.107-3.489.858.073-1.801 2.584-2.423 3.488-.858zM181.592 83.202c1.696 2.793-3.696 4.107-3.488.858.073-1.801 2.584-2.423 3.488-.858zM201.64 85.319c1.696 2.793-3.696 4.106-3.488.858.073-1.802 2.584-2.423 3.488-.858zM212.094 78.943c1.696 2.793-3.696 4.107-3.488.858.073-1.801 2.584-2.423 3.488-.858zM195.265 74.863c1.696 2.794-3.696 4.107-3.488.859.073-1.802 2.584-2.424 3.488-.859zM205.72 68.488c1.695 2.794-3.697 4.107-3.489.859.073-1.802 2.584-2.424 3.488-.859zM157.217 175.3c1.696 2.793-3.696 4.106-3.488.858.073-1.802 2.584-2.424 3.488-.859zM167.671 168.923c1.696 2.794-3.696 4.107-3.488.859.073-1.802 2.584-2.424 3.488-.859zM150.842 164.844c1.696 2.794-3.696 4.107-3.488.859.073-1.802 2.584-2.424 3.488-.859zM161.295 158.47c1.696 2.793-3.696 4.106-3.488.858.073-1.802 2.584-2.424 3.488-.859zM181.343 160.586c1.696 2.794-3.696 4.107-3.488.859.073-1.802 2.584-2.424 3.488-.859zM191.798 154.21c1.696 2.794-3.696 4.107-3.488.859.073-1.802 2.584-2.424 3.488-.859zM174.968 150.131c1.696 2.794-3.696 4.107-3.488.859.073-1.802 2.584-2.424 3.488-.859zM185.422 143.755c1.696 2.794-3.696 4.107-3.488.859.073-1.802 2.584-2.424 3.488-.859zM205.47 145.872c1.695 2.794-3.697 4.107-3.489.859.073-1.802 2.584-2.424 3.488-.859zM199.094 135.417c1.696 2.794-3.696 4.107-3.488.859.073-1.802 2.584-2.424 3.488-.859zM209.548 129.042c1.696 2.794-3.696 4.107-3.488.859.073-1.802 2.584-2.424 3.488-.859z"/></g></svg>