<svg width="62" height="79" fill="none" xmlns="http://www.w3.org/2000/svg"><path d="M41.486 57.541c-.034-.331.055-.504-.018-.557 0 .456-.208-.101-.251.33l-.05-.261c-.059-.044.089.319.006.3.047.02.094.042.137.063-.017.222-.04.34-.1.415.033.196.232.374.013.848l.03-.138c-.11.396-.154.213-.204.282.01-.026.023-.054.03-.08-.056.1-.126.193-.186.286.15-.216.144-.645.092-.435-.173.423.077-.103-.019.229-.073.206-.12.117-.157.094-.04.122-.102.23-.158.343-.055-.045.117-.22-.012-.113-.047.151-.113.292-.182.44-.092-.01-.156.1-.229.224-.076.124-.176.256-.307.274a.753.753 0 00.07-.101 3.314 3.314 0 00.942-2.906 3.337 3.337 0 00-2.99-2.76 1.811 1.811 0 00-.137.019c.008-.012.007-.02-.013-.03-.064-.04-.317-.066-.035-.105-.118.008-.24.008-.357.02l-.355.052-.04-.047c-.015-.001-.032.002-.05.005-.276.046-.953.346-.872.124-.527.182-.726.176-1.371.342.487-.186-.596-.033-.072-.168-.32.004-.366.133-.608.192-.221-.006-.163-.113.04-.193l-.232.078.003-.022-.246.102c-.279-.01-.074-.098-.356-.066l-.044.105-.198-.024c.08.033-.084.082-.286.123l.004-.022-.242.058c.231-.1-.228.017-.128-.072-.21.029-.214.033-.59.11l.079.059c-.485.138-.038-.095-.438-.035l.037.07c-.596-.033-.965.237-1.406.224.242-.058.164-.138.164-.113-.183.041-.421.085-.664.136a2.338 2.338 0 00-.562.17c-.079-.102-.094-.131-.31-.15a1.33 1.33 0 00-.158.042c-.018-.044-.037-.044-.076-.041.007-.22-.108-.52-.033-.565-.033-.005-.04-.047-.042-.097a.572.572 0 00-.01-.078.377.377 0 00-.04-.111l.027-.037-.07.037c.09-.514-.232-.804-.166-1.318l.035.08-.067-.2c.027-.037.062.043.11.046l-.147-.958-.028.198c-.041-.201-.137-.325-.127-.563.176.365-.05-.319.027-.396l.066.2c-.057-.277-.057-.277-.127-.244-.089-.358.102-.271-.035-.596l.036.237c-.033.081-.126-.083-.148-.24.004-.04.02-.161.047-.04-.076-.282-.11-.721-.16-.842 0-.158.06-.118.092-.037-.17-.6-.033-.278-.203-.884l.048.002-.088-.204.04-.315-.038.118c-.04-.198-.09-.32-.104-.56l.078.083c-.127-.567.003-.671-.184-1.207.004-.04.038.033.055.073-.096-.253-.096-.385-.104-.495-.009-.117-.016-.245-.197-.505.037.026.033-.045.06-.032-.053-.08-.103-.162-.162-.235l.09-.022c-.076-.048-.15-.097-.225-.142-.004-.063-.007-.127-.015-.194l-.097-.067c-.037-.349-.42-.596-.668-.953l-.014.131c-.473-.247-.954-.56-1.548-.773-.583-.211-1.282-.302-1.899-.116l.007-.091a3.283 3.283 0 00-.49.24c-.294.024.138-.127.042-.143-.266.109-.307.17-.362.225-.047.062-.12.1-.397.275-.318.118.067-.115.198-.213-.268.16-.584.378-.841.626-.266.238-.479.496-.629.654.003.014.001.047.016.03-.209.343-.492.803-.613 1.236-.037-.022-.016-.133.02-.24-.061.147-.148.359-.142.501-.018-.061-.02-.122-.03-.181-.124.34-.114 1.02-.183 1.1.036-.042.096-.024.104.276-.03.041-.035.117-.026.21.008.091.031.21.06.294.053.192.123.414.116.609-.03-.028-.064-.19-.08-.242-.003.198.089.358.156.523l-.061-.043.223.88c-.11.155.16.842.055.799.046.318.014-.279.095.12-.037.117.09.362 0 .359l-.018-.04.057.277-.116-.16c.06.238.175.405.24.405-.007.238.083.56.027.677l-.035-.08c.14.64-.055 1.11.174 1.596-.004.037-.026.037-.04-.044l.06.403-.078-.084.21.647-.048-.003c.026.222.077.5.13.796.016.073.028.146.044.219l.016.051.027.1-.026-.028c.06.097.039.126.027.142-.033-.005-.055-.005-.076.017-.009-.01-.01-.013-.007-.017l-.08.017a.155.155 0 00-.01-.041c0 .046-.064.025-.094-.003-.012-.005.001-.014-.032-.016-.033-.005-.054-.005-.073-.006-.006.002-.01-.001-.014 0 .008.005.016.007.034.008-.165.07-.447.168-.487.232-.44.078-.118-.037-.397-.027-.32.047-.363.133-.803.168l.003-.044c-.202.04-.323.09-.601.147l.08-.035c-.447.169-.596-.032-.925.216-.198.001-.561.087-.558 0a50.18 50.18 0 01-1.57.382c-.115-.127-.121.031-.478.005l.037.073c-.401.074-.84.101-1.291.134l-.338.024a4.644 4.644 0 00-.442.07c-.295.065-.58.17-.848.312l-.063-.055c-.058.064-.116.127-.17.19a4.418 4.418 0 00-1.529 1.401 4.353 4.353 0 00-.687 1.762c-.014.347.057.856.116 1.377l-.02-.054a5.026 5.026 0 001.357 2.488c-.057-.015-.026.04-.072.023.217.114.422.37.6.484a1.754 1.754 0 01-.173-.193c.264.117.577.373.686.487.145.048.3.069.449.101.025.021.062.047.064.061.032-.002.06-.01.091-.015l.201.167c.113.028.715.099.904.003.04.047.46.059.133.085.137.002.274.004.414-.001l.41-.04.623-.087-.198-.002c-.037-.073.326-.184.524-.182-.242.102-.003.112.115.15.161-.07-.159-.045-.075-.103.205-.088.646-.187.764-.17l-.121.052c.282-.076.438.034.72-.02.245-.106.44-.081.366-.202.363-.086.155.068.276.058.165-.088.683-.136.76-.08.168-.226 1-.096 1.05-.27l.312.04c.003-.046.047-.15.29-.209.239.01.195.093.272.126l.128-.186c.432-.019.902-.069 1.388-.136.334-.049.257-.032.324-.04l.118-.009c.002.054.006.103 0 .147-.003.03-.01.034-.013.078l.036.406c.14.64.354 1.444.459 2.202l-.035-.08.08.757-.018-.556c.045.16.099.285.125.442.068.835.172 1.948.423 2.95.296.628-.091.467.147 1.073-.023-.05-.054-.066-.08-.112.081.291.172.703.32 1.012.145.323.33.63.62.965-.107.007-.021.13.077.242.093.106.21.202.16.21l.1.008c.092.186.434.509.35.505.125.058.247.116.374.167l-.015.081c.22.15.585.354.949.487.179.078.359.123.506.184.149.05.267.092.33.146a5.22 5.22 0 002.39-.354 4.635 4.635 0 002.05-1.66c.085-.223.3-.654.417-1.01l.206-.362c.056-.393-.002-.807.04-1.158.012.005.017.018.025.042a8.02 8.02 0 00-.045-.57 1.61 1.61 0 00-.047-.233 1.456 1.456 0 00-.076-.198c-.043-.277-.053-.555.017-.567-.113-.092-.058-.664-.058-.664l-.314-2.09c-.098-.647-.219-1.412-.348-2.266l-.212-1.332-.026-.175-.002-.01h.004c.374-.064 1.732-.295 2.603-.448a187.69 187.69 0 004.695-.899l.435-.09c.19-.05.378-.085.55-.157a4.161 4.161 0 001.724-1.136c.859-.955 1.075-2.046 1.01-2.731-.05-.171-.117-.616-.202-.44zm-1.45-1.856c.002.01 0 .011-.003.019-.002-.01-.004-.021.004-.019zm-1.712-1.26c-.025.001-.05-.001-.071.002.001-.011.035-.006.072-.001a.615.615 0 01.152.01c-.01.023-.086 0-.152-.01z" fill="#FFD688"/><path d="M37.8 54.33c.01-.012.009-.019-.011-.03.05.002.098.009.149.011a1.742 1.742 0 00-.137.02zm.525.096c-.026 0-.051-.003-.072.001.002-.011.035-.006.072-.001zm.153.014c-.01.02-.087-.004-.153-.01a.461.461 0 01.153.01zm1.559 1.245c.002.01-.002.011-.004.019-.002-.01-.004-.021.004-.019zm-11.642-.99c.01.002.021.004.038-.003a.051.051 0 00-.038.003zm-1.36-8.882l.065.111c-.03-.077-.05-.106-.065-.11zm5.325 8.957c-.007.004-.006.007-.013.012.08-.014.194-.029.373-.055l-.36.042zm-12.065 1.366l.025-.005c-.01.002-.023-.003-.025.005zm-.805-10.274c.001.047-.023.115-.044.183.036-.081.057-.15.045-.183z" fill="#FFD688"/><path d="M40.037 55.685c.002.01-.002.011-.004.019-.002-.01-.004-.021.004-.02zm-1.559-1.245c-.01.019-.087-.004-.153-.011a.461.461 0 01.153.01zm-.153-.014c-.026 0-.051-.003-.072 0 .002-.01.035-.005.072 0zm3.362 3.558c.025-.19-.024-.355-.063-.52.03.17.054.342.063.52zm-29.722 7.829l-.05.005c.042.011.052.006.05-.005zm29.236-8.081l.01-.116a.487.487 0 00-.01.116zM15.73 63.567l.102-.02a.75.75 0 00-.101.02zm25.471-5.835c-.003.044-.017.09-.024.137.013-.01.021-.025.034-.038-.01-.034-.008-.067-.01-.099zM22.88 72.042c-.019-.066-.033-.128-.052-.196.011.106.03.16.051.196zm18.74-14.578c-.012-.098-.043-.193-.066-.286.017.1.05.192.066.286zM31.782 71.55c.004.042.007.085.007.124a.337.337 0 00-.007-.124zM19.949 45.096c.021-.021.049-.051.07-.076.001-.015-.014-.02-.07.076zm1.638 8.032c.001-.015-.001-.029 0-.047-.001.018.001.032 0 .047zm15.418 1.092c-.015-.001-.032.002-.05.005-.15.01-.135-.014.013-.056l.037.05zm1.285.057a1.252 1.252 0 00-.16.06 1.718 1.718 0 00-.187-.023 2.32 2.32 0 01.346-.037zM54.737 30.02c-.027-.246.042-.372-.015-.413.002.337-.153-.075-.186.246l-.036-.194c-.041-.033.069.236.005.221.035.016.07.032.101.048-.012.163-.03.252-.074.306.025.147.172.277.008.627l.023-.1c-.081.293-.114.158-.153.208l.022-.061c-.042.071-.091.14-.137.213.114-.16.107-.48.069-.324-.128.316.055-.074-.015.171-.054.153-.09.087-.114.07-.032.088-.076.17-.116.253-.038-.034.088-.162-.011-.085-.035.114-.086.216-.136.324-.066-.007-.114.073-.167.168-.056.092-.13.19-.228.204a.487.487 0 00.052-.074c.55-.544.834-1.338.698-2.151a2.47 2.47 0 00-2.075-2.027c-.048-.007-.093-.014-.14-.016a.997.997 0 00-.102.013c.01-.009.005-.015-.008-.024-.047-.028-.235-.05-.027-.078-.09.005-.175.008-.264.016l-.263.04-.027-.034c-.011-.002-.022 0-.036.002-.207.035-.706.258-.647.094-.391.134-.54.13-1.016.253.359-.14-.443-.023-.053-.124-.237.004-.271.1-.451.14-.163-.005-.122-.083.03-.144l-.175.057.002-.014-.182.077c-.206-.009-.055-.073-.264-.05l-.034.078-.147-.018c.059.026-.062.06-.212.09l.002-.015-.18.044c.17-.075-.167.014-.095-.052a4.256 4.256 0 00-.436.084l.058.044c-.358.103-.027-.071-.325-.025l.027.053c-.443-.022-.716.174-1.041.168.18-.045.123-.104.122-.085-.134.033-.313.063-.49.1-.202.04-.294.07-.418.127-.06-.072-.07-.096-.227-.109-.052.013-.09.019-.117.03-.013-.03-.027-.03-.056-.03.005-.162-.079-.385-.024-.419-.026-.006-.027-.035-.03-.074a.303.303 0 00-.006-.056c-.008-.028-.013-.059-.028-.085l.02-.029-.053.027c.066-.38-.172-.595-.124-.976l.024.06-.046-.15c.02-.029.044.032.08.033l-.108-.71-.022.147c-.028-.15-.101-.241-.095-.418.132.272-.036-.235.023-.291l.047.15c-.042-.208-.042-.208-.095-.181-.066-.265.074-.203-.027-.44l.026.178c-.026.058-.093-.063-.11-.18.007-.029.014-.116.036-.027-.057-.209-.08-.535-.119-.622-.002-.118.043-.086.068-.026-.125-.445-.024-.207-.15-.653l.034.005-.065-.15.03-.235-.03.088c-.028-.146-.068-.236-.08-.414l.058.062c-.096-.421-.001-.498-.136-.895.006-.03.026.024.041.054-.07-.19-.073-.286-.076-.368-.007-.088-.012-.18-.145-.374.025.021.023-.032.043-.021-.038-.058-.078-.12-.12-.174l.067-.015a2.591 2.591 0 00-.169-.104c-.004-.046-.005-.096-.01-.146l-.073-.048c-.029-.257-.312-.443-.493-.707l-.012.099c-.35-.182-.707-.416-1.147-.572-.433-.157-.949-.225-1.407-.083l.003-.066c-.125.05-.248.107-.363.176-.216.018.103-.096.03-.105-.2.08-.227.127-.268.166-.035.046-.088.073-.293.204-.238.086.05-.087.146-.157-.2.116-.435.28-.624.463-.197.177-.352.368-.466.484.002.01.002.032.014.022-.155.256-.364.596-.454.916-.025-.017-.013-.098.017-.178-.047.108-.11.266-.107.373-.011-.045-.015-.091-.023-.136-.09.252-.085.757-.133.815.027-.033.073-.016.078.206-.024.032-.026.086-.021.154.008.07.022.154.043.219.038.14.091.304.087.451-.022-.021-.05-.142-.06-.18-.003.148.067.265.116.386l-.045-.032.167.654c-.081.114.12.622.042.592.036.238.012-.206.072.089-.028.087.067.268-.002.266l-.016-.03.043.208-.085-.119c.044.176.129.298.176.301-.003.176.062.413.02.503l-.025-.06c.105.473-.038.82.13 1.183-.006.03-.02.028-.03-.03l.046.296-.057-.062.156.48-.033-.002c.02.165.059.37.096.59.012.052.021.108.03.164l.01.038c.008.024.013.051.02.075l-.017-.018c.044.071.03.092.021.104-.022-.004-.04-.004-.055.013-.005-.007-.006-.01-.006-.014l-.06.014a.097.097 0 00-.008-.03c.002.031-.047.018-.069-.004-.01-.002.002-.01-.023-.01-.022-.004-.04-.004-.055-.005l-.011-.002a.058.058 0 00.023.007c-.121.052-.328.127-.36.171-.329.06-.088-.028-.296-.022-.238.037-.267.099-.595.122l.002-.033c-.15.029-.24.069-.447.107l.061-.024c-.328.123-.443-.023-.686.161-.147 0-.413.066-.414-.002-.42.11-.746.186-1.162.284-.084-.093-.09.023-.356.003l.027.053a9.216 9.216 0 01-.955.099c-.083.003-.167.014-.25.017a2.45 2.45 0 00-.953.282l-.046-.04a4.413 4.413 0 00-.127.144 3.22 3.22 0 00-1.641 2.342c-.012.256.041.635.087 1.018l-.014-.04a3.736 3.736 0 001.004 1.844c-.041-.011-.016.031-.054.016.161.084.312.274.441.36a1.538 1.538 0 01-.128-.143c.198.089.428.276.51.36.107.035.225.051.333.073.017.015.046.035.047.046.022 0 .046-.008.067-.012l.146.123c.083.018.53.072.67.002.028.035.339.044.1.062.102.001.203.002.307 0l.304-.03.461-.063-.148-.004c-.027-.053.24-.137.388-.133-.178.076 0 .082.084.111.117-.052-.118-.034-.056-.073.151-.065.477-.137.566-.127l-.091.037c.21-.057.324.024.534-.014.181-.078.325-.059.27-.15.27-.063.116.049.205.045.122-.067.506-.1.562-.062.123-.168.74-.07.776-.202l.233.033c.005-.034.035-.114.21-.158.178.006.146.07.203.092l.096-.138c.318-.014.668-.051 1.03-.101.246-.038.191-.021.24-.03l.09-.007a.726.726 0 010 .107c0 .022-.008.023-.01.056.006.1.02.2.026.3.104.474.262 1.069.338 1.63l-.025-.06.062.563-.011-.414c.034.12.07.21.09.33.05.619.127 1.442.313 2.186.219.465-.068.345.112.795-.017-.036-.04-.05-.06-.083.057.216.126.52.237.75.105.24.243.465.458.716-.078.006-.016.096.06.18.07.078.154.15.119.156l.073.005c.07.136.322.377.26.373.094.042.184.087.276.122l-.011.06c.163.112.433.264.705.362.132.057.267.092.372.139a.73.73 0 01.245.11c.501.044 1.15-.01 1.77-.265a3.406 3.406 0 001.519-1.23c.062-.165.22-.486.31-.749l.149-.269c.041-.29-.003-.598.029-.858.007.002.013.012.02.029a5.963 5.963 0 00-.035-.422 1.284 1.284 0 00-.033-.17.809.809 0 00-.057-.148c-.031-.207-.04-.41.013-.419-.084-.068-.043-.491-.043-.491s-.09-.595-.231-1.55c-.074-.48-.161-1.047-.26-1.68-.05-.314-.104-.642-.158-.985l-.018-.13-.002-.006.004-.001a227.88 227.88 0 001.927-.334c.965-.172 1.925-.351 2.82-.53.223-.048.443-.089.658-.136.108-.021.215-.047.32-.068.141-.038.278-.06.405-.114a3.07 3.07 0 001.278-.842c.637-.71.797-1.515.747-2.024-.024-.143-.072-.472-.133-.343zm-1.076-1.372c.001.007-.002.01-.001.014-.001-.007-.002-.014.001-.014zm-1.265-.933c-.018 0-.036 0-.054-.002-.001-.003.025 0 .054.002a.346.346 0 01.113.01c-.012.016-.065-.004-.113-.01z" fill="#FFD688"/><path d="M52.006 27.644c.01-.008.005-.015-.008-.024.037.005.073.006.11.01a.958.958 0 00-.102.014zm.39.071l-.054-.002c-.001-.003.025 0 .054.002zm.113.01c-.008.016-.065-.003-.113-.01a.346.346 0 01.113.01zm1.152.922c.002.008-.002.012 0 .016-.002-.008-.003-.015 0-.016zm-8.623-.731a.07.07 0 00.03-.002.03.03 0 00-.03.002zm-1.006-6.581l.05.082c-.027-.057-.041-.076-.05-.082zm3.943 6.637l-.01.009c.06-.01.145-.02.278-.043l-.268.034zm-8.935 1.011l.018-.004c-.011-.001-.018 0-.018.004zm-.599-7.611c-.001.036-.018.086-.03.138.025-.062.042-.111.03-.138z" fill="#FFD688"/><path d="M53.661 28.647c.001.008-.002.012-.001.016-.002-.008-.003-.015.001-.016zm-1.151-.922c-.009.015-.066-.004-.114-.01a.346.346 0 01.113.01zm-.114-.01l-.054-.002c-.001-.003.025 0 .054.002zm2.487 2.636c.02-.14-.02-.262-.047-.386.02.125.042.254.047.386zm-22.016 5.802l-.036.006c.03.002.037 0 .036-.006zm21.656-5.989l.007-.087a.433.433 0 00-.007.087zm-18.866 4.322l.077-.016c-.039.006-.06.014-.077.016zm18.866-4.322l-.015.1c.01-.01.014-.021.024-.03a.244.244 0 01-.008-.07zM40.954 40.763a2.295 2.295 0 00-.038-.144c.01.077.023.118.038.144zm13.882-10.798c-.009-.074-.031-.142-.05-.214.012.077.035.145.05.214zM47.55 40.4zm-8.769-19.598a.86.86 0 01.052-.055c.002-.011-.01-.013-.052.055zm1.135 5.353v.004h.004l-.004-.004zm.079.598c-.002-.011 0-.022-.002-.033.002.01.003.021.002.033zm11.421.811c-.01-.002-.021 0-.035.002-.11.008-.1-.012.007-.04l.028.038zm.951.041c-.045.011-.079.028-.12.042-.047-.006-.092-.013-.139-.016a1.59 1.59 0 01.259-.026zM30.325 13.48c-.018-.194.033-.296-.012-.328.002.269-.122-.062-.148.194l-.029-.153c-.033-.027.053.188.004.175.028.013.055.026.082.036-.01.131-.024.201-.06.243.02.116.137.218.008.498l.018-.082c-.065.233-.09.126-.12.167a.189.189 0 00.018-.05c-.034.06-.075.113-.109.17.09-.127.084-.38.054-.257-.102.25.044-.062-.013.135-.044.122-.071.069-.092.055-.023.072-.06.135-.092.202-.033-.027.069-.13-.007-.067-.028.09-.069.173-.108.258-.055-.005-.091.058-.133.133-.045.073-.104.15-.182.16.024-.032.039-.05.04-.06a1.942 1.942 0 00.554-1.7 1.96 1.96 0 00-1.75-1.62c-.03.002-.057.007-.082.01.007-.004.002-.01-.007-.02-.04-.022-.187-.04-.02-.06-.072.004-.14.005-.212.01l-.207.03-.022-.028a.076.076 0 00-.03.001c-.164.028-.559.205-.51.072-.309.105-.425.103-.8.199.283-.11-.35-.02-.042-.098-.187.003-.214.08-.356.114-.13-.003-.097-.066.024-.115l-.136.048.001-.015-.144.06c-.164-.008-.046-.057-.209-.04l-.025.062-.118-.017c.046.021-.05.048-.168.072v-.015l-.141.035c.138-.06-.135.008-.075-.042a3.213 3.213 0 00-.346.066l.046.035c-.285.084-.024-.057-.256-.022l.022.043c-.35-.02-.567.138-.824.131.142-.034.098-.08.096-.066-.107.025-.246.052-.39.08-.16.033-.231.056-.328.101-.046-.06-.056-.077-.18-.088-.042.01-.073.016-.094.023-.011-.027-.022-.025-.043-.025.003-.13-.062-.305-.02-.33-.022-.004-.023-.029-.024-.058 0-.018 0-.028-.004-.046-.007-.023-.011-.048-.025-.067l.017-.024-.043.021c.053-.303-.137-.472-.097-.773l.022.047-.038-.12c.017-.024.037.027.066.029l-.084-.564-.016.118c-.024-.118-.083-.19-.077-.332.104.216-.028-.185.018-.232l.038.119c-.034-.163-.034-.163-.075-.146-.053-.21.06-.16-.018-.348l.02.14c-.022.047-.073-.049-.09-.143.004-.025.014-.095.03-.023-.046-.164-.064-.423-.094-.493-.002-.093.035-.07.053-.024-.099-.353-.017-.165-.119-.518l.03.002-.053-.12.022-.187-.024.069c-.023-.118-.053-.188-.062-.327l.048.05c-.078-.332.002-.396-.108-.707.003-.026.022.021.033.045-.058-.149-.056-.228-.063-.291-.005-.071-.01-.146-.115-.297.021.018.02-.028.036-.02-.033-.048-.062-.094-.095-.139l.052-.012c-.044-.028-.089-.057-.133-.082-.003-.039-.001-.075-.008-.113l-.057-.04c-.02-.205-.246-.35-.392-.56l-.01.078c-.275-.144-.558-.33-.907-.455-.341-.125-.75-.179-1.113-.068l.005-.054a2.04 2.04 0 00-.286.14c-.174.016.082-.074.026-.082-.158.066-.18.102-.212.132-.03.037-.073.059-.232.16-.186.072.04-.067.116-.126a2.852 2.852 0 00-.493.366c-.157.141-.28.29-.368.385.002.01.001.028.01.02-.124.203-.288.471-.36.724-.02-.015-.01-.081.012-.142-.036.088-.087.212-.084.294-.01-.038-.012-.074-.018-.109-.071.199-.069.6-.108.646.021-.025.059-.013.063.162-.017.024-.02.068-.015.125a.728.728 0 00.036.173c.034.113.073.242.071.358-.017-.016-.04-.112-.049-.143-.002.115.053.21.091.308l-.037-.026.134.515c-.064.09.093.494.031.469.029.189.01-.163.06.072-.025.069.053.214-.001.212l-.011-.023.034.163-.07-.096c.038.14.105.237.141.238-.005.14.048.33.016.396l-.022-.047c.085.377-.031.651.102.934-.003.022-.017.024-.025-.025l.035.235-.048-.05.125.378-.03-.003c.015.13.046.294.076.469.01.041.018.086.025.128l.009.031c.007.02.01.041.017.058l-.017-.015c.035.059.023.075.017.083-.019-.004-.033-.005-.045.011a.027.027 0 01-.005-.01l-.049.012a.044.044 0 00-.007-.024c.001.029-.037.017-.054-.001-.008-.003.001-.011-.017-.012a.123.123 0 00-.044-.003c-.003 0-.007-.003-.01-.002.003.003.01.002.018.004-.097.042-.26.101-.286.138-.259.047-.07-.025-.234-.018-.19.028-.213.078-.47.096v-.025c-.119.024-.19.053-.353.088l.047-.022c-.26.097-.349-.02-.544.127-.116-.002-.33.052-.328-.002-.33.087-.59.149-.92.225-.066-.075-.072.016-.28 0l.021.044c-.234.043-.494.058-.757.077l-.2.012c-.08.01-.172.021-.26.04-.173.04-.34.1-.494.183l-.038-.033c-.034.038-.07.076-.1.114a2.597 2.597 0 00-.896.82c-.233.345-.36.732-.402 1.033-.01.203.033.5.066.807l-.012-.034a2.95 2.95 0 00.795 1.457c-.034-.01-.014.023-.045.014.127.069.249.217.35.286a1.275 1.275 0 01-.101-.112c.156.07.34.22.404.284.088.028.176.042.262.06.016.011.037.03.039.036.018 0 .035-.006.052-.009l.118.1c.067.017.42.058.529 0 .023.029.269.038.08.051.08.001.163.002.241 0l.241-.023.366-.05-.115-.003c-.022-.043.19-.107.306-.105-.141.06-.003.065.069.089.094-.041-.095-.027-.046-.06.12-.053.377-.11.447-.1l-.07.029c.165-.046.255.022.423-.01.144-.064.259-.047.214-.118.215-.05.093.038.164.033.096-.052.4-.081.446-.046.1-.132.585-.055.614-.16l.184.026c.003-.029.028-.09.17-.125.141.005.117.055.16.073l.075-.109c.254-.01.53-.039.815-.08.197-.029.152-.018.19-.02l.072-.005a.536.536 0 010 .086c0 .018-.004.018-.007.044l.019.24c.084.374.206.845.27 1.29l-.022-.046.046.444-.009-.329c.027.096.057.167.073.261.038.489.101 1.142.246 1.728.174.369-.054.274.088.627-.016-.03-.033-.041-.048-.067.047.171.102.413.19.592.085.19.191.37.365.567-.064.007-.013.077.045.143.057.062.125.12.097.124l.058.004c.054.11.255.298.208.296.074.034.145.069.218.1l-.01.048c.13.089.345.207.556.287.105.047.21.072.295.108a.692.692 0 01.195.086 3.03 3.03 0 001.398-.206 2.72 2.72 0 001.201-.973c.05-.13.177-.384.247-.59l.119-.214c.033-.231 0-.473.023-.678a.08.08 0 01.015.026 3.609 3.609 0 00-.027-.333c-.006-.06-.016-.094-.026-.135a1.554 1.554 0 00-.045-.118c-.024-.165-.03-.325.009-.332-.067-.053-.033-.389-.033-.389s-.068-.47-.184-1.225c-.056-.378-.128-.829-.204-1.325a57.27 57.27 0 00-.127-.78l-.014-.101v-.007h.003c.22-.038 1.015-.174 1.522-.263.762-.135 1.519-.28 2.23-.42l.518-.109.254-.053c.11-.03.221-.052.322-.094a2.479 2.479 0 001.012-.665c.503-.561.631-1.196.592-1.599-.02-.082-.06-.341-.108-.24zm-.852-1.088c0 .007 0 .007-.002.011-.001-.007-.002-.01.002-.01zm-1.002-.736c-.015 0-.03-.002-.043 0 .003-.004.02-.003.043 0a.324.324 0 01.09.006c-.008.013-.05-.002-.09-.006z" fill="#FFD688"/><path d="M28.163 11.6c.006-.005.002-.011-.007-.02l.087.007-.08.013zm.307.056c-.014 0-.028-.002-.042 0 .003-.004.02-.003.043 0zm.092.006c-.009.013-.05-.002-.091-.006a.325.325 0 01.091.006zm.911.73c.001.007.001.007-.002.012-.001-.008-.002-.011.002-.012zm-6.818-.579c.008.003.015.002.026 0-.012-.006-.02-.005-.026 0zm-.797-5.201l.04.065c-.019-.047-.032-.06-.04-.065zm3.119 5.246l-.006.008c.05-.008.113-.015.218-.033l-.212.025zm-7.066.801l.015-.003c-.008-.002-.011-.001-.015.003zm-.471-6.017c0 .029-.015.067-.026.108.02-.05.036-.088.025-.108z" fill="#FFD688"/><path d="M29.473 12.392c.001.007.001.007-.002.012-.001-.008-.002-.011.002-.012zm-.911-.73c-.009.012-.05-.002-.091-.006a.329.329 0 01.09.006zm-.092-.006c-.014 0-.028-.002-.042 0 .002-.004.02-.003.043 0zm1.967 2.085c.014-.11-.013-.206-.037-.306.02.1.038.202.037.306zm-17.402 4.586l-.03.005c.024.004.03-.001.03-.005zm17.121-4.737l.006-.069c-.006.027-.01.049-.006.07zM15.24 17.01l.058-.013c-.028.005-.049.008-.059.014z" fill="#FFD688"/><path d="M30.156 13.59c-.003.026-.01.053-.012.078.006-.004.012-.016.017-.024-.006-.014-.005-.032-.005-.053zm-10.729 8.384l-.03-.117a.265.265 0 00.03.117zM30.4 13.435c-.006-.056-.026-.114-.04-.169.011.063.03.113.04.17zm-5.76 8.249l.006.075c-.002-.032-.002-.057-.005-.075zM17.709 6.192a.608.608 0 01.044-.044c-.002-.01-.013-.012-.044.044zm.896 4.23v.004l.004-.001-.004-.003zm.065.474c0-.007.002-.015 0-.026-.003.008-.002.015 0 .026zm9.028.638a.078.078 0 00-.028.002c-.09.004-.08-.008.008-.034l.02.032zm.752.036c-.035.01-.062.021-.096.034a.608.608 0 00-.11-.014c.066-.011.137-.02.205-.02z" fill="#FFD688"/></svg>